G04 start of page 12 for group -4015 idx -4015 *
G04 Title: (unknown), toppaste *
G04 Creator: pcb 1.99z *
G04 CreationDate: Wed 16 Jun 2021 11:08:52 PM GMT UTC *
G04 For: mark *
G04 Format: Gerber/RS-274X *
G04 PCB-Dimensions (mil): 4300.00 3300.00 *
G04 PCB-Coordinate-Origin: lower left *
%MOIN*%
%FSLAX25Y25*%
%LNTOPPASTE*%
%ADD214C,0.0071*%
%ADD213R,0.0800X0.0800*%
%ADD212R,0.0440X0.0440*%
%ADD211R,0.0787X0.0787*%
%ADD210R,0.0088X0.0088*%
%ADD209R,0.1000X0.1000*%
%ADD208C,0.0001*%
%ADD207R,0.0236X0.0236*%
%ADD206R,0.0409X0.0409*%
%ADD205R,0.0500X0.0500*%
%ADD204R,0.0300X0.0300*%
%ADD203R,0.0400X0.0400*%
%ADD202R,0.0393X0.0393*%
%ADD201R,0.0138X0.0138*%
%ADD200R,0.0098X0.0098*%
%ADD199R,0.0118X0.0118*%
%ADD198R,0.0295X0.0295*%
%ADD197R,0.0512X0.0512*%
%ADD196R,0.0197X0.0197*%
G54D196*X143313Y135568D02*X144099D01*
X143313Y132420D02*X144099D01*
G54D197*X127463Y136887D02*Y136101D01*
X134549Y136887D02*Y136101D01*
X159549Y136887D02*Y136101D01*
X152463Y136887D02*Y136101D01*
G54D196*X169113Y135568D02*X169899D01*
X169113Y132420D02*X169899D01*
G54D198*X328447Y119986D02*Y119002D01*
X333565Y119986D02*Y119002D01*
G54D196*X322520Y120378D02*X323306D01*
X322520Y123526D02*X323306D01*
G54D198*X285678Y109944D02*Y108960D01*
X290796Y109944D02*Y108960D01*
X285678Y119944D02*Y118960D01*
X290796Y119944D02*Y118960D01*
G54D199*X270112Y113494D02*X270900D01*
G54D200*X264994D02*X266963D01*
X264994Y111526D02*X266963D01*
X264994Y115463D02*X266963D01*
X274049Y113494D02*X276018D01*
X274049Y111526D02*X276018D01*
X274049Y115463D02*X276018D01*
X269522Y109951D02*Y107982D01*
X271490Y109951D02*Y107982D01*
X269522Y119006D02*Y117037D01*
X271490Y119006D02*Y117037D01*
G54D196*X176932Y136887D02*Y136101D01*
X180080Y136887D02*Y136101D01*
X181113Y126920D02*X181899D01*
X181113Y130068D02*X181899D01*
G54D201*X229931Y120494D02*X231742D01*
X221270D02*X223081D01*
G54D202*X225915Y124037D02*X227096D01*
X225915Y116951D02*X227096D01*
G54D196*X258533Y120887D02*Y120101D01*
X255385Y120887D02*Y120101D01*
G54D201*X186270Y120494D02*X188081D01*
X194931D02*X196742D01*
G54D202*X190915Y116951D02*X192096D01*
X190915Y124037D02*X192096D01*
G54D196*X258580Y108887D02*Y108101D01*
X255432Y108887D02*Y108101D01*
G54D203*X188056Y153494D02*X191256D01*
X171756D02*X174956D01*
X181506Y146944D02*Y143744D01*
Y163244D02*Y160044D01*
G54D196*X188006Y169887D02*Y169101D01*
X191154Y169887D02*Y169101D01*
G54D204*X210506Y171994D02*X211206D01*
X210506Y176994D02*X211206D01*
X210506Y169494D02*X211906D01*
X210506Y174494D02*X211906D01*
X210506Y179494D02*X211906D01*
X202106Y184494D02*X203506D01*
X202106Y174494D02*X203506D01*
X196606Y184494D02*X199606D01*
X196606Y179494D02*X199606D01*
X196606Y174494D02*X199606D01*
X196606Y169494D02*X199606D01*
X214406Y184494D02*X217406D01*
X214406Y179494D02*X217406D01*
X214406Y174494D02*X217406D01*
X214406Y169494D02*X217406D01*
G54D205*X207006Y183494D02*Y170494D01*
G54D206*X166750Y180990D02*Y177998D01*
X179506Y180990D02*Y177998D01*
G54D207*X173128Y184415D02*Y181856D01*
Y177132D02*Y174573D01*
G54D196*X191154Y179887D02*Y179101D01*
X188006Y179887D02*Y179101D01*
X122654Y179887D02*Y179101D01*
X119506Y179887D02*Y179101D01*
X69580Y179887D02*Y179101D01*
X66432Y179887D02*Y179101D01*
G54D198*X168565Y198986D02*Y198002D01*
X163447Y198986D02*Y198002D01*
G54D196*X175113Y199420D02*X175899D01*
X175113Y202568D02*X175899D01*
G54D197*X183463Y198887D02*Y198101D01*
X190549Y198887D02*Y198101D01*
X157613Y181494D02*X158399D01*
X157613Y188580D02*X158399D01*
G54D206*X99750Y180990D02*Y177998D01*
X112506Y180990D02*Y177998D01*
G54D207*X106128Y184415D02*Y181856D01*
Y177132D02*Y174573D01*
G54D203*X139356Y189244D02*Y186044D01*
Y172944D02*Y169744D01*
X145906Y179494D02*X149106D01*
X129606D02*X132806D01*
G54D208*G36*
X77593Y187907D02*Y177081D01*
X88419D01*
Y187907D01*
X77593D01*
G37*
G54D199*X74935Y187415D02*X76116D01*
X74935Y185447D02*X76116D01*
X74935Y183478D02*X76116D01*
X74935Y181510D02*X76116D01*
X74935Y179541D02*X76116D01*
X74935Y177573D02*X76116D01*
X78085Y175604D02*Y174423D01*
X80053Y175604D02*Y174423D01*
X82022Y175604D02*Y174423D01*
X83990Y175604D02*Y174423D01*
X85959Y175604D02*Y174423D01*
X87927Y175604D02*Y174423D01*
X89896Y177573D02*X91077D01*
X89896Y179541D02*X91077D01*
X89896Y181510D02*X91077D01*
X89896Y183478D02*X91077D01*
X89896Y185447D02*X91077D01*
X89896Y187415D02*X91077D01*
X87927Y190565D02*Y189384D01*
X85959Y190565D02*Y189384D01*
X83990Y190565D02*Y189384D01*
X82022Y190565D02*Y189384D01*
X80053Y190565D02*Y189384D01*
X78085Y190565D02*Y189384D01*
G54D196*X197932Y198887D02*Y198101D01*
X201080Y198887D02*Y198101D01*
X226432Y184887D02*Y184101D01*
X229580Y184887D02*Y184101D01*
G54D197*X261049Y200387D02*Y199601D01*
X253963Y200387D02*Y199601D01*
X237549Y200387D02*Y199601D01*
X230463Y200387D02*Y199601D01*
G54D196*X323113Y158920D02*X323899D01*
X323113Y162068D02*X323899D01*
G54D197*X329613Y155451D02*X330399D01*
X329613Y162537D02*X330399D01*
G54D196*X300082Y184887D02*Y184101D01*
X303230Y184887D02*Y184101D01*
X265113Y190420D02*X265899D01*
X265113Y193568D02*X265899D01*
G54D203*X282656Y177944D02*Y174744D01*
Y194244D02*Y191044D01*
X272906Y184494D02*X276106D01*
X289206D02*X292406D01*
G54D197*X396325Y171899D02*X398687D01*
X396325Y160089D02*X398687D01*
G54D196*X397113Y149568D02*X397899D01*
X397113Y146420D02*X397899D01*
G54D198*X383014Y210935D02*X383998D01*
X383014Y216053D02*X383998D01*
G54D196*X396580Y195387D02*Y194601D01*
X393432Y195387D02*Y194601D01*
X383113Y193420D02*X383899D01*
X383113Y196568D02*X383899D01*
G54D197*X386601Y183675D02*Y181313D01*
X398411Y183675D02*Y181313D01*
G54D196*X388080Y203887D02*Y203101D01*
X384932Y203887D02*Y203101D01*
X383113Y134068D02*X383899D01*
X383113Y130920D02*X383899D01*
G54D203*X373756Y153494D02*X376956D01*
X390056D02*X393256D01*
X383506Y163244D02*Y160044D01*
Y146944D02*Y143744D01*
G54D198*X365506Y119986D02*Y119002D01*
X370624Y119986D02*Y119002D01*
G54D209*X213000Y140000D02*Y134000D01*
Y107000D02*Y27000D01*
X368000D01*
Y109000D02*Y27000D01*
Y140000D02*Y130000D01*
X213000Y140000D02*X368000D01*
X213006Y139994D02*X368006D01*
X213006Y232994D02*X368006D01*
X213006Y161994D02*Y139994D01*
Y232994D02*Y194994D01*
X368006Y232994D02*Y160994D01*
Y145994D02*Y139994D01*
G54D208*G36*
X363006Y157994D02*Y149994D01*
X371006D01*
Y157994D01*
X363006D01*
G37*
G54D209*X59994Y169006D02*Y154006D01*
X163994D01*
X59994Y211006D02*Y190006D01*
Y211006D02*X212994D01*
Y195006D01*
Y162006D02*Y154006D01*
X198994D02*X212994D01*
G54D196*X43613Y228420D02*X44399D01*
X43613Y231568D02*X44399D01*
X63613Y228420D02*X64399D01*
X63613Y231568D02*X64399D01*
X53613Y228420D02*X54399D01*
X53613Y231568D02*X54399D01*
X315656Y166887D02*Y166101D01*
X318804Y166887D02*Y166101D01*
X315432Y161887D02*Y161101D01*
X318580Y161887D02*Y161101D01*
X348613Y158920D02*X349399D01*
X348613Y162068D02*X349399D01*
X354113Y158920D02*X354899D01*
X354113Y162068D02*X354899D01*
X343113Y158920D02*X343899D01*
X343113Y162068D02*X343899D01*
X338113Y158920D02*X338899D01*
X338113Y162068D02*X338899D01*
G54D200*X333546Y192715D02*Y189959D01*
X331577Y192715D02*Y189959D01*
X329609Y192715D02*Y189959D01*
X327640Y192715D02*Y189959D01*
X325672Y192715D02*Y189959D01*
X323703Y192715D02*Y189959D01*
X321735Y192715D02*Y189959D01*
G54D210*X319766Y192715D02*Y189959D01*
G54D200*X335120Y174604D02*X337876D01*
X335120Y176573D02*X337876D01*
X335120Y178541D02*X337876D01*
X335120Y180510D02*X337876D01*
X335120Y182478D02*X337876D01*
X335120Y184447D02*X337876D01*
G54D210*X335120Y186415D02*X337876D01*
G54D200*X335120Y188384D02*X337876D01*
X319766Y173030D02*Y170274D01*
G54D210*X321735Y173030D02*Y170274D01*
G54D200*X323703Y173030D02*Y170274D01*
X325672Y173030D02*Y170274D01*
G54D210*X327640Y173030D02*Y170274D01*
G54D200*X329609Y173030D02*Y170274D01*
X331577Y173030D02*Y170274D01*
X333546Y173030D02*Y170274D01*
X315435Y188384D02*X318191D01*
X315435Y186415D02*X318191D01*
X315435Y184447D02*X318191D01*
X315435Y182478D02*X318191D01*
X315435Y180510D02*X318191D01*
X315435Y178541D02*X318191D01*
X315435Y176573D02*X318191D01*
X315435Y174604D02*X318191D01*
G54D208*G36*
X319569Y188581D02*Y174407D01*
X333743D01*
Y188581D01*
X319569D01*
G37*
G54D196*X346432Y174887D02*Y174101D01*
X349580Y174887D02*Y174101D01*
Y169387D02*Y168601D01*
X346432Y169387D02*Y168601D01*
X308580Y174887D02*Y174101D01*
X305432Y174887D02*Y174101D01*
X315113Y207068D02*X315899D01*
X315113Y203920D02*X315899D01*
X309080Y196387D02*Y195601D01*
X305932Y196387D02*Y195601D01*
G54D198*X304947Y202486D02*Y201502D01*
X310065Y202486D02*Y201502D01*
X345447Y180986D02*Y180002D01*
X350565Y180986D02*Y180002D01*
X345447Y187486D02*Y186502D01*
X350565Y187486D02*Y186502D01*
G54D196*X349580Y193387D02*Y192601D01*
X346432Y193387D02*Y192601D01*
X245613Y200920D02*X246399D01*
X245613Y204068D02*X246399D01*
G54D204*X238506Y122244D02*Y118744D01*
X243506Y122244D02*Y118744D01*
X248506Y122244D02*Y118744D01*
X238506Y109744D02*Y106244D01*
X248506Y109744D02*Y106244D01*
G54D196*X69113Y194568D02*X69899D01*
X69113Y191420D02*X69899D01*
X83613Y231568D02*X84399D01*
X83613Y228420D02*X84399D01*
X93613Y231568D02*X94399D01*
X93613Y228420D02*X94399D01*
X212080Y120887D02*Y120101D01*
X208932Y120887D02*Y120101D01*
X217113Y114920D02*X217899D01*
X217113Y118068D02*X217899D01*
X217113Y122920D02*X217899D01*
X217113Y126068D02*X217899D01*
X201113Y114920D02*X201899D01*
X201113Y118068D02*X201899D01*
X201113Y122920D02*X201899D01*
X201113Y126068D02*X201899D01*
X376613Y118068D02*X377399D01*
X376613Y114920D02*X377399D01*
G54D208*G36*
X338756Y122373D02*X347181Y125110D01*
X347911Y122864D01*
X339486Y120127D01*
X338756Y122373D01*
G37*
G36*
X341677Y113387D02*X347293Y115212D01*
X348023Y112965D01*
X342407Y111140D01*
X341677Y113387D01*
G37*
G36*
X340216Y117880D02*X345833Y119705D01*
X346563Y117458D01*
X340946Y115633D01*
X340216Y117880D01*
G37*
G36*
X351449Y121530D02*X357066Y123355D01*
X357796Y121108D01*
X352179Y119283D01*
X351449Y121530D01*
G37*
G36*
X349989Y126023D02*X355605Y127848D01*
X356336Y125602D01*
X350719Y123776D01*
X349989Y126023D01*
G37*
G36*
X352909Y117037D02*X358526Y118861D01*
X359256Y116615D01*
X353639Y114790D01*
X352909Y117037D01*
G37*
G54D196*X349580Y200387D02*Y199601D01*
X346432Y200387D02*Y199601D01*
X268113Y101068D02*X268899D01*
X268113Y97920D02*X268899D01*
X328113Y203920D02*X328899D01*
X328113Y207068D02*X328899D01*
X323613Y203920D02*X324399D01*
X323613Y207068D02*X324399D01*
X221113Y200920D02*X221899D01*
X221113Y204068D02*X221899D01*
X103613Y231568D02*X104399D01*
X103613Y228420D02*X104399D01*
X73613Y231568D02*X74399D01*
X73613Y228420D02*X74399D01*
X272113Y101068D02*X272899D01*
X272113Y97920D02*X272899D01*
G54D199*X263356Y63781D02*X265915D01*
X263356Y65750D02*X265915D01*
X263356Y67719D02*X265915D01*
X263356Y69687D02*X265915D01*
X263356Y71656D02*X265915D01*
X263356Y73624D02*X265915D01*
X263356Y75593D02*X265915D01*
X263356Y77561D02*X265915D01*
X281348Y62128D02*Y59569D01*
X279380Y62128D02*Y59569D01*
X277411Y62128D02*Y59569D01*
X275443Y62128D02*Y59569D01*
X273474Y62128D02*Y59569D01*
X271506Y62128D02*Y59569D01*
X269537Y62128D02*Y59569D01*
X267569Y62128D02*Y59569D01*
X283002Y77561D02*X285561D01*
X283002Y75593D02*X285561D01*
X283002Y73624D02*X285561D01*
X283002Y71656D02*X285561D01*
X283002Y69687D02*X285561D01*
X283002Y67719D02*X285561D01*
X283002Y65750D02*X285561D01*
X283002Y63781D02*X285561D01*
X267569Y81774D02*Y79215D01*
X269537Y81774D02*Y79215D01*
X271506Y81774D02*Y79215D01*
X273474Y81774D02*Y79215D01*
X275443Y81774D02*Y79215D01*
X277411Y81774D02*Y79215D01*
X279380Y81774D02*Y79215D01*
X281348Y81774D02*Y79215D01*
G54D208*G36*
X268258Y76872D02*Y64470D01*
X280659D01*
Y76872D01*
X268258D01*
G37*
G54D196*X347613Y48568D02*X348399D01*
X347613Y45420D02*X348399D01*
G54D197*X284049Y90387D02*Y89601D01*
X276963Y90387D02*Y89601D01*
X256963Y90387D02*Y89601D01*
X264049Y90387D02*Y89601D01*
G54D196*X78432Y92387D02*Y91601D01*
X81580Y92387D02*Y91601D01*
X69858Y92387D02*Y91601D01*
X73006Y92387D02*Y91601D01*
G54D211*X339632Y83069D02*Y79919D01*
Y63069D02*Y59919D01*
X355380Y83069D02*Y79919D01*
Y63069D02*Y59919D01*
G54D212*X350806Y67694D02*Y66894D01*
X344206Y67694D02*Y66894D01*
X350806Y76094D02*Y75294D01*
X344206Y76094D02*Y75294D01*
G54D211*X380632Y83069D02*Y79919D01*
Y63069D02*Y59919D01*
X396380Y83069D02*Y79919D01*
Y63069D02*Y59919D01*
G54D212*X391806Y67694D02*Y66894D01*
X385206Y67694D02*Y66894D01*
X391806Y76094D02*Y75294D01*
X385206Y76094D02*Y75294D01*
G54D196*X388613Y48568D02*X389399D01*
X388613Y45420D02*X389399D01*
X397113D02*X397899D01*
X397113Y48568D02*X397899D01*
X356113Y45420D02*X356899D01*
X356113Y48568D02*X356899D01*
G54D204*X300256Y107494D02*X301756D01*
X312256D02*X313756D01*
X300256Y113494D02*X301756D01*
X300256Y119494D02*X301756D01*
X312256D02*X313756D01*
G54D196*X322613Y111068D02*X323399D01*
X322613Y107920D02*X323399D01*
X330613D02*X331399D01*
X330613Y111068D02*X331399D01*
X282113Y103068D02*X282899D01*
X282113Y99920D02*X282899D01*
X288613Y84068D02*X289399D01*
X288613Y80920D02*X289399D01*
G54D198*X297514Y85553D02*X298498D01*
X297514Y80435D02*X298498D01*
G54D209*X368006Y108994D02*Y103994D01*
Y232994D02*Y160994D01*
Y232994D02*X408006D01*
X368006Y103994D02*X408006D01*
Y232994D02*Y103994D01*
X368006Y145994D02*Y129994D01*
G54D213*X367006Y153994D02*Y152994D01*
G54D198*X237014Y78435D02*X237998D01*
X237014Y83553D02*X237998D01*
X237014Y99053D02*X237998D01*
X237014Y93935D02*X237998D01*
G54D214*X237696Y89684D03*
X236316D03*
X237696Y88304D03*
X236316D03*
G54D198*X245565Y62486D02*Y61502D01*
X240447Y62486D02*Y61502D01*
G54D196*X257613Y61068D02*X258399D01*
X257613Y57920D02*X258399D01*
X253080Y57887D02*Y57101D01*
X249932Y57887D02*Y57101D01*
Y52887D02*Y52101D01*
X253080Y52887D02*Y52101D01*
G54D198*X249014Y82553D02*X249998D01*
X249014Y77435D02*X249998D01*
G54D196*X254613Y82068D02*X255399D01*
X254613Y78920D02*X255399D01*
G54D198*X246514Y72553D02*X247498D01*
X246514Y67435D02*X247498D01*
G54D196*X252613Y73068D02*X253399D01*
X252613Y69920D02*X253399D01*
X286113Y50568D02*X286899D01*
X286113Y47420D02*X286899D01*
G54D198*X280514Y51553D02*X281498D01*
X280514Y46435D02*X281498D01*
G54D196*X274607Y46080D02*X275393D01*
X274607Y42932D02*X275393D01*
G54D198*X268514Y47059D02*X269498D01*
X268514Y41941D02*X269498D01*
X261514Y41935D02*X262498D01*
X261514Y47053D02*X262498D01*
X296514Y50553D02*X297498D01*
X296514Y45435D02*X297498D01*
G54D196*X291113Y50568D02*X291899D01*
X291113Y47420D02*X291899D01*
G54D198*X255008Y41935D02*X255992D01*
X255008Y47053D02*X255992D01*
G54D197*X308613Y81951D02*X309399D01*
X308613Y89037D02*X309399D01*
G54D196*X306113Y74568D02*X306899D01*
X306113Y71420D02*X306899D01*
X306113Y63420D02*X306899D01*
X306113Y66568D02*X306899D01*
X300113Y62568D02*X300899D01*
X300113Y59420D02*X300899D01*
X298932Y72387D02*Y71601D01*
X302080Y72387D02*Y71601D01*
X298926Y67393D02*Y66607D01*
X302074Y67393D02*Y66607D01*
X99580Y92387D02*Y91601D01*
X96432Y92387D02*Y91601D01*
X109580Y92387D02*Y91601D01*
X106432Y92387D02*Y91601D01*
X271113Y127068D02*X271899D01*
X271113Y123920D02*X271899D01*
X398113Y73994D02*X398899D01*
X398113Y77142D02*X398899D01*
X357113Y73994D02*X357899D01*
X357113Y77142D02*X357899D01*
G54D197*X308411Y212175D02*Y209813D01*
X296601Y212175D02*Y209813D01*
M02*
