G04 start of page 11 for group -4078 idx -4078 *
G04 Title: (unknown), bottomsilk *
G04 Creator: pcb 1.99z *
G04 CreationDate: Thu 02 Apr 2020 08:31:54 PM GMT UTC *
G04 For: mark *
G04 Format: Gerber/RS-274X *
G04 PCB-Dimensions (mil): 4300.00 3300.00 *
G04 PCB-Coordinate-Origin: lower left *
%MOIN*%
%FSLAX25Y25*%
%LNBOTTOMSILK*%
%ADD157C,0.0098*%
%ADD156C,0.0061*%
%ADD155C,0.0079*%
%ADD154C,0.0250*%
%ADD153C,0.0118*%
%ADD152C,0.0100*%
%ADD151C,0.0080*%
%ADD150C,0.0060*%
G54D150*X264006Y190494D02*X263006Y190994D01*
X253006Y184994D02*X254006D01*
X313006Y223494D02*X318506D01*
G54D151*X117644Y168734D02*X122368D01*
X117644Y161254D02*X122368D01*
X129144Y134254D02*X133868D01*
X129144Y141734D02*X133868D01*
G54D152*X110833Y64431D02*Y46557D01*
X99179D02*X110833D01*
X99179Y64431D02*Y46557D01*
Y64431D02*X110822D01*
G54D151*X119761Y149887D02*Y149101D01*
X114251Y149887D02*Y149101D01*
X147761Y161887D02*Y161101D01*
X142251Y161887D02*Y161101D01*
G54D150*X152726Y141569D02*Y139758D01*
X163081D01*
X152726Y160230D02*Y158419D01*
Y160230D02*X163081D01*
X180285Y141569D02*Y139758D01*
X169931D02*X180285D01*
Y160230D02*Y158419D01*
X169931Y160230D02*X180285D01*
G54D153*X149506Y136994D03*
G54D152*X124506Y119494D02*Y100494D01*
Y119494D02*X155506D01*
Y100494D01*
X124506D02*X137506D01*
X142506D02*X155506D01*
X142506D02*G75*G03X137506Y100494I-2500J0D01*G01*
G54D151*X160251Y96387D02*Y95601D01*
X165761Y96387D02*Y95601D01*
G54D152*X93495Y253821D02*X111369D01*
Y242167D01*
X93495D02*X111369D01*
X93495Y253810D02*Y242167D01*
X372184Y228170D03*
G54D150*X358626Y218294D02*X363493Y216712D01*
X356407Y223569D02*X356163Y222820D01*
X357867Y228062D02*X357623Y227313D01*
X368389Y219675D02*X368145Y218926D01*
X369848Y224169D02*X369605Y223420D01*
X362519Y230276D02*X364578Y229607D01*
G54D154*X232006Y192494D03*
G54D150*X211506Y193994D02*X228006D01*
X211506Y194994D02*Y193994D01*
X228006Y194994D02*Y193994D01*
X211506Y212994D02*X228006D01*
X211506D02*Y211994D01*
X228006Y212994D02*Y211994D01*
X125106Y195144D03*
G54D151*X193761Y196387D02*Y195601D01*
X188251Y196387D02*Y195601D01*
G54D150*X307500Y122500D03*
G54D151*X145761Y206387D02*Y205601D01*
X140251Y206387D02*Y205601D01*
G54D150*X181294Y217730D02*Y215919D01*
X170940Y217730D02*X181294D01*
Y199069D02*Y197258D01*
X170940D02*X181294D01*
X153735Y217730D02*Y215919D01*
Y217730D02*X164089D01*
X153735Y199069D02*Y197258D01*
X164089D01*
G54D153*X184515Y220494D03*
G54D152*X138506Y261994D02*Y242994D01*
Y261994D02*X169506D01*
Y242994D01*
X138506D02*X151506D01*
X156506D02*X169506D01*
X156506D02*G75*G03X151506Y242994I-2500J0D01*G01*
G54D151*X149113Y241249D02*X149899D01*
X149113Y235739D02*X149899D01*
X260144Y268234D02*X264868D01*
X260144Y260754D02*X264868D01*
X192613Y103739D02*X193399D01*
X192613Y109249D02*X193399D01*
G54D155*X264459Y197628D03*
X263474Y200187D02*Y198415D01*
X261703D02*X263474D01*
X261703Y208258D02*X263474D01*
Y206486D01*
X253632Y208258D02*Y206486D01*
Y208258D02*X255404D01*
X253632Y198415D02*X255404D01*
X253632Y200187D02*Y198415D01*
G54D156*X250254Y174388D02*Y172813D01*
Y174388D02*X251829D01*
X250254Y153915D02*X251829D01*
X250254Y155490D02*Y153915D01*
X270726Y155490D02*Y153915D01*
X269151D02*X270726D01*
X269151Y174388D02*X270726D01*
Y172813D01*
G54D157*X248679Y152341D03*
G54D151*X282113Y169249D02*X282899D01*
X282113Y163739D02*X282899D01*
G54D150*X275730Y248394D03*
G54D151*X246246Y255856D02*Y251132D01*
X238766Y255856D02*Y251132D01*
G54D150*X107406Y40694D02*Y43494D01*
X107806Y43894D01*
X108606D01*
X109006Y43494D01*
Y40694D02*Y43494D01*
X109966Y41094D02*X110366Y40694D01*
X111166D01*
X111566Y41094D01*
X111166Y43894D02*X111566Y43494D01*
X110366Y43894D02*X111166D01*
X109966Y43494D02*X110366Y43894D01*
Y42134D02*X111166D01*
X111566Y41094D02*Y41734D01*
Y42534D02*Y43494D01*
Y42534D02*X111166Y42134D01*
X111566Y41734D02*X111166Y42134D01*
X112526Y43494D02*X112926Y43894D01*
X112526Y41094D02*Y43494D01*
Y41094D02*X112926Y40694D01*
X113726D01*
X114126Y41094D01*
Y43494D01*
X113726Y43894D02*X114126Y43494D01*
X112926Y43894D02*X113726D01*
X112526Y43094D02*X114126Y41494D01*
X116286Y40694D02*X116686Y41094D01*
X115486Y40694D02*X116286D01*
X115086Y41094D02*X115486Y40694D01*
X115086Y41094D02*Y43494D01*
X115486Y43894D01*
X116286Y42134D02*X116686Y42534D01*
X115086Y42134D02*X116286D01*
X115486Y43894D02*X116286D01*
X116686Y43494D01*
Y42534D02*Y43494D01*
X122866Y59294D02*X123906D01*
X122306Y58734D02*X122866Y59294D01*
X122306Y56654D02*Y58734D01*
Y56654D02*X122866Y56094D01*
X123906D01*
X124866Y56494D02*X125266Y56094D01*
X126066D01*
X126466Y56494D01*
X126066Y59294D02*X126466Y58894D01*
X125266Y59294D02*X126066D01*
X124866Y58894D02*X125266Y59294D01*
Y57534D02*X126066D01*
X126466Y56494D02*Y57134D01*
Y57934D02*Y58894D01*
Y57934D02*X126066Y57534D01*
X126466Y57134D02*X126066Y57534D01*
X127426Y56494D02*X127826Y56094D01*
X128626D01*
X129026Y56494D01*
X128626Y59294D02*X129026Y58894D01*
X127826Y59294D02*X128626D01*
X127426Y58894D02*X127826Y59294D01*
Y57534D02*X128626D01*
X129026Y56494D02*Y57134D01*
Y57934D02*Y58894D01*
Y57934D02*X128626Y57534D01*
X129026Y57134D02*X128626Y57534D01*
X129986Y56494D02*X130386Y56094D01*
X131586D01*
X131986Y56494D01*
Y57294D01*
X129986Y59294D02*X131986Y57294D01*
X129986Y59294D02*X131986D01*
X151706Y53994D02*Y55594D01*
X151306Y55994D01*
X150506D02*X151306D01*
X150106Y55594D02*X150506Y55994D01*
X150106Y54394D02*Y55594D01*
X148506Y54394D02*X151706D01*
X150106Y55034D02*X148506Y55994D01*
X149706Y56954D02*X151706Y58554D01*
X149706Y56954D02*Y58954D01*
X148506Y58554D02*X151706D01*
X148906Y59914D02*X148506Y60314D01*
X148906Y59914D02*X151306D01*
X151706Y60314D01*
Y61114D01*
X151306Y61514D01*
X148906D02*X151306D01*
X148506Y61114D02*X148906Y61514D01*
X148506Y60314D02*Y61114D01*
X149306Y59914D02*X150906Y61514D01*
X151066Y62474D02*X151706Y63114D01*
X148506D02*X151706D01*
X148506Y62474D02*Y63674D01*
X171706Y53920D02*Y55520D01*
X171306Y55920D01*
X170506D02*X171306D01*
X170106Y55520D02*X170506Y55920D01*
X170106Y54320D02*Y55520D01*
X168506Y54320D02*X171706D01*
X170106Y54960D02*X168506Y55920D01*
X169706Y56880D02*X171706Y58480D01*
X169706Y56880D02*Y58880D01*
X168506Y58480D02*X171706D01*
X168906Y59840D02*X168506Y60240D01*
X168906Y59840D02*X171306D01*
X171706Y60240D01*
Y61040D01*
X171306Y61440D01*
X168906D02*X171306D01*
X168506Y61040D02*X168906Y61440D01*
X168506Y60240D02*Y61040D01*
X169306Y59840D02*X170906Y61440D01*
X168906Y62400D02*X168506Y62800D01*
X168906Y62400D02*X171306D01*
X171706Y62800D01*
Y63600D01*
X171306Y64000D01*
X168906D02*X171306D01*
X168506Y63600D02*X168906Y64000D01*
X168506Y62800D02*Y63600D01*
X169306Y62400D02*X170906Y64000D01*
X93506Y60894D02*Y61934D01*
X92946Y62494D02*X93506Y61934D01*
X90866Y62494D02*X92946D01*
X90866D02*X90306Y61934D01*
Y60894D02*Y61934D01*
X90706Y59934D02*X90306Y59534D01*
Y58734D02*Y59534D01*
Y58734D02*X90706Y58334D01*
X93506Y58734D02*X93106Y58334D01*
X93506Y58734D02*Y59534D01*
X93106Y59934D02*X93506Y59534D01*
X91746Y58734D02*Y59534D01*
X90706Y58334D02*X91346D01*
X92146D02*X93106D01*
X92146D02*X91746Y58734D01*
X91346Y58334D02*X91746Y58734D01*
X90946Y57374D02*X90306Y56734D01*
X93506D01*
Y56174D02*Y57374D01*
X90706Y55214D02*X90306Y54814D01*
Y54014D02*Y54814D01*
Y54014D02*X90706Y53614D01*
X93506Y54014D02*X93106Y53614D01*
X93506Y54014D02*Y54814D01*
X93106Y55214D02*X93506Y54814D01*
X91746Y54014D02*Y54814D01*
X90706Y53614D02*X91346D01*
X92146D02*X93106D01*
X92146D02*X91746Y54014D01*
X91346Y53614D02*X91746Y54014D01*
X120622Y69126D02*X122222D01*
X122622Y69526D01*
Y70326D01*
X122222Y70726D02*X122622Y70326D01*
X121022Y70726D02*X122222D01*
X121022Y69126D02*Y72326D01*
X121662Y70726D02*X122622Y72326D01*
X123582Y69526D02*X123982Y69126D01*
X124782D01*
X125182Y69526D01*
X124782Y72326D02*X125182Y71926D01*
X123982Y72326D02*X124782D01*
X123582Y71926D02*X123982Y72326D01*
Y70566D02*X124782D01*
X125182Y69526D02*Y70166D01*
Y70966D02*Y71926D01*
Y70966D02*X124782Y70566D01*
X125182Y70166D02*X124782Y70566D01*
X126142Y69766D02*X126782Y69126D01*
Y72326D01*
X126142D02*X127342D01*
X128302Y69766D02*X128942Y69126D01*
Y72326D01*
X128302D02*X129502D01*
X114066Y96494D02*X115106D01*
X113506Y95934D02*X114066Y96494D01*
X113506Y93854D02*Y95934D01*
Y93854D02*X114066Y93294D01*
X115106D01*
X116066Y93694D02*X116466Y93294D01*
X117266D01*
X117666Y93694D01*
X117266Y96494D02*X117666Y96094D01*
X116466Y96494D02*X117266D01*
X116066Y96094D02*X116466Y96494D01*
Y94734D02*X117266D01*
X117666Y93694D02*Y94334D01*
Y95134D02*Y96094D01*
Y95134D02*X117266Y94734D01*
X117666Y94334D02*X117266Y94734D01*
X118626Y93694D02*X119026Y93294D01*
X119826D01*
X120226Y93694D01*
X119826Y96494D02*X120226Y96094D01*
X119026Y96494D02*X119826D01*
X118626Y96094D02*X119026Y96494D01*
Y94734D02*X119826D01*
X120226Y93694D02*Y94334D01*
Y95134D02*Y96094D01*
Y95134D02*X119826Y94734D01*
X120226Y94334D02*X119826Y94734D01*
X121186Y93934D02*X121826Y93294D01*
Y96494D01*
X121186D02*X122386D01*
X133308Y97387D02*Y98987D01*
Y97387D02*X133708Y96987D01*
X134508D01*
X134908Y97387D02*X134508Y96987D01*
X134908Y97387D02*Y98587D01*
X133308D02*X136508D01*
X134908Y97947D02*X136508Y96987D01*
X133708Y96027D02*X133308Y95627D01*
Y94827D02*Y95627D01*
Y94827D02*X133708Y94427D01*
X136508Y94827D02*X136108Y94427D01*
X136508Y94827D02*Y95627D01*
X136108Y96027D02*X136508Y95627D01*
X134748Y94827D02*Y95627D01*
X133708Y94427D02*X134348D01*
X135148D02*X136108D01*
X135148D02*X134748Y94827D01*
X134348Y94427D02*X134748Y94827D01*
X136108Y93467D02*X136508Y93067D01*
X133708Y93467D02*X136108D01*
X133708D02*X133308Y93067D01*
Y92267D02*Y93067D01*
Y92267D02*X133708Y91867D01*
X136108D01*
X136508Y92267D02*X136108Y91867D01*
X136508Y92267D02*Y93067D01*
X135708Y93467D02*X134108Y91867D01*
X136108Y90907D02*X136508Y90507D01*
X135468Y90907D02*X136108D01*
X135468D02*X134908Y90347D01*
Y89867D02*Y90347D01*
Y89867D02*X135468Y89307D01*
X136108D01*
X136508Y89707D02*X136108Y89307D01*
X136508Y89707D02*Y90507D01*
X134348Y90907D02*X134908Y90347D01*
X133708Y90907D02*X134348D01*
X133708D02*X133308Y90507D01*
Y89707D02*Y90507D01*
Y89707D02*X133708Y89307D01*
X134348D01*
X134908Y89867D02*X134348Y89307D01*
X155506Y95894D02*Y96934D01*
X154946Y97494D02*X155506Y96934D01*
X152866Y97494D02*X154946D01*
X152866D02*X152306Y96934D01*
Y95894D02*Y96934D01*
X152706Y94934D02*X152306Y94534D01*
Y93734D02*Y94534D01*
Y93734D02*X152706Y93334D01*
X155506Y93734D02*X155106Y93334D01*
X155506Y93734D02*Y94534D01*
X155106Y94934D02*X155506Y94534D01*
X153746Y93734D02*Y94534D01*
X152706Y93334D02*X153346D01*
X154146D02*X155106D01*
X154146D02*X153746Y93734D01*
X153346Y93334D02*X153746Y93734D01*
X152946Y92374D02*X152306Y91734D01*
X155506D01*
Y91174D02*Y92374D01*
X154306Y90214D02*X152306Y88614D01*
X154306Y88214D02*Y90214D01*
X152306Y88614D02*X155506D01*
X109656Y154049D02*X112856D01*
Y152449D02*Y154049D01*
X110056Y151489D02*X109656Y151089D01*
Y150289D02*Y151089D01*
Y150289D02*X110056Y149889D01*
X112856Y150289D02*X112456Y149889D01*
X112856Y150289D02*Y151089D01*
X112456Y151489D02*X112856Y151089D01*
X111096Y150289D02*Y151089D01*
X110056Y149889D02*X110696D01*
X111496D02*X112456D01*
X111496D02*X111096Y150289D01*
X110696Y149889D02*X111096Y150289D01*
X112456Y148929D02*X112856Y148529D01*
X110056Y148929D02*X112456D01*
X110056D02*X109656Y148529D01*
Y147729D02*Y148529D01*
Y147729D02*X110056Y147329D01*
X112456D01*
X112856Y147729D02*X112456Y147329D01*
X112856Y147729D02*Y148529D01*
X112056Y148929D02*X110456Y147329D01*
X110296Y146369D02*X109656Y145729D01*
X112856D01*
Y145169D02*Y146369D01*
X110490Y136418D02*X111530D01*
X109930Y135858D02*X110490Y136418D01*
X109930Y133778D02*Y135858D01*
Y133778D02*X110490Y133218D01*
X111530D01*
X112490Y133618D02*X112890Y133218D01*
X113690D01*
X114090Y133618D01*
X113690Y136418D02*X114090Y136018D01*
X112890Y136418D02*X113690D01*
X112490Y136018D02*X112890Y136418D01*
Y134658D02*X113690D01*
X114090Y133618D02*Y134258D01*
Y135058D02*Y136018D01*
Y135058D02*X113690Y134658D01*
X114090Y134258D02*X113690Y134658D01*
X115050Y133858D02*X115690Y133218D01*
Y136418D01*
X115050D02*X116250D01*
X117210Y136018D02*X117610Y136418D01*
X117210Y133618D02*Y136018D01*
Y133618D02*X117610Y133218D01*
X118410D01*
X118810Y133618D01*
Y136018D01*
X118410Y136418D02*X118810Y136018D01*
X117610Y136418D02*X118410D01*
X117210Y135618D02*X118810Y134018D01*
X159416Y136844D02*X160456D01*
X158856Y136284D02*X159416Y136844D01*
X158856Y134204D02*Y136284D01*
Y134204D02*X159416Y133644D01*
X160456D01*
X161416Y134044D02*X161816Y133644D01*
X162616D01*
X163016Y134044D01*
X162616Y136844D02*X163016Y136444D01*
X161816Y136844D02*X162616D01*
X161416Y136444D02*X161816Y136844D01*
Y135084D02*X162616D01*
X163016Y134044D02*Y134684D01*
Y135484D02*Y136444D01*
Y135484D02*X162616Y135084D01*
X163016Y134684D02*X162616Y135084D01*
X163976Y136444D02*X164376Y136844D01*
X163976Y134044D02*Y136444D01*
Y134044D02*X164376Y133644D01*
X165176D01*
X165576Y134044D01*
Y136444D01*
X165176Y136844D02*X165576Y136444D01*
X164376Y136844D02*X165176D01*
X163976Y136044D02*X165576Y134444D01*
X166936Y136844D02*X168536Y133644D01*
X166536D02*X168536D01*
X128607Y143344D02*X130207D01*
X130607Y143744D01*
Y144544D01*
X130207Y144944D02*X130607Y144544D01*
X129007Y144944D02*X130207D01*
X129007Y143344D02*Y146544D01*
X129647Y144944D02*X130607Y146544D01*
X131567Y143744D02*X131967Y143344D01*
X132767D01*
X133167Y143744D01*
X132767Y146544D02*X133167Y146144D01*
X131967Y146544D02*X132767D01*
X131567Y146144D02*X131967Y146544D01*
Y144784D02*X132767D01*
X133167Y143744D02*Y144384D01*
Y145184D02*Y146144D01*
Y145184D02*X132767Y144784D01*
X133167Y144384D02*X132767Y144784D01*
X134127Y146144D02*X134527Y146544D01*
X134127Y143744D02*Y146144D01*
Y143744D02*X134527Y143344D01*
X135327D01*
X135727Y143744D01*
Y146144D01*
X135327Y146544D02*X135727Y146144D01*
X134527Y146544D02*X135327D01*
X134127Y145744D02*X135727Y144144D01*
X137087Y146544D02*X138687Y143344D01*
X136687D02*X138687D01*
X111356Y189744D02*Y192544D01*
X111756Y192944D01*
X112556D01*
X112956Y192544D01*
Y189744D02*Y192544D01*
X113916Y190144D02*X114316Y189744D01*
X115116D01*
X115516Y190144D01*
X115116Y192944D02*X115516Y192544D01*
X114316Y192944D02*X115116D01*
X113916Y192544D02*X114316Y192944D01*
Y191184D02*X115116D01*
X115516Y190144D02*Y190784D01*
Y191584D02*Y192544D01*
Y191584D02*X115116Y191184D01*
X115516Y190784D02*X115116Y191184D01*
X116476Y192544D02*X116876Y192944D01*
X116476Y190144D02*Y192544D01*
Y190144D02*X116876Y189744D01*
X117676D01*
X118076Y190144D01*
Y192544D01*
X117676Y192944D02*X118076Y192544D01*
X116876Y192944D02*X117676D01*
X116476Y192144D02*X118076Y190544D01*
X119036Y191744D02*X120636Y189744D01*
X119036Y191744D02*X121036D01*
X120636Y189744D02*Y192944D01*
X138970Y172468D02*Y173508D01*
X138410Y174068D02*X138970Y173508D01*
X136330Y174068D02*X138410D01*
X136330D02*X135770Y173508D01*
Y172468D02*Y173508D01*
X136170Y171508D02*X135770Y171108D01*
Y170308D02*Y171108D01*
Y170308D02*X136170Y169908D01*
X138970Y170308D02*X138570Y169908D01*
X138970Y170308D02*Y171108D01*
X138570Y171508D02*X138970Y171108D01*
X137210Y170308D02*Y171108D01*
X136170Y169908D02*X136810D01*
X137610D02*X138570D01*
X137610D02*X137210Y170308D01*
X136810Y169908D02*X137210Y170308D01*
X136170Y168948D02*X135770Y168548D01*
Y167348D02*Y168548D01*
Y167348D02*X136170Y166948D01*
X136970D01*
X138970Y168948D02*X136970Y166948D01*
X138970D02*Y168948D01*
X136170Y165988D02*X135770Y165588D01*
Y164788D02*Y165588D01*
Y164788D02*X136170Y164388D01*
X138970Y164788D02*X138570Y164388D01*
X138970Y164788D02*Y165588D01*
X138570Y165988D02*X138970Y165588D01*
X137210Y164788D02*Y165588D01*
X136170Y164388D02*X136810D01*
X137610D02*X138570D01*
X137610D02*X137210Y164788D01*
X136810Y164388D02*X137210Y164788D01*
X144131Y178606D02*X147331D01*
Y177006D02*Y178606D01*
X144531Y176046D02*X144131Y175646D01*
Y174846D02*Y175646D01*
Y174846D02*X144531Y174446D01*
X147331Y174846D02*X146931Y174446D01*
X147331Y174846D02*Y175646D01*
X146931Y176046D02*X147331Y175646D01*
X145571Y174846D02*Y175646D01*
X144531Y174446D02*X145171D01*
X145971D02*X146931D01*
X145971D02*X145571Y174846D01*
X145171Y174446D02*X145571Y174846D01*
X146931Y173486D02*X147331Y173086D01*
X144531Y173486D02*X146931D01*
X144531D02*X144131Y173086D01*
Y172286D02*Y173086D01*
Y172286D02*X144531Y171886D01*
X146931D01*
X147331Y172286D02*X146931Y171886D01*
X147331Y172286D02*Y173086D01*
X146531Y173486D02*X144931Y171886D01*
X144131Y169326D02*Y170926D01*
X145731D01*
X145331Y170526D01*
Y169726D02*Y170526D01*
Y169726D02*X145731Y169326D01*
X146931D01*
X147331Y169726D02*X146931Y169326D01*
X147331Y169726D02*Y170526D01*
X146931Y170926D02*X147331Y170526D01*
X109846Y178949D02*Y180549D01*
Y178949D02*X110246Y178549D01*
X111046D01*
X111446Y178949D02*X111046Y178549D01*
X111446Y178949D02*Y180149D01*
X109846D02*X113046D01*
X111446Y179509D02*X113046Y178549D01*
X110246Y177589D02*X109846Y177189D01*
Y176389D02*Y177189D01*
Y176389D02*X110246Y175989D01*
X113046Y176389D02*X112646Y175989D01*
X113046Y176389D02*Y177189D01*
X112646Y177589D02*X113046Y177189D01*
X111286Y176389D02*Y177189D01*
X110246Y175989D02*X110886D01*
X111686D02*X112646D01*
X111686D02*X111286Y176389D01*
X110886Y175989D02*X111286Y176389D01*
X112646Y175029D02*X113046Y174629D01*
X110246Y175029D02*X112646D01*
X110246D02*X109846Y174629D01*
Y173829D02*Y174629D01*
Y173829D02*X110246Y173429D01*
X112646D01*
X113046Y173829D02*X112646Y173429D01*
X113046Y173829D02*Y174629D01*
X112246Y175029D02*X110646Y173429D01*
X113046Y172069D02*X111446Y170869D01*
X110246D02*X111446D01*
X109846Y171269D02*X110246Y170869D01*
X109846Y171269D02*Y172069D01*
X110246Y172469D02*X109846Y172069D01*
X110246Y172469D02*X111046D01*
X111446Y172069D01*
Y170869D02*Y172069D01*
X137655Y200305D02*Y201345D01*
X137095Y201905D02*X137655Y201345D01*
X135015Y201905D02*X137095D01*
X135015D02*X134455Y201345D01*
Y200305D02*Y201345D01*
X134855Y199345D02*X134455Y198945D01*
Y198145D02*Y198945D01*
Y198145D02*X134855Y197745D01*
X137655Y198145D02*X137255Y197745D01*
X137655Y198145D02*Y198945D01*
X137255Y199345D02*X137655Y198945D01*
X135895Y198145D02*Y198945D01*
X134855Y197745D02*X135495D01*
X136295D02*X137255D01*
X136295D02*X135895Y198145D01*
X135495Y197745D02*X135895Y198145D01*
X134855Y196785D02*X134455Y196385D01*
Y195185D02*Y196385D01*
Y195185D02*X134855Y194785D01*
X135655D01*
X137655Y196785D02*X135655Y194785D01*
X137655D02*Y196785D01*
X134855Y193825D02*X134455Y193425D01*
Y192225D02*Y193425D01*
Y192225D02*X134855Y191825D01*
X135655D01*
X137655Y193825D02*X135655Y191825D01*
X137655D02*Y193825D01*
X122853Y215469D02*Y216509D01*
X122293Y217069D02*X122853Y216509D01*
X120213Y217069D02*X122293D01*
X120213D02*X119653Y216509D01*
Y215469D02*Y216509D01*
X120053Y214509D02*X119653Y214109D01*
Y213309D02*Y214109D01*
Y213309D02*X120053Y212909D01*
X122853Y213309D02*X122453Y212909D01*
X122853Y213309D02*Y214109D01*
X122453Y214509D02*X122853Y214109D01*
X121093Y213309D02*Y214109D01*
X120053Y212909D02*X120693D01*
X121493D02*X122453D01*
X121493D02*X121093Y213309D01*
X120693Y212909D02*X121093Y213309D01*
X120053Y211948D02*X119653Y211548D01*
Y210348D02*Y211548D01*
Y210348D02*X120053Y209948D01*
X120853D01*
X122853Y211948D02*X120853Y209948D01*
X122853D02*Y211948D01*
X119653Y207788D02*X120053Y207388D01*
X119653Y207788D02*Y208588D01*
X120053Y208988D02*X119653Y208588D01*
X120053Y208988D02*X122453D01*
X122853Y208588D01*
X121093Y207788D02*X121493Y207388D01*
X121093Y207788D02*Y208988D01*
X122853Y207788D02*Y208588D01*
Y207788D02*X122453Y207388D01*
X121493D02*X122453D01*
X141739Y197974D02*X144939D01*
Y196374D02*Y197974D01*
X142139Y195414D02*X141739Y195014D01*
Y194214D02*Y195014D01*
Y194214D02*X142139Y193814D01*
X144939Y194214D02*X144539Y193814D01*
X144939Y194214D02*Y195014D01*
X144539Y195414D02*X144939Y195014D01*
X143179Y194214D02*Y195014D01*
X142139Y193814D02*X142779D01*
X143579D02*X144539D01*
X143579D02*X143179Y194214D01*
X142779Y193814D02*X143179Y194214D01*
X144539Y192854D02*X144939Y192454D01*
X142139Y192854D02*X144539D01*
X142139D02*X141739Y192454D01*
Y191654D02*Y192454D01*
Y191654D02*X142139Y191254D01*
X144539D01*
X144939Y191654D02*X144539Y191254D01*
X144939Y191654D02*Y192454D01*
X144139Y192854D02*X142539Y191254D01*
X141739Y189094D02*X142139Y188694D01*
X141739Y189094D02*Y189894D01*
X142139Y190294D02*X141739Y189894D01*
X142139Y190294D02*X144539D01*
X144939Y189894D01*
X143179Y189094D02*X143579Y188694D01*
X143179Y189094D02*Y190294D01*
X144939Y189094D02*Y189894D01*
Y189094D02*X144539Y188694D01*
X143579D02*X144539D01*
X151467Y189794D02*Y192994D01*
Y189794D02*X153067D01*
X151467Y191234D02*X152667D01*
X154027Y189794D02*Y192994D01*
X155627D01*
X156587Y190194D02*X156987Y189794D01*
X157787D01*
X158187Y190194D01*
X157787Y192994D02*X158187Y192594D01*
X156987Y192994D02*X157787D01*
X156587Y192594D02*X156987Y192994D01*
Y191234D02*X157787D01*
X158187Y190194D02*Y190834D01*
Y191634D02*Y192594D01*
Y191634D02*X157787Y191234D01*
X158187Y190834D02*X157787Y191234D01*
X159147Y192594D02*X159547Y192994D01*
X159147Y190194D02*Y192594D01*
Y190194D02*X159547Y189794D01*
X160347D01*
X160747Y190194D01*
Y192594D01*
X160347Y192994D02*X160747Y192594D01*
X159547Y192994D02*X160347D01*
X159147Y192194D02*X160747Y190594D01*
X161707Y190434D02*X162347Y189794D01*
Y192994D01*
X161707D02*X162907D01*
X163310Y172375D02*Y173415D01*
X162750Y173975D02*X163310Y173415D01*
X160670Y173975D02*X162750D01*
X160670D02*X160110Y173415D01*
Y172375D02*Y173415D01*
X160510Y171415D02*X160110Y171015D01*
Y170215D02*Y171015D01*
Y170215D02*X160510Y169815D01*
X163310Y170215D02*X162910Y169815D01*
X163310Y170215D02*Y171015D01*
X162910Y171415D02*X163310Y171015D01*
X161550Y170215D02*Y171015D01*
X160510Y169815D02*X161150D01*
X161950D02*X162910D01*
X161950D02*X161550Y170215D01*
X161150Y169815D02*X161550Y170215D01*
X160510Y168855D02*X160110Y168455D01*
Y167255D02*Y168455D01*
Y167255D02*X160510Y166855D01*
X161310D01*
X163310Y168855D02*X161310Y166855D01*
X163310D02*Y168855D01*
X162910Y165895D02*X163310Y165495D01*
X162270Y165895D02*X162910D01*
X162270D02*X161710Y165335D01*
Y164855D02*Y165335D01*
Y164855D02*X162270Y164295D01*
X162910D01*
X163310Y164695D02*X162910Y164295D01*
X163310Y164695D02*Y165495D01*
X161150Y165895D02*X161710Y165335D01*
X160510Y165895D02*X161150D01*
X160510D02*X160110Y165495D01*
Y164695D02*Y165495D01*
Y164695D02*X160510Y164295D01*
X161150D01*
X161710Y164855D02*X161150Y164295D01*
X128764Y245396D02*X129804D01*
X128204Y244836D02*X128764Y245396D01*
X128204Y242756D02*Y244836D01*
Y242756D02*X128764Y242196D01*
X129804D01*
X130764Y242596D02*X131164Y242196D01*
X131964D01*
X132364Y242596D01*
X131964Y245396D02*X132364Y244996D01*
X131164Y245396D02*X131964D01*
X130764Y244996D02*X131164Y245396D01*
Y243636D02*X131964D01*
X132364Y242596D02*Y243236D01*
Y244036D02*Y244996D01*
Y244036D02*X131964Y243636D01*
X132364Y243236D02*X131964Y243636D01*
X133324Y244996D02*X133724Y245396D01*
X133324Y242596D02*Y244996D01*
Y242596D02*X133724Y242196D01*
X134524D01*
X134924Y242596D01*
Y244996D01*
X134524Y245396D02*X134924Y244996D01*
X133724Y245396D02*X134524D01*
X133324Y244596D02*X134924Y242996D01*
X135884Y244996D02*X136284Y245396D01*
X135884Y244356D02*Y244996D01*
Y244356D02*X136444Y243796D01*
X136924D01*
X137484Y244356D01*
Y244996D01*
X137084Y245396D02*X137484Y244996D01*
X136284Y245396D02*X137084D01*
X135884Y243236D02*X136444Y243796D01*
X135884Y242596D02*Y243236D01*
Y242596D02*X136284Y242196D01*
X137084D01*
X137484Y242596D01*
Y243236D01*
X136924Y243796D02*X137484Y243236D01*
X126406Y259094D02*Y261894D01*
X126806Y262294D01*
X127606D01*
X128006Y261894D01*
Y259094D02*Y261894D01*
X128966Y259494D02*X129366Y259094D01*
X130166D01*
X130566Y259494D01*
X130166Y262294D02*X130566Y261894D01*
X129366Y262294D02*X130166D01*
X128966Y261894D02*X129366Y262294D01*
Y260534D02*X130166D01*
X130566Y259494D02*Y260134D01*
Y260934D02*Y261894D01*
Y260934D02*X130166Y260534D01*
X130566Y260134D02*X130166Y260534D01*
X131526Y261894D02*X131926Y262294D01*
X131526Y259494D02*Y261894D01*
Y259494D02*X131926Y259094D01*
X132726D01*
X133126Y259494D01*
Y261894D01*
X132726Y262294D02*X133126Y261894D01*
X131926Y262294D02*X132726D01*
X131526Y261494D02*X133126Y259894D01*
X134086Y259734D02*X134726Y259094D01*
Y262294D01*
X134086D02*X135286D01*
X98853Y262778D02*X100453D01*
X100853Y263178D01*
Y263978D01*
X100453Y264378D02*X100853Y263978D01*
X99253Y264378D02*X100453D01*
X99253Y262778D02*Y265978D01*
X99893Y264378D02*X100853Y265978D01*
X101813Y263178D02*X102213Y262778D01*
X103013D01*
X103413Y263178D01*
X103013Y265978D02*X103413Y265578D01*
X102213Y265978D02*X103013D01*
X101813Y265578D02*X102213Y265978D01*
Y264218D02*X103013D01*
X103413Y263178D02*Y263818D01*
Y264618D02*Y265578D01*
Y264618D02*X103013Y264218D01*
X103413Y263818D02*X103013Y264218D01*
X104373Y265578D02*X104773Y265978D01*
X104373Y263178D02*Y265578D01*
Y263178D02*X104773Y262778D01*
X105573D01*
X105973Y263178D01*
Y265578D01*
X105573Y265978D02*X105973Y265578D01*
X104773Y265978D02*X105573D01*
X104373Y265178D02*X105973Y263578D01*
X108133Y262778D02*X108533Y263178D01*
X107333Y262778D02*X108133D01*
X106933Y263178D02*X107333Y262778D01*
X106933Y263178D02*Y265578D01*
X107333Y265978D01*
X108133Y264218D02*X108533Y264618D01*
X106933Y264218D02*X108133D01*
X107333Y265978D02*X108133D01*
X108533Y265578D01*
Y264618D02*Y265578D01*
X114159Y251344D02*X115199D01*
X113599Y250784D02*X114159Y251344D01*
X113599Y248704D02*Y250784D01*
Y248704D02*X114159Y248144D01*
X115199D01*
X116159Y248544D02*X116559Y248144D01*
X117359D01*
X117759Y248544D01*
X117359Y251344D02*X117759Y250944D01*
X116559Y251344D02*X117359D01*
X116159Y250944D02*X116559Y251344D01*
Y249584D02*X117359D01*
X117759Y248544D02*Y249184D01*
Y249984D02*Y250944D01*
Y249984D02*X117359Y249584D01*
X117759Y249184D02*X117359Y249584D01*
X118719Y248544D02*X119119Y248144D01*
X119919D01*
X120319Y248544D01*
X119919Y251344D02*X120319Y250944D01*
X119119Y251344D02*X119919D01*
X118719Y250944D02*X119119Y251344D01*
Y249584D02*X119919D01*
X120319Y248544D02*Y249184D01*
Y249984D02*Y250944D01*
Y249984D02*X119919Y249584D01*
X120319Y249184D02*X119919Y249584D01*
X122479Y248144D02*X122879Y248544D01*
X121679Y248144D02*X122479D01*
X121279Y248544D02*X121679Y248144D01*
X121279Y248544D02*Y250944D01*
X121679Y251344D01*
X122479Y249584D02*X122879Y249984D01*
X121279Y249584D02*X122479D01*
X121679Y251344D02*X122479D01*
X122879Y250944D01*
Y249984D02*Y250944D01*
X80132Y241294D02*Y244094D01*
X80532Y244494D01*
X81332D01*
X81732Y244094D01*
Y241294D02*Y244094D01*
X82692Y241694D02*X83092Y241294D01*
X83892D01*
X84292Y241694D01*
X83892Y244494D02*X84292Y244094D01*
X83092Y244494D02*X83892D01*
X82692Y244094D02*X83092Y244494D01*
Y242734D02*X83892D01*
X84292Y241694D02*Y242334D01*
Y243134D02*Y244094D01*
Y243134D02*X83892Y242734D01*
X84292Y242334D02*X83892Y242734D01*
X85252Y244094D02*X85652Y244494D01*
X85252Y241694D02*Y244094D01*
Y241694D02*X85652Y241294D01*
X86452D01*
X86852Y241694D01*
Y244094D01*
X86452Y244494D02*X86852Y244094D01*
X85652Y244494D02*X86452D01*
X85252Y243694D02*X86852Y242094D01*
X87812Y241694D02*X88212Y241294D01*
X89412D01*
X89812Y241694D01*
Y242494D01*
X87812Y244494D02*X89812Y242494D01*
X87812Y244494D02*X89812D01*
X67907Y257394D02*X68947D01*
X67347Y256834D02*X67907Y257394D01*
X67347Y254754D02*Y256834D01*
Y254754D02*X67907Y254194D01*
X68947D01*
X69907Y254594D02*X70307Y254194D01*
X71107D01*
X71507Y254594D01*
X71107Y257394D02*X71507Y256994D01*
X70307Y257394D02*X71107D01*
X69907Y256994D02*X70307Y257394D01*
Y255634D02*X71107D01*
X71507Y254594D02*Y255234D01*
Y256034D02*Y256994D01*
Y256034D02*X71107Y255634D01*
X71507Y255234D02*X71107Y255634D01*
X72467Y256994D02*X72867Y257394D01*
X72467Y254594D02*Y256994D01*
Y254594D02*X72867Y254194D01*
X73667D01*
X74067Y254594D01*
Y256994D01*
X73667Y257394D02*X74067Y256994D01*
X72867Y257394D02*X73667D01*
X72467Y256594D02*X74067Y254994D01*
X75427Y257394D02*X76627Y255794D01*
Y254594D02*Y255794D01*
X76227Y254194D02*X76627Y254594D01*
X75427Y254194D02*X76227D01*
X75027Y254594D02*X75427Y254194D01*
X75027Y254594D02*Y255394D01*
X75427Y255794D01*
X76627D01*
X126491Y152524D02*Y153564D01*
X125931Y154124D02*X126491Y153564D01*
X123851Y154124D02*X125931D01*
X123851D02*X123291Y153564D01*
Y152524D02*Y153564D01*
X123691Y151564D02*X123291Y151164D01*
Y150364D02*Y151164D01*
Y150364D02*X123691Y149964D01*
X126491Y150364D02*X126091Y149964D01*
X126491Y150364D02*Y151164D01*
X126091Y151564D02*X126491Y151164D01*
X124731Y150364D02*Y151164D01*
X123691Y149964D02*X124331D01*
X125131D02*X126091D01*
X125131D02*X124731Y150364D01*
X124331Y149964D02*X124731Y150364D01*
X123691Y149004D02*X123291Y148604D01*
Y147404D02*Y148604D01*
Y147404D02*X123691Y147004D01*
X124491D01*
X126491Y149004D02*X124491Y147004D01*
X126491D02*Y149004D01*
Y145644D02*X123291Y144044D01*
Y146044D01*
X112006Y112794D02*Y115594D01*
X112406Y115994D01*
X113206D01*
X113606Y115594D01*
Y112794D02*Y115594D01*
X114566Y113194D02*X114966Y112794D01*
X115766D01*
X116166Y113194D01*
X115766Y115994D02*X116166Y115594D01*
X114966Y115994D02*X115766D01*
X114566Y115594D02*X114966Y115994D01*
Y114234D02*X115766D01*
X116166Y113194D02*Y113834D01*
Y114634D02*Y115594D01*
Y114634D02*X115766Y114234D01*
X116166Y113834D02*X115766Y114234D01*
X117126Y115594D02*X117526Y115994D01*
X117126Y113194D02*Y115594D01*
Y113194D02*X117526Y112794D01*
X118326D01*
X118726Y113194D01*
Y115594D01*
X118326Y115994D02*X118726Y115594D01*
X117526Y115994D02*X118326D01*
X117126Y115194D02*X118726Y113594D01*
X119686Y112794D02*X121286D01*
X119686D02*Y114394D01*
X120086Y113994D01*
X120886D01*
X121286Y114394D01*
Y115594D01*
X120886Y115994D02*X121286Y115594D01*
X120086Y115994D02*X120886D01*
X119686Y115594D02*X120086Y115994D01*
X62156Y105249D02*Y106849D01*
Y105249D02*X62556Y104849D01*
X63356D01*
X63756Y105249D02*X63356Y104849D01*
X63756Y105249D02*Y106449D01*
X62156D02*X65356D01*
X63756Y105809D02*X65356Y104849D01*
X62556Y103889D02*X62156Y103489D01*
Y102689D02*Y103489D01*
Y102689D02*X62556Y102289D01*
X65356Y102689D02*X64956Y102289D01*
X65356Y102689D02*Y103489D01*
X64956Y103889D02*X65356Y103489D01*
X63596Y102689D02*Y103489D01*
X62556Y102289D02*X63196D01*
X63996D02*X64956D01*
X63996D02*X63596Y102689D01*
X63196Y102289D02*X63596Y102689D01*
X62796Y101329D02*X62156Y100689D01*
X65356D01*
Y100129D02*Y101329D01*
X62556Y99169D02*X62156Y98769D01*
Y97969D02*Y98769D01*
Y97969D02*X62556Y97569D01*
X65356Y97969D02*X64956Y97569D01*
X65356Y97969D02*Y98769D01*
X64956Y99169D02*X65356Y98769D01*
X63596Y97969D02*Y98769D01*
X62556Y97569D02*X63196D01*
X63996D02*X64956D01*
X63996D02*X63596Y97969D01*
X63196Y97569D02*X63596Y97969D01*
X72156Y104849D02*Y106449D01*
Y104849D02*X72556Y104449D01*
X73356D01*
X73756Y104849D02*X73356Y104449D01*
X73756Y104849D02*Y106049D01*
X72156D02*X75356D01*
X73756Y105409D02*X75356Y104449D01*
X72556Y103489D02*X72156Y103089D01*
Y102289D02*Y103089D01*
Y102289D02*X72556Y101889D01*
X75356Y102289D02*X74956Y101889D01*
X75356Y102289D02*Y103089D01*
X74956Y103489D02*X75356Y103089D01*
X73596Y102289D02*Y103089D01*
X72556Y101889D02*X73196D01*
X73996D02*X74956D01*
X73996D02*X73596Y102289D01*
X73196Y101889D02*X73596Y102289D01*
X72796Y100929D02*X72156Y100289D01*
X75356D01*
Y99729D02*Y100929D01*
X72156Y97169D02*Y98769D01*
X73756D01*
X73356Y98369D01*
Y97569D02*Y98369D01*
Y97569D02*X73756Y97169D01*
X74956D01*
X75356Y97569D02*X74956Y97169D01*
X75356Y97569D02*Y98369D01*
X74956Y98769D02*X75356Y98369D01*
X52830Y104992D02*Y106592D01*
Y104992D02*X53230Y104592D01*
X54030D01*
X54430Y104992D02*X54030Y104592D01*
X54430Y104992D02*Y106192D01*
X52830D02*X56030D01*
X54430Y105552D02*X56030Y104592D01*
X53230Y103632D02*X52830Y103232D01*
Y102432D02*Y103232D01*
Y102432D02*X53230Y102032D01*
X56030Y102432D02*X55630Y102032D01*
X56030Y102432D02*Y103232D01*
X55630Y103632D02*X56030Y103232D01*
X54270Y102432D02*Y103232D01*
X53230Y102032D02*X53870D01*
X54670D02*X55630D01*
X54670D02*X54270Y102432D01*
X53870Y102032D02*X54270Y102432D01*
X53470Y101072D02*X52830Y100432D01*
X56030D01*
Y99872D02*Y101072D01*
X55630Y98912D02*X56030Y98512D01*
X54990Y98912D02*X55630D01*
X54990D02*X54430Y98352D01*
Y97872D02*Y98352D01*
Y97872D02*X54990Y97312D01*
X55630D01*
X56030Y97712D02*X55630Y97312D01*
X56030Y97712D02*Y98512D01*
X53870Y98912D02*X54430Y98352D01*
X53230Y98912D02*X53870D01*
X53230D02*X52830Y98512D01*
Y97712D02*Y98512D01*
Y97712D02*X53230Y97312D01*
X53870D01*
X54430Y97872D02*X53870Y97312D01*
X82430Y104944D02*Y106544D01*
Y104944D02*X82830Y104544D01*
X83630D01*
X84030Y104944D02*X83630Y104544D01*
X84030Y104944D02*Y106144D01*
X82430D02*X85630D01*
X84030Y105504D02*X85630Y104544D01*
X82830Y103584D02*X82430Y103184D01*
Y102384D02*Y103184D01*
Y102384D02*X82830Y101984D01*
X85630Y102384D02*X85230Y101984D01*
X85630Y102384D02*Y103184D01*
X85230Y103584D02*X85630Y103184D01*
X83870Y102384D02*Y103184D01*
X82830Y101984D02*X83470D01*
X84270D02*X85230D01*
X84270D02*X83870Y102384D01*
X83470Y101984D02*X83870Y102384D01*
X83070Y101024D02*X82430Y100384D01*
X85630D01*
Y99824D02*Y101024D01*
Y98464D02*X84030Y97264D01*
X82830D02*X84030D01*
X82430Y97664D02*X82830Y97264D01*
X82430Y97664D02*Y98464D01*
X82830Y98864D02*X82430Y98464D01*
X82830Y98864D02*X83630D01*
X84030Y98464D01*
Y97264D02*Y98464D01*
X231604Y257500D02*Y258540D01*
X231044Y259100D02*X231604Y258540D01*
X228964Y259100D02*X231044D01*
X228964D02*X228404Y258540D01*
Y257500D02*Y258540D01*
X228804Y256540D02*X228404Y256140D01*
Y255340D02*Y256140D01*
Y255340D02*X228804Y254940D01*
X231604Y255340D02*X231204Y254940D01*
X231604Y255340D02*Y256140D01*
X231204Y256540D02*X231604Y256140D01*
X229844Y255340D02*Y256140D01*
X228804Y254940D02*X229444D01*
X230244D02*X231204D01*
X230244D02*X229844Y255340D01*
X229444Y254940D02*X229844Y255340D01*
X231204Y253980D02*X231604Y253580D01*
X228804Y253980D02*X231204D01*
X228804D02*X228404Y253580D01*
Y252780D02*Y253580D01*
Y252780D02*X228804Y252380D01*
X231204D01*
X231604Y252780D02*X231204Y252380D01*
X231604Y252780D02*Y253580D01*
X230804Y253980D02*X229204Y252380D01*
X230404Y251420D02*X228404Y249820D01*
X230404Y249420D02*Y251420D01*
X228404Y249820D02*X231604D01*
X208830Y257826D02*Y259426D01*
Y257826D02*X209230Y257426D01*
X210030D01*
X210430Y257826D02*X210030Y257426D01*
X210430Y257826D02*Y259026D01*
X208830D02*X212030D01*
X210430Y258386D02*X212030Y257426D01*
X209230Y256466D02*X208830Y256066D01*
Y255266D02*Y256066D01*
Y255266D02*X209230Y254866D01*
X212030Y255266D02*X211630Y254866D01*
X212030Y255266D02*Y256066D01*
X211630Y256466D02*X212030Y256066D01*
X210270Y255266D02*Y256066D01*
X209230Y254866D02*X209870D01*
X210670D02*X211630D01*
X210670D02*X210270Y255266D01*
X209870Y254866D02*X210270Y255266D01*
X211630Y253906D02*X212030Y253506D01*
X209230Y253906D02*X211630D01*
X209230D02*X208830Y253506D01*
Y252706D02*Y253506D01*
Y252706D02*X209230Y252306D01*
X211630D01*
X212030Y252706D02*X211630Y252306D01*
X212030Y252706D02*Y253506D01*
X211230Y253906D02*X209630Y252306D01*
X209230Y251346D02*X208830Y250946D01*
Y250146D02*Y250946D01*
Y250146D02*X209230Y249746D01*
X212030Y250146D02*X211630Y249746D01*
X212030Y250146D02*Y250946D01*
X211630Y251346D02*X212030Y250946D01*
X210270Y250146D02*Y250946D01*
X209230Y249746D02*X209870D01*
X210670D02*X211630D01*
X210670D02*X210270Y250146D01*
X209870Y249746D02*X210270Y250146D01*
X281338Y252744D02*X282378D01*
X280778Y252184D02*X281338Y252744D01*
X280778Y250104D02*Y252184D01*
Y250104D02*X281338Y249544D01*
X282378D01*
X283338Y249944D02*X283738Y249544D01*
X284538D01*
X284938Y249944D01*
X284538Y252744D02*X284938Y252344D01*
X283738Y252744D02*X284538D01*
X283338Y252344D02*X283738Y252744D01*
Y250984D02*X284538D01*
X284938Y249944D02*Y250584D01*
Y251384D02*Y252344D01*
Y251384D02*X284538Y250984D01*
X284938Y250584D02*X284538Y250984D01*
X285898Y252344D02*X286298Y252744D01*
X285898Y249944D02*Y252344D01*
Y249944D02*X286298Y249544D01*
X287098D01*
X287498Y249944D01*
Y252344D01*
X287098Y252744D02*X287498Y252344D01*
X286298Y252744D02*X287098D01*
X285898Y251944D02*X287498Y250344D01*
X288458Y249944D02*X288858Y249544D01*
X289658D01*
X290058Y249944D01*
X289658Y252744D02*X290058Y252344D01*
X288858Y252744D02*X289658D01*
X288458Y252344D02*X288858Y252744D01*
Y250984D02*X289658D01*
X290058Y249944D02*Y250584D01*
Y251384D02*Y252344D01*
Y251384D02*X289658Y250984D01*
X290058Y250584D02*X289658Y250984D01*
X248656Y252044D02*X250256D01*
X250656Y252444D01*
Y253244D01*
X250256Y253644D02*X250656Y253244D01*
X249056Y253644D02*X250256D01*
X249056Y252044D02*Y255244D01*
X249696Y253644D02*X250656Y255244D01*
X251616Y252444D02*X252016Y252044D01*
X252816D01*
X253216Y252444D01*
X252816Y255244D02*X253216Y254844D01*
X252016Y255244D02*X252816D01*
X251616Y254844D02*X252016Y255244D01*
Y253484D02*X252816D01*
X253216Y252444D02*Y253084D01*
Y253884D02*Y254844D01*
Y253884D02*X252816Y253484D01*
X253216Y253084D02*X252816Y253484D01*
X254176Y254844D02*X254576Y255244D01*
X254176Y252444D02*Y254844D01*
Y252444D02*X254576Y252044D01*
X255376D01*
X255776Y252444D01*
Y254844D01*
X255376Y255244D02*X255776Y254844D01*
X254576Y255244D02*X255376D01*
X254176Y254444D02*X255776Y252844D01*
X256736Y252684D02*X257376Y252044D01*
Y255244D01*
X256736D02*X257936D01*
X257813Y271144D02*X259413D01*
X259813Y271544D01*
Y272344D01*
X259413Y272744D02*X259813Y272344D01*
X258213Y272744D02*X259413D01*
X258213Y271144D02*Y274344D01*
X258853Y272744D02*X259813Y274344D01*
X260773Y271544D02*X261173Y271144D01*
X261973D01*
X262373Y271544D01*
X261973Y274344D02*X262373Y273944D01*
X261173Y274344D02*X261973D01*
X260773Y273944D02*X261173Y274344D01*
Y272584D02*X261973D01*
X262373Y271544D02*Y272184D01*
Y272984D02*Y273944D01*
Y272984D02*X261973Y272584D01*
X262373Y272184D02*X261973Y272584D01*
X263333Y273944D02*X263733Y274344D01*
X263333Y271544D02*Y273944D01*
Y271544D02*X263733Y271144D01*
X264533D01*
X264933Y271544D01*
Y273944D01*
X264533Y274344D02*X264933Y273944D01*
X263733Y274344D02*X264533D01*
X263333Y273544D02*X264933Y271944D01*
X265893Y273944D02*X266293Y274344D01*
X265893Y271544D02*Y273944D01*
Y271544D02*X266293Y271144D01*
X267093D01*
X267493Y271544D01*
Y273944D01*
X267093Y274344D02*X267493Y273944D01*
X266293Y274344D02*X267093D01*
X265893Y273544D02*X267493Y271944D01*
X241359Y274244D02*X242399D01*
X240799Y273684D02*X241359Y274244D01*
X240799Y271604D02*Y273684D01*
Y271604D02*X241359Y271044D01*
X242399D01*
X243359Y271444D02*X243759Y271044D01*
X244559D01*
X244959Y271444D01*
X244559Y274244D02*X244959Y273844D01*
X243759Y274244D02*X244559D01*
X243359Y273844D02*X243759Y274244D01*
Y272484D02*X244559D01*
X244959Y271444D02*Y272084D01*
Y272884D02*Y273844D01*
Y272884D02*X244559Y272484D01*
X244959Y272084D02*X244559Y272484D01*
X245919Y273844D02*X246319Y274244D01*
X245919Y271444D02*Y273844D01*
Y271444D02*X246319Y271044D01*
X247119D01*
X247519Y271444D01*
Y273844D01*
X247119Y274244D02*X247519Y273844D01*
X246319Y274244D02*X247119D01*
X245919Y273444D02*X247519Y271844D01*
X248479Y273844D02*X248879Y274244D01*
X248479Y271444D02*Y273844D01*
Y271444D02*X248879Y271044D01*
X249679D01*
X250079Y271444D01*
Y273844D01*
X249679Y274244D02*X250079Y273844D01*
X248879Y274244D02*X249679D01*
X248479Y273444D02*X250079Y271844D01*
X275566Y274394D02*X276606D01*
X275006Y273834D02*X275566Y274394D01*
X275006Y271754D02*Y273834D01*
Y271754D02*X275566Y271194D01*
X276606D01*
X277566Y271594D02*X277966Y271194D01*
X278766D01*
X279166Y271594D01*
X278766Y274394D02*X279166Y273994D01*
X277966Y274394D02*X278766D01*
X277566Y273994D02*X277966Y274394D01*
Y272634D02*X278766D01*
X279166Y271594D02*Y272234D01*
Y273034D02*Y273994D01*
Y273034D02*X278766Y272634D01*
X279166Y272234D02*X278766Y272634D01*
X280126Y273994D02*X280526Y274394D01*
X280126Y271594D02*Y273994D01*
Y271594D02*X280526Y271194D01*
X281326D01*
X281726Y271594D01*
Y273994D01*
X281326Y274394D02*X281726Y273994D01*
X280526Y274394D02*X281326D01*
X280126Y273594D02*X281726Y271994D01*
X282686Y271834D02*X283326Y271194D01*
Y274394D01*
X282686D02*X283886D01*
X252006Y186894D02*Y187934D01*
X251446Y188494D02*X252006Y187934D01*
X249366Y188494D02*X251446D01*
X249366D02*X248806Y187934D01*
Y186894D02*Y187934D01*
X249206Y185934D02*X248806Y185534D01*
Y184734D02*Y185534D01*
Y184734D02*X249206Y184334D01*
X252006Y184734D02*X251606Y184334D01*
X252006Y184734D02*Y185534D01*
X251606Y185934D02*X252006Y185534D01*
X250246Y184734D02*Y185534D01*
X249206Y184334D02*X249846D01*
X250646D02*X251606D01*
X250646D02*X250246Y184734D01*
X249846Y184334D02*X250246Y184734D01*
X250806Y183374D02*X248806Y181774D01*
X250806Y181374D02*Y183374D01*
X248806Y181774D02*X252006D01*
X249446Y180414D02*X248806Y179774D01*
X252006D01*
Y179214D02*Y180414D01*
X245053Y212137D02*Y214937D01*
X245453Y215337D01*
X246253D01*
X246653Y214937D01*
Y212137D02*Y214937D01*
X247613Y212537D02*X248013Y212137D01*
X248813D01*
X249213Y212537D01*
X248813Y215337D02*X249213Y214937D01*
X248013Y215337D02*X248813D01*
X247613Y214937D02*X248013Y215337D01*
Y213577D02*X248813D01*
X249213Y212537D02*Y213177D01*
Y213977D02*Y214937D01*
Y213977D02*X248813Y213577D01*
X249213Y213177D02*X248813Y213577D01*
X250173Y214937D02*X250573Y215337D01*
X250173Y212537D02*Y214937D01*
Y212537D02*X250573Y212137D01*
X251373D01*
X251773Y212537D01*
Y214937D01*
X251373Y215337D02*X251773Y214937D01*
X250573Y215337D02*X251373D01*
X250173Y214537D02*X251773Y212937D01*
X252733Y212537D02*X253133Y212137D01*
X253933D01*
X254333Y212537D01*
X253933Y215337D02*X254333Y214937D01*
X253133Y215337D02*X253933D01*
X252733Y214937D02*X253133Y215337D01*
Y213577D02*X253933D01*
X254333Y212537D02*Y213177D01*
Y213977D02*Y214937D01*
Y213977D02*X253933Y213577D01*
X254333Y213177D02*X253933Y213577D01*
X249180Y234394D02*Y237194D01*
X249580Y237594D01*
X250380D01*
X250780Y237194D01*
Y234394D02*Y237194D01*
X251740Y234794D02*X252140Y234394D01*
X252940D01*
X253340Y234794D01*
X252940Y237594D02*X253340Y237194D01*
X252140Y237594D02*X252940D01*
X251740Y237194D02*X252140Y237594D01*
Y235834D02*X252940D01*
X253340Y234794D02*Y235434D01*
Y236234D02*Y237194D01*
Y236234D02*X252940Y235834D01*
X253340Y235434D02*X252940Y235834D01*
X254300Y237194D02*X254700Y237594D01*
X254300Y234794D02*Y237194D01*
Y234794D02*X254700Y234394D01*
X255500D01*
X255900Y234794D01*
Y237194D01*
X255500Y237594D02*X255900Y237194D01*
X254700Y237594D02*X255500D01*
X254300Y236794D02*X255900Y235194D01*
X256860Y237194D02*X257260Y237594D01*
X256860Y234794D02*Y237194D01*
Y234794D02*X257260Y234394D01*
X258060D01*
X258460Y234794D01*
Y237194D01*
X258060Y237594D02*X258460Y237194D01*
X257260Y237594D02*X258060D01*
X256860Y236794D02*X258460Y235194D01*
X250537Y147294D02*Y150094D01*
X250937Y150494D01*
X251737D01*
X252137Y150094D01*
Y147294D02*Y150094D01*
X253097Y147694D02*X253497Y147294D01*
X254297D01*
X254697Y147694D01*
X254297Y150494D02*X254697Y150094D01*
X253497Y150494D02*X254297D01*
X253097Y150094D02*X253497Y150494D01*
Y148734D02*X254297D01*
X254697Y147694D02*Y148334D01*
Y149134D02*Y150094D01*
Y149134D02*X254297Y148734D01*
X254697Y148334D02*X254297Y148734D01*
X255657Y150094D02*X256057Y150494D01*
X255657Y147694D02*Y150094D01*
Y147694D02*X256057Y147294D01*
X256857D01*
X257257Y147694D01*
Y150094D01*
X256857Y150494D02*X257257Y150094D01*
X256057Y150494D02*X256857D01*
X255657Y149694D02*X257257Y148094D01*
X258617Y150494D02*X260217Y147294D01*
X258217D02*X260217D01*
X247506Y195394D02*Y196434D01*
X246946Y196994D02*X247506Y196434D01*
X244866Y196994D02*X246946D01*
X244866D02*X244306Y196434D01*
Y195394D02*Y196434D01*
X244706Y194434D02*X244306Y194034D01*
Y193234D02*Y194034D01*
Y193234D02*X244706Y192834D01*
X247506Y193234D02*X247106Y192834D01*
X247506Y193234D02*Y194034D01*
X247106Y194434D02*X247506Y194034D01*
X245746Y193234D02*Y194034D01*
X244706Y192834D02*X245346D01*
X246146D02*X247106D01*
X246146D02*X245746Y193234D01*
X245346Y192834D02*X245746Y193234D01*
X244706Y191874D02*X244306Y191474D01*
Y190674D02*Y191474D01*
Y190674D02*X244706Y190274D01*
X247506Y190674D02*X247106Y190274D01*
X247506Y190674D02*Y191474D01*
X247106Y191874D02*X247506Y191474D01*
X245746Y190674D02*Y191474D01*
X244706Y190274D02*X245346D01*
X246146D02*X247106D01*
X246146D02*X245746Y190674D01*
X245346Y190274D02*X245746Y190674D01*
X247106Y189314D02*X247506Y188914D01*
X244706Y189314D02*X247106D01*
X244706D02*X244306Y188914D01*
Y188114D02*Y188914D01*
Y188114D02*X244706Y187714D01*
X247106D01*
X247506Y188114D02*X247106Y187714D01*
X247506Y188114D02*Y188914D01*
X246706Y189314D02*X245106Y187714D01*
X286663Y217441D02*Y218481D01*
X286103Y219041D02*X286663Y218481D01*
X284023Y219041D02*X286103D01*
X284023D02*X283463Y218481D01*
Y217441D02*Y218481D01*
X283863Y216481D02*X283463Y216081D01*
Y215281D02*Y216081D01*
Y215281D02*X283863Y214881D01*
X286663Y215281D02*X286263Y214881D01*
X286663Y215281D02*Y216081D01*
X286263Y216481D02*X286663Y216081D01*
X284903Y215281D02*Y216081D01*
X283863Y214881D02*X284503D01*
X285303D02*X286263D01*
X285303D02*X284903Y215281D01*
X284503Y214881D02*X284903Y215281D01*
X284103Y213921D02*X283463Y213281D01*
X286663D01*
Y212721D02*Y213921D01*
X283463Y210561D02*X283863Y210161D01*
X283463Y210561D02*Y211361D01*
X283863Y211761D02*X283463Y211361D01*
X283863Y211761D02*X286263D01*
X286663Y211361D01*
X284903Y210561D02*X285303Y210161D01*
X284903Y210561D02*Y211761D01*
X286663Y210561D02*Y211361D01*
Y210561D02*X286263Y210161D01*
X285303D02*X286263D01*
X264882Y189789D02*X265922D01*
X264322Y189229D02*X264882Y189789D01*
X264322Y187149D02*Y189229D01*
Y187149D02*X264882Y186589D01*
X265922D01*
X266882Y186989D02*X267282Y186589D01*
X268082D01*
X268482Y186989D01*
X268082Y189789D02*X268482Y189389D01*
X267282Y189789D02*X268082D01*
X266882Y189389D02*X267282Y189789D01*
Y188029D02*X268082D01*
X268482Y186989D02*Y187629D01*
Y188429D02*Y189389D01*
Y188429D02*X268082Y188029D01*
X268482Y187629D02*X268082Y188029D01*
X269442Y188589D02*X271042Y186589D01*
X269442Y188589D02*X271442D01*
X271042Y186589D02*Y189789D01*
X272402Y186989D02*X272802Y186589D01*
X274002D01*
X274402Y186989D01*
Y187789D01*
X272402Y189789D02*X274402Y187789D01*
X272402Y189789D02*X274402D01*
X272006Y197294D02*X273606D01*
X274006Y197694D01*
Y198494D01*
X273606Y198894D02*X274006Y198494D01*
X272406Y198894D02*X273606D01*
X272406Y197294D02*Y200494D01*
X273046Y198894D02*X274006Y200494D01*
X274966Y197694D02*X275366Y197294D01*
X276166D01*
X276566Y197694D01*
X276166Y200494D02*X276566Y200094D01*
X275366Y200494D02*X276166D01*
X274966Y200094D02*X275366Y200494D01*
Y198734D02*X276166D01*
X276566Y197694D02*Y198334D01*
Y199134D02*Y200094D01*
Y199134D02*X276166Y198734D01*
X276566Y198334D02*X276166Y198734D01*
X277526Y197934D02*X278166Y197294D01*
Y200494D01*
X277526D02*X278726D01*
X279686Y200094D02*X280086Y200494D01*
X279686Y197694D02*Y200094D01*
Y197694D02*X280086Y197294D01*
X280886D01*
X281286Y197694D01*
Y200094D01*
X280886Y200494D02*X281286Y200094D01*
X280086Y200494D02*X280886D01*
X279686Y199694D02*X281286Y198094D01*
X269176Y214699D02*X270216D01*
X268616Y214139D02*X269176Y214699D01*
X268616Y212059D02*Y214139D01*
Y212059D02*X269176Y211499D01*
X270216D01*
X271176Y211899D02*X271576Y211499D01*
X272376D01*
X272776Y211899D01*
X272376Y214699D02*X272776Y214299D01*
X271576Y214699D02*X272376D01*
X271176Y214299D02*X271576Y214699D01*
Y212939D02*X272376D01*
X272776Y211899D02*Y212539D01*
Y213339D02*Y214299D01*
Y213339D02*X272376Y212939D01*
X272776Y212539D02*X272376Y212939D01*
X273736Y212139D02*X274376Y211499D01*
Y214699D01*
X273736D02*X274936D01*
X275896Y212139D02*X276536Y211499D01*
Y214699D01*
X275896D02*X277096D01*
X269176Y219699D02*X270216D01*
X268616Y219139D02*X269176Y219699D01*
X268616Y217059D02*Y219139D01*
Y217059D02*X269176Y216499D01*
X270216D01*
X271176Y216899D02*X271576Y216499D01*
X272376D01*
X272776Y216899D01*
X272376Y219699D02*X272776Y219299D01*
X271576Y219699D02*X272376D01*
X271176Y219299D02*X271576Y219699D01*
Y217939D02*X272376D01*
X272776Y216899D02*Y217539D01*
Y218339D02*Y219299D01*
Y218339D02*X272376Y217939D01*
X272776Y217539D02*X272376Y217939D01*
X273736Y217139D02*X274376Y216499D01*
Y219699D01*
X273736D02*X274936D01*
X275896Y216899D02*X276296Y216499D01*
X277496D01*
X277896Y216899D01*
Y217699D01*
X275896Y219699D02*X277896Y217699D01*
X275896Y219699D02*X277896D01*
X212006Y215288D02*X213606D01*
X212806D02*Y218488D01*
X214566Y215688D02*X214966Y215288D01*
X215766D01*
X216166Y215688D01*
X215766Y218488D02*X216166Y218088D01*
X214966Y218488D02*X215766D01*
X214566Y218088D02*X214966Y218488D01*
Y216728D02*X215766D01*
X216166Y215688D02*Y216328D01*
Y217128D02*Y218088D01*
Y217128D02*X215766Y216728D01*
X216166Y216328D02*X215766Y216728D01*
X217126Y218088D02*X217526Y218488D01*
X217126Y215688D02*Y218088D01*
Y215688D02*X217526Y215288D01*
X218326D01*
X218726Y215688D01*
Y218088D01*
X218326Y218488D02*X218726Y218088D01*
X217526Y218488D02*X218326D01*
X217126Y217688D02*X218726Y216088D01*
X219686Y218088D02*X220086Y218488D01*
X219686Y215688D02*Y218088D01*
Y215688D02*X220086Y215288D01*
X220886D01*
X221286Y215688D01*
Y218088D01*
X220886Y218488D02*X221286Y218088D01*
X220086Y218488D02*X220886D01*
X219686Y217688D02*X221286Y216088D01*
X212992Y186068D02*X214032D01*
X212432Y185508D02*X212992Y186068D01*
X212432Y183428D02*Y185508D01*
Y183428D02*X212992Y182868D01*
X214032D01*
X214992Y183268D02*X215392Y182868D01*
X216192D01*
X216592Y183268D01*
X216192Y186068D02*X216592Y185668D01*
X215392Y186068D02*X216192D01*
X214992Y185668D02*X215392Y186068D01*
Y184308D02*X216192D01*
X216592Y183268D02*Y183908D01*
Y184708D02*Y185668D01*
Y184708D02*X216192Y184308D01*
X216592Y183908D02*X216192Y184308D01*
X217552Y183508D02*X218192Y182868D01*
Y186068D01*
X217552D02*X218752D01*
X220112D02*X221312Y184468D01*
Y183268D02*Y184468D01*
X220912Y182868D02*X221312Y183268D01*
X220112Y182868D02*X220912D01*
X219712Y183268D02*X220112Y182868D01*
X219712Y183268D02*Y184068D01*
X220112Y184468D01*
X221312D01*
X279492Y194420D02*X280532D01*
X278932Y193860D02*X279492Y194420D01*
X278932Y191780D02*Y193860D01*
Y191780D02*X279492Y191220D01*
X280532D01*
X281492Y191620D02*X281892Y191220D01*
X282692D01*
X283092Y191620D01*
X282692Y194420D02*X283092Y194020D01*
X281892Y194420D02*X282692D01*
X281492Y194020D02*X281892Y194420D01*
Y192660D02*X282692D01*
X283092Y191620D02*Y192260D01*
Y193060D02*Y194020D01*
Y193060D02*X282692Y192660D01*
X283092Y192260D02*X282692Y192660D01*
X284052Y191620D02*X284452Y191220D01*
X285652D01*
X286052Y191620D01*
Y192420D01*
X284052Y194420D02*X286052Y192420D01*
X284052Y194420D02*X286052D01*
X287012Y193220D02*X288612Y191220D01*
X287012Y193220D02*X289012D01*
X288612Y191220D02*Y194420D01*
X284611Y186394D02*Y187434D01*
X284051Y187994D02*X284611Y187434D01*
X281971Y187994D02*X284051D01*
X281971D02*X281411Y187434D01*
Y186394D02*Y187434D01*
X281811Y185434D02*X281411Y185034D01*
Y184234D02*Y185034D01*
Y184234D02*X281811Y183834D01*
X284611Y184234D02*X284211Y183834D01*
X284611Y184234D02*Y185034D01*
X284211Y185434D02*X284611Y185034D01*
X282851Y184234D02*Y185034D01*
X281811Y183834D02*X282451D01*
X283251D02*X284211D01*
X283251D02*X282851Y184234D01*
X282451Y183834D02*X282851Y184234D01*
X283411Y182874D02*X281411Y181274D01*
X283411Y180874D02*Y182874D01*
X281411Y181274D02*X284611D01*
X281411Y178714D02*X281811Y178314D01*
X281411Y178714D02*Y179514D01*
X281811Y179914D02*X281411Y179514D01*
X281811Y179914D02*X284211D01*
X284611Y179514D01*
X282851Y178714D02*X283251Y178314D01*
X282851Y178714D02*Y179914D01*
X284611Y178714D02*Y179514D01*
Y178714D02*X284211Y178314D01*
X283251D02*X284211D01*
X293856Y186396D02*Y187436D01*
X293296Y187996D02*X293856Y187436D01*
X291216Y187996D02*X293296D01*
X291216D02*X290656Y187436D01*
Y186396D02*Y187436D01*
X291056Y185436D02*X290656Y185036D01*
Y184236D02*Y185036D01*
Y184236D02*X291056Y183836D01*
X293856Y184236D02*X293456Y183836D01*
X293856Y184236D02*Y185036D01*
X293456Y185436D02*X293856Y185036D01*
X292096Y184236D02*Y185036D01*
X291056Y183836D02*X291696D01*
X292496D02*X293456D01*
X292496D02*X292096Y184236D01*
X291696Y183836D02*X292096Y184236D01*
X292656Y182876D02*X290656Y181276D01*
X292656Y180876D02*Y182876D01*
X290656Y181276D02*X293856D01*
Y179516D02*X290656Y177916D01*
Y179916D01*
X285506Y171794D02*X287106D01*
X287506Y172194D01*
Y172994D01*
X287106Y173394D02*X287506Y172994D01*
X285906Y173394D02*X287106D01*
X285906Y171794D02*Y174994D01*
X286546Y173394D02*X287506Y174994D01*
X288466Y172194D02*X288866Y171794D01*
X289666D01*
X290066Y172194D01*
X289666Y174994D02*X290066Y174594D01*
X288866Y174994D02*X289666D01*
X288466Y174594D02*X288866Y174994D01*
Y173234D02*X289666D01*
X290066Y172194D02*Y172834D01*
Y173634D02*Y174594D01*
Y173634D02*X289666Y173234D01*
X290066Y172834D02*X289666Y173234D01*
X291026Y172434D02*X291666Y171794D01*
Y174994D01*
X291026D02*X292226D01*
X293186Y173794D02*X294786Y171794D01*
X293186Y173794D02*X295186D01*
X294786Y171794D02*Y174994D01*
X273474Y183894D02*Y184934D01*
X272914Y185494D02*X273474Y184934D01*
X270834Y185494D02*X272914D01*
X270834D02*X270274Y184934D01*
Y183894D02*Y184934D01*
X270674Y182934D02*X270274Y182534D01*
Y181734D02*Y182534D01*
Y181734D02*X270674Y181334D01*
X273474Y181734D02*X273074Y181334D01*
X273474Y181734D02*Y182534D01*
X273074Y182934D02*X273474Y182534D01*
X271714Y181734D02*Y182534D01*
X270674Y181334D02*X271314D01*
X272114D02*X273074D01*
X272114D02*X271714Y181734D01*
X271314Y181334D02*X271714Y181734D01*
X270674Y180374D02*X270274Y179974D01*
Y179174D02*Y179974D01*
Y179174D02*X270674Y178774D01*
X273474Y179174D02*X273074Y178774D01*
X273474Y179174D02*Y179974D01*
X273074Y180374D02*X273474Y179974D01*
X271714Y179174D02*Y179974D01*
X270674Y178774D02*X271314D01*
X272114D02*X273074D01*
X272114D02*X271714Y179174D01*
X271314Y178774D02*X271714Y179174D01*
X270674Y177814D02*X270274Y177414D01*
Y176614D02*Y177414D01*
Y176614D02*X270674Y176214D01*
X273474Y176614D02*X273074Y176214D01*
X273474Y176614D02*Y177414D01*
X273074Y177814D02*X273474Y177414D01*
X271714Y176614D02*Y177414D01*
X270674Y176214D02*X271314D01*
X272114D02*X273074D01*
X272114D02*X271714Y176614D01*
X271314Y176214D02*X271714Y176614D01*
X284006Y155794D02*X285606D01*
X286006Y156194D01*
Y156994D01*
X285606Y157394D02*X286006Y156994D01*
X284406Y157394D02*X285606D01*
X284406Y155794D02*Y158994D01*
X285046Y157394D02*X286006Y158994D01*
X286966Y156194D02*X287366Y155794D01*
X288166D01*
X288566Y156194D01*
X288166Y158994D02*X288566Y158594D01*
X287366Y158994D02*X288166D01*
X286966Y158594D02*X287366Y158994D01*
Y157234D02*X288166D01*
X288566Y156194D02*Y156834D01*
Y157634D02*Y158594D01*
Y157634D02*X288166Y157234D01*
X288566Y156834D02*X288166Y157234D01*
X289526Y156434D02*X290166Y155794D01*
Y158994D01*
X289526D02*X290726D01*
X292086D02*X293686Y155794D01*
X291686D02*X293686D01*
X293006Y168894D02*Y169934D01*
X292446Y170494D02*X293006Y169934D01*
X290366Y170494D02*X292446D01*
X290366D02*X289806Y169934D01*
Y168894D02*Y169934D01*
X290206Y167934D02*X289806Y167534D01*
Y166734D02*Y167534D01*
Y166734D02*X290206Y166334D01*
X293006Y166734D02*X292606Y166334D01*
X293006Y166734D02*Y167534D01*
X292606Y167934D02*X293006Y167534D01*
X291246Y166734D02*Y167534D01*
X290206Y166334D02*X290846D01*
X291646D02*X292606D01*
X291646D02*X291246Y166734D01*
X290846Y166334D02*X291246Y166734D01*
X291806Y165374D02*X289806Y163774D01*
X291806Y163374D02*Y165374D01*
X289806Y163774D02*X293006D01*
X291806Y162414D02*X289806Y160814D01*
X291806Y160414D02*Y162414D01*
X289806Y160814D02*X293006D01*
X285066Y153994D02*X286106D01*
X284506Y153434D02*X285066Y153994D01*
X284506Y151354D02*Y153434D01*
Y151354D02*X285066Y150794D01*
X286106D01*
X287066Y151194D02*X287466Y150794D01*
X288266D01*
X288666Y151194D01*
X288266Y153994D02*X288666Y153594D01*
X287466Y153994D02*X288266D01*
X287066Y153594D02*X287466Y153994D01*
Y152234D02*X288266D01*
X288666Y151194D02*Y151834D01*
Y152634D02*Y153594D01*
Y152634D02*X288266Y152234D01*
X288666Y151834D02*X288266Y152234D01*
X289626Y152794D02*X291226Y150794D01*
X289626Y152794D02*X291626D01*
X291226Y150794D02*Y153994D01*
X292586Y153594D02*X292986Y153994D01*
X292586Y152954D02*Y153594D01*
Y152954D02*X293146Y152394D01*
X293626D01*
X294186Y152954D01*
Y153594D01*
X293786Y153994D02*X294186Y153594D01*
X292986Y153994D02*X293786D01*
X292586Y151834D02*X293146Y152394D01*
X292586Y151194D02*Y151834D01*
Y151194D02*X292986Y150794D01*
X293786D01*
X294186Y151194D01*
Y151834D01*
X293626Y152394D02*X294186Y151834D01*
X285066Y149494D02*X286106D01*
X284506Y148934D02*X285066Y149494D01*
X284506Y146854D02*Y148934D01*
Y146854D02*X285066Y146294D01*
X286106D01*
X287066Y146694D02*X287466Y146294D01*
X288266D01*
X288666Y146694D01*
X288266Y149494D02*X288666Y149094D01*
X287466Y149494D02*X288266D01*
X287066Y149094D02*X287466Y149494D01*
Y147734D02*X288266D01*
X288666Y146694D02*Y147334D01*
Y148134D02*Y149094D01*
Y148134D02*X288266Y147734D01*
X288666Y147334D02*X288266Y147734D01*
X289626Y148294D02*X291226Y146294D01*
X289626Y148294D02*X291626D01*
X291226Y146294D02*Y149494D01*
X292986D02*X294186Y147894D01*
Y146694D02*Y147894D01*
X293786Y146294D02*X294186Y146694D01*
X292986Y146294D02*X293786D01*
X292586Y146694D02*X292986Y146294D01*
X292586Y146694D02*Y147494D01*
X292986Y147894D01*
X294186D01*
X222286Y172918D02*X223326D01*
X221726Y172358D02*X222286Y172918D01*
X221726Y170278D02*Y172358D01*
Y170278D02*X222286Y169718D01*
X223326D01*
X224286Y170118D02*X224686Y169718D01*
X225486D01*
X225886Y170118D01*
X225486Y172918D02*X225886Y172518D01*
X224686Y172918D02*X225486D01*
X224286Y172518D02*X224686Y172918D01*
Y171158D02*X225486D01*
X225886Y170118D02*Y170758D01*
Y171558D02*Y172518D01*
Y171558D02*X225486Y171158D01*
X225886Y170758D02*X225486Y171158D01*
X226846Y170118D02*X227246Y169718D01*
X228046D01*
X228446Y170118D01*
X228046Y172918D02*X228446Y172518D01*
X227246Y172918D02*X228046D01*
X226846Y172518D02*X227246Y172918D01*
Y171158D02*X228046D01*
X228446Y170118D02*Y170758D01*
Y171558D02*Y172518D01*
Y171558D02*X228046Y171158D01*
X228446Y170758D02*X228046Y171158D01*
X229406Y169718D02*X231006D01*
X229406D02*Y171318D01*
X229806Y170918D01*
X230606D01*
X231006Y171318D01*
Y172518D01*
X230606Y172918D02*X231006Y172518D01*
X229806Y172918D02*X230606D01*
X229406Y172518D02*X229806Y172918D01*
X226066Y158994D02*X227106D01*
X225506Y158434D02*X226066Y158994D01*
X225506Y156354D02*Y158434D01*
Y156354D02*X226066Y155794D01*
X227106D01*
X228066Y156194D02*X228466Y155794D01*
X229266D01*
X229666Y156194D01*
X229266Y158994D02*X229666Y158594D01*
X228466Y158994D02*X229266D01*
X228066Y158594D02*X228466Y158994D01*
Y157234D02*X229266D01*
X229666Y156194D02*Y156834D01*
Y157634D02*Y158594D01*
Y157634D02*X229266Y157234D01*
X229666Y156834D02*X229266Y157234D01*
X230626Y156194D02*X231026Y155794D01*
X231826D01*
X232226Y156194D01*
X231826Y158994D02*X232226Y158594D01*
X231026Y158994D02*X231826D01*
X230626Y158594D02*X231026Y158994D01*
Y157234D02*X231826D01*
X232226Y156194D02*Y156834D01*
Y157634D02*Y158594D01*
Y157634D02*X231826Y157234D01*
X232226Y156834D02*X231826Y157234D01*
X233586Y158994D02*X235186Y155794D01*
X233186D02*X235186D01*
X245793Y181410D02*Y182450D01*
X245233Y183010D02*X245793Y182450D01*
X243153Y183010D02*X245233D01*
X243153D02*X242593Y182450D01*
Y181410D02*Y182450D01*
X242993Y180450D02*X242593Y180050D01*
Y179250D02*Y180050D01*
Y179250D02*X242993Y178850D01*
X245793Y179250D02*X245393Y178850D01*
X245793Y179250D02*Y180050D01*
X245393Y180450D02*X245793Y180050D01*
X244033Y179250D02*Y180050D01*
X242993Y178850D02*X243633D01*
X244433D02*X245393D01*
X244433D02*X244033Y179250D01*
X243633Y178850D02*X244033Y179250D01*
X244593Y177890D02*X242593Y176290D01*
X244593Y175890D02*Y177890D01*
X242593Y176290D02*X245793D01*
X242993Y174930D02*X242593Y174530D01*
Y173730D02*Y174530D01*
Y173730D02*X242993Y173330D01*
X245793Y173730D02*X245393Y173330D01*
X245793Y173730D02*Y174530D01*
X245393Y174930D02*X245793Y174530D01*
X244033Y173730D02*Y174530D01*
X242993Y173330D02*X243633D01*
X244433D02*X245393D01*
X244433D02*X244033Y173730D01*
X243633Y173330D02*X244033Y173730D01*
X291000Y117000D02*X291500Y117500D01*
X289500Y117000D02*X291000D01*
X289000Y117500D02*X289500Y117000D01*
X289000Y117500D02*Y118500D01*
X289500Y119000D01*
X291000D01*
X291500Y119500D01*
Y120500D01*
X291000Y121000D02*X291500Y120500D01*
X289500Y121000D02*X291000D01*
X289000Y120500D02*X289500Y121000D01*
X292700Y117000D02*Y121000D01*
Y119500D02*X293200Y119000D01*
X294200D01*
X294700Y119500D01*
Y121000D01*
X295900Y119500D02*X297900Y117000D01*
X295900Y119500D02*X298400D01*
X297900Y117000D02*Y121000D01*
X299600Y120500D02*X300100Y121000D01*
X299600Y117500D02*Y120500D01*
Y117500D02*X300100Y117000D01*
X301100D01*
X301600Y117500D01*
Y120500D01*
X301100Y121000D02*X301600Y120500D01*
X300100Y121000D02*X301100D01*
X299600Y120000D02*X301600Y118000D01*
X302800Y117000D02*X304800D01*
X302800D02*Y119000D01*
X303300Y118500D01*
X304300D01*
X304800Y119000D01*
Y120500D01*
X304300Y121000D02*X304800Y120500D01*
X303300Y121000D02*X304300D01*
X302800Y120500D02*X303300Y121000D01*
X274006Y142320D02*Y143360D01*
X273446Y143920D02*X274006Y143360D01*
X271366Y143920D02*X273446D01*
X271366D02*X270806Y143360D01*
Y142320D02*Y143360D01*
X271206Y141360D02*X270806Y140960D01*
Y140160D02*Y140960D01*
Y140160D02*X271206Y139760D01*
X274006Y140160D02*X273606Y139760D01*
X274006Y140160D02*Y140960D01*
X273606Y141360D02*X274006Y140960D01*
X272246Y140160D02*Y140960D01*
X271206Y139760D02*X271846D01*
X272646D02*X273606D01*
X272646D02*X272246Y140160D01*
X271846Y139760D02*X272246Y140160D01*
X270806Y137200D02*Y138800D01*
X272406D01*
X272006Y138400D01*
Y137600D02*Y138400D01*
Y137600D02*X272406Y137200D01*
X273606D01*
X274006Y137600D02*X273606Y137200D01*
X274006Y137600D02*Y138400D01*
X273606Y138800D02*X274006Y138400D01*
X273606Y136240D02*X274006Y135840D01*
X271206Y136240D02*X273606D01*
X271206D02*X270806Y135840D01*
Y135040D02*Y135840D01*
Y135040D02*X271206Y134640D01*
X273606D01*
X274006Y135040D02*X273606Y134640D01*
X274006Y135040D02*Y135840D01*
X273206Y136240D02*X271606Y134640D01*
X286640Y139994D02*X287680D01*
X286080Y139434D02*X286640Y139994D01*
X286080Y137354D02*Y139434D01*
Y137354D02*X286640Y136794D01*
X287680D01*
X288640Y137194D02*X289040Y136794D01*
X289840D01*
X290240Y137194D01*
X289840Y139994D02*X290240Y139594D01*
X289040Y139994D02*X289840D01*
X288640Y139594D02*X289040Y139994D01*
Y138234D02*X289840D01*
X290240Y137194D02*Y137834D01*
Y138634D02*Y139594D01*
Y138634D02*X289840Y138234D01*
X290240Y137834D02*X289840Y138234D01*
X291200Y136794D02*X292800D01*
X291200D02*Y138394D01*
X291600Y137994D01*
X292400D01*
X292800Y138394D01*
Y139594D01*
X292400Y139994D02*X292800Y139594D01*
X291600Y139994D02*X292400D01*
X291200Y139594D02*X291600Y139994D01*
X293760Y137434D02*X294400Y136794D01*
Y139994D01*
X293760D02*X294960D01*
X254856Y143587D02*Y144627D01*
X254296Y145187D02*X254856Y144627D01*
X252216Y145187D02*X254296D01*
X252216D02*X251656Y144627D01*
Y143587D02*Y144627D01*
X252056Y142627D02*X251656Y142227D01*
Y141427D02*Y142227D01*
Y141427D02*X252056Y141027D01*
X254856Y141427D02*X254456Y141027D01*
X254856Y141427D02*Y142227D01*
X254456Y142627D02*X254856Y142227D01*
X253096Y141427D02*Y142227D01*
X252056Y141027D02*X252696D01*
X253496D02*X254456D01*
X253496D02*X253096Y141427D01*
X252696Y141027D02*X253096Y141427D01*
X252056Y140067D02*X251656Y139667D01*
Y138867D02*Y139667D01*
Y138867D02*X252056Y138467D01*
X254856Y138867D02*X254456Y138467D01*
X254856Y138867D02*Y139667D01*
X254456Y140067D02*X254856Y139667D01*
X253096Y138867D02*Y139667D01*
X252056Y138467D02*X252696D01*
X253496D02*X254456D01*
X253496D02*X253096Y138867D01*
X252696Y138467D02*X253096Y138867D01*
X253656Y137507D02*X251656Y135907D01*
X253656Y135507D02*Y137507D01*
X251656Y135907D02*X254856D01*
X234841Y139876D02*X235881D01*
X234281Y139316D02*X234841Y139876D01*
X234281Y137236D02*Y139316D01*
Y137236D02*X234841Y136676D01*
X235881D01*
X236841Y137076D02*X237241Y136676D01*
X238041D01*
X238441Y137076D01*
X238041Y139876D02*X238441Y139476D01*
X237241Y139876D02*X238041D01*
X236841Y139476D02*X237241Y139876D01*
Y138116D02*X238041D01*
X238441Y137076D02*Y137716D01*
Y138516D02*Y139476D01*
Y138516D02*X238041Y138116D01*
X238441Y137716D02*X238041Y138116D01*
X239402Y138676D02*X241002Y136676D01*
X239402Y138676D02*X241402D01*
X241002Y136676D02*Y139876D01*
X242362Y139476D02*X242762Y139876D01*
X242362Y137076D02*Y139476D01*
Y137076D02*X242762Y136676D01*
X243562D01*
X243962Y137076D01*
Y139476D01*
X243562Y139876D02*X243962Y139476D01*
X242762Y139876D02*X243562D01*
X242362Y139076D02*X243962Y137476D01*
X264673Y143394D02*Y144434D01*
X264113Y144994D02*X264673Y144434D01*
X262033Y144994D02*X264113D01*
X262033D02*X261473Y144434D01*
Y143394D02*Y144434D01*
X261873Y142434D02*X261473Y142034D01*
Y141234D02*Y142034D01*
Y141234D02*X261873Y140834D01*
X264673Y141234D02*X264273Y140834D01*
X264673Y141234D02*Y142034D01*
X264273Y142434D02*X264673Y142034D01*
X262913Y141234D02*Y142034D01*
X261873Y140834D02*X262513D01*
X263313D02*X264273D01*
X263313D02*X262913Y141234D01*
X262513Y140834D02*X262913Y141234D01*
X261873Y139874D02*X261473Y139474D01*
Y138674D02*Y139474D01*
Y138674D02*X261873Y138274D01*
X264673Y138674D02*X264273Y138274D01*
X264673Y138674D02*Y139474D01*
X264273Y139874D02*X264673Y139474D01*
X262913Y138674D02*Y139474D01*
X261873Y138274D02*X262513D01*
X263313D02*X264273D01*
X263313D02*X262913Y138674D01*
X262513Y138274D02*X262913Y138674D01*
X264273Y137314D02*X264673Y136914D01*
X263633Y137314D02*X264273D01*
X263633D02*X263073Y136754D01*
Y136274D02*Y136754D01*
Y136274D02*X263633Y135714D01*
X264273D01*
X264673Y136114D02*X264273Y135714D01*
X264673Y136114D02*Y136914D01*
X262513Y137314D02*X263073Y136754D01*
X261873Y137314D02*X262513D01*
X261873D02*X261473Y136914D01*
Y136114D02*Y136914D01*
Y136114D02*X261873Y135714D01*
X262513D01*
X263073Y136274D02*X262513Y135714D01*
X166066Y117494D02*X167106D01*
X165506Y116934D02*X166066Y117494D01*
X165506Y114854D02*Y116934D01*
Y114854D02*X166066Y114294D01*
X167106D01*
X168066Y114694D02*X168466Y114294D01*
X169266D01*
X169666Y114694D01*
X169266Y117494D02*X169666Y117094D01*
X168466Y117494D02*X169266D01*
X168066Y117094D02*X168466Y117494D01*
Y115734D02*X169266D01*
X169666Y114694D02*Y115334D01*
Y116134D02*Y117094D01*
Y116134D02*X169266Y115734D01*
X169666Y115334D02*X169266Y115734D01*
X170626Y114934D02*X171266Y114294D01*
Y117494D01*
X170626D02*X171826D01*
X172786Y114294D02*X174386D01*
X172786D02*Y115894D01*
X173186Y115494D01*
X173986D01*
X174386Y115894D01*
Y117094D01*
X173986Y117494D02*X174386Y117094D01*
X173186Y117494D02*X173986D01*
X172786Y117094D02*X173186Y117494D01*
X159851Y237144D02*Y240344D01*
X161451D01*
X162411Y237544D02*X162811Y237144D01*
X163611D01*
X164011Y237544D01*
X163611Y240344D02*X164011Y239944D01*
X162811Y240344D02*X163611D01*
X162411Y239944D02*X162811Y240344D01*
Y238584D02*X163611D01*
X164011Y237544D02*Y238184D01*
Y238984D02*Y239944D01*
Y238984D02*X163611Y238584D01*
X164011Y238184D02*X163611Y238584D01*
X164971Y239944D02*X165371Y240344D01*
X164971Y237544D02*Y239944D01*
Y237544D02*X165371Y237144D01*
X166171D01*
X166571Y237544D01*
Y239944D01*
X166171Y240344D02*X166571Y239944D01*
X165371Y240344D02*X166171D01*
X164971Y239544D02*X166571Y237944D01*
X167531Y239944D02*X167931Y240344D01*
X167531Y237544D02*Y239944D01*
Y237544D02*X167931Y237144D01*
X168731D01*
X169131Y237544D01*
Y239944D01*
X168731Y240344D02*X169131Y239944D01*
X167931Y240344D02*X168731D01*
X167531Y239544D02*X169131Y237944D01*
X165566Y110494D02*X166606D01*
X165006Y109934D02*X165566Y110494D01*
X165006Y107854D02*Y109934D01*
Y107854D02*X165566Y107294D01*
X166606D01*
X167566Y107694D02*X167966Y107294D01*
X168766D01*
X169166Y107694D01*
X168766Y110494D02*X169166Y110094D01*
X167966Y110494D02*X168766D01*
X167566Y110094D02*X167966Y110494D01*
Y108734D02*X168766D01*
X169166Y107694D02*Y108334D01*
Y109134D02*Y110094D01*
Y109134D02*X168766Y108734D01*
X169166Y108334D02*X168766Y108734D01*
X170126Y107934D02*X170766Y107294D01*
Y110494D01*
X170126D02*X171326D01*
X172286Y110094D02*X172686Y110494D01*
X172286Y109454D02*Y110094D01*
Y109454D02*X172846Y108894D01*
X173326D01*
X173886Y109454D01*
Y110094D01*
X173486Y110494D02*X173886Y110094D01*
X172686Y110494D02*X173486D01*
X172286Y108334D02*X172846Y108894D01*
X172286Y107694D02*Y108334D01*
Y107694D02*X172686Y107294D01*
X173486D01*
X173886Y107694D01*
Y108334D01*
X173326Y108894D02*X173886Y108334D01*
X173856Y193544D02*Y194584D01*
X173296Y195144D02*X173856Y194584D01*
X171216Y195144D02*X173296D01*
X171216D02*X170656Y194584D01*
Y193544D02*Y194584D01*
X171056Y192584D02*X170656Y192184D01*
Y191384D02*Y192184D01*
Y191384D02*X171056Y190984D01*
X173856Y191384D02*X173456Y190984D01*
X173856Y191384D02*Y192184D01*
X173456Y192584D02*X173856Y192184D01*
X172096Y191384D02*Y192184D01*
X171056Y190984D02*X171696D01*
X172496D02*X173456D01*
X172496D02*X172096Y191384D01*
X171696Y190984D02*X172096Y191384D01*
X171056Y190024D02*X170656Y189624D01*
Y188424D02*Y189624D01*
Y188424D02*X171056Y188024D01*
X171856D01*
X173856Y190024D02*X171856Y188024D01*
X173856D02*Y190024D01*
Y186664D02*X172256Y185464D01*
X171056D02*X172256D01*
X170656Y185864D02*X171056Y185464D01*
X170656Y185864D02*Y186664D01*
X171056Y187064D02*X170656Y186664D01*
X171056Y187064D02*X171856D01*
X172256Y186664D01*
Y185464D02*Y186664D01*
X168506Y89294D02*Y92494D01*
X170106D01*
X171066Y89694D02*X171466Y89294D01*
X172266D01*
X172666Y89694D01*
X172266Y92494D02*X172666Y92094D01*
X171466Y92494D02*X172266D01*
X171066Y92094D02*X171466Y92494D01*
Y90734D02*X172266D01*
X172666Y89694D02*Y90334D01*
Y91134D02*Y92094D01*
Y91134D02*X172266Y90734D01*
X172666Y90334D02*X172266Y90734D01*
X173626Y92094D02*X174026Y92494D01*
X173626Y89694D02*Y92094D01*
Y89694D02*X174026Y89294D01*
X174826D01*
X175226Y89694D01*
Y92094D01*
X174826Y92494D02*X175226Y92094D01*
X174026Y92494D02*X174826D01*
X173626Y91694D02*X175226Y90094D01*
X176586Y92494D02*X178186Y89294D01*
X176186D02*X178186D01*
X181770Y116087D02*Y117127D01*
X181210Y117687D02*X181770Y117127D01*
X179130Y117687D02*X181210D01*
X179130D02*X178570Y117127D01*
Y116087D02*Y117127D01*
X178970Y115127D02*X178570Y114727D01*
Y113927D02*Y114727D01*
Y113927D02*X178970Y113527D01*
X181770Y113927D02*X181370Y113527D01*
X181770Y113927D02*Y114727D01*
X181370Y115127D02*X181770Y114727D01*
X180010Y113927D02*Y114727D01*
X178970Y113527D02*X179610D01*
X180410D02*X181370D01*
X180410D02*X180010Y113927D01*
X179610Y113527D02*X180010Y113927D01*
X179210Y112567D02*X178570Y111927D01*
X181770D01*
Y111367D02*Y112567D01*
Y110007D02*X178570Y108407D01*
Y110407D01*
X185767Y97770D02*X186807D01*
X185207Y97210D02*X185767Y97770D01*
X185207Y95130D02*Y97210D01*
Y95130D02*X185767Y94570D01*
X186807D01*
X187767Y94970D02*X188167Y94570D01*
X188967D01*
X189367Y94970D01*
X188967Y97770D02*X189367Y97370D01*
X188167Y97770D02*X188967D01*
X187767Y97370D02*X188167Y97770D01*
Y96010D02*X188967D01*
X189367Y94970D02*Y95610D01*
Y96410D02*Y97370D01*
Y96410D02*X188967Y96010D01*
X189367Y95610D02*X188967Y96010D01*
X190327Y94970D02*X190727Y94570D01*
X191927D01*
X192327Y94970D01*
Y95770D01*
X190327Y97770D02*X192327Y95770D01*
X190327Y97770D02*X192327D01*
X193287Y94570D02*X194887D01*
X193287D02*Y96170D01*
X193687Y95770D01*
X194487D01*
X194887Y96170D01*
Y97370D01*
X194487Y97770D02*X194887Y97370D01*
X193687Y97770D02*X194487D01*
X193287Y97370D02*X193687Y97770D01*
X230663Y213999D02*Y217199D01*
X232263D01*
X233223Y214399D02*X233623Y213999D01*
X234423D01*
X234823Y214399D01*
X234423Y217199D02*X234823Y216799D01*
X233623Y217199D02*X234423D01*
X233223Y216799D02*X233623Y217199D01*
Y215439D02*X234423D01*
X234823Y214399D02*Y215039D01*
Y215839D02*Y216799D01*
Y215839D02*X234423Y215439D01*
X234823Y215039D02*X234423Y215439D01*
X235783Y216799D02*X236183Y217199D01*
X235783Y214399D02*Y216799D01*
Y214399D02*X236183Y213999D01*
X236983D01*
X237383Y214399D01*
Y216799D01*
X236983Y217199D02*X237383Y216799D01*
X236183Y217199D02*X236983D01*
X235783Y216399D02*X237383Y214799D01*
X238343Y214399D02*X238743Y213999D01*
X239943D01*
X240343Y214399D01*
Y215199D01*
X238343Y217199D02*X240343Y215199D01*
X238343Y217199D02*X240343D01*
X224663Y233557D02*X226263D01*
X226663Y233957D01*
Y234757D01*
X226263Y235157D02*X226663Y234757D01*
X225063Y235157D02*X226263D01*
X225063Y233557D02*Y236757D01*
X225703Y235157D02*X226663Y236757D01*
X227623Y233957D02*X228023Y233557D01*
X228823D01*
X229223Y233957D01*
X228823Y236757D02*X229223Y236357D01*
X228023Y236757D02*X228823D01*
X227623Y236357D02*X228023Y236757D01*
Y234997D02*X228823D01*
X229223Y233957D02*Y234597D01*
Y235397D02*Y236357D01*
Y235397D02*X228823Y234997D01*
X229223Y234597D02*X228823Y234997D01*
X230183Y236357D02*X230583Y236757D01*
X230183Y233957D02*Y236357D01*
Y233957D02*X230583Y233557D01*
X231383D01*
X231783Y233957D01*
Y236357D01*
X231383Y236757D02*X231783Y236357D01*
X230583Y236757D02*X231383D01*
X230183Y235957D02*X231783Y234357D01*
X232743Y235557D02*X234343Y233557D01*
X232743Y235557D02*X234743D01*
X234343Y233557D02*Y236757D01*
X233806Y194935D02*X237006D01*
Y193335D02*Y194935D01*
X234206Y192375D02*X233806Y191975D01*
Y191175D02*Y191975D01*
Y191175D02*X234206Y190775D01*
X237006Y191175D02*X236606Y190775D01*
X237006Y191175D02*Y191975D01*
X236606Y192375D02*X237006Y191975D01*
X235246Y191175D02*Y191975D01*
X234206Y190775D02*X234846D01*
X235646D02*X236606D01*
X235646D02*X235246Y191175D01*
X234846Y190775D02*X235246Y191175D01*
X236606Y189815D02*X237006Y189415D01*
X234206Y189815D02*X236606D01*
X234206D02*X233806Y189415D01*
Y188615D02*Y189415D01*
Y188615D02*X234206Y188215D01*
X236606D01*
X237006Y188615D02*X236606Y188215D01*
X237006Y188615D02*Y189415D01*
X236206Y189815D02*X234606Y188215D01*
X235806Y187255D02*X233806Y185655D01*
X235806Y185255D02*Y187255D01*
X233806Y185655D02*X237006D01*
X229156Y185949D02*Y187549D01*
Y185949D02*X229556Y185549D01*
X230356D01*
X230756Y185949D02*X230356Y185549D01*
X230756Y185949D02*Y187149D01*
X229156D02*X232356D01*
X230756Y186509D02*X232356Y185549D01*
X229556Y184589D02*X229156Y184189D01*
Y183389D02*Y184189D01*
Y183389D02*X229556Y182989D01*
X232356Y183389D02*X231956Y182989D01*
X232356Y183389D02*Y184189D01*
X231956Y184589D02*X232356Y184189D01*
X230596Y183389D02*Y184189D01*
X229556Y182989D02*X230196D01*
X230996D02*X231956D01*
X230996D02*X230596Y183389D01*
X230196Y182989D02*X230596Y183389D01*
X229796Y182029D02*X229156Y181389D01*
X232356D01*
Y180829D02*Y182029D01*
X229156Y178669D02*X229556Y178269D01*
X229156Y178669D02*Y179469D01*
X229556Y179869D02*X229156Y179469D01*
X229556Y179869D02*X231956D01*
X232356Y179469D01*
X230596Y178669D02*X230996Y178269D01*
X230596Y178669D02*Y179869D01*
X232356Y178669D02*Y179469D01*
Y178669D02*X231956Y178269D01*
X230996D02*X231956D01*
X212097Y180068D02*X213137D01*
X211537Y179508D02*X212097Y180068D01*
X211537Y177428D02*Y179508D01*
Y177428D02*X212097Y176868D01*
X213137D01*
X214097Y177268D02*X214497Y176868D01*
X215297D01*
X215697Y177268D01*
X215297Y180068D02*X215697Y179668D01*
X214497Y180068D02*X215297D01*
X214097Y179668D02*X214497Y180068D01*
Y178308D02*X215297D01*
X215697Y177268D02*Y177908D01*
Y178708D02*Y179668D01*
Y178708D02*X215297Y178308D01*
X215697Y177908D02*X215297Y178308D01*
X216657Y178868D02*X218257Y176868D01*
X216657Y178868D02*X218657D01*
X218257Y176868D02*Y180068D01*
X219617Y176868D02*X221217D01*
X219617D02*Y178468D01*
X220017Y178068D01*
X220817D01*
X221217Y178468D01*
Y179668D01*
X220817Y180068D02*X221217Y179668D01*
X220017Y180068D02*X220817D01*
X219617Y179668D02*X220017Y180068D01*
X224373Y148344D02*X225413D01*
X223813Y147784D02*X224373Y148344D01*
X223813Y145704D02*Y147784D01*
Y145704D02*X224373Y145144D01*
X225413D01*
X226373Y145544D02*X226773Y145144D01*
X227573D01*
X227973Y145544D01*
X227573Y148344D02*X227973Y147944D01*
X226773Y148344D02*X227573D01*
X226373Y147944D02*X226773Y148344D01*
Y146584D02*X227573D01*
X227973Y145544D02*Y146184D01*
Y146984D02*Y147944D01*
Y146984D02*X227573Y146584D01*
X227973Y146184D02*X227573Y146584D01*
X228933Y145544D02*X229333Y145144D01*
X230133D01*
X230533Y145544D01*
X230133Y148344D02*X230533Y147944D01*
X229333Y148344D02*X230133D01*
X228933Y147944D02*X229333Y148344D01*
Y146584D02*X230133D01*
X230533Y145544D02*Y146184D01*
Y146984D02*Y147944D01*
Y146984D02*X230133Y146584D01*
X230533Y146184D02*X230133Y146584D01*
X231893Y148344D02*X233093Y146744D01*
Y145544D02*Y146744D01*
X232693Y145144D02*X233093Y145544D01*
X231893Y145144D02*X232693D01*
X231493Y145544D02*X231893Y145144D01*
X231493Y145544D02*Y146344D01*
X231893Y146744D01*
X233093D01*
X224856Y150848D02*X226456D01*
X226856Y151248D01*
Y152048D01*
X226456Y152448D02*X226856Y152048D01*
X225256Y152448D02*X226456D01*
X225256Y150848D02*Y154048D01*
X225896Y152448D02*X226856Y154048D01*
X227816Y151248D02*X228216Y150848D01*
X229016D01*
X229416Y151248D01*
X229016Y154048D02*X229416Y153648D01*
X228216Y154048D02*X229016D01*
X227816Y153648D02*X228216Y154048D01*
Y152288D02*X229016D01*
X229416Y151248D02*Y151888D01*
Y152688D02*Y153648D01*
Y152688D02*X229016Y152288D01*
X229416Y151888D02*X229016Y152288D01*
X230376Y151488D02*X231016Y150848D01*
Y154048D01*
X230376D02*X231576D01*
X232536Y151248D02*X232936Y150848D01*
X234136D01*
X234536Y151248D01*
Y152048D01*
X232536Y154048D02*X234536Y152048D01*
X232536Y154048D02*X234536D01*
X174232Y162902D02*Y166102D01*
Y162902D02*X175832D01*
X174232Y164342D02*X175432D01*
X176792Y162902D02*Y166102D01*
X178392D01*
X179352Y163302D02*X179752Y162902D01*
X180552D01*
X180952Y163302D01*
X180552Y166102D02*X180952Y165702D01*
X179752Y166102D02*X180552D01*
X179352Y165702D02*X179752Y166102D01*
Y164342D02*X180552D01*
X180952Y163302D02*Y163942D01*
Y164742D02*Y165702D01*
Y164742D02*X180552Y164342D01*
X180952Y163942D02*X180552Y164342D01*
X181912Y165702D02*X182312Y166102D01*
X181912Y163302D02*Y165702D01*
Y163302D02*X182312Y162902D01*
X183112D01*
X183512Y163302D01*
Y165702D01*
X183112Y166102D02*X183512Y165702D01*
X182312Y166102D02*X183112D01*
X181912Y165302D02*X183512Y163702D01*
X184472Y165702D02*X184872Y166102D01*
X184472Y163302D02*Y165702D01*
Y163302D02*X184872Y162902D01*
X185672D01*
X186072Y163302D01*
Y165702D01*
X185672Y166102D02*X186072Y165702D01*
X184872Y166102D02*X185672D01*
X184472Y165302D02*X186072Y163702D01*
X201506Y104794D02*Y107994D01*
X203106D01*
X204066Y105194D02*X204466Y104794D01*
X205266D01*
X205666Y105194D01*
X205266Y107994D02*X205666Y107594D01*
X204466Y107994D02*X205266D01*
X204066Y107594D02*X204466Y107994D01*
Y106234D02*X205266D01*
X205666Y105194D02*Y105834D01*
Y106634D02*Y107594D01*
Y106634D02*X205266Y106234D01*
X205666Y105834D02*X205266Y106234D01*
X206626Y107594D02*X207026Y107994D01*
X206626Y105194D02*Y107594D01*
Y105194D02*X207026Y104794D01*
X207826D01*
X208226Y105194D01*
Y107594D01*
X207826Y107994D02*X208226Y107594D01*
X207026Y107994D02*X207826D01*
X206626Y107194D02*X208226Y105594D01*
X209186Y105194D02*X209586Y104794D01*
X210386D01*
X210786Y105194D01*
X210386Y107994D02*X210786Y107594D01*
X209586Y107994D02*X210386D01*
X209186Y107594D02*X209586Y107994D01*
Y106234D02*X210386D01*
X210786Y105194D02*Y105834D01*
Y106634D02*Y107594D01*
Y106634D02*X210386Y106234D01*
X210786Y105834D02*X210386Y106234D01*
X204708Y196298D02*Y197338D01*
X204148Y197898D02*X204708Y197338D01*
X202068Y197898D02*X204148D01*
X202068D02*X201508Y197338D01*
Y196298D02*Y197338D01*
X201908Y195338D02*X201508Y194938D01*
Y194138D02*Y194938D01*
Y194138D02*X201908Y193738D01*
X204708Y194138D02*X204308Y193738D01*
X204708Y194138D02*Y194938D01*
X204308Y195338D02*X204708Y194938D01*
X202948Y194138D02*Y194938D01*
X201908Y193738D02*X202548D01*
X203348D02*X204308D01*
X203348D02*X202948Y194138D01*
X202548Y193738D02*X202948Y194138D01*
X201908Y192778D02*X201508Y192378D01*
Y191178D02*Y192378D01*
Y191178D02*X201908Y190778D01*
X202708D01*
X204708Y192778D02*X202708Y190778D01*
X204708D02*Y192778D01*
X202148Y189818D02*X201508Y189178D01*
X204708D01*
Y188618D02*Y189818D01*
X204519Y233657D02*X206119D01*
X206519Y234057D01*
Y234857D01*
X206119Y235257D02*X206519Y234857D01*
X204919Y235257D02*X206119D01*
X204919Y233657D02*Y236857D01*
X205559Y235257D02*X206519Y236857D01*
X207479Y234057D02*X207879Y233657D01*
X208679D01*
X209079Y234057D01*
X208679Y236857D02*X209079Y236457D01*
X207879Y236857D02*X208679D01*
X207479Y236457D02*X207879Y236857D01*
Y235097D02*X208679D01*
X209079Y234057D02*Y234697D01*
Y235497D02*Y236457D01*
Y235497D02*X208679Y235097D01*
X209079Y234697D02*X208679Y235097D01*
X210039Y236457D02*X210439Y236857D01*
X210039Y234057D02*Y236457D01*
Y234057D02*X210439Y233657D01*
X211239D01*
X211639Y234057D01*
Y236457D01*
X211239Y236857D02*X211639Y236457D01*
X210439Y236857D02*X211239D01*
X210039Y236057D02*X211639Y234457D01*
X212599Y233657D02*X214199D01*
X212599D02*Y235257D01*
X212999Y234857D01*
X213799D01*
X214199Y235257D01*
Y236457D01*
X213799Y236857D02*X214199Y236457D01*
X212999Y236857D02*X213799D01*
X212599Y236457D02*X212999Y236857D01*
X187656Y188144D02*X190856D01*
Y186544D02*Y188144D01*
X188056Y185584D02*X187656Y185184D01*
Y184384D02*Y185184D01*
Y184384D02*X188056Y183984D01*
X190856Y184384D02*X190456Y183984D01*
X190856Y184384D02*Y185184D01*
X190456Y185584D02*X190856Y185184D01*
X189096Y184384D02*Y185184D01*
X188056Y183984D02*X188696D01*
X189496D02*X190456D01*
X189496D02*X189096Y184384D01*
X188696Y183984D02*X189096Y184384D01*
X190456Y183024D02*X190856Y182624D01*
X188056Y183024D02*X190456D01*
X188056D02*X187656Y182624D01*
Y181824D02*Y182624D01*
Y181824D02*X188056Y181424D01*
X190456D01*
X190856Y181824D02*X190456Y181424D01*
X190856Y181824D02*Y182624D01*
X190056Y183024D02*X188456Y181424D01*
X190456Y180464D02*X190856Y180064D01*
X189816Y180464D02*X190456D01*
X189816D02*X189256Y179904D01*
Y179424D02*Y179904D01*
Y179424D02*X189816Y178864D01*
X190456D01*
X190856Y179264D02*X190456Y178864D01*
X190856Y179264D02*Y180064D01*
X188696Y180464D02*X189256Y179904D01*
X188056Y180464D02*X188696D01*
X188056D02*X187656Y180064D01*
Y179264D02*Y180064D01*
Y179264D02*X188056Y178864D01*
X188696D01*
X189256Y179424D02*X188696Y178864D01*
X184536Y240659D02*X185576D01*
X183976Y240099D02*X184536Y240659D01*
X183976Y238019D02*Y240099D01*
Y238019D02*X184536Y237459D01*
X185576D01*
X186536Y237859D02*X186936Y237459D01*
X187736D01*
X188136Y237859D01*
X187736Y240659D02*X188136Y240259D01*
X186936Y240659D02*X187736D01*
X186536Y240259D02*X186936Y240659D01*
Y238899D02*X187736D01*
X188136Y237859D02*Y238499D01*
Y239299D02*Y240259D01*
Y239299D02*X187736Y238899D01*
X188136Y238499D02*X187736Y238899D01*
X189096Y240259D02*X189496Y240659D01*
X189096Y237859D02*Y240259D01*
Y237859D02*X189496Y237459D01*
X190296D01*
X190696Y237859D01*
Y240259D01*
X190296Y240659D02*X190696Y240259D01*
X189496Y240659D02*X190296D01*
X189096Y239859D02*X190696Y238259D01*
X192856Y237459D02*X193256Y237859D01*
X192056Y237459D02*X192856D01*
X191656Y237859D02*X192056Y237459D01*
X191656Y237859D02*Y240259D01*
X192056Y240659D01*
X192856Y238899D02*X193256Y239299D01*
X191656Y238899D02*X192856D01*
X192056Y240659D02*X192856D01*
X193256Y240259D01*
Y239299D02*Y240259D01*
X189293Y215118D02*X190333D01*
X188733Y214558D02*X189293Y215118D01*
X188733Y212478D02*Y214558D01*
Y212478D02*X189293Y211918D01*
X190333D01*
X191293Y212318D02*X191693Y211918D01*
X192493D01*
X192893Y212318D01*
X192493Y215118D02*X192893Y214718D01*
X191693Y215118D02*X192493D01*
X191293Y214718D02*X191693Y215118D01*
Y213358D02*X192493D01*
X192893Y212318D02*Y212958D01*
Y213758D02*Y214718D01*
Y213758D02*X192493Y213358D01*
X192893Y212958D02*X192493Y213358D01*
X193853Y212318D02*X194253Y211918D01*
X195453D01*
X195853Y212318D01*
Y213118D01*
X193853Y215118D02*X195853Y213118D01*
X193853Y215118D02*X195853D01*
X196813Y214718D02*X197213Y215118D01*
X196813Y212318D02*Y214718D01*
Y212318D02*X197213Y211918D01*
X198013D01*
X198413Y212318D01*
Y214718D01*
X198013Y215118D02*X198413Y214718D01*
X197213Y215118D02*X198013D01*
X196813Y214318D02*X198413Y212718D01*
X184066Y253494D02*X185106D01*
X183506Y252934D02*X184066Y253494D01*
X183506Y250854D02*Y252934D01*
Y250854D02*X184066Y250294D01*
X185106D01*
X186066Y250694D02*X186466Y250294D01*
X187266D01*
X187666Y250694D01*
X187266Y253494D02*X187666Y253094D01*
X186466Y253494D02*X187266D01*
X186066Y253094D02*X186466Y253494D01*
Y251734D02*X187266D01*
X187666Y250694D02*Y251334D01*
Y252134D02*Y253094D01*
Y252134D02*X187266Y251734D01*
X187666Y251334D02*X187266Y251734D01*
X188626Y253094D02*X189026Y253494D01*
X188626Y250694D02*Y253094D01*
Y250694D02*X189026Y250294D01*
X189826D01*
X190226Y250694D01*
Y253094D01*
X189826Y253494D02*X190226Y253094D01*
X189026Y253494D02*X189826D01*
X188626Y252694D02*X190226Y251094D01*
X191186Y250294D02*X192786D01*
X191186D02*Y251894D01*
X191586Y251494D01*
X192386D01*
X192786Y251894D01*
Y253094D01*
X192386Y253494D02*X192786Y253094D01*
X191586Y253494D02*X192386D01*
X191186Y253094D02*X191586Y253494D01*
X174689Y260296D02*X176289D01*
X176689Y260696D01*
Y261496D01*
X176289Y261896D02*X176689Y261496D01*
X175089Y261896D02*X176289D01*
X175089Y260296D02*Y263496D01*
X175729Y261896D02*X176689Y263496D01*
X177649Y260696D02*X178049Y260296D01*
X178849D01*
X179249Y260696D01*
X178849Y263496D02*X179249Y263096D01*
X178049Y263496D02*X178849D01*
X177649Y263096D02*X178049Y263496D01*
Y261736D02*X178849D01*
X179249Y260696D02*Y261336D01*
Y262136D02*Y263096D01*
Y262136D02*X178849Y261736D01*
X179249Y261336D02*X178849Y261736D01*
X180209Y263096D02*X180609Y263496D01*
X180209Y260696D02*Y263096D01*
Y260696D02*X180609Y260296D01*
X181409D01*
X181809Y260696D01*
Y263096D01*
X181409Y263496D02*X181809Y263096D01*
X180609Y263496D02*X181409D01*
X180209Y262696D02*X181809Y261096D01*
X182769Y260696D02*X183169Y260296D01*
X184369D01*
X184769Y260696D01*
Y261496D01*
X182769Y263496D02*X184769Y261496D01*
X182769Y263496D02*X184769D01*
X194468Y258748D02*X195508D01*
X193908Y258188D02*X194468Y258748D01*
X193908Y256108D02*Y258188D01*
Y256108D02*X194468Y255548D01*
X195508D01*
X196468Y255948D02*X196868Y255548D01*
X197668D01*
X198068Y255948D01*
X197668Y258748D02*X198068Y258348D01*
X196868Y258748D02*X197668D01*
X196468Y258348D02*X196868Y258748D01*
Y256988D02*X197668D01*
X198068Y255948D02*Y256588D01*
Y257388D02*Y258348D01*
Y257388D02*X197668Y256988D01*
X198068Y256588D02*X197668Y256988D01*
X199028Y258348D02*X199428Y258748D01*
X199028Y255948D02*Y258348D01*
Y255948D02*X199428Y255548D01*
X200228D01*
X200628Y255948D01*
Y258348D01*
X200228Y258748D02*X200628Y258348D01*
X199428Y258748D02*X200228D01*
X199028Y257948D02*X200628Y256348D01*
X201588Y255948D02*X201988Y255548D01*
X203188D01*
X203588Y255948D01*
Y256748D01*
X201588Y258748D02*X203588Y256748D01*
X201588Y258748D02*X203588D01*
X344156Y238144D02*X347356D01*
Y236544D02*Y238144D01*
X344556Y235584D02*X344156Y235184D01*
Y233984D02*Y235184D01*
Y233984D02*X344556Y233584D01*
X345356D01*
X347356Y235584D02*X345356Y233584D01*
X347356D02*Y235584D01*
X346956Y232624D02*X347356Y232224D01*
X344556Y232624D02*X346956D01*
X344556D02*X344156Y232224D01*
Y231424D02*Y232224D01*
Y231424D02*X344556Y231024D01*
X346956D01*
X347356Y231424D02*X346956Y231024D01*
X347356Y231424D02*Y232224D01*
X346556Y232624D02*X344956Y231024D01*
X344156Y228864D02*X344556Y228464D01*
X344156Y228864D02*Y229664D01*
X344556Y230064D02*X344156Y229664D01*
X344556Y230064D02*X346956D01*
X347356Y229664D01*
X345596Y228864D02*X345996Y228464D01*
X345596Y228864D02*Y230064D01*
X347356Y228864D02*Y229664D01*
Y228864D02*X346956Y228464D01*
X345996D02*X346956D01*
X325427Y241854D02*X328627D01*
Y240254D02*Y241854D01*
X325827Y239294D02*X325427Y238894D01*
Y237694D02*Y238894D01*
Y237694D02*X325827Y237294D01*
X326627D01*
X328627Y239294D02*X326627Y237294D01*
X328627D02*Y239294D01*
X328227Y236334D02*X328627Y235934D01*
X325827Y236334D02*X328227D01*
X325827D02*X325427Y235934D01*
Y235134D02*Y235934D01*
Y235134D02*X325827Y234734D01*
X328227D01*
X328627Y235134D02*X328227Y234734D01*
X328627Y235134D02*Y235934D01*
X327827Y236334D02*X326227Y234734D01*
X328227Y233774D02*X328627Y233374D01*
X325827Y233774D02*X328227D01*
X325827D02*X325427Y233374D01*
Y232574D02*Y233374D01*
Y232574D02*X325827Y232174D01*
X328227D01*
X328627Y232574D02*X328227Y232174D01*
X328627Y232574D02*Y233374D01*
X327827Y233774D02*X326227Y232174D01*
X338856Y240618D02*Y241658D01*
X338296Y242218D02*X338856Y241658D01*
X336216Y242218D02*X338296D01*
X336216D02*X335656Y241658D01*
Y240618D02*Y241658D01*
X336056Y239658D02*X335656Y239258D01*
Y238058D02*Y239258D01*
Y238058D02*X336056Y237658D01*
X336856D01*
X338856Y239658D02*X336856Y237658D01*
X338856D02*Y239658D01*
X336296Y236698D02*X335656Y236058D01*
X338856D01*
Y235498D02*Y236698D01*
X337656Y234538D02*X335656Y232938D01*
X337656Y232538D02*Y234538D01*
X335656Y232938D02*X338856D01*
X308406Y227534D02*Y229134D01*
Y227534D02*X308806Y227134D01*
X309606D01*
X310006Y227534D02*X309606Y227134D01*
X310006Y227534D02*Y228734D01*
X308406D02*X311606D01*
X310006Y228094D02*X311606Y227134D01*
X308806Y226174D02*X308406Y225774D01*
Y224574D02*Y225774D01*
Y224574D02*X308806Y224174D01*
X309606D01*
X311606Y226174D02*X309606Y224174D01*
X311606D02*Y226174D01*
X311206Y223214D02*X311606Y222814D01*
X308806Y223214D02*X311206D01*
X308806D02*X308406Y222814D01*
Y222014D02*Y222814D01*
Y222014D02*X308806Y221614D01*
X311206D01*
X311606Y222014D02*X311206Y221614D01*
X311606Y222014D02*Y222814D01*
X310806Y223214D02*X309206Y221614D01*
X308406Y219454D02*X308806Y219054D01*
X308406Y219454D02*Y220254D01*
X308806Y220654D02*X308406Y220254D01*
X308806Y220654D02*X311206D01*
X311606Y220254D01*
X309846Y219454D02*X310246Y219054D01*
X309846Y219454D02*Y220654D01*
X311606Y219454D02*Y220254D01*
Y219454D02*X311206Y219054D01*
X310246D02*X311206D01*
X318956Y245346D02*Y246386D01*
X318396Y246946D02*X318956Y246386D01*
X316316Y246946D02*X318396D01*
X316316D02*X315756Y246386D01*
Y245346D02*Y246386D01*
X316156Y244386D02*X315756Y243986D01*
Y242786D02*Y243986D01*
Y242786D02*X316156Y242386D01*
X316956D01*
X318956Y244386D02*X316956Y242386D01*
X318956D02*Y244386D01*
X318556Y241426D02*X318956Y241026D01*
X316156Y241426D02*X318556D01*
X316156D02*X315756Y241026D01*
Y240226D02*Y241026D01*
Y240226D02*X316156Y239826D01*
X318556D01*
X318956Y240226D02*X318556Y239826D01*
X318956Y240226D02*Y241026D01*
X318156Y241426D02*X316556Y239826D01*
X315756Y237266D02*Y238866D01*
X317356D01*
X316956Y238466D01*
Y237666D02*Y238466D01*
Y237666D02*X317356Y237266D01*
X318556D01*
X318956Y237666D02*X318556Y237266D01*
X318956Y237666D02*Y238466D01*
X318556Y238866D02*X318956Y238466D01*
X319006Y207935D02*Y208975D01*
X318446Y209535D02*X319006Y208975D01*
X316366Y209535D02*X318446D01*
X316366D02*X315806Y208975D01*
Y207935D02*Y208975D01*
X316206Y206975D02*X315806Y206575D01*
Y205375D02*Y206575D01*
Y205375D02*X316206Y204975D01*
X317006D01*
X319006Y206975D02*X317006Y204975D01*
X319006D02*Y206975D01*
X316446Y204015D02*X315806Y203375D01*
X319006D01*
Y202815D02*Y204015D01*
Y201455D02*X317406Y200255D01*
X316206D02*X317406D01*
X315806Y200655D02*X316206Y200255D01*
X315806Y200655D02*Y201455D01*
X316206Y201855D02*X315806Y201455D01*
X316206Y201855D02*X317006D01*
X317406Y201455D01*
Y200255D02*Y201455D01*
X338415Y209390D02*Y210430D01*
X337855Y210990D02*X338415Y210430D01*
X335775Y210990D02*X337855D01*
X335775D02*X335215Y210430D01*
Y209390D02*Y210430D01*
X335615Y208430D02*X335215Y208030D01*
Y206830D02*Y208030D01*
Y206830D02*X335615Y206430D01*
X336415D01*
X338415Y208430D02*X336415Y206430D01*
X338415D02*Y208430D01*
X335855Y205470D02*X335215Y204830D01*
X338415D01*
Y204270D02*Y205470D01*
X335215Y201710D02*Y203310D01*
X336815D01*
X336415Y202910D01*
Y202110D02*Y202910D01*
Y202110D02*X336815Y201710D01*
X338015D01*
X338415Y202110D02*X338015Y201710D01*
X338415Y202110D02*Y202910D01*
X338015Y203310D02*X338415Y202910D01*
X325333Y215134D02*X328533D01*
Y213534D02*Y215134D01*
X325733Y212574D02*X325333Y212174D01*
Y210974D02*Y212174D01*
Y210974D02*X325733Y210574D01*
X326533D01*
X328533Y212574D02*X326533Y210574D01*
X328533D02*Y212574D01*
X328133Y209614D02*X328533Y209214D01*
X325733Y209614D02*X328133D01*
X325733D02*X325333Y209214D01*
Y208414D02*Y209214D01*
Y208414D02*X325733Y208014D01*
X328133D01*
X328533Y208414D02*X328133Y208014D01*
X328533Y208414D02*Y209214D01*
X327733Y209614D02*X326133Y208014D01*
X328533Y206654D02*X325333Y205054D01*
Y207054D01*
X355187Y210924D02*Y214124D01*
Y210924D02*X356787D01*
X355187Y212364D02*X356387D01*
X357747Y210924D02*Y214124D01*
X359347D01*
X360307Y211324D02*X360707Y210924D01*
X361907D01*
X362307Y211324D01*
Y212124D01*
X360307Y214124D02*X362307Y212124D01*
X360307Y214124D02*X362307D01*
X363267Y213724D02*X363667Y214124D01*
X363267Y211324D02*Y213724D01*
Y211324D02*X363667Y210924D01*
X364467D01*
X364867Y211324D01*
Y213724D01*
X364467Y214124D02*X364867Y213724D01*
X363667Y214124D02*X364467D01*
X363267Y213324D02*X364867Y211724D01*
X365827Y211564D02*X366467Y210924D01*
Y214124D01*
X365827D02*X367027D01*
M02*
