G04 start of page 9 for group -4062 idx -4062 *
G04 Title: (unknown), soldermask *
G04 Creator: pcb 1.99z *
G04 CreationDate: Sat 25 Jul 2020 11:48:19 AM GMT UTC *
G04 For: mark *
G04 Format: Gerber/RS-274X *
G04 PCB-Dimensions (mil): 4300.00 3300.00 *
G04 PCB-Coordinate-Origin: lower left *
%MOIN*%
%FSLAX25Y25*%
%LNBOTTOMMASK*%
%ADD177R,0.0512X0.0512*%
%ADD176R,0.0315X0.0315*%
%ADD175R,0.0295X0.0295*%
%ADD174R,0.0197X0.0197*%
%ADD173R,0.0200X0.0200*%
%ADD172R,0.0215X0.0215*%
%ADD171R,0.0257X0.0257*%
%ADD170R,0.0255X0.0255*%
%ADD169R,0.0240X0.0240*%
%ADD168R,0.0571X0.0571*%
%ADD167C,0.0111*%
%ADD166R,0.0576X0.0576*%
%ADD165R,0.0355X0.0355*%
%ADD164R,0.0751X0.0751*%
%ADD163R,0.0118X0.0118*%
%ADD162R,0.0148X0.0148*%
%ADD161R,0.0572X0.0572*%
%ADD160R,0.0527X0.0527*%
%ADD159R,0.0415X0.0415*%
%ADD158R,0.0400X0.0400*%
%ADD157R,0.0098X0.0098*%
%ADD156R,0.0113X0.0113*%
%ADD155R,0.0310X0.0310*%
%ADD154R,0.1000X0.1000*%
%ADD153R,0.0100X0.0100*%
%ADD152C,0.0100*%
%ADD151R,0.0212X0.0212*%
%ADD150C,0.1060*%
%ADD149C,0.0860*%
%ADD148C,0.0820*%
%ADD147C,0.0001*%
G54D147*G36*
X149906Y274594D02*Y266394D01*
X158106D01*
Y274594D01*
X149906D01*
G37*
G54D148*X164006Y270494D03*
X174006D03*
X184006D03*
X194006D03*
X204006D03*
G54D149*X190006Y80494D03*
X200006D03*
X160006D03*
X170006D03*
X180006D03*
G54D147*G36*
X187706Y54794D02*Y48194D01*
X194306D01*
Y54794D01*
X187706D01*
G37*
G54D149*X104006Y80494D03*
X94006D03*
X114006D03*
X130006D03*
X140006D03*
X150006D03*
G54D147*G36*
X39706Y84794D02*Y76194D01*
X48306D01*
Y84794D01*
X39706D01*
G37*
G54D149*X54006Y80494D03*
X64006D03*
X74006D03*
X84006D03*
X44006Y270494D03*
X54006D03*
X64006D03*
X74006D03*
X84006D03*
X94006D03*
X114006D03*
X124006D03*
X134006D03*
X144006D03*
G54D150*X36006Y179494D03*
X26006Y189494D03*
Y169494D03*
X46006Y189494D03*
Y169494D03*
G54D147*G36*
X59906Y34594D02*Y26394D01*
X68106D01*
Y34594D01*
X59906D01*
G37*
G54D148*X74006Y30494D03*
X84006D03*
X94006D03*
X104006D03*
X114006D03*
G54D147*G36*
X187706Y41794D02*Y35194D01*
X194306D01*
Y41794D01*
X187706D01*
G37*
G54D151*X282406Y245387D02*Y244601D01*
G54D152*X302500Y211000D02*X306500Y215000D01*
G54D153*X298000Y211000D02*X302000D01*
X298000Y212000D02*X303000D01*
X298000Y213000D02*X304000D01*
X298000Y214000D02*X305000D01*
X298000Y215000D02*X306000D01*
G54D151*X320613Y221920D02*X321399D01*
X285554Y245387D02*Y244601D01*
G54D154*X302500Y226750D02*Y219750D01*
G54D151*X320613Y225068D02*X321399D01*
G54D147*G36*
X318963Y218545D02*X323049Y218545D01*
X323049Y215443D01*
X318963Y215443D01*
X318963Y218545D01*
G37*
G54D155*X320514Y229994D02*X321498D01*
X320514Y235112D02*X321498D01*
X320514Y211876D02*X321498D01*
G54D147*G36*
X356407Y231848D02*X362023Y230023D01*
X361292Y227776D01*
X355677Y229602D01*
X356407Y231848D01*
G37*
G36*
X353486Y222861D02*X359103Y221037D01*
X358373Y218790D01*
X352756Y220615D01*
X353486Y222861D01*
G37*
G54D151*X336613Y229642D02*X337399D01*
G54D147*G36*
X364719Y219211D02*X370335Y217387D01*
X369606Y215141D01*
X363989Y216965D01*
X364719Y219211D01*
G37*
G36*
X354898Y227449D02*X360657Y225578D01*
X359881Y223189D01*
X354122Y225060D01*
X354898Y227449D01*
G37*
G54D156*X253041Y203337D02*X255010D01*
X253041Y201368D02*X255010D01*
G54D157*X259537Y208848D02*Y206880D01*
G54D156*X257569Y208848D02*Y206880D01*
G54D158*X262580Y254744D02*Y251544D01*
Y238444D02*Y235244D01*
G54D159*X252830Y244994D02*X256030D01*
X269130D02*X272330D01*
G54D160*X268411Y265675D02*Y263313D01*
X256601Y265675D02*Y263313D01*
G54D151*X275613Y265420D02*X276399D01*
X275613Y268568D02*X276399D01*
G54D155*X348065Y223986D02*Y223002D01*
X342947Y223986D02*Y223002D01*
X336514Y219553D02*X337498D01*
X336514Y214435D02*X337498D01*
G54D151*X328580Y219887D02*Y219101D01*
X325432Y219887D02*Y219101D01*
X328580Y227887D02*Y227101D01*
X325432Y227887D02*Y227101D01*
X336613Y226494D02*X337399D01*
G54D161*X246463Y183887D02*Y183101D01*
X253549Y183887D02*Y183101D01*
G54D147*G36*
X215299Y189043D02*X215300Y191947D01*
X217418Y191945D01*
X217417Y189042D01*
X215299Y189043D01*
G37*
G54D162*X243404Y167447D02*X245963D01*
X243404Y165478D02*X245963D01*
X243404Y163510D02*X245963D01*
X243404Y161541D02*X245963D01*
X243404Y159573D02*X245963D01*
X243404Y157604D02*X245963D01*
X261396Y175596D02*Y173037D01*
X259427Y175596D02*Y173037D01*
X257459Y175596D02*Y173037D01*
X255490Y175596D02*Y173037D01*
X253522Y175596D02*Y173037D01*
G54D163*X251553Y175596D02*Y173037D01*
G54D162*X249585Y175596D02*Y173037D01*
G54D163*X247616Y175596D02*Y173037D01*
G54D147*G36*
X248305Y170695D02*Y158293D01*
X260707D01*
Y170695D01*
X248305D01*
G37*
G54D164*X176431Y144994D02*X179581D01*
G54D165*X191947Y162486D02*Y161502D01*
G54D166*X176431Y154994D02*X179581D01*
G54D165*X197065Y162486D02*Y161502D01*
X197000Y174480D02*Y173496D01*
X191882Y174480D02*Y173496D01*
G54D167*X196316Y168684D03*
X197696D03*
X196316Y167304D03*
X197696D03*
G54D166*X153596Y144994D02*X156746D01*
G54D164*X166589Y159294D02*Y149994D01*
Y140742D01*
G54D154*X103000Y127750D02*X176000D01*
G54D160*X116613Y153037D02*X117399D01*
G54D164*X153596Y154994D02*X156746D01*
G54D151*X161113Y114420D02*X161899D01*
X161113Y117568D02*X161899D01*
G54D160*X189463Y106887D02*Y106101D01*
X196549Y106887D02*Y106101D01*
G54D159*X128506Y175444D02*Y172244D01*
G54D158*X118756Y181994D02*X121956D01*
X135056D02*X138256D01*
G54D160*X125911Y166175D02*Y163813D01*
G54D147*G36*
X129383Y154953D02*X131437Y157007D01*
X132934Y155509D01*
X130881Y153456D01*
X129383Y154953D01*
G37*
G36*
X127157Y157179D02*X129211Y159233D01*
X130708Y157735D01*
X128655Y155681D01*
X127157Y157179D01*
G37*
G36*
X131157Y161179D02*X133211Y163233D01*
X134708Y161735D01*
X132655Y159681D01*
X131157Y161179D01*
G37*
G36*
X133383Y158953D02*X135437Y161007D01*
X136934Y159509D01*
X134881Y157456D01*
X133383Y158953D01*
G37*
G54D160*X144613Y157951D02*X145399D01*
X144613Y165037D02*X145399D01*
X116613Y145951D02*X117399D01*
G54D154*X103000Y226750D02*Y127750D01*
G54D168*X154431Y202494D02*X157581D01*
G54D164*X154431Y212494D02*X157581D01*
X177266Y202494D02*X180415D01*
X167423Y216746D02*Y207494D01*
G54D160*X114101Y166175D02*Y163813D01*
G54D169*X105006Y62344D02*Y60770D01*
G54D170*X101266Y62344D02*Y60770D01*
X108746Y50219D02*Y48644D01*
X101266Y50219D02*Y48644D01*
G54D151*X91613Y47920D02*X92399D01*
X91613Y51068D02*X92399D01*
G54D170*X108746Y62344D02*Y60770D01*
G54D155*X117014Y57553D02*X117998D01*
X117014Y52435D02*X117998D01*
G54D151*X114532Y71087D02*Y70301D01*
X117680Y71087D02*Y70301D01*
X73613Y94068D02*X74399D01*
X73613Y90920D02*X74399D01*
G54D171*X83613D02*X84399D01*
X83613Y94068D02*X84399D01*
X50432Y89387D02*Y88601D01*
X53580Y89387D02*Y88601D01*
X59432Y89387D02*Y88601D01*
X62580Y89387D02*Y88601D01*
G54D151*X134080Y238887D02*Y238101D01*
X130932Y238887D02*Y238101D01*
G54D160*X153049Y238887D02*Y238101D01*
X145963Y238887D02*Y238101D01*
G54D172*X140506Y244994D02*X147006D01*
X161006D02*X167506D01*
G54D151*X189432Y245387D02*Y244601D01*
X192580Y245387D02*Y244601D01*
G54D155*X207921Y245486D02*Y244502D01*
X213039Y245486D02*Y244502D01*
G54D173*X140506Y249994D02*X147006D01*
G54D172*X140506Y254994D02*X147006D01*
X140506Y259994D02*X147006D01*
X161006D02*X167506D01*
X161006Y254994D02*X167506D01*
X161006Y249994D02*X167506D01*
G54D151*X95858Y260387D02*Y259601D01*
G54D169*X95581Y247994D02*X97156D01*
G54D170*X95581Y251734D02*X97156D01*
X95581Y244254D02*X97156D01*
G54D151*X99006Y260387D02*Y259601D01*
G54D155*X85506Y256486D02*Y255502D01*
X80388Y256486D02*Y255502D01*
G54D147*G36*
X202060Y211068D02*X203512Y208553D01*
X201678Y207494D01*
X200226Y210009D01*
X202060Y211068D01*
G37*
G54D168*X177266Y212494D02*X180415D01*
G54D159*X128506Y191744D02*Y188544D01*
G54D147*G36*
X132615Y207157D02*X134669Y205103D01*
X133171Y203606D01*
X131117Y205659D01*
X132615Y207157D01*
G37*
G36*
X134841Y209383D02*X136894Y207329D01*
X135397Y205831D01*
X133343Y207885D01*
X134841Y209383D01*
G37*
G36*
X128115Y211657D02*X130169Y209603D01*
X128671Y208105D01*
X126617Y210159D01*
X128115Y211657D01*
G37*
G36*
X130341Y213883D02*X132394Y211829D01*
X130897Y210331D01*
X128843Y212385D01*
X130341Y213883D01*
G37*
G54D160*X142613Y202451D02*X143399D01*
X142613Y209537D02*X143399D01*
X190613Y192451D02*X191399D01*
X190613Y199537D02*X191399D01*
G54D147*G36*
X199334Y209494D02*X200786Y206979D01*
X198952Y205920D01*
X197500Y208435D01*
X199334Y209494D01*
G37*
G36*
X205060Y205872D02*X206512Y203357D01*
X204678Y202298D01*
X203226Y204813D01*
X205060Y205872D01*
G37*
G36*
X202334Y204298D02*X203786Y201784D01*
X201952Y200724D01*
X200500Y203238D01*
X202334Y204298D01*
G37*
G54D164*X167423Y207494D02*Y198194D01*
G54D155*X240053Y209986D02*Y209002D01*
X234935Y209986D02*Y209002D01*
X234947Y199986D02*Y199002D01*
G54D156*X253041Y205305D02*X255010D01*
G54D151*X262432Y213387D02*Y212601D01*
X265580Y213387D02*Y212601D01*
X262432Y218387D02*Y217601D01*
X265580Y218387D02*Y217601D01*
G54D155*X240065Y199986D02*Y199002D01*
G54D151*X249113Y193420D02*X249899D01*
X249113Y196568D02*X249899D01*
X275113Y191920D02*X275899D01*
X275113Y195068D02*X275899D01*
G54D171*X271432Y173887D02*Y173101D01*
G54D174*X274580Y173887D02*Y173101D01*
G54D151*X231580Y245387D02*Y244601D01*
G54D155*X200588Y243053D02*X201572D01*
G54D160*X241325Y247589D02*X243687D01*
X241325Y259399D02*X243687D01*
G54D151*X248613Y265420D02*X249399D01*
X248613Y268568D02*X249399D01*
X228432Y245387D02*Y244601D01*
G54D175*X220514Y237935D02*X221498D01*
G54D155*X220514Y243053D02*X221498D01*
G54D151*X176932Y257387D02*Y256601D01*
X180080Y257387D02*Y256601D01*
X187932Y257387D02*Y256601D01*
X191080Y257387D02*Y256601D01*
G54D154*X103000Y226750D02*X302500D01*
G54D175*X200588Y237935D02*X201572D01*
G54D151*X176932Y252387D02*Y251601D01*
X180080Y252387D02*Y251601D01*
G54D170*X107707Y251734D02*X109282D01*
X107707Y244254D02*X109282D01*
G54D151*X118432Y244887D02*Y244101D01*
X121580Y244887D02*Y244101D01*
G54D176*X213006Y209494D02*X214506D01*
G54D151*X166113Y165420D02*X166899D01*
X166113Y168568D02*X166899D01*
X167113Y192068D02*X167899D01*
X167113Y188920D02*X167899D01*
G54D176*X225006Y197494D02*X226506D01*
X213006D02*X214506D01*
X225006Y203494D02*X226506D01*
X225006Y209494D02*X226506D01*
G54D172*X126506Y102494D02*X133006D01*
G54D173*X126506Y107494D02*X133006D01*
G54D172*X126506Y112494D02*X133006D01*
X126506Y117494D02*X133006D01*
X147006D02*X153506D01*
G54D151*X153432Y135887D02*Y135101D01*
X156580Y135887D02*Y135101D01*
G54D160*X137411Y139175D02*Y136813D01*
G54D172*X147006Y112494D02*X153506D01*
G54D151*X128580Y95387D02*Y94601D01*
X125432Y95387D02*Y94601D01*
X113580Y139387D02*Y138601D01*
X110432Y139387D02*Y138601D01*
G54D160*X125601Y139175D02*Y136813D01*
G54D151*X139113Y96068D02*X139899D01*
X139113Y92920D02*X139899D01*
X149113D02*X149899D01*
X149113Y96068D02*X149899D01*
G54D172*X147006Y107494D02*X153506D01*
X147006Y102494D02*X153506D01*
G54D160*X162613Y99537D02*X163399D01*
X162613Y92451D02*X163399D01*
G54D151*X170432Y102887D02*Y102101D01*
X173580Y102887D02*Y102101D01*
X178858Y100387D02*Y99601D01*
X182006Y100387D02*Y99601D01*
X178858Y105387D02*Y104601D01*
X182006Y105387D02*Y104601D01*
X149613Y70068D02*X150399D01*
X142613D02*X143399D01*
X149613Y66920D02*X150399D01*
X142613D02*X143399D01*
G54D165*X273565Y101986D02*Y101002D01*
X268447Y101986D02*Y101002D01*
X242888Y101986D02*Y101002D01*
X248006Y101986D02*Y101002D01*
G54D154*X197000Y127750D02*X302500D01*
G54D147*G36*
X364831Y229111D02*X373256Y226373D01*
X372526Y224127D01*
X364101Y226864D01*
X364831Y229111D01*
G37*
G36*
X366131Y223799D02*X371890Y221928D01*
X371114Y219539D01*
X365355Y221410D01*
X366131Y223799D01*
G37*
G54D171*X286080Y165387D02*Y164601D01*
X282932Y165387D02*Y164601D01*
G54D174*X285580Y155887D02*Y155101D01*
G54D171*X282432Y155887D02*Y155101D01*
G54D165*X282447Y150486D02*Y149502D01*
G54D175*X286565Y143986D02*Y143002D01*
G54D165*X281447Y143986D02*Y143002D01*
G54D175*X287565Y150486D02*Y149502D01*
G54D154*X302500Y195000D02*Y127750D01*
G54D165*X339947Y141486D02*Y140502D01*
X345065Y141486D02*Y140502D01*
G54D167*X269137Y106804D03*
X267757D03*
X269137Y108184D03*
X267757D03*
G54D165*X263388Y113486D02*Y112502D01*
X268506Y113486D02*Y112502D01*
G54D171*X250613Y146420D02*X251399D01*
X263113Y144568D02*X263899D01*
G54D174*X263113Y141420D02*X263899D01*
G54D165*X268514Y145553D02*X269498D01*
G54D175*X268514Y140435D02*X269498D01*
G54D167*X248696Y106804D03*
Y108184D03*
X247316Y106804D03*
Y108184D03*
G54D165*X242888Y113486D02*Y112502D01*
X248006Y113486D02*Y112502D01*
G54D163*X258159Y203337D02*X258947D01*
G54D156*X262096D02*X264065D01*
X262096Y201368D02*X264065D01*
X262096Y205305D02*X264065D01*
X259537Y199793D02*Y197825D01*
X257569Y199793D02*Y197825D01*
G54D151*X260113Y192642D02*X260899D01*
X260113Y189494D02*X260899D01*
X282432Y205887D02*Y205101D01*
X285580Y205887D02*Y205101D01*
G54D175*X283565Y184986D02*Y184002D01*
G54D174*X282580Y179387D02*Y178601D01*
G54D165*X278447Y184986D02*Y184002D01*
G54D171*X279432Y179387D02*Y178601D01*
G54D161*X270506Y183887D02*Y183101D01*
X263420Y183887D02*Y183101D01*
G54D171*X283006Y160387D02*Y159601D01*
G54D175*X284065Y170486D02*Y169502D01*
G54D174*X286154Y160387D02*Y159601D01*
G54D175*X278565Y164486D02*Y163502D01*
G54D165*X278947Y170486D02*Y169502D01*
X273447Y164486D02*Y163502D01*
G54D162*X263049Y157604D02*X265608D01*
X263049Y159573D02*X265608D01*
X263049Y161541D02*X265608D01*
G54D163*X257459Y155951D02*Y153392D01*
X263049Y169415D02*X265608D01*
G54D162*X263049Y171384D02*X265608D01*
G54D163*X263049Y163510D02*X265608D01*
G54D162*X263049Y165478D02*X265608D01*
X263049Y167447D02*X265608D01*
G54D151*X256113Y192642D02*X256899D01*
X256113Y189494D02*X256899D01*
G54D147*G36*
X218446Y189043D02*X218448Y191947D01*
X220566Y191945D01*
X220564Y189042D01*
X218446Y189043D01*
G37*
G54D171*X222080Y144887D02*Y144101D01*
G54D175*X236514Y143787D02*X237498D01*
G54D174*X218932Y144887D02*Y144101D01*
G54D171*X222080Y139887D02*Y139101D01*
X218932Y139887D02*Y139101D01*
X222080Y149887D02*Y149101D01*
G54D174*X218932Y149887D02*Y149101D01*
G54D171*X222080Y154887D02*Y154101D01*
G54D174*X218932Y154887D02*Y154101D01*
G54D171*X250613Y149568D02*X251399D01*
G54D165*X236514Y148905D02*X237498D01*
G54D171*X242113Y148068D02*X242899D01*
G54D174*X242113Y144920D02*X242899D01*
G54D162*X247616Y155951D02*Y153392D01*
G54D163*X249585Y155951D02*Y153392D01*
G54D162*X251553Y155951D02*Y153392D01*
X253522Y155951D02*Y153392D01*
X255490Y155951D02*Y153392D01*
X259427Y155951D02*Y153392D01*
X261396Y155951D02*Y153392D01*
G54D171*X218932Y159887D02*Y159101D01*
X222080Y159887D02*Y159101D01*
G54D161*X221613Y171951D02*X222399D01*
G54D177*X221613Y179037D02*X222399D01*
G54D165*X233514Y178053D02*X234498D01*
G54D175*X233514Y172935D02*X234498D01*
G54D171*X239113Y177068D02*X239899D01*
G54D174*X239113Y173920D02*X239899D01*
G54D163*X243404Y171384D02*X245963D01*
G54D162*X243404Y169415D02*X245963D01*
M02*
