G04 start of page 14 for group -3984 idx -3984 *
G04 Title: (unknown), fab *
G04 Creator: pcb 1.99z *
G04 CreationDate: Sat 25 Jul 2020 11:48:19 AM GMT UTC *
G04 For: mark *
G04 Format: Gerber/RS-274X *
G04 PCB-Dimensions (mil): 4300.00 3300.00 *
G04 PCB-Coordinate-Origin: lower left *
%MOIN*%
%FSLAX25Y25*%
%LNFAB*%
%ADD233C,0.0100*%
%ADD232C,0.0075*%
%ADD231C,0.0060*%
%ADD230C,0.0001*%
%ADD229R,0.0080X0.0080*%
G54D229*X27006Y30494D02*Y27294D01*
G54D230*G36*
X26460Y30641D02*X29926Y32640D01*
X30326Y31948D01*
X26859Y29948D01*
X26460Y30641D01*
G37*
G36*
X27152Y29948D02*X23686Y31948D01*
X24086Y32640D01*
X27552Y30641D01*
X27152Y29948D01*
G37*
G54D229*X25406Y30494D02*G75*G03X28606Y30494I1600J0D01*G01*
G75*G03X25406Y30494I-1600J0D01*G01*
X27006Y270494D02*Y267294D01*
G54D230*G36*
X26460Y270641D02*X29926Y272640D01*
X30326Y271948D01*
X26859Y269948D01*
X26460Y270641D01*
G37*
G36*
X27152Y269948D02*X23686Y271948D01*
X24086Y272640D01*
X27552Y270641D01*
X27152Y269948D01*
G37*
G54D229*X25406Y270494D02*G75*G03X28606Y270494I1600J0D01*G01*
G75*G03X25406Y270494I-1600J0D01*G01*
X404006Y30494D02*Y27294D01*
G54D230*G36*
X403460Y30641D02*X406926Y32640D01*
X407326Y31948D01*
X403859Y29948D01*
X403460Y30641D01*
G37*
G36*
X404152Y29948D02*X400686Y31948D01*
X401086Y32640D01*
X404552Y30641D01*
X404152Y29948D01*
G37*
G54D229*X402406Y30494D02*G75*G03X405606Y30494I1600J0D01*G01*
G75*G03X402406Y30494I-1600J0D01*G01*
X404006Y270494D02*Y267294D01*
G54D230*G36*
X403460Y270641D02*X406926Y272640D01*
X407326Y271948D01*
X403859Y269948D01*
X403460Y270641D01*
G37*
G36*
X404152Y269948D02*X400686Y271948D01*
X401086Y272640D01*
X404552Y270641D01*
X404152Y269948D01*
G37*
G54D229*X402406Y270494D02*G75*G03X405606Y270494I1600J0D01*G01*
G75*G03X402406Y270494I-1600J0D01*G01*
X15000Y341250D02*Y338050D01*
G54D230*G36*
X14454Y341397D02*X17920Y343396D01*
X18320Y342703D01*
X14853Y340704D01*
X14454Y341397D01*
G37*
G36*
X15147Y340704D02*X11680Y342703D01*
X12080Y343396D01*
X15546Y341397D01*
X15147Y340704D01*
G37*
G54D229*X13400Y341250D02*G75*G03X16600Y341250I1600J0D01*G01*
G75*G03X13400Y341250I-1600J0D01*G01*
G54D231*X135000Y343500D02*X136500Y340500D01*
X138000Y343500D01*
X136500Y340500D02*Y337500D01*
X139800Y340800D02*X142050D01*
X139800Y337500D02*X142800D01*
X139800Y343500D02*Y337500D01*
Y343500D02*X142800D01*
X147600D02*X148350Y342750D01*
X145350Y343500D02*X147600D01*
X144600Y342750D02*X145350Y343500D01*
X144600Y342750D02*Y341250D01*
X145350Y340500D01*
X147600D01*
X148350Y339750D01*
Y338250D01*
X147600Y337500D02*X148350Y338250D01*
X145350Y337500D02*X147600D01*
X144600Y338250D02*X145350Y337500D01*
X98000Y339750D02*X101000Y343500D01*
X98000Y339750D02*X101750D01*
X101000Y343500D02*Y337500D01*
X45000Y338250D02*X45750Y337500D01*
X45000Y342750D02*Y338250D01*
Y342750D02*X45750Y343500D01*
X47250D01*
X48000Y342750D01*
Y338250D01*
X47250Y337500D02*X48000Y338250D01*
X45750Y337500D02*X47250D01*
X45000Y339000D02*X48000Y342000D01*
X49800Y337500D02*X50550D01*
X52350Y342300D02*X53550Y343500D01*
Y337500D01*
X52350D02*X54600D01*
X56400Y342750D02*X57150Y343500D01*
X59400D01*
X60150Y342750D01*
Y341250D01*
X56400Y337500D02*X60150Y341250D01*
X56400Y337500D02*X60150D01*
X61950Y343500D02*X64950D01*
X61950D02*Y340500D01*
X62700Y341250D01*
X64200D01*
X64950Y340500D01*
Y338250D01*
X64200Y337500D02*X64950Y338250D01*
X62700Y337500D02*X64200D01*
X61950Y338250D02*X62700Y337500D01*
X34406Y181094D02*X37606D01*
X34406D02*Y177894D01*
X37606D01*
Y181094D02*Y177894D01*
X24406Y191094D02*X27606D01*
X24406D02*Y187894D01*
X27606D01*
Y191094D02*Y187894D01*
X24406Y171094D02*X27606D01*
X24406D02*Y167894D01*
X27606D01*
Y171094D02*Y167894D01*
X44406Y191094D02*X47606D01*
X44406D02*Y187894D01*
X47606D01*
Y191094D02*Y187894D01*
X44406Y171094D02*X47606D01*
X44406D02*Y167894D01*
X47606D01*
Y171094D02*Y167894D01*
X13400Y357850D02*X16600D01*
X13400D02*Y354650D01*
X16600D01*
Y357850D02*Y354650D01*
X135000Y358500D02*X136500Y355500D01*
X138000Y358500D01*
X136500Y355500D02*Y352500D01*
X139800Y355800D02*X142050D01*
X139800Y352500D02*X142800D01*
X139800Y358500D02*Y352500D01*
Y358500D02*X142800D01*
X147600D02*X148350Y357750D01*
X145350Y358500D02*X147600D01*
X144600Y357750D02*X145350Y358500D01*
X144600Y357750D02*Y356250D01*
X145350Y355500D01*
X147600D01*
X148350Y354750D01*
Y353250D01*
X147600Y352500D02*X148350Y353250D01*
X145350Y352500D02*X147600D01*
X144600Y353250D02*X145350Y352500D01*
X98000Y358500D02*X101000D01*
X98000D02*Y355500D01*
X98750Y356250D01*
X100250D01*
X101000Y355500D01*
Y353250D01*
X100250Y352500D02*X101000Y353250D01*
X98750Y352500D02*X100250D01*
X98000Y353250D02*X98750Y352500D01*
X45000Y353250D02*X45750Y352500D01*
X45000Y357750D02*Y353250D01*
Y357750D02*X45750Y358500D01*
X47250D01*
X48000Y357750D01*
Y353250D01*
X47250Y352500D02*X48000Y353250D01*
X45750Y352500D02*X47250D01*
X45000Y354000D02*X48000Y357000D01*
X49800Y352500D02*X50550D01*
X52350Y353250D02*X53100Y352500D01*
X52350Y357750D02*Y353250D01*
Y357750D02*X53100Y358500D01*
X54600D01*
X55350Y357750D01*
Y353250D01*
X54600Y352500D02*X55350Y353250D01*
X53100Y352500D02*X54600D01*
X52350Y354000D02*X55350Y357000D01*
X59400Y358500D02*X60150Y357750D01*
X57900Y358500D02*X59400D01*
X57150Y357750D02*X57900Y358500D01*
X57150Y357750D02*Y353250D01*
X57900Y352500D01*
X59400Y355800D02*X60150Y355050D01*
X57150Y355800D02*X59400D01*
X57900Y352500D02*X59400D01*
X60150Y353250D01*
Y355050D02*Y353250D01*
X62700Y352500D02*X65700Y358500D01*
X61950D02*X65700D01*
X153206Y270494D02*G75*G03X154806Y270494I800J0D01*G01*
G75*G03X153206Y270494I-800J0D01*G01*
X163206D02*G75*G03X164806Y270494I800J0D01*G01*
G75*G03X163206Y270494I-800J0D01*G01*
X173206D02*G75*G03X174806Y270494I800J0D01*G01*
G75*G03X173206Y270494I-800J0D01*G01*
X183206D02*G75*G03X184806Y270494I800J0D01*G01*
G75*G03X183206Y270494I-800J0D01*G01*
X193206D02*G75*G03X194806Y270494I800J0D01*G01*
G75*G03X193206Y270494I-800J0D01*G01*
X203206D02*G75*G03X204806Y270494I800J0D01*G01*
G75*G03X203206Y270494I-800J0D01*G01*
X103206Y80494D02*G75*G03X104806Y80494I800J0D01*G01*
G75*G03X103206Y80494I-800J0D01*G01*
X113206D02*G75*G03X114806Y80494I800J0D01*G01*
G75*G03X113206Y80494I-800J0D01*G01*
X43206D02*G75*G03X44806Y80494I800J0D01*G01*
G75*G03X43206Y80494I-800J0D01*G01*
X53206D02*G75*G03X54806Y80494I800J0D01*G01*
G75*G03X53206Y80494I-800J0D01*G01*
X63206D02*G75*G03X64806Y80494I800J0D01*G01*
G75*G03X63206Y80494I-800J0D01*G01*
X73206D02*G75*G03X74806Y80494I800J0D01*G01*
G75*G03X73206Y80494I-800J0D01*G01*
X83206D02*G75*G03X84806Y80494I800J0D01*G01*
G75*G03X83206Y80494I-800J0D01*G01*
X93206D02*G75*G03X94806Y80494I800J0D01*G01*
G75*G03X93206Y80494I-800J0D01*G01*
X189206D02*G75*G03X190806Y80494I800J0D01*G01*
G75*G03X189206Y80494I-800J0D01*G01*
X199206D02*G75*G03X200806Y80494I800J0D01*G01*
G75*G03X199206Y80494I-800J0D01*G01*
X129206D02*G75*G03X130806Y80494I800J0D01*G01*
G75*G03X129206Y80494I-800J0D01*G01*
X139206D02*G75*G03X140806Y80494I800J0D01*G01*
G75*G03X139206Y80494I-800J0D01*G01*
X149206D02*G75*G03X150806Y80494I800J0D01*G01*
G75*G03X149206Y80494I-800J0D01*G01*
X159206D02*G75*G03X160806Y80494I800J0D01*G01*
G75*G03X159206Y80494I-800J0D01*G01*
X169206D02*G75*G03X170806Y80494I800J0D01*G01*
G75*G03X169206Y80494I-800J0D01*G01*
X179206D02*G75*G03X180806Y80494I800J0D01*G01*
G75*G03X179206Y80494I-800J0D01*G01*
X43206Y270494D02*G75*G03X44806Y270494I800J0D01*G01*
G75*G03X43206Y270494I-800J0D01*G01*
X53206D02*G75*G03X54806Y270494I800J0D01*G01*
G75*G03X53206Y270494I-800J0D01*G01*
X63206D02*G75*G03X64806Y270494I800J0D01*G01*
G75*G03X63206Y270494I-800J0D01*G01*
X73206D02*G75*G03X74806Y270494I800J0D01*G01*
G75*G03X73206Y270494I-800J0D01*G01*
X83206D02*G75*G03X84806Y270494I800J0D01*G01*
G75*G03X83206Y270494I-800J0D01*G01*
X93206D02*G75*G03X94806Y270494I800J0D01*G01*
G75*G03X93206Y270494I-800J0D01*G01*
X113206D02*G75*G03X114806Y270494I800J0D01*G01*
G75*G03X113206Y270494I-800J0D01*G01*
X123206D02*G75*G03X124806Y270494I800J0D01*G01*
G75*G03X123206Y270494I-800J0D01*G01*
X133206D02*G75*G03X134806Y270494I800J0D01*G01*
G75*G03X133206Y270494I-800J0D01*G01*
X143206D02*G75*G03X144806Y270494I800J0D01*G01*
G75*G03X143206Y270494I-800J0D01*G01*
X63206Y30494D02*G75*G03X64806Y30494I800J0D01*G01*
G75*G03X63206Y30494I-800J0D01*G01*
X73206D02*G75*G03X74806Y30494I800J0D01*G01*
G75*G03X73206Y30494I-800J0D01*G01*
X83206D02*G75*G03X84806Y30494I800J0D01*G01*
G75*G03X83206Y30494I-800J0D01*G01*
X93206D02*G75*G03X94806Y30494I800J0D01*G01*
G75*G03X93206Y30494I-800J0D01*G01*
X103206D02*G75*G03X104806Y30494I800J0D01*G01*
G75*G03X103206Y30494I-800J0D01*G01*
X113206D02*G75*G03X114806Y30494I800J0D01*G01*
G75*G03X113206Y30494I-800J0D01*G01*
X14200Y371250D02*G75*G03X15800Y371250I800J0D01*G01*
G75*G03X14200Y371250I-800J0D01*G01*
X135000Y373500D02*X136500Y370500D01*
X138000Y373500D01*
X136500Y370500D02*Y367500D01*
X139800Y370800D02*X142050D01*
X139800Y367500D02*X142800D01*
X139800Y373500D02*Y367500D01*
Y373500D02*X142800D01*
X147600D02*X148350Y372750D01*
X145350Y373500D02*X147600D01*
X144600Y372750D02*X145350Y373500D01*
X144600Y372750D02*Y371250D01*
X145350Y370500D01*
X147600D01*
X148350Y369750D01*
Y368250D01*
X147600Y367500D02*X148350Y368250D01*
X145350Y367500D02*X147600D01*
X144600Y368250D02*X145350Y367500D01*
X98000Y372750D02*X98750Y373500D01*
X100250D01*
X101000Y372750D01*
X100250Y367500D02*X101000Y368250D01*
X98750Y367500D02*X100250D01*
X98000Y368250D02*X98750Y367500D01*
Y370800D02*X100250D01*
X101000Y372750D02*Y371550D01*
Y370050D02*Y368250D01*
Y370050D02*X100250Y370800D01*
X101000Y371550D02*X100250Y370800D01*
X102800Y368250D02*X103550Y367500D01*
X102800Y369450D02*Y368250D01*
Y369450D02*X103850Y370500D01*
X104750D01*
X105800Y369450D01*
Y368250D01*
X105050Y367500D02*X105800Y368250D01*
X103550Y367500D02*X105050D01*
X102800Y371550D02*X103850Y370500D01*
X102800Y372750D02*Y371550D01*
Y372750D02*X103550Y373500D01*
X105050D01*
X105800Y372750D01*
Y371550D01*
X104750Y370500D02*X105800Y371550D01*
X45000Y368250D02*X45750Y367500D01*
X45000Y372750D02*Y368250D01*
Y372750D02*X45750Y373500D01*
X47250D01*
X48000Y372750D01*
Y368250D01*
X47250Y367500D02*X48000Y368250D01*
X45750Y367500D02*X47250D01*
X45000Y369000D02*X48000Y372000D01*
X49800Y367500D02*X50550D01*
X52350Y368250D02*X53100Y367500D01*
X52350Y372750D02*Y368250D01*
Y372750D02*X53100Y373500D01*
X54600D01*
X55350Y372750D01*
Y368250D01*
X54600Y367500D02*X55350Y368250D01*
X53100Y367500D02*X54600D01*
X52350Y369000D02*X55350Y372000D01*
X57150Y369750D02*X60150Y373500D01*
X57150Y369750D02*X60900D01*
X60150Y373500D02*Y367500D01*
X62700Y368250D02*X63450Y367500D01*
X62700Y372750D02*Y368250D01*
Y372750D02*X63450Y373500D01*
X64950D01*
X65700Y372750D01*
Y368250D01*
X64950Y367500D02*X65700Y368250D01*
X63450Y367500D02*X64950D01*
X62700Y369000D02*X65700Y372000D01*
X189806Y39694D02*X192206Y37294D01*
X189806D02*X192206Y39694D01*
X189806Y52694D02*X192206Y50294D01*
X189806D02*X192206Y52694D01*
X13800Y387450D02*X16200Y385050D01*
X13800D02*X16200Y387450D01*
X135000Y388500D02*X136500Y385500D01*
X138000Y388500D01*
X136500Y385500D02*Y382500D01*
X139800Y385800D02*X142050D01*
X139800Y382500D02*X142800D01*
X139800Y388500D02*Y382500D01*
Y388500D02*X142800D01*
X147600D02*X148350Y387750D01*
X145350Y388500D02*X147600D01*
X144600Y387750D02*X145350Y388500D01*
X144600Y387750D02*Y386250D01*
X145350Y385500D01*
X147600D01*
X148350Y384750D01*
Y383250D01*
X147600Y382500D02*X148350Y383250D01*
X145350Y382500D02*X147600D01*
X144600Y383250D02*X145350Y382500D01*
X98000Y387750D02*X98750Y388500D01*
X101000D01*
X101750Y387750D01*
Y386250D01*
X98000Y382500D02*X101750Y386250D01*
X98000Y382500D02*X101750D01*
X45000Y383250D02*X45750Y382500D01*
X45000Y387750D02*Y383250D01*
Y387750D02*X45750Y388500D01*
X47250D01*
X48000Y387750D01*
Y383250D01*
X47250Y382500D02*X48000Y383250D01*
X45750Y382500D02*X47250D01*
X45000Y384000D02*X48000Y387000D01*
X49800Y382500D02*X50550D01*
X52350Y383250D02*X53100Y382500D01*
X52350Y387750D02*Y383250D01*
Y387750D02*X53100Y388500D01*
X54600D01*
X55350Y387750D01*
Y383250D01*
X54600Y382500D02*X55350Y383250D01*
X53100Y382500D02*X54600D01*
X52350Y384000D02*X55350Y387000D01*
X57150Y387750D02*X57900Y388500D01*
X59400D01*
X60150Y387750D01*
X59400Y382500D02*X60150Y383250D01*
X57900Y382500D02*X59400D01*
X57150Y383250D02*X57900Y382500D01*
Y385800D02*X59400D01*
X60150Y387750D02*Y386550D01*
Y385050D02*Y383250D01*
Y385050D02*X59400Y385800D01*
X60150Y386550D02*X59400Y385800D01*
X61950Y383250D02*X62700Y382500D01*
X61950Y384450D02*Y383250D01*
Y384450D02*X63000Y385500D01*
X63900D01*
X64950Y384450D01*
Y383250D01*
X64200Y382500D02*X64950Y383250D01*
X62700Y382500D02*X64200D01*
X61950Y386550D02*X63000Y385500D01*
X61950Y387750D02*Y386550D01*
Y387750D02*X62700Y388500D01*
X64200D01*
X64950Y387750D01*
Y386550D01*
X63900Y385500D02*X64950Y386550D01*
X81006Y186094D02*Y182894D01*
X79406Y184494D02*X82606D01*
X85006Y182094D02*Y178894D01*
X83406Y180494D02*X86606D01*
X85006Y186094D02*Y182894D01*
X83406Y184494D02*X86606D01*
X81006Y182094D02*Y178894D01*
X79406Y180494D02*X82606D01*
X260506Y210594D02*Y207394D01*
X258906Y208994D02*X262106D01*
X341506Y176094D02*Y172894D01*
X339906Y174494D02*X343106D01*
X323656Y186594D02*Y183394D01*
X322056Y184994D02*X325256D01*
X329656Y186594D02*Y183394D01*
X328056Y184994D02*X331256D01*
X329656Y179594D02*Y176394D01*
X328056Y177994D02*X331256D01*
X323656Y179594D02*Y176394D01*
X322056Y177994D02*X325256D01*
X378506Y225094D02*Y221894D01*
X376906Y223494D02*X380106D01*
X69506Y199594D02*Y196394D01*
X67906Y197994D02*X71106D01*
X72506Y202594D02*Y199394D01*
X70906Y200994D02*X74106D01*
X75506Y205594D02*Y202394D01*
X73906Y203994D02*X77106D01*
X44006Y212094D02*Y208894D01*
X42406Y210494D02*X45606D01*
X48006Y216094D02*Y212894D01*
X46406Y214494D02*X49606D01*
X52006Y220094D02*Y216894D01*
X50406Y218494D02*X53606D01*
X320006Y157594D02*Y154394D01*
X318406Y155994D02*X321606D01*
X312506Y176094D02*Y172894D01*
X310906Y174494D02*X314106D01*
X312506Y197594D02*Y194394D01*
X310906Y195994D02*X314106D01*
X326506Y197594D02*Y194394D01*
X324906Y195994D02*X328106D01*
X320006Y203594D02*Y200394D01*
X318406Y201994D02*X321606D01*
X323506Y200594D02*Y197394D01*
X321906Y198994D02*X325106D01*
X69506Y189594D02*Y186394D01*
X67906Y187994D02*X71106D01*
X257506Y219594D02*Y216394D01*
X255906Y217994D02*X259106D01*
X144006Y148094D02*Y144894D01*
X142406Y146494D02*X145606D01*
X401006Y155094D02*Y151894D01*
X399406Y153494D02*X402606D01*
X280506Y254594D02*Y251394D01*
X278906Y252994D02*X282106D01*
X143006Y111594D02*Y108394D01*
X141406Y109994D02*X144606D01*
X96506Y69094D02*Y65894D01*
X94906Y67494D02*X98106D01*
X197506Y195594D02*Y192394D01*
X195906Y193994D02*X199106D01*
X274506Y122094D02*Y118894D01*
X272906Y120494D02*X276106D01*
X339506Y54094D02*Y50894D01*
X337906Y52494D02*X341106D01*
X348006Y36094D02*Y32894D01*
X346406Y34494D02*X349606D01*
X226006Y219094D02*Y215894D01*
X224406Y217494D02*X227606D01*
X345506Y211594D02*Y208394D01*
X343906Y209994D02*X347106D01*
X161506Y168594D02*Y165394D01*
X159906Y166994D02*X163106D01*
X155506Y168594D02*Y165394D01*
X153906Y166994D02*X157106D01*
X56506Y98594D02*Y95394D01*
X54906Y96994D02*X58106D01*
X79506Y98594D02*Y95394D01*
X77906Y96994D02*X81106D01*
X204506Y62094D02*Y58894D01*
X202906Y60494D02*X206106D01*
X335506Y197594D02*Y194394D01*
X333906Y195994D02*X337106D01*
X345506Y248594D02*Y245394D01*
X343906Y246994D02*X347106D01*
X341506Y118594D02*Y115394D01*
X339906Y116994D02*X343106D01*
X356506Y123594D02*Y120394D01*
X354906Y121994D02*X358106D01*
X352506Y129094D02*Y125894D01*
X350906Y127494D02*X354106D01*
X345506Y113094D02*Y109894D01*
X343906Y111494D02*X347106D01*
X323006Y126594D02*Y123394D01*
X321406Y124994D02*X324606D01*
X377006Y115094D02*Y111894D01*
X375406Y113494D02*X378606D01*
X389506Y205094D02*Y201894D01*
X387906Y203494D02*X391106D01*
X366506Y217094D02*Y213894D01*
X364906Y215494D02*X368106D01*
X337006Y214094D02*Y210894D01*
X335406Y212494D02*X338606D01*
X337006Y232594D02*Y229394D01*
X335406Y230994D02*X338606D01*
X352006Y209594D02*Y206394D01*
X350406Y207994D02*X353606D01*
X352006Y248594D02*Y245394D01*
X350406Y246994D02*X353606D01*
X313006Y111594D02*Y108394D01*
X311406Y109994D02*X314606D01*
X236006Y109094D02*Y105894D01*
X234406Y107494D02*X237606D01*
X87006Y173094D02*Y169894D01*
X85406Y171494D02*X88606D01*
X83006Y173094D02*Y169894D01*
X81406Y171494D02*X84606D01*
X79006Y173094D02*Y169894D01*
X77406Y171494D02*X80606D01*
X79006Y195094D02*Y191894D01*
X77406Y193494D02*X80606D01*
X83006Y195094D02*Y191894D01*
X81406Y193494D02*X84606D01*
X87006Y195094D02*Y191894D01*
X85406Y193494D02*X88606D01*
X106006Y174094D02*Y170894D01*
X104406Y172494D02*X107606D01*
X106006Y188094D02*Y184894D01*
X104406Y186494D02*X107606D01*
X139006Y177594D02*Y174394D01*
X137406Y175994D02*X140606D01*
X139506Y184594D02*Y181394D01*
X137906Y182994D02*X141106D01*
X173006Y188094D02*Y184894D01*
X171406Y186494D02*X174606D01*
X173006Y174094D02*Y170894D01*
X171406Y172494D02*X174606D01*
X185506Y157594D02*Y154394D01*
X183906Y155994D02*X187106D01*
X177506Y153094D02*Y149894D01*
X175906Y151494D02*X179106D01*
X192506Y115594D02*Y112394D01*
X190906Y113994D02*X194106D01*
X192506Y128594D02*Y125394D01*
X190906Y126994D02*X194106D01*
X225506Y115594D02*Y112394D01*
X223906Y113994D02*X227106D01*
X225506Y128594D02*Y125394D01*
X223906Y126994D02*X227106D01*
X331006Y115094D02*Y111894D01*
X329406Y113494D02*X332606D01*
X387506Y155094D02*Y151894D01*
X385906Y153494D02*X389106D01*
X379506Y155094D02*Y151894D01*
X377906Y153494D02*X381106D01*
X321006Y239094D02*Y235894D01*
X319406Y237494D02*X322606D01*
X320006Y211094D02*Y207894D01*
X318406Y209494D02*X321606D01*
X262506Y250594D02*Y247394D01*
X260906Y248994D02*X264106D01*
X262506Y242594D02*Y239394D01*
X260906Y240994D02*X264106D01*
X221006Y237094D02*Y233894D01*
X219406Y235494D02*X222606D01*
X201006Y237094D02*Y233894D01*
X199406Y235494D02*X202606D01*
X213506Y201594D02*Y198394D01*
X211906Y199994D02*X215106D01*
X191006Y190594D02*Y187394D01*
X189406Y188994D02*X192606D01*
X174006Y214094D02*Y210894D01*
X172406Y212494D02*X175606D01*
X156006Y207594D02*Y204394D01*
X154406Y205994D02*X157606D01*
X143006Y200594D02*Y197394D01*
X141406Y198994D02*X144606D01*
X121006Y186594D02*Y183394D01*
X119406Y184994D02*X122606D01*
X145006Y170094D02*Y166894D01*
X143406Y168494D02*X146606D01*
X155006Y150094D02*Y146894D01*
X153406Y148494D02*X156606D01*
X200006Y108094D02*Y104894D01*
X198406Y106494D02*X201606D01*
X201506Y114594D02*Y111394D01*
X199906Y112994D02*X203106D01*
X217506Y114594D02*Y111394D01*
X215906Y112994D02*X219106D01*
X217506Y129594D02*Y126394D01*
X215906Y127994D02*X219106D01*
X201506Y129594D02*Y126394D01*
X199906Y127994D02*X203106D01*
X250506Y193094D02*Y189894D01*
X248906Y191494D02*X252106D01*
X167506Y188594D02*Y185394D01*
X165906Y186994D02*X169106D01*
X166506Y172094D02*Y168894D01*
X164906Y170494D02*X168106D01*
X326506Y258594D02*Y255394D01*
X324906Y256994D02*X328106D01*
X401006Y249094D02*Y245894D01*
X399406Y247494D02*X402606D01*
X226006Y254594D02*Y251394D01*
X224406Y252994D02*X227606D01*
X231006Y192094D02*Y188894D01*
X229406Y190494D02*X232606D01*
X332506Y260594D02*Y257394D01*
X330906Y258994D02*X334106D01*
X236006Y254594D02*Y251394D01*
X234406Y252994D02*X237606D01*
X134506Y254594D02*Y251394D01*
X132906Y252994D02*X136106D01*
X115506Y258594D02*Y255394D01*
X113906Y256994D02*X117106D01*
X380506Y54094D02*Y50894D01*
X378906Y52494D02*X382106D01*
X389006Y42594D02*Y39394D01*
X387406Y40994D02*X390606D01*
X277443Y75271D02*Y72071D01*
X275843Y73671D02*X279043D01*
X277443Y69271D02*Y66071D01*
X275843Y67671D02*X279043D01*
X271443Y69271D02*Y66071D01*
X269843Y67671D02*X273043D01*
X271443Y75271D02*Y72071D01*
X269843Y73671D02*X273043D01*
X303006Y56594D02*Y53394D01*
X301406Y54994D02*X304606D01*
X267506Y55594D02*Y52394D01*
X265906Y53994D02*X269106D01*
X288506Y105594D02*Y102394D01*
X286906Y103994D02*X290106D01*
X242006Y91594D02*Y88394D01*
X240406Y89994D02*X243606D01*
X287506Y91594D02*Y88394D01*
X285906Y89994D02*X289106D01*
X242006Y75594D02*Y72394D01*
X240406Y73994D02*X243606D01*
X286506Y45094D02*Y41894D01*
X284906Y43494D02*X288106D01*
X271506Y55594D02*Y52394D01*
X269906Y53994D02*X273106D01*
X291006Y62594D02*Y59394D01*
X289406Y60994D02*X292606D01*
X291006Y66594D02*Y63394D01*
X289406Y64994D02*X292606D01*
X291006Y70594D02*Y67394D01*
X289406Y68994D02*X292606D01*
X291506Y55594D02*Y52394D01*
X289906Y53994D02*X293106D01*
X288506Y79094D02*Y75894D01*
X286906Y77494D02*X290106D01*
X306506Y79094D02*Y75894D01*
X304906Y77494D02*X308106D01*
X283006Y86094D02*Y82894D01*
X281406Y84494D02*X284606D01*
X291006Y76094D02*Y72894D01*
X289406Y74494D02*X292606D01*
X248006Y54094D02*Y50894D01*
X246406Y52494D02*X249606D01*
X204006Y92094D02*Y88894D01*
X202406Y90494D02*X205606D01*
X204006Y98594D02*Y95394D01*
X202406Y96994D02*X205606D01*
X294506Y99094D02*Y95894D01*
X292906Y97494D02*X296106D01*
X251490Y162752D02*Y159552D01*
X249890Y161152D02*X253090D01*
X257490Y162752D02*Y159552D01*
X255890Y161152D02*X259090D01*
X257490Y168752D02*Y165552D01*
X255890Y167152D02*X259090D01*
X251490Y168752D02*Y165552D01*
X249890Y167152D02*X253090D01*
X326506Y248594D02*Y245394D01*
X324906Y246994D02*X328106D01*
X332506Y248594D02*Y245394D01*
X330906Y246994D02*X334106D01*
X355506Y188594D02*Y185394D01*
X353906Y186994D02*X357106D01*
X375506Y97594D02*Y94394D01*
X373906Y95994D02*X377106D01*
X358006Y97594D02*Y94394D01*
X356406Y95994D02*X359606D01*
X207006Y176094D02*Y172894D01*
X205406Y174494D02*X208606D01*
X207006Y186094D02*Y182894D01*
X205406Y184494D02*X208606D01*
X207006Y171594D02*Y168394D01*
X205406Y169994D02*X208606D01*
X207006Y181594D02*Y178394D01*
X205406Y179994D02*X208606D01*
X238006Y161594D02*Y158394D01*
X236406Y159994D02*X239606D01*
X235506Y158594D02*Y155394D01*
X233906Y156994D02*X237106D01*
X238006Y155594D02*Y152394D01*
X236406Y153994D02*X239606D01*
X235506Y164594D02*Y161394D01*
X233906Y162994D02*X237106D01*
X247006Y149594D02*Y146394D01*
X245406Y147994D02*X248606D01*
X323506Y169094D02*Y165894D01*
X321906Y167494D02*X325106D01*
X284506Y174094D02*Y170894D01*
X282906Y172494D02*X286106D01*
X282506Y198594D02*Y195394D01*
X280906Y196994D02*X284106D01*
X256506Y98594D02*Y95394D01*
X254906Y96994D02*X258106D01*
X248006Y96594D02*Y93394D01*
X246406Y94994D02*X249606D01*
X252506Y116094D02*Y112894D01*
X250906Y114494D02*X254106D01*
X226506Y152594D02*Y149394D01*
X224906Y150994D02*X228106D01*
X251506Y179594D02*Y176394D01*
X249906Y177994D02*X253106D01*
X264506Y179094D02*Y175894D01*
X262906Y177494D02*X266106D01*
X243443Y195157D02*Y191957D01*
X241843Y193557D02*X245043D01*
X204506Y141094D02*Y137894D01*
X202906Y139494D02*X206106D01*
X226506Y164594D02*Y161394D01*
X224906Y162994D02*X228106D01*
X229506Y179594D02*Y176394D01*
X227906Y177994D02*X231106D01*
X222006Y170094D02*Y166894D01*
X220406Y168494D02*X223606D01*
X291006Y166594D02*Y163394D01*
X289406Y164994D02*X292606D01*
X257506Y152094D02*Y148894D01*
X255906Y150494D02*X259106D01*
X314006Y157594D02*Y154394D01*
X312406Y155994D02*X315606D01*
X265006Y153594D02*Y150394D01*
X263406Y151994D02*X266606D01*
X293006Y157594D02*Y154394D01*
X291406Y155994D02*X294606D01*
X287506Y98594D02*Y95394D01*
X285906Y96994D02*X289106D01*
X357506Y105594D02*Y102394D01*
X355906Y103994D02*X359106D01*
X245006Y155094D02*Y151894D01*
X243406Y153494D02*X246606D01*
X269006Y151594D02*Y148394D01*
X267406Y149994D02*X270606D01*
X339506Y110094D02*Y106894D01*
X337906Y108494D02*X341106D01*
X30006Y248094D02*Y244894D01*
X28406Y246494D02*X31606D01*
X30006Y149594D02*Y146394D01*
X28406Y147994D02*X31606D01*
X30006Y227594D02*Y224394D01*
X28406Y225994D02*X31606D01*
X30006Y202094D02*Y198894D01*
X28406Y200494D02*X31606D01*
X69506Y251594D02*Y248394D01*
X67906Y249994D02*X71106D01*
X30006Y116094D02*Y112894D01*
X28406Y114494D02*X31606D01*
X69506Y149594D02*Y146394D01*
X67906Y147994D02*X71106D01*
X69506Y50094D02*Y46894D01*
X67906Y48494D02*X71106D01*
X30006Y50094D02*Y46894D01*
X28406Y48494D02*X31606D01*
X69506Y212094D02*Y208894D01*
X67906Y210494D02*X71106D01*
X69506Y116094D02*Y112894D01*
X67906Y114494D02*X71106D01*
X290006Y133594D02*Y130394D01*
X288406Y131994D02*X291606D01*
X373006Y35594D02*Y32394D01*
X371406Y33994D02*X374606D01*
X376006Y105094D02*Y101894D01*
X374406Y103494D02*X377606D01*
X408506Y182094D02*Y178894D01*
X406906Y180494D02*X410106D01*
X408506Y121094D02*Y117894D01*
X406906Y119494D02*X410106D01*
X408506Y234094D02*Y230894D01*
X406906Y232494D02*X410106D01*
X376006Y139594D02*Y136394D01*
X374406Y137994D02*X377606D01*
X325006Y36094D02*Y32894D01*
X323406Y34494D02*X326606D01*
X243006Y228094D02*Y224894D01*
X241406Y226494D02*X244606D01*
X218006Y46594D02*Y43394D01*
X216406Y44994D02*X219606D01*
X368506Y263594D02*Y260394D01*
X366906Y261994D02*X370106D01*
X316006Y48094D02*Y44894D01*
X314406Y46494D02*X317606D01*
X326506Y90094D02*Y86894D01*
X324906Y88494D02*X328106D01*
X298506Y234094D02*Y230894D01*
X296906Y232494D02*X300106D01*
X376006Y188594D02*Y185394D01*
X374406Y186994D02*X377606D01*
X406506Y89094D02*Y85894D01*
X404906Y87494D02*X408106D01*
X359006Y233094D02*Y229894D01*
X357406Y231494D02*X360606D01*
X301506Y170094D02*Y166894D01*
X299906Y168494D02*X303106D01*
X309006Y141094D02*Y137894D01*
X307406Y139494D02*X310606D01*
X370506Y222594D02*Y219394D01*
X368906Y220994D02*X372106D01*
X355506Y227594D02*Y224394D01*
X353906Y225994D02*X357106D01*
X157006Y128594D02*Y125394D01*
X155406Y126994D02*X158606D01*
X230006Y141094D02*Y137894D01*
X228406Y139494D02*X231606D01*
X110506Y128594D02*Y125394D01*
X108906Y126994D02*X112106D01*
X107006Y212094D02*Y208894D01*
X105406Y210494D02*X108606D01*
X87006Y128594D02*Y125394D01*
X85406Y126994D02*X88606D01*
X128506Y229094D02*Y225894D01*
X126906Y227494D02*X130106D01*
X163506Y229094D02*Y225894D01*
X161906Y227494D02*X165106D01*
X202506Y229094D02*Y225894D01*
X200906Y227494D02*X204106D01*
X199006Y154594D02*Y151394D01*
X197406Y152994D02*X200606D01*
X15000Y402850D02*Y399650D01*
X13400Y401250D02*X16600D01*
X135000Y403500D02*X136500Y400500D01*
X138000Y403500D01*
X136500Y400500D02*Y397500D01*
X139800Y400800D02*X142050D01*
X139800Y397500D02*X142800D01*
X139800Y403500D02*Y397500D01*
Y403500D02*X142800D01*
X147600D02*X148350Y402750D01*
X145350Y403500D02*X147600D01*
X144600Y402750D02*X145350Y403500D01*
X144600Y402750D02*Y401250D01*
X145350Y400500D01*
X147600D01*
X148350Y399750D01*
Y398250D01*
X147600Y397500D02*X148350Y398250D01*
X145350Y397500D02*X147600D01*
X144600Y398250D02*X145350Y397500D01*
X98000Y402750D02*X98750Y403500D01*
X101000D01*
X101750Y402750D01*
Y401250D01*
X98000Y397500D02*X101750Y401250D01*
X98000Y397500D02*X101750D01*
X103550Y402300D02*X104750Y403500D01*
Y397500D01*
X103550D02*X105800D01*
X108350D02*X111350Y403500D01*
X107600D02*X111350D01*
X45000Y398250D02*X45750Y397500D01*
X45000Y402750D02*Y398250D01*
Y402750D02*X45750Y403500D01*
X47250D01*
X48000Y402750D01*
Y398250D01*
X47250Y397500D02*X48000Y398250D01*
X45750Y397500D02*X47250D01*
X45000Y399000D02*X48000Y402000D01*
X49800Y397500D02*X50550D01*
X52350Y398250D02*X53100Y397500D01*
X52350Y402750D02*Y398250D01*
Y402750D02*X53100Y403500D01*
X54600D01*
X55350Y402750D01*
Y398250D01*
X54600Y397500D02*X55350Y398250D01*
X53100Y397500D02*X54600D01*
X52350Y399000D02*X55350Y402000D01*
X57150Y402300D02*X58350Y403500D01*
Y397500D01*
X57150D02*X59400D01*
X61200Y402750D02*X61950Y403500D01*
X64200D01*
X64950Y402750D01*
Y401250D01*
X61200Y397500D02*X64950Y401250D01*
X61200Y397500D02*X64950D01*
X221006Y51494D02*Y49894D01*
Y51494D02*X222393Y52294D01*
X221006Y51494D02*X219619Y52294D01*
X336006Y131994D02*Y130394D01*
Y131994D02*X337393Y132794D01*
X336006Y131994D02*X334619Y132794D01*
X15000Y416250D02*Y414650D01*
Y416250D02*X16387Y417050D01*
X15000Y416250D02*X13613Y417050D01*
X135000Y418500D02*X136500Y415500D01*
X138000Y418500D01*
X136500Y415500D02*Y412500D01*
X139800Y415800D02*X142050D01*
X139800Y412500D02*X142800D01*
X139800Y418500D02*Y412500D01*
Y418500D02*X142800D01*
X147600D02*X148350Y417750D01*
X145350Y418500D02*X147600D01*
X144600Y417750D02*X145350Y418500D01*
X144600Y417750D02*Y416250D01*
X145350Y415500D01*
X147600D01*
X148350Y414750D01*
Y413250D01*
X147600Y412500D02*X148350Y413250D01*
X145350Y412500D02*X147600D01*
X144600Y413250D02*X145350Y412500D01*
X98000Y417750D02*X98750Y418500D01*
X101000D01*
X101750Y417750D01*
Y416250D01*
X98000Y412500D02*X101750Y416250D01*
X98000Y412500D02*X101750D01*
X45000Y413250D02*X45750Y412500D01*
X45000Y417750D02*Y413250D01*
Y417750D02*X45750Y418500D01*
X47250D01*
X48000Y417750D01*
Y413250D01*
X47250Y412500D02*X48000Y413250D01*
X45750Y412500D02*X47250D01*
X45000Y414000D02*X48000Y417000D01*
X49800Y412500D02*X50550D01*
X52350Y413250D02*X53100Y412500D01*
X52350Y417750D02*Y413250D01*
Y417750D02*X53100Y418500D01*
X54600D01*
X55350Y417750D01*
Y413250D01*
X54600Y412500D02*X55350Y413250D01*
X53100Y412500D02*X54600D01*
X52350Y414000D02*X55350Y417000D01*
X57150Y417300D02*X58350Y418500D01*
Y412500D01*
X57150D02*X59400D01*
X61200Y413250D02*X61950Y412500D01*
X61200Y417750D02*Y413250D01*
Y417750D02*X61950Y418500D01*
X63450D01*
X64200Y417750D01*
Y413250D01*
X63450Y412500D02*X64200Y413250D01*
X61950Y412500D02*X63450D01*
X61200Y414000D02*X64200Y417000D01*
X3000Y433500D02*X3750Y432750D01*
X750Y433500D02*X3000D01*
X0Y432750D02*X750Y433500D01*
X0Y432750D02*Y431250D01*
X750Y430500D01*
X3000D01*
X3750Y429750D01*
Y428250D01*
X3000Y427500D02*X3750Y428250D01*
X750Y427500D02*X3000D01*
X0Y428250D02*X750Y427500D01*
X5550Y430500D02*Y428250D01*
X6300Y427500D01*
X8550Y430500D02*Y426000D01*
X7800Y425250D02*X8550Y426000D01*
X6300Y425250D02*X7800D01*
X5550Y426000D02*X6300Y425250D01*
Y427500D02*X7800D01*
X8550Y428250D01*
X11100Y429750D02*Y427500D01*
Y429750D02*X11850Y430500D01*
X12600D01*
X13350Y429750D01*
Y427500D01*
Y429750D02*X14100Y430500D01*
X14850D01*
X15600Y429750D01*
Y427500D01*
X10350Y430500D02*X11100Y429750D01*
X17400Y433500D02*Y427500D01*
Y428250D02*X18150Y427500D01*
X19650D01*
X20400Y428250D01*
Y429750D02*Y428250D01*
X19650Y430500D02*X20400Y429750D01*
X18150Y430500D02*X19650D01*
X17400Y429750D02*X18150Y430500D01*
X22200Y429750D02*Y428250D01*
Y429750D02*X22950Y430500D01*
X24450D01*
X25200Y429750D01*
Y428250D01*
X24450Y427500D02*X25200Y428250D01*
X22950Y427500D02*X24450D01*
X22200Y428250D02*X22950Y427500D01*
X27000Y433500D02*Y428250D01*
X27750Y427500D01*
X0Y424250D02*X29250D01*
X41750Y433500D02*Y427500D01*
X43700Y433500D02*X44750Y432450D01*
Y428550D01*
X43700Y427500D02*X44750Y428550D01*
X41000Y427500D02*X43700D01*
X41000Y433500D02*X43700D01*
G54D232*X46550Y432000D02*Y431850D01*
G54D231*Y429750D02*Y427500D01*
X50300Y430500D02*X51050Y429750D01*
X48800Y430500D02*X50300D01*
X48050Y429750D02*X48800Y430500D01*
X48050Y429750D02*Y428250D01*
X48800Y427500D01*
X51050Y430500D02*Y428250D01*
X51800Y427500D01*
X48800D02*X50300D01*
X51050Y428250D01*
X54350Y429750D02*Y427500D01*
Y429750D02*X55100Y430500D01*
X55850D01*
X56600Y429750D01*
Y427500D01*
Y429750D02*X57350Y430500D01*
X58100D01*
X58850Y429750D01*
Y427500D01*
X53600Y430500D02*X54350Y429750D01*
X60650Y427500D02*X61400D01*
X65900Y428250D02*X66650Y427500D01*
X65900Y432750D02*X66650Y433500D01*
X65900Y432750D02*Y428250D01*
X68450Y433500D02*X69950D01*
X69200D02*Y427500D01*
X68450D02*X69950D01*
X72500Y429750D02*Y427500D01*
Y429750D02*X73250Y430500D01*
X74000D01*
X74750Y429750D01*
Y427500D01*
X71750Y430500D02*X72500Y429750D01*
X77300Y430500D02*X79550D01*
X76550Y429750D02*X77300Y430500D01*
X76550Y429750D02*Y428250D01*
X77300Y427500D01*
X79550D01*
X81350Y433500D02*Y427500D01*
Y429750D02*X82100Y430500D01*
X83600D01*
X84350Y429750D01*
Y427500D01*
X86150Y433500D02*X86900Y432750D01*
Y428250D01*
X86150Y427500D02*X86900Y428250D01*
X41000Y424250D02*X88700D01*
X96050Y427500D02*X98000D01*
X95000Y428550D02*X96050Y427500D01*
X95000Y432450D02*Y428550D01*
Y432450D02*X96050Y433500D01*
X98000D01*
X99800Y429750D02*Y428250D01*
Y429750D02*X100550Y430500D01*
X102050D01*
X102800Y429750D01*
Y428250D01*
X102050Y427500D02*X102800Y428250D01*
X100550Y427500D02*X102050D01*
X99800Y428250D02*X100550Y427500D01*
X104600Y430500D02*Y428250D01*
X105350Y427500D01*
X106850D01*
X107600Y428250D01*
Y430500D02*Y428250D01*
X110150Y429750D02*Y427500D01*
Y429750D02*X110900Y430500D01*
X111650D01*
X112400Y429750D01*
Y427500D01*
X109400Y430500D02*X110150Y429750D01*
X114950Y433500D02*Y428250D01*
X115700Y427500D01*
X114200Y431250D02*X115700D01*
X95000Y424250D02*X117200D01*
X130750Y433500D02*Y427500D01*
X130000Y433500D02*X133000D01*
X133750Y432750D01*
Y431250D01*
X133000Y430500D02*X133750Y431250D01*
X130750Y430500D02*X133000D01*
X135550Y433500D02*Y428250D01*
X136300Y427500D01*
X140050Y430500D02*X140800Y429750D01*
X138550Y430500D02*X140050D01*
X137800Y429750D02*X138550Y430500D01*
X137800Y429750D02*Y428250D01*
X138550Y427500D01*
X140800Y430500D02*Y428250D01*
X141550Y427500D01*
X138550D02*X140050D01*
X140800Y428250D01*
X144100Y433500D02*Y428250D01*
X144850Y427500D01*
X143350Y431250D02*X144850D01*
X147100Y427500D02*X149350D01*
X146350Y428250D02*X147100Y427500D01*
X146350Y429750D02*Y428250D01*
Y429750D02*X147100Y430500D01*
X148600D01*
X149350Y429750D01*
X146350Y429000D02*X149350D01*
Y429750D02*Y429000D01*
X154150Y433500D02*Y427500D01*
X153400D02*X154150Y428250D01*
X151900Y427500D02*X153400D01*
X151150Y428250D02*X151900Y427500D01*
X151150Y429750D02*Y428250D01*
Y429750D02*X151900Y430500D01*
X153400D01*
X154150Y429750D01*
X157450Y430500D02*Y429750D01*
Y428250D02*Y427500D01*
X155950Y432750D02*Y432000D01*
Y432750D02*X156700Y433500D01*
X158200D01*
X158950Y432750D01*
Y432000D01*
X157450Y430500D02*X158950Y432000D01*
X130000Y424250D02*X160750D01*
X0Y448500D02*X3000D01*
X1500D02*Y442500D01*
X4800Y448500D02*Y442500D01*
Y444750D02*X5550Y445500D01*
X7050D01*
X7800Y444750D01*
Y442500D01*
X10350D02*X12600D01*
X9600Y443250D02*X10350Y442500D01*
X9600Y444750D02*Y443250D01*
Y444750D02*X10350Y445500D01*
X11850D01*
X12600Y444750D01*
X9600Y444000D02*X12600D01*
Y444750D02*Y444000D01*
X15150Y444750D02*Y442500D01*
Y444750D02*X15900Y445500D01*
X17400D01*
X14400D02*X15150Y444750D01*
X19950Y442500D02*X22200D01*
X19200Y443250D02*X19950Y442500D01*
X19200Y444750D02*Y443250D01*
Y444750D02*X19950Y445500D01*
X21450D01*
X22200Y444750D01*
X19200Y444000D02*X22200D01*
Y444750D02*Y444000D01*
X28950Y445500D02*X29700Y444750D01*
X27450Y445500D02*X28950D01*
X26700Y444750D02*X27450Y445500D01*
X26700Y444750D02*Y443250D01*
X27450Y442500D01*
X29700Y445500D02*Y443250D01*
X30450Y442500D01*
X27450D02*X28950D01*
X29700Y443250D01*
X33000Y444750D02*Y442500D01*
Y444750D02*X33750Y445500D01*
X35250D01*
X32250D02*X33000Y444750D01*
X37800Y442500D02*X40050D01*
X37050Y443250D02*X37800Y442500D01*
X37050Y444750D02*Y443250D01*
Y444750D02*X37800Y445500D01*
X39300D01*
X40050Y444750D01*
X37050Y444000D02*X40050D01*
Y444750D02*Y444000D01*
X46800Y448500D02*X47550Y447750D01*
X45300Y448500D02*X46800D01*
X44550Y447750D02*X45300Y448500D01*
X44550Y447750D02*Y443250D01*
X45300Y442500D01*
X46800Y445800D02*X47550Y445050D01*
X44550Y445800D02*X46800D01*
X45300Y442500D02*X46800D01*
X47550Y443250D01*
Y445050D02*Y443250D01*
X55050Y448500D02*Y442500D01*
X54300D02*X55050Y443250D01*
X52800Y442500D02*X54300D01*
X52050Y443250D02*X52800Y442500D01*
X52050Y444750D02*Y443250D01*
Y444750D02*X52800Y445500D01*
X54300D01*
X55050Y444750D01*
G54D232*X56850Y447000D02*Y446850D01*
G54D231*Y444750D02*Y442500D01*
X59100Y447750D02*Y442500D01*
Y447750D02*X59850Y448500D01*
X60600D01*
X58350Y445500D02*X59850D01*
X62850Y447750D02*Y442500D01*
Y447750D02*X63600Y448500D01*
X64350D01*
X62100Y445500D02*X63600D01*
X66600Y442500D02*X68850D01*
X65850Y443250D02*X66600Y442500D01*
X65850Y444750D02*Y443250D01*
Y444750D02*X66600Y445500D01*
X68100D01*
X68850Y444750D01*
X65850Y444000D02*X68850D01*
Y444750D02*Y444000D01*
X71400Y444750D02*Y442500D01*
Y444750D02*X72150Y445500D01*
X73650D01*
X70650D02*X71400Y444750D01*
X76200Y442500D02*X78450D01*
X75450Y443250D02*X76200Y442500D01*
X75450Y444750D02*Y443250D01*
Y444750D02*X76200Y445500D01*
X77700D01*
X78450Y444750D01*
X75450Y444000D02*X78450D01*
Y444750D02*Y444000D01*
X81000Y444750D02*Y442500D01*
Y444750D02*X81750Y445500D01*
X82500D01*
X83250Y444750D01*
Y442500D01*
X80250Y445500D02*X81000Y444750D01*
X85800Y448500D02*Y443250D01*
X86550Y442500D01*
X85050Y446250D02*X86550D01*
X93750Y448500D02*Y442500D01*
X93000D02*X93750Y443250D01*
X91500Y442500D02*X93000D01*
X90750Y443250D02*X91500Y442500D01*
X90750Y444750D02*Y443250D01*
Y444750D02*X91500Y445500D01*
X93000D01*
X93750Y444750D01*
X96300D02*Y442500D01*
Y444750D02*X97050Y445500D01*
X98550D01*
X95550D02*X96300Y444750D01*
G54D232*X100350Y447000D02*Y446850D01*
G54D231*Y444750D02*Y442500D01*
X101850Y448500D02*Y443250D01*
X102600Y442500D01*
X104100Y448500D02*Y443250D01*
X104850Y442500D01*
X109800D02*X112050D01*
X112800Y443250D01*
X112050Y444000D02*X112800Y443250D01*
X109800Y444000D02*X112050D01*
X109050Y444750D02*X109800Y444000D01*
X109050Y444750D02*X109800Y445500D01*
X112050D01*
X112800Y444750D01*
X109050Y443250D02*X109800Y442500D01*
G54D232*X114600Y447000D02*Y446850D01*
G54D231*Y444750D02*Y442500D01*
X116100Y445500D02*X119100D01*
X116100Y442500D02*X119100Y445500D01*
X116100Y442500D02*X119100D01*
X121650D02*X123900D01*
X120900Y443250D02*X121650Y442500D01*
X120900Y444750D02*Y443250D01*
Y444750D02*X121650Y445500D01*
X123150D01*
X123900Y444750D01*
X120900Y444000D02*X123900D01*
Y444750D02*Y444000D01*
X126450Y442500D02*X128700D01*
X129450Y443250D01*
X128700Y444000D02*X129450Y443250D01*
X126450Y444000D02*X128700D01*
X125700Y444750D02*X126450Y444000D01*
X125700Y444750D02*X126450Y445500D01*
X128700D01*
X129450Y444750D01*
X125700Y443250D02*X126450Y442500D01*
X133950Y445500D02*Y443250D01*
X134700Y442500D01*
X136200D01*
X136950Y443250D01*
Y445500D02*Y443250D01*
X139500Y442500D02*X141750D01*
X142500Y443250D01*
X141750Y444000D02*X142500Y443250D01*
X139500Y444000D02*X141750D01*
X138750Y444750D02*X139500Y444000D01*
X138750Y444750D02*X139500Y445500D01*
X141750D01*
X142500Y444750D01*
X138750Y443250D02*X139500Y442500D01*
X145050D02*X147300D01*
X144300Y443250D02*X145050Y442500D01*
X144300Y444750D02*Y443250D01*
Y444750D02*X145050Y445500D01*
X146550D01*
X147300Y444750D01*
X144300Y444000D02*X147300D01*
Y444750D02*Y444000D01*
X152100Y448500D02*Y442500D01*
X151350D02*X152100Y443250D01*
X149850Y442500D02*X151350D01*
X149100Y443250D02*X149850Y442500D01*
X149100Y444750D02*Y443250D01*
Y444750D02*X149850Y445500D01*
X151350D01*
X152100Y444750D01*
G54D232*X156600Y447000D02*Y446850D01*
G54D231*Y444750D02*Y442500D01*
X158850Y444750D02*Y442500D01*
Y444750D02*X159600Y445500D01*
X160350D01*
X161100Y444750D01*
Y442500D01*
X158100Y445500D02*X158850Y444750D01*
X166350Y448500D02*Y443250D01*
X167100Y442500D01*
X165600Y446250D02*X167100D01*
X168600Y448500D02*Y442500D01*
Y444750D02*X169350Y445500D01*
X170850D01*
X171600Y444750D01*
Y442500D01*
G54D232*X173400Y447000D02*Y446850D01*
G54D231*Y444750D02*Y442500D01*
X175650D02*X177900D01*
X178650Y443250D01*
X177900Y444000D02*X178650Y443250D01*
X175650Y444000D02*X177900D01*
X174900Y444750D02*X175650Y444000D01*
X174900Y444750D02*X175650Y445500D01*
X177900D01*
X178650Y444750D01*
X174900Y443250D02*X175650Y442500D01*
X183150Y448500D02*Y443250D01*
X183900Y442500D01*
X187650Y445500D02*X188400Y444750D01*
X186150Y445500D02*X187650D01*
X185400Y444750D02*X186150Y445500D01*
X185400Y444750D02*Y443250D01*
X186150Y442500D01*
X188400Y445500D02*Y443250D01*
X189150Y442500D01*
X186150D02*X187650D01*
X188400Y443250D01*
X190950Y445500D02*Y443250D01*
X191700Y442500D01*
X193950Y445500D02*Y441000D01*
X193200Y440250D02*X193950Y441000D01*
X191700Y440250D02*X193200D01*
X190950Y441000D02*X191700Y440250D01*
Y442500D02*X193200D01*
X193950Y443250D01*
X195750Y444750D02*Y443250D01*
Y444750D02*X196500Y445500D01*
X198000D01*
X198750Y444750D01*
Y443250D01*
X198000Y442500D02*X198750Y443250D01*
X196500Y442500D02*X198000D01*
X195750Y443250D02*X196500Y442500D01*
X200550Y445500D02*Y443250D01*
X201300Y442500D01*
X202800D01*
X203550Y443250D01*
Y445500D02*Y443250D01*
X206100Y448500D02*Y443250D01*
X206850Y442500D01*
X205350Y446250D02*X206850D01*
X208350Y441000D02*X209850Y442500D01*
X214350Y447750D02*X215100Y448500D01*
X217350D01*
X218100Y447750D01*
Y446250D01*
X214350Y442500D02*X218100Y446250D01*
X214350Y442500D02*X218100D01*
X222150Y448500D02*X222900Y447750D01*
X220650Y448500D02*X222150D01*
X219900Y447750D02*X220650Y448500D01*
X219900Y447750D02*Y443250D01*
X220650Y442500D01*
X222150Y445800D02*X222900Y445050D01*
X219900Y445800D02*X222150D01*
X220650Y442500D02*X222150D01*
X222900Y443250D01*
Y445050D02*Y443250D01*
X224700D02*X225450Y442500D01*
X224700Y444450D02*Y443250D01*
Y444450D02*X225750Y445500D01*
X226650D01*
X227700Y444450D01*
Y443250D01*
X226950Y442500D02*X227700Y443250D01*
X225450Y442500D02*X226950D01*
X224700Y446550D02*X225750Y445500D01*
X224700Y447750D02*Y446550D01*
Y447750D02*X225450Y448500D01*
X226950D01*
X227700Y447750D01*
Y446550D01*
X226650Y445500D02*X227700Y446550D01*
X232200Y448500D02*Y442500D01*
Y444750D02*X232950Y445500D01*
X234450D01*
X235200Y444750D01*
Y442500D01*
X237000Y444750D02*Y443250D01*
Y444750D02*X237750Y445500D01*
X239250D01*
X240000Y444750D01*
Y443250D01*
X239250Y442500D02*X240000Y443250D01*
X237750Y442500D02*X239250D01*
X237000Y443250D02*X237750Y442500D01*
X241800Y448500D02*Y443250D01*
X242550Y442500D01*
X244800D02*X247050D01*
X244050Y443250D02*X244800Y442500D01*
X244050Y444750D02*Y443250D01*
Y444750D02*X244800Y445500D01*
X246300D01*
X247050Y444750D01*
X244050Y444000D02*X247050D01*
Y444750D02*Y444000D01*
X249600Y442500D02*X251850D01*
X252600Y443250D01*
X251850Y444000D02*X252600Y443250D01*
X249600Y444000D02*X251850D01*
X248850Y444750D02*X249600Y444000D01*
X248850Y444750D02*X249600Y445500D01*
X251850D01*
X252600Y444750D01*
X248850Y443250D02*X249600Y442500D01*
X257850Y448500D02*Y443250D01*
X258600Y442500D01*
X257100Y446250D02*X258600D01*
X260100Y444750D02*Y443250D01*
Y444750D02*X260850Y445500D01*
X262350D01*
X263100Y444750D01*
Y443250D01*
X262350Y442500D02*X263100Y443250D01*
X260850Y442500D02*X262350D01*
X260100Y443250D02*X260850Y442500D01*
X265650Y448500D02*Y443250D01*
X266400Y442500D01*
X264900Y446250D02*X266400D01*
X270150Y445500D02*X270900Y444750D01*
X268650Y445500D02*X270150D01*
X267900Y444750D02*X268650Y445500D01*
X267900Y444750D02*Y443250D01*
X268650Y442500D01*
X270900Y445500D02*Y443250D01*
X271650Y442500D01*
X268650D02*X270150D01*
X270900Y443250D01*
X273450Y448500D02*Y443250D01*
X274200Y442500D01*
G54D233*X415006Y281494D02*X16006D01*
Y19494D01*
X415006D01*
Y281494D01*
G54D231*X128675Y-9500D02*X131675D01*
X132425Y-8750D01*
Y-6950D02*Y-8750D01*
X131675Y-6200D02*X132425Y-6950D01*
X129425Y-6200D02*X131675D01*
X129425Y-3500D02*Y-9500D01*
X128675Y-3500D02*X131675D01*
X132425Y-4250D01*
Y-5450D01*
X131675Y-6200D02*X132425Y-5450D01*
X134225Y-7250D02*Y-8750D01*
Y-7250D02*X134975Y-6500D01*
X136475D01*
X137225Y-7250D01*
Y-8750D01*
X136475Y-9500D02*X137225Y-8750D01*
X134975Y-9500D02*X136475D01*
X134225Y-8750D02*X134975Y-9500D01*
X141275Y-6500D02*X142025Y-7250D01*
X139775Y-6500D02*X141275D01*
X139025Y-7250D02*X139775Y-6500D01*
X139025Y-7250D02*Y-8750D01*
X139775Y-9500D01*
X142025Y-6500D02*Y-8750D01*
X142775Y-9500D01*
X139775D02*X141275D01*
X142025Y-8750D01*
X145325Y-7250D02*Y-9500D01*
Y-7250D02*X146075Y-6500D01*
X147575D01*
X144575D02*X145325Y-7250D01*
X152375Y-3500D02*Y-9500D01*
X151625D02*X152375Y-8750D01*
X150125Y-9500D02*X151625D01*
X149375Y-8750D02*X150125Y-9500D01*
X149375Y-7250D02*Y-8750D01*
Y-7250D02*X150125Y-6500D01*
X151625D01*
X152375Y-7250D01*
X156875D02*Y-8750D01*
Y-7250D02*X157625Y-6500D01*
X159125D01*
X159875Y-7250D01*
Y-8750D01*
X159125Y-9500D02*X159875Y-8750D01*
X157625Y-9500D02*X159125D01*
X156875Y-8750D02*X157625Y-9500D01*
X161675Y-6500D02*Y-8750D01*
X162425Y-9500D01*
X163925D01*
X164675Y-8750D01*
Y-6500D02*Y-8750D01*
X167225Y-3500D02*Y-8750D01*
X167975Y-9500D01*
X166475Y-5750D02*X167975D01*
X169475Y-3500D02*Y-8750D01*
X170225Y-9500D01*
G54D232*X171725Y-5000D02*Y-5150D01*
G54D231*Y-7250D02*Y-9500D01*
X173975Y-7250D02*Y-9500D01*
Y-7250D02*X174725Y-6500D01*
X175475D01*
X176225Y-7250D01*
Y-9500D01*
X173225Y-6500D02*X173975Y-7250D01*
X178775Y-9500D02*X181025D01*
X178025Y-8750D02*X178775Y-9500D01*
X178025Y-7250D02*Y-8750D01*
Y-7250D02*X178775Y-6500D01*
X180275D01*
X181025Y-7250D01*
X178025Y-8000D02*X181025D01*
Y-7250D02*Y-8000D01*
G54D232*X185525Y-5000D02*Y-5150D01*
G54D231*Y-7250D02*Y-9500D01*
X187775D02*X190025D01*
X190775Y-8750D01*
X190025Y-8000D02*X190775Y-8750D01*
X187775Y-8000D02*X190025D01*
X187025Y-7250D02*X187775Y-8000D01*
X187025Y-7250D02*X187775Y-6500D01*
X190025D01*
X190775Y-7250D01*
X187025Y-8750D02*X187775Y-9500D01*
X196025Y-3500D02*Y-8750D01*
X196775Y-9500D01*
X195275Y-5750D02*X196775D01*
X198275Y-3500D02*Y-9500D01*
Y-7250D02*X199025Y-6500D01*
X200525D01*
X201275Y-7250D01*
Y-9500D01*
X203825D02*X206075D01*
X203075Y-8750D02*X203825Y-9500D01*
X203075Y-7250D02*Y-8750D01*
Y-7250D02*X203825Y-6500D01*
X205325D01*
X206075Y-7250D01*
X203075Y-8000D02*X206075D01*
Y-7250D02*Y-8000D01*
X211325Y-6500D02*X213575D01*
X210575Y-7250D02*X211325Y-6500D01*
X210575Y-7250D02*Y-8750D01*
X211325Y-9500D01*
X213575D01*
X216125D02*X218375D01*
X215375Y-8750D02*X216125Y-9500D01*
X215375Y-7250D02*Y-8750D01*
Y-7250D02*X216125Y-6500D01*
X217625D01*
X218375Y-7250D01*
X215375Y-8000D02*X218375D01*
Y-7250D02*Y-8000D01*
X220925Y-7250D02*Y-9500D01*
Y-7250D02*X221675Y-6500D01*
X222425D01*
X223175Y-7250D01*
Y-9500D01*
X220175Y-6500D02*X220925Y-7250D01*
X225725Y-3500D02*Y-8750D01*
X226475Y-9500D01*
X224975Y-5750D02*X226475D01*
X228725Y-9500D02*X230975D01*
X227975Y-8750D02*X228725Y-9500D01*
X227975Y-7250D02*Y-8750D01*
Y-7250D02*X228725Y-6500D01*
X230225D01*
X230975Y-7250D01*
X227975Y-8000D02*X230975D01*
Y-7250D02*Y-8000D01*
X233525Y-7250D02*Y-9500D01*
Y-7250D02*X234275Y-6500D01*
X235775D01*
X232775D02*X233525Y-7250D01*
X237575Y-3500D02*Y-8750D01*
X238325Y-9500D01*
G54D232*X239825Y-5000D02*Y-5150D01*
G54D231*Y-7250D02*Y-9500D01*
X242075Y-7250D02*Y-9500D01*
Y-7250D02*X242825Y-6500D01*
X243575D01*
X244325Y-7250D01*
Y-9500D01*
X241325Y-6500D02*X242075Y-7250D01*
X246875Y-9500D02*X249125D01*
X246125Y-8750D02*X246875Y-9500D01*
X246125Y-7250D02*Y-8750D01*
Y-7250D02*X246875Y-6500D01*
X248375D01*
X249125Y-7250D01*
X246125Y-8000D02*X249125D01*
Y-7250D02*Y-8000D01*
X253625Y-7250D02*Y-8750D01*
Y-7250D02*X254375Y-6500D01*
X255875D01*
X256625Y-7250D01*
Y-8750D01*
X255875Y-9500D02*X256625Y-8750D01*
X254375Y-9500D02*X255875D01*
X253625Y-8750D02*X254375Y-9500D01*
X259175Y-4250D02*Y-9500D01*
Y-4250D02*X259925Y-3500D01*
X260675D01*
X258425Y-6500D02*X259925D01*
X265625Y-3500D02*Y-8750D01*
X266375Y-9500D01*
X264875Y-5750D02*X266375D01*
X267875Y-3500D02*Y-9500D01*
Y-7250D02*X268625Y-6500D01*
X270125D01*
X270875Y-7250D01*
Y-9500D01*
G54D232*X272675Y-5000D02*Y-5150D01*
G54D231*Y-7250D02*Y-9500D01*
X274925D02*X277175D01*
X277925Y-8750D01*
X277175Y-8000D02*X277925Y-8750D01*
X274925Y-8000D02*X277175D01*
X274175Y-7250D02*X274925Y-8000D01*
X274175Y-7250D02*X274925Y-6500D01*
X277175D01*
X277925Y-7250D01*
X274175Y-8750D02*X274925Y-9500D01*
X283175Y-7250D02*Y-11750D01*
X282425Y-6500D02*X283175Y-7250D01*
X283925Y-6500D01*
X285425D01*
X286175Y-7250D01*
Y-8750D01*
X285425Y-9500D02*X286175Y-8750D01*
X283925Y-9500D02*X285425D01*
X283175Y-8750D02*X283925Y-9500D01*
X290225Y-6500D02*X290975Y-7250D01*
X288725Y-6500D02*X290225D01*
X287975Y-7250D02*X288725Y-6500D01*
X287975Y-7250D02*Y-8750D01*
X288725Y-9500D01*
X290975Y-6500D02*Y-8750D01*
X291725Y-9500D01*
X288725D02*X290225D01*
X290975Y-8750D01*
X294275Y-3500D02*Y-8750D01*
X295025Y-9500D01*
X293525Y-5750D02*X295025D01*
X296525Y-3500D02*Y-9500D01*
Y-7250D02*X297275Y-6500D01*
X298775D01*
X299525Y-7250D01*
Y-9500D01*
X200750Y358500D02*Y352500D01*
X202700Y358500D02*X203750Y357450D01*
Y353550D01*
X202700Y352500D02*X203750Y353550D01*
X200000Y352500D02*X202700D01*
X200000Y358500D02*X202700D01*
X207800Y355500D02*X208550Y354750D01*
X206300Y355500D02*X207800D01*
X205550Y354750D02*X206300Y355500D01*
X205550Y354750D02*Y353250D01*
X206300Y352500D01*
X208550Y355500D02*Y353250D01*
X209300Y352500D01*
X206300D02*X207800D01*
X208550Y353250D01*
X211850Y358500D02*Y353250D01*
X212600Y352500D01*
X211100Y356250D02*X212600D01*
X214850Y352500D02*X217100D01*
X214100Y353250D02*X214850Y352500D01*
X214100Y354750D02*Y353250D01*
Y354750D02*X214850Y355500D01*
X216350D01*
X217100Y354750D01*
X214100Y354000D02*X217100D01*
Y354750D02*Y354000D01*
X218900Y356250D02*X219650D01*
X218900Y354750D02*X219650D01*
X227150Y358500D02*X227900Y357750D01*
X224900Y358500D02*X227150D01*
X224150Y357750D02*X224900Y358500D01*
X224150Y357750D02*Y356250D01*
X224900Y355500D01*
X227150D01*
X227900Y354750D01*
Y353250D01*
X227150Y352500D02*X227900Y353250D01*
X224900Y352500D02*X227150D01*
X224150Y353250D02*X224900Y352500D01*
X231950Y355500D02*X232700Y354750D01*
X230450Y355500D02*X231950D01*
X229700Y354750D02*X230450Y355500D01*
X229700Y354750D02*Y353250D01*
X230450Y352500D01*
X232700Y355500D02*Y353250D01*
X233450Y352500D01*
X230450D02*X231950D01*
X232700Y353250D01*
X236000Y358500D02*Y353250D01*
X236750Y352500D01*
X235250Y356250D02*X236750D01*
X240950Y357750D02*X241700Y358500D01*
X243950D01*
X244700Y357750D01*
Y356250D01*
X240950Y352500D02*X244700Y356250D01*
X240950Y352500D02*X244700D01*
X246500Y358500D02*X249500D01*
X246500D02*Y355500D01*
X247250Y356250D01*
X248750D01*
X249500Y355500D01*
Y353250D01*
X248750Y352500D02*X249500Y353250D01*
X247250Y352500D02*X248750D01*
X246500Y353250D02*X247250Y352500D01*
X255050Y358500D02*X256250D01*
Y353250D01*
X255500Y352500D02*X256250Y353250D01*
X254750Y352500D02*X255500D01*
X254000Y353250D02*X254750Y352500D01*
X254000Y354000D02*Y353250D01*
X258050Y355500D02*Y353250D01*
X258800Y352500D01*
X260300D01*
X261050Y353250D01*
Y355500D02*Y353250D01*
X262850Y358500D02*Y353250D01*
X263600Y352500D01*
X267800Y357750D02*X268550Y358500D01*
X270800D01*
X271550Y357750D01*
Y356250D01*
X267800Y352500D02*X271550Y356250D01*
X267800Y352500D02*X271550D01*
X273350Y353250D02*X274100Y352500D01*
X273350Y357750D02*Y353250D01*
Y357750D02*X274100Y358500D01*
X275600D01*
X276350Y357750D01*
Y353250D01*
X275600Y352500D02*X276350Y353250D01*
X274100Y352500D02*X275600D01*
X273350Y354000D02*X276350Y357000D01*
X278150Y357750D02*X278900Y358500D01*
X281150D01*
X281900Y357750D01*
Y356250D01*
X278150Y352500D02*X281900Y356250D01*
X278150Y352500D02*X281900D01*
X283700Y353250D02*X284450Y352500D01*
X283700Y357750D02*Y353250D01*
Y357750D02*X284450Y358500D01*
X285950D01*
X286700Y357750D01*
Y353250D01*
X285950Y352500D02*X286700Y353250D01*
X284450Y352500D02*X285950D01*
X283700Y354000D02*X286700Y357000D01*
X291200Y357300D02*X292400Y358500D01*
Y352500D01*
X291200D02*X293450D01*
X295250Y357300D02*X296450Y358500D01*
Y352500D01*
X295250D02*X297500D01*
X299300Y356250D02*X300050D01*
X299300Y354750D02*X300050D01*
X301850D02*X304850Y358500D01*
X301850Y354750D02*X305600D01*
X304850Y358500D02*Y352500D01*
X307400Y353250D02*X308150Y352500D01*
X307400Y354450D02*Y353250D01*
Y354450D02*X308450Y355500D01*
X309350D01*
X310400Y354450D01*
Y353250D01*
X309650Y352500D02*X310400Y353250D01*
X308150Y352500D02*X309650D01*
X307400Y356550D02*X308450Y355500D01*
X307400Y357750D02*Y356550D01*
Y357750D02*X308150Y358500D01*
X309650D01*
X310400Y357750D01*
Y356550D01*
X309350Y355500D02*X310400Y356550D01*
X312200Y356250D02*X312950D01*
X312200Y354750D02*X312950D01*
X314750Y357300D02*X315950Y358500D01*
Y352500D01*
X314750D02*X317000D01*
X319550D02*X321800Y355500D01*
Y357750D02*Y355500D01*
X321050Y358500D02*X321800Y357750D01*
X319550Y358500D02*X321050D01*
X318800Y357750D02*X319550Y358500D01*
X318800Y357750D02*Y356250D01*
X319550Y355500D01*
X321800D01*
X326300Y357000D02*Y352500D01*
Y357000D02*X327350Y358500D01*
X329000D01*
X330050Y357000D01*
Y352500D01*
X326300Y355500D02*X330050D01*
X331850Y358500D02*Y352500D01*
Y358500D02*X334100Y355500D01*
X336350Y358500D01*
Y352500D01*
X343850Y358500D02*X344600Y357750D01*
X341600Y358500D02*X343850D01*
X340850Y357750D02*X341600Y358500D01*
X340850Y357750D02*Y353250D01*
X341600Y352500D01*
X343850D01*
X344600Y353250D01*
Y354750D02*Y353250D01*
X343850Y355500D02*X344600Y354750D01*
X342350Y355500D02*X343850D01*
X346400Y358500D02*Y352500D01*
Y358500D02*X348650Y355500D01*
X350900Y358500D01*
Y352500D01*
X352700Y358500D02*X355700D01*
X354200D02*Y352500D01*
X360200Y358500D02*Y353250D01*
X360950Y352500D01*
X362450D01*
X363200Y353250D01*
Y358500D02*Y353250D01*
X365000Y358500D02*X368000D01*
X366500D02*Y352500D01*
X370850D02*X372800D01*
X369800Y353550D02*X370850Y352500D01*
X369800Y357450D02*Y353550D01*
Y357450D02*X370850Y358500D01*
X372800D01*
X200000Y372000D02*Y367500D01*
Y372000D02*X201050Y373500D01*
X202700D01*
X203750Y372000D01*
Y367500D01*
X200000Y370500D02*X203750D01*
X205550D02*Y368250D01*
X206300Y367500D01*
X207800D01*
X208550Y368250D01*
Y370500D02*Y368250D01*
X211100Y373500D02*Y368250D01*
X211850Y367500D01*
X210350Y371250D02*X211850D01*
X213350Y373500D02*Y367500D01*
Y369750D02*X214100Y370500D01*
X215600D01*
X216350Y369750D01*
Y367500D01*
X218150Y369750D02*Y368250D01*
Y369750D02*X218900Y370500D01*
X220400D01*
X221150Y369750D01*
Y368250D01*
X220400Y367500D02*X221150Y368250D01*
X218900Y367500D02*X220400D01*
X218150Y368250D02*X218900Y367500D01*
X223700Y369750D02*Y367500D01*
Y369750D02*X224450Y370500D01*
X225950D01*
X222950D02*X223700Y369750D01*
X227750Y371250D02*X228500D01*
X227750Y369750D02*X228500D01*
X233000Y373500D02*Y367500D01*
Y373500D02*X235250Y370500D01*
X237500Y373500D01*
Y367500D01*
X241550Y370500D02*X242300Y369750D01*
X240050Y370500D02*X241550D01*
X239300Y369750D02*X240050Y370500D01*
X239300Y369750D02*Y368250D01*
X240050Y367500D01*
X242300Y370500D02*Y368250D01*
X243050Y367500D01*
X240050D02*X241550D01*
X242300Y368250D01*
X245600Y369750D02*Y367500D01*
Y369750D02*X246350Y370500D01*
X247850D01*
X244850D02*X245600Y369750D01*
X249650Y373500D02*Y367500D01*
Y369750D02*X251900Y367500D01*
X249650Y369750D02*X251150Y371250D01*
X200000Y388500D02*X203000D01*
X201500D02*Y382500D01*
G54D232*X204800Y387000D02*Y386850D01*
G54D231*Y384750D02*Y382500D01*
X207050Y388500D02*Y383250D01*
X207800Y382500D01*
X206300Y386250D02*X207800D01*
X209300Y388500D02*Y383250D01*
X210050Y382500D01*
X212300D02*X214550D01*
X211550Y383250D02*X212300Y382500D01*
X211550Y384750D02*Y383250D01*
Y384750D02*X212300Y385500D01*
X213800D01*
X214550Y384750D01*
X211550Y384000D02*X214550D01*
Y384750D02*Y384000D01*
X216350Y386250D02*X217100D01*
X216350Y384750D02*X217100D01*
X221600Y383250D02*X222350Y382500D01*
X221600Y387750D02*X222350Y388500D01*
X221600Y387750D02*Y383250D01*
X224150Y385500D02*Y383250D01*
X224900Y382500D01*
X226400D01*
X227150Y383250D01*
Y385500D02*Y383250D01*
X229700Y384750D02*Y382500D01*
Y384750D02*X230450Y385500D01*
X231200D01*
X231950Y384750D01*
Y382500D01*
X228950Y385500D02*X229700Y384750D01*
X233750Y388500D02*Y382500D01*
Y384750D02*X236000Y382500D01*
X233750Y384750D02*X235250Y386250D01*
X238550Y384750D02*Y382500D01*
Y384750D02*X239300Y385500D01*
X240050D01*
X240800Y384750D01*
Y382500D01*
X237800Y385500D02*X238550Y384750D01*
X242600D02*Y383250D01*
Y384750D02*X243350Y385500D01*
X244850D01*
X245600Y384750D01*
Y383250D01*
X244850Y382500D02*X245600Y383250D01*
X243350Y382500D02*X244850D01*
X242600Y383250D02*X243350Y382500D01*
X247400Y385500D02*Y383250D01*
X248150Y382500D01*
X248900D01*
X249650Y383250D01*
Y385500D02*Y383250D01*
X250400Y382500D01*
X251150D01*
X251900Y383250D01*
Y385500D02*Y383250D01*
X254450Y384750D02*Y382500D01*
Y384750D02*X255200Y385500D01*
X255950D01*
X256700Y384750D01*
Y382500D01*
X253700Y385500D02*X254450Y384750D01*
X258500Y388500D02*X259250Y387750D01*
Y383250D01*
X258500Y382500D02*X259250Y383250D01*
X263750Y385500D02*X266750D01*
X271250Y388500D02*Y382500D01*
Y388500D02*X274250D01*
X271250Y385800D02*X273500D01*
X278300Y385500D02*X279050Y384750D01*
X276800Y385500D02*X278300D01*
X276050Y384750D02*X276800Y385500D01*
X276050Y384750D02*Y383250D01*
X276800Y382500D01*
X279050Y385500D02*Y383250D01*
X279800Y382500D01*
X276800D02*X278300D01*
X279050Y383250D01*
X281600Y388500D02*Y382500D01*
Y383250D02*X282350Y382500D01*
X283850D01*
X284600Y383250D01*
Y384750D02*Y383250D01*
X283850Y385500D02*X284600Y384750D01*
X282350Y385500D02*X283850D01*
X281600Y384750D02*X282350Y385500D01*
X287150Y384750D02*Y382500D01*
Y384750D02*X287900Y385500D01*
X289400D01*
X286400D02*X287150Y384750D01*
G54D232*X291200Y387000D02*Y386850D01*
G54D231*Y384750D02*Y382500D01*
X293450Y385500D02*X295700D01*
X292700Y384750D02*X293450Y385500D01*
X292700Y384750D02*Y383250D01*
X293450Y382500D01*
X295700D01*
X299750Y385500D02*X300500Y384750D01*
X298250Y385500D02*X299750D01*
X297500Y384750D02*X298250Y385500D01*
X297500Y384750D02*Y383250D01*
X298250Y382500D01*
X300500Y385500D02*Y383250D01*
X301250Y382500D01*
X298250D02*X299750D01*
X300500Y383250D01*
X303800Y388500D02*Y383250D01*
X304550Y382500D01*
X303050Y386250D02*X304550D01*
G54D232*X306050Y387000D02*Y386850D01*
G54D231*Y384750D02*Y382500D01*
X307550Y384750D02*Y383250D01*
Y384750D02*X308300Y385500D01*
X309800D01*
X310550Y384750D01*
Y383250D01*
X309800Y382500D02*X310550Y383250D01*
X308300Y382500D02*X309800D01*
X307550Y383250D02*X308300Y382500D01*
X313100Y384750D02*Y382500D01*
Y384750D02*X313850Y385500D01*
X314600D01*
X315350Y384750D01*
Y382500D01*
X312350Y385500D02*X313100Y384750D01*
X320600Y388500D02*Y382500D01*
X322550Y388500D02*X323600Y387450D01*
Y383550D01*
X322550Y382500D02*X323600Y383550D01*
X319850Y382500D02*X322550D01*
X319850Y388500D02*X322550D01*
X326150Y384750D02*Y382500D01*
Y384750D02*X326900Y385500D01*
X328400D01*
X325400D02*X326150Y384750D01*
X332450Y385500D02*X333200Y384750D01*
X330950Y385500D02*X332450D01*
X330200Y384750D02*X330950Y385500D01*
X330200Y384750D02*Y383250D01*
X330950Y382500D01*
X333200Y385500D02*Y383250D01*
X333950Y382500D01*
X330950D02*X332450D01*
X333200Y383250D01*
X335750Y385500D02*Y383250D01*
X336500Y382500D01*
X337250D01*
X338000Y383250D01*
Y385500D02*Y383250D01*
X338750Y382500D01*
X339500D01*
X340250Y383250D01*
Y385500D02*Y383250D01*
G54D232*X342050Y387000D02*Y386850D01*
G54D231*Y384750D02*Y382500D01*
X344300Y384750D02*Y382500D01*
Y384750D02*X345050Y385500D01*
X345800D01*
X346550Y384750D01*
Y382500D01*
X343550Y385500D02*X344300Y384750D01*
X350600Y385500D02*X351350Y384750D01*
X349100Y385500D02*X350600D01*
X348350Y384750D02*X349100Y385500D01*
X348350Y384750D02*Y383250D01*
X349100Y382500D01*
X350600D01*
X351350Y383250D01*
X348350Y381000D02*X349100Y380250D01*
X350600D01*
X351350Y381000D01*
Y385500D02*Y381000D01*
M02*
