G04 start of page 9 for group -4062 idx -4062 *
G04 Title: (unknown), soldermask *
G04 Creator: pcb 1.99z *
G04 CreationDate: Thu 02 Apr 2020 08:31:54 PM GMT UTC *
G04 For: mark *
G04 Format: Gerber/RS-274X *
G04 PCB-Dimensions (mil): 4300.00 3300.00 *
G04 PCB-Coordinate-Origin: lower left *
%MOIN*%
%FSLAX25Y25*%
%LNBOTTOMMASK*%
%ADD141C,0.0160*%
%ADD140R,0.0160X0.0160*%
%ADD139R,0.0098X0.0098*%
%ADD138R,0.0118X0.0118*%
%ADD137R,0.0113X0.0113*%
%ADD136R,0.0415X0.0415*%
%ADD135R,0.0400X0.0400*%
%ADD134R,0.0315X0.0315*%
%ADD133R,0.0566X0.0566*%
%ADD132R,0.0551X0.0551*%
%ADD131R,0.0527X0.0527*%
%ADD130R,0.0200X0.0200*%
%ADD129R,0.0215X0.0215*%
%ADD128R,0.0255X0.0255*%
%ADD127R,0.0240X0.0240*%
%ADD126R,0.0310X0.0310*%
%ADD125R,0.0212X0.0212*%
%ADD124R,0.1000X0.1000*%
%ADD123C,0.1060*%
%ADD122C,0.0860*%
%ADD121C,0.0820*%
%ADD120C,0.0001*%
G54D120*G36*
X149906Y274594D02*Y266394D01*
X158106D01*
Y274594D01*
X149906D01*
G37*
G54D121*X164006Y270494D03*
X174006D03*
X184006D03*
X194006D03*
X204006D03*
G54D122*X190006Y80494D03*
X200006D03*
X160006D03*
X170006D03*
X180006D03*
X104006D03*
X94006D03*
X114006D03*
X130006D03*
X140006D03*
X150006D03*
G54D120*G36*
X39706Y84794D02*Y76194D01*
X48306D01*
Y84794D01*
X39706D01*
G37*
G54D122*X54006Y80494D03*
X64006D03*
X74006D03*
X84006D03*
G54D120*G36*
X59906Y34594D02*Y26394D01*
X68106D01*
Y34594D01*
X59906D01*
G37*
G54D121*X74006Y30494D03*
X84006D03*
X94006D03*
X104006D03*
X114006D03*
G54D122*X44006Y270494D03*
X54006D03*
X64006D03*
X74006D03*
X84006D03*
X94006D03*
X114006D03*
X124006D03*
X134006D03*
X144006D03*
G54D123*X36006Y179494D03*
X26006Y189494D03*
Y169494D03*
X46006Y189494D03*
Y169494D03*
G54D124*X197000Y127750D02*X302500D01*
G54D125*X161113Y114420D02*X161899D01*
X161113Y117568D02*X161899D01*
X170432Y102887D02*Y102101D01*
X173580Y102887D02*Y102101D01*
X178858Y100387D02*Y99601D01*
X182006Y100387D02*Y99601D01*
X178858Y105387D02*Y104601D01*
X182006Y105387D02*Y104601D01*
X257113Y142568D02*X257899D01*
X257113Y139420D02*X257899D01*
G54D126*X247014Y138435D02*X247998D01*
G54D125*X267113Y139420D02*X267899D01*
X267113Y142568D02*X267899D01*
X276613Y139420D02*X277399D01*
X276613Y142568D02*X277399D01*
X282613Y139420D02*X283399D01*
X282613Y142568D02*X283399D01*
X169613Y66920D02*X170399D01*
X169613Y70068D02*X170399D01*
X63613Y90920D02*X64399D01*
X63613Y94068D02*X64399D01*
X53613Y90920D02*X54399D01*
X53613Y94068D02*X54399D01*
X73613Y90920D02*X74399D01*
X73613Y94068D02*X74399D01*
X83613Y90920D02*X84399D01*
X83613Y94068D02*X84399D01*
G54D127*X105006Y62344D02*Y60770D01*
G54D128*X101266Y62344D02*Y60770D01*
X108746Y50219D02*Y48644D01*
X101266Y50219D02*Y48644D01*
G54D125*X91613Y47920D02*X92399D01*
X91613Y51068D02*X92399D01*
G54D128*X108746Y62344D02*Y60770D01*
G54D126*X117014Y57553D02*X117998D01*
X117014Y52435D02*X117998D01*
G54D125*X114532Y71087D02*Y70301D01*
X117680Y71087D02*Y70301D01*
X149613Y70068D02*X150399D01*
X149613Y66920D02*X150399D01*
G54D129*X126506Y102494D02*X133006D01*
G54D125*X128580Y95387D02*Y94601D01*
X125432Y95387D02*Y94601D01*
X139113Y96068D02*X139899D01*
X139113Y92920D02*X139899D01*
G54D130*X126506Y107494D02*X133006D01*
G54D129*X147006Y117494D02*X153506D01*
X147006Y112494D02*X153506D01*
X147006Y107494D02*X153506D01*
X147006Y102494D02*X153506D01*
G54D131*X162613Y99537D02*X163399D01*
X162613Y92451D02*X163399D01*
G54D125*X149113Y92920D02*X149899D01*
X149113Y96068D02*X149899D01*
G54D131*X125601Y139175D02*Y136813D01*
X137411Y139175D02*Y136813D01*
X189463Y106887D02*Y106101D01*
X196549Y106887D02*Y106101D01*
G54D125*X167113Y188920D02*X167899D01*
G54D131*X142613Y202451D02*X143399D01*
G54D132*X154522Y202494D02*X157672D01*
G54D133*X177357D02*X180507D01*
X167515Y201446D02*Y198194D01*
X154522Y212494D02*X157672D01*
G54D132*X177357D02*X180507D01*
X167515Y216746D02*Y213494D01*
G54D125*X167113Y192068D02*X167899D01*
G54D131*X190613Y192451D02*X191399D01*
X190613Y199537D02*X191399D01*
G54D126*X207921Y245486D02*Y244502D01*
X213039Y245486D02*Y244502D01*
G54D134*X213006Y209494D02*X214506D01*
G54D129*X161006Y259994D02*X167506D01*
X161006Y254994D02*X167506D01*
X161006Y249994D02*X167506D01*
X161006Y244994D02*X167506D01*
G54D125*X189432Y245387D02*Y244601D01*
X187932Y257387D02*Y256601D01*
X191080Y257387D02*Y256601D01*
X192580Y245387D02*Y244601D01*
X176932Y252387D02*Y251601D01*
X180080Y252387D02*Y251601D01*
X176932Y257387D02*Y256601D01*
X180080Y257387D02*Y256601D01*
X256113Y186568D02*X256899D01*
X256113Y183420D02*X256899D01*
G54D120*G36*
X219055Y188980D02*X221958Y188979D01*
X221957Y186861D01*
X219053Y186862D01*
X219055Y188980D01*
G37*
G54D126*X240053Y209986D02*Y209002D01*
G54D124*X103000Y226750D02*X302500D01*
G54D125*X265580Y218387D02*Y217601D01*
G54D126*X240065Y199986D02*Y199002D01*
X234935Y209986D02*Y209002D01*
G54D134*X225006Y209494D02*X226506D01*
G54D125*X262432Y213387D02*Y212601D01*
X265580Y213387D02*Y212601D01*
X262432Y218387D02*Y217601D01*
X260113Y192642D02*X260899D01*
X260113Y189494D02*X260899D01*
G54D126*X234947Y199986D02*Y199002D01*
G54D120*G36*
X219055Y192128D02*X221958Y192126D01*
X221957Y190008D01*
X219053Y190010D01*
X219055Y192128D01*
G37*
G54D135*X118756Y181994D02*X121956D01*
G54D131*X116613Y153037D02*X117399D01*
X114101Y166175D02*Y163813D01*
G54D124*X103000Y226750D02*Y127750D01*
G54D125*X95858Y260387D02*Y259601D01*
G54D127*X95581Y247994D02*X97156D01*
G54D128*X95581Y251734D02*X97156D01*
X95581Y244254D02*X97156D01*
G54D125*X99006Y260387D02*Y259601D01*
G54D128*X107707Y251734D02*X109282D01*
X107707Y244254D02*X109282D01*
G54D125*X118432Y244887D02*Y244101D01*
X121580Y244887D02*Y244101D01*
X134080Y238887D02*Y238101D01*
X130932Y238887D02*Y238101D01*
G54D130*X140506Y249994D02*X147006D01*
G54D129*X140506Y254994D02*X147006D01*
G54D136*X128506Y191744D02*Y188544D01*
G54D120*G36*
X132615Y207157D02*X134669Y205103D01*
X133171Y203606D01*
X131117Y205659D01*
X132615Y207157D01*
G37*
G36*
X134841Y209383D02*X136894Y207329D01*
X135397Y205831D01*
X133343Y207885D01*
X134841Y209383D01*
G37*
G36*
X128115Y211657D02*X130169Y209603D01*
X128671Y208105D01*
X126617Y210159D01*
X128115Y211657D01*
G37*
G36*
X130341Y213883D02*X132394Y211829D01*
X130897Y210331D01*
X128843Y212385D01*
X130341Y213883D01*
G37*
G54D131*X142613Y209537D02*X143399D01*
G54D129*X140506Y244994D02*X147006D01*
X140506Y259994D02*X147006D01*
G54D131*X153049Y238887D02*Y238101D01*
X145963Y238887D02*Y238101D01*
G54D126*X85506Y256486D02*Y255502D01*
X80388Y256486D02*Y255502D01*
G54D129*X126506Y112494D02*X133006D01*
X126506Y117494D02*X133006D01*
G54D131*X116613Y145951D02*X117399D01*
G54D125*X113580Y139387D02*Y138601D01*
X110432Y139387D02*Y138601D01*
G54D131*X125911Y166175D02*Y163813D01*
X144613Y165037D02*X145399D01*
G54D135*X135056Y181994D02*X138256D01*
G54D136*X128506Y175444D02*Y172244D01*
G54D120*G36*
X129383Y154953D02*X131437Y157007D01*
X132934Y155509D01*
X130881Y153456D01*
X129383Y154953D01*
G37*
G36*
X127157Y157179D02*X129211Y159233D01*
X130708Y157735D01*
X128655Y155681D01*
X127157Y157179D01*
G37*
G36*
X133383Y158953D02*X135437Y161007D01*
X136934Y159509D01*
X134881Y157456D01*
X133383Y158953D01*
G37*
G36*
X131157Y161179D02*X133211Y163233D01*
X134708Y161735D01*
X132655Y159681D01*
X131157Y161179D01*
G37*
G54D133*X153514Y154994D02*X156663D01*
G54D131*X144613Y157951D02*X145399D01*
G54D132*X153514Y144994D02*X156663D01*
G54D124*X103000Y127750D02*X176000D01*
G54D125*X153432Y135887D02*Y135101D01*
X156580Y135887D02*Y135101D01*
G54D137*X262096Y203337D02*X264065D01*
X262096Y201368D02*X264065D01*
X259537Y199793D02*Y197825D01*
X253041Y203337D02*X255010D01*
X253041Y201368D02*X255010D01*
X253041Y205305D02*X255010D01*
G54D138*X258159Y203337D02*X258947D01*
G54D137*X262096Y205305D02*X264065D01*
G54D139*X259537Y208848D02*Y206880D01*
G54D120*G36*
X205060Y205872D02*X206512Y203357D01*
X204678Y202298D01*
X203226Y204813D01*
X205060Y205872D01*
G37*
G36*
X202334Y204298D02*X203786Y201784D01*
X201952Y200724D01*
X200500Y203238D01*
X202334Y204298D01*
G37*
G36*
X202060Y211068D02*X203512Y208553D01*
X201678Y207494D01*
X200226Y210009D01*
X202060Y211068D01*
G37*
G36*
X199334Y209494D02*X200786Y206979D01*
X198952Y205920D01*
X197500Y208435D01*
X199334Y209494D01*
G37*
G54D135*X262580Y254744D02*Y251544D01*
G54D136*X252830Y244994D02*X256030D01*
G54D125*X228432Y245387D02*Y244601D01*
G54D126*X220514Y237935D02*X221498D01*
X220514Y243053D02*X221498D01*
G54D125*X231580Y245387D02*Y244601D01*
G54D131*X241325Y247589D02*X243687D01*
X241325Y259399D02*X243687D01*
X268411Y265675D02*Y263313D01*
G54D125*X275613Y265420D02*X276399D01*
X275613Y268568D02*X276399D01*
G54D131*X256601Y265675D02*Y263313D01*
G54D125*X248613Y265420D02*X249399D01*
X248613Y268568D02*X249399D01*
G54D137*X257569Y208848D02*Y206880D01*
G54D125*X282406Y245387D02*Y244601D01*
X285554Y245387D02*Y244601D01*
G54D135*X262580Y238444D02*Y235244D01*
G54D136*X269130Y244994D02*X272330D01*
G54D126*X200588Y237935D02*X201572D01*
X200588Y243053D02*X201572D01*
X320514Y235112D02*X321498D01*
G54D124*X302500Y226750D02*Y219750D01*
G54D140*X298000Y215000D02*X306000D01*
G54D125*X320613Y221920D02*X321399D01*
X320613Y225068D02*X321399D01*
G54D126*X320514Y229994D02*X321498D01*
G54D120*G36*
X318963Y218545D02*X323049Y218545D01*
X323049Y215443D01*
X318963Y215443D01*
X318963Y218545D01*
G37*
G54D141*X302500Y211000D02*X306500Y215000D01*
G54D140*X298000Y211000D02*X302000D01*
X298000Y212000D02*X303000D01*
X298000Y213000D02*X304000D01*
X298000Y214000D02*X305000D01*
G54D120*G36*
X364719Y219211D02*X370335Y217387D01*
X369606Y215141D01*
X363989Y216965D01*
X364719Y219211D01*
G37*
G54D126*X342947Y223986D02*Y223002D01*
G54D125*X328580Y227887D02*Y227101D01*
X325432Y227887D02*Y227101D01*
X336613Y226494D02*X337399D01*
X336613Y229642D02*X337399D01*
G54D120*G36*
X356407Y231848D02*X362023Y230023D01*
X361292Y227776D01*
X355677Y229602D01*
X356407Y231848D01*
G37*
G36*
X354898Y227449D02*X360657Y225578D01*
X359881Y223189D01*
X354122Y225060D01*
X354898Y227449D01*
G37*
G36*
X353486Y222861D02*X359103Y221037D01*
X358373Y218790D01*
X352756Y220615D01*
X353486Y222861D01*
G37*
G54D126*X320514Y211876D02*X321498D01*
G54D120*G36*
X364831Y229111D02*X373256Y226373D01*
X372526Y224127D01*
X364101Y226864D01*
X364831Y229111D01*
G37*
G36*
X366131Y223799D02*X371890Y221928D01*
X371114Y219539D01*
X365355Y221410D01*
X366131Y223799D01*
G37*
G54D126*X348065Y223986D02*Y223002D01*
G54D137*X257569Y199793D02*Y197825D01*
X267380Y155687D02*Y152931D01*
X265411Y155687D02*Y152931D01*
X263443Y155687D02*Y152931D01*
X261474Y155687D02*Y152931D01*
X259506Y155687D02*Y152931D01*
X257537Y155687D02*Y152931D01*
X268955Y171041D02*X271710D01*
G54D125*X287113Y183068D02*X287899D01*
X287113Y179920D02*X287899D01*
X282080Y173887D02*Y173101D01*
X278932Y173887D02*Y173101D01*
G54D124*X302500Y195000D02*Y127750D01*
G54D139*X268955Y169073D02*X271710D01*
G54D137*X268955Y167104D02*X271710D01*
G54D131*X286049Y166887D02*Y166101D01*
X278963Y166887D02*Y166101D01*
G54D137*X268955Y165136D02*X271710D01*
G54D139*X268955Y163167D02*X271710D01*
G54D137*X268955Y161199D02*X271710D01*
X268955Y159230D02*X271710D01*
X268955Y157262D02*X271710D01*
G54D126*X336514Y219553D02*X337498D01*
X336514Y214435D02*X337498D01*
G54D125*X328580Y219887D02*Y219101D01*
X325432Y219887D02*Y219101D01*
G54D139*X253600Y175372D02*Y172616D01*
G54D137*X255569Y175372D02*Y172616D01*
X257537Y175372D02*Y172616D01*
X259506Y175372D02*Y172616D01*
G54D139*X261474Y175372D02*Y172616D01*
G54D137*X263443Y175372D02*Y172616D01*
X265411Y175372D02*Y172616D01*
G54D120*G36*
X253403Y171238D02*Y157065D01*
X267577D01*
Y171238D01*
X253403D01*
G37*
G54D137*X249270Y159230D02*X252025D01*
X249270Y161199D02*X252025D01*
X249270Y163167D02*X252025D01*
X249270Y165136D02*X252025D01*
X249270Y167104D02*X252025D01*
X249270Y169073D02*X252025D01*
G54D139*X249270Y171041D02*X252025D01*
X255569Y155687D02*Y152931D01*
G54D137*X253600Y155687D02*Y152931D01*
G54D132*X176348Y154994D02*X179498D01*
G54D133*X176348Y144994D02*X179498D01*
X166506Y159294D02*Y156042D01*
G54D132*Y143994D02*Y140742D01*
G54D125*X166113Y165420D02*X166899D01*
X166113Y168568D02*X166899D01*
X230432Y176387D02*Y175601D01*
X233580Y176387D02*Y175601D01*
X224144Y176994D02*X224930D01*
X224144Y180142D02*X224930D01*
G54D137*X249270Y157262D02*X252025D01*
G54D126*X247014Y143553D02*X247998D01*
G54D125*X236580Y171387D02*Y170601D01*
G54D126*X238514Y182553D02*X239498D01*
X238514Y177435D02*X239498D01*
G54D125*X233432Y171387D02*Y170601D01*
G54D126*X241565Y147486D02*Y146502D01*
X236447Y147486D02*Y146502D01*
G54D125*X240580Y152887D02*Y152101D01*
X237432Y152887D02*Y152101D01*
Y157887D02*Y157101D01*
X240580Y157887D02*Y157101D01*
X282432Y205887D02*Y205101D01*
X285580Y205887D02*Y205101D01*
X278113Y183068D02*X278899D01*
X278113Y179920D02*X278899D01*
G54D137*X267380Y175372D02*Y172616D01*
G54D125*X267113Y180920D02*X267899D01*
X267113Y184068D02*X267899D01*
G54D126*X268014Y192935D02*X268998D01*
G54D125*X275113Y191920D02*X275899D01*
X275113Y195068D02*X275899D01*
X278432Y159387D02*Y158601D01*
X281580Y159387D02*Y158601D01*
Y154387D02*Y153601D01*
X278432Y154387D02*Y153601D01*
X281580Y148887D02*Y148101D01*
X278432Y148887D02*Y148101D01*
X250113Y193420D02*X250899D01*
X250113Y196568D02*X250899D01*
G54D126*X268014Y198053D02*X268998D01*
G54D134*X225006Y197494D02*X226506D01*
X213006D02*X214506D01*
X225006Y203494D02*X226506D01*
M02*
