M48
INCH
T112C0.010
T111C0.125
T110C0.012
T109C0.067
T108C0.038
T107C0.040
%
T112
X022101Y005149
X033601Y013199
T110
X003001Y024649
X003001Y022599
X003001Y020049
X003001Y014799
X003001Y011449
X003001Y004849
X004401Y021049
X004801Y021449
X005201Y021849
X005651Y009699
X006951Y024999
X006951Y021049
X006951Y019799
X006951Y018799
X006951Y014799
X006951Y011449
X006951Y004849
X007251Y020099
X007551Y020399
X007901Y019349
X007901Y017149
X007951Y009699
X008101Y018449
X008101Y018049
X008301Y019349
X008301Y017149
X008501Y018449
X008501Y018049
X008701Y019349
X008701Y017149
X008701Y012699
X009651Y006749
X010601Y018649
X010601Y017249
X010701Y021049
X011051Y012699
X011551Y025699
X012101Y018499
X012851Y022749
X013451Y025299
X013901Y017599
X013951Y018299
X014301Y019899
X014301Y010999
X014401Y014649
X014501Y016849
X015501Y014849
X015551Y016699
X015601Y020599
X015701Y012699
X016151Y016699
X016351Y022749
X016651Y017049
X016751Y018699
X017301Y018649
X017301Y017249
X017401Y021249
X017751Y015149
X018551Y015599
X019101Y018899
X019251Y012699
X019251Y011399
X019751Y019399
X019901Y015299
X020001Y010649
X020101Y023549
X020151Y012799
X020151Y011299
X020251Y022749
X020401Y009699
X020401Y009049
X020451Y013949
X020451Y006049
X020701Y018449
X020701Y017999
X020701Y017449
X020701Y016999
X021351Y019999
X021751Y012799
X021751Y011299
X021801Y004499
X022101Y023549
X022201Y016849
X022551Y012699
X022551Y011399
X022601Y025299
X022601Y021749
X022651Y016299
X022651Y015099
X022951Y017799
X023001Y013949
X023101Y019049
X023551Y016299
X023551Y015699
X023601Y025299
X023601Y010749
X023801Y015999
X023801Y015399
X024201Y008999
X024201Y007399
X024301Y022649
X024344Y019356
X024501Y015349
X024701Y014799
X024801Y009499
X024801Y005249
X025051Y019149
X025149Y016715
X025149Y016115
X025151Y017799
X025251Y011449
X025651Y009699
X025749Y016715
X025749Y016115
X025751Y021799
X025751Y015049
X026051Y020899
X026251Y024899
X026251Y024099
X026451Y017749
X026501Y015199
X026751Y005399
X026901Y014999
X027144Y007367
X027144Y006767
X027151Y005399
X027451Y012049
X027744Y007367
X027744Y006767
X028051Y025299
X028251Y019699
X028301Y008449
X028451Y017249
X028651Y004349
X028751Y009699
X028751Y008999
X028851Y010399
X028851Y007749
X029001Y013199
X029101Y016499
X029101Y007449
X029101Y006899
X029101Y006499
X029101Y006099
X029151Y005399
X029301Y015599
X029451Y009749
X029851Y023249
X030151Y016849
X030301Y005499
X030651Y007749
X030901Y013949
X031251Y019599
X031251Y017449
X031301Y010999
X031401Y015599
X031601Y004649
X032001Y020949
X032001Y020199
X032001Y015599
X032101Y023749
X032301Y012499
X032351Y019899
X032351Y016749
X032366Y018499
X032366Y017799
X032501Y003449
X032651Y025699
X032651Y024699
X032651Y019599
X032651Y008849
X032966Y018499
X032966Y017799
X033101Y011349
X033251Y025899
X033251Y024699
X033551Y019599
X033701Y023099
X033701Y021249
X033951Y010849
X033951Y005249
X034151Y017449
X034151Y011699
X034551Y024699
X034551Y020999
X034551Y011149
X034801Y003449
X035201Y024699
X035201Y020799
X035251Y012749
X035551Y022599
X035551Y018699
X035651Y012199
X035751Y010399
X035801Y009599
X035901Y023149
X036651Y021549
X036851Y026199
X037051Y022099
X037301Y003399
X037551Y009599
X037601Y018699
X037601Y013799
X037601Y010349
X037701Y011349
X037851Y022349
X037951Y015349
X038051Y005249
X038751Y015349
X038901Y004099
X038951Y020349
X040101Y024749
X040101Y015349
X040651Y008749
X040851Y023249
X040851Y018049
X040851Y011949
T108
X019101Y005149
X019101Y003849
T107
X004401Y027049
X004401Y008049
X005401Y027049
X005401Y008049
X006401Y027049
X006401Y008049
X006401Y003049
X007401Y027049
X007401Y008049
X007401Y003049
X008401Y027049
X008401Y008049
X008401Y003049
X009401Y027049
X009401Y008049
X009401Y003049
X010401Y008049
X010401Y003049
X011401Y027049
X011401Y008049
X011401Y003049
X012401Y027049
X013001Y008049
X013401Y027049
X014001Y008049
X014401Y027049
X015001Y008049
X015401Y027049
X016001Y008049
X016401Y027049
X017001Y008049
X017401Y027049
X018001Y008049
X018401Y027049
X019001Y008049
X019401Y027049
X020001Y008049
X020401Y027049
T109
X002601Y018949
X002601Y016949
X003601Y017949
X004601Y018949
X004601Y016949
T111
X002701Y027049
X002701Y003049
X040401Y027049
X040401Y003049
M30
