M48
INCH
T93C0.125
T92C0.012
T91C0.067
T90C0.040
%
T92
X004401Y021049
X004801Y021449
X005201Y021849
X005951Y009699
X006951Y019799
X006951Y018799
X007251Y020099
X007551Y020399
X007901Y019349
X007901Y017149
X007951Y009699
X008101Y018449
X008101Y018049
X008301Y019349
X008301Y017149
X008501Y018449
X008501Y018049
X008701Y019349
X008701Y017149
X009651Y006749
X010601Y018649
X010601Y017249
X011451Y025699
X011451Y024449
X012101Y018499
X013901Y017599
X013951Y018299
X014301Y019899
X014301Y010999
X014401Y014649
X014501Y016849
X015251Y017249
X015501Y014849
X015601Y020599
X015651Y016799
X016651Y017049
X016651Y014749
X016751Y020999
X016751Y018699
X017301Y018649
X017301Y017249
X017401Y021249
X017751Y015149
X018551Y015599
X018701Y018649
X019101Y018899
X019251Y012699
X019251Y011399
X019751Y019399
X020001Y010649
X020051Y009699
X020101Y023549
X020151Y012799
X020151Y011299
X020351Y010149
X020451Y017949
X020451Y016949
X020951Y018449
X020951Y017449
X021351Y019999
X021751Y012799
X021751Y011299
X022051Y016299
X022051Y015049
X022051Y006149
X022101Y023549
X022551Y012699
X022551Y011399
X022601Y021749
X022801Y014699
X022801Y004499
X023051Y026449
X023051Y019099
X023251Y015249
X023601Y010749
X024001Y028049
X024001Y019049
X024001Y017099
X024351Y017799
X024351Y016799
X024701Y017349
X025051Y019149
X025301Y008099
X025749Y016715
X025749Y016115
X025751Y021799
X025901Y020499
X026201Y009299
X026251Y024899
X026251Y024099
X026349Y016715
X026349Y016115
X026351Y005599
X026599Y007349
X026599Y006749
X026751Y017799
X026751Y014699
X026751Y012099
X027199Y007349
X027199Y006749
X028001Y004449
X028151Y009299
X028201Y006149
X028301Y018849
X028301Y018049
X028401Y026449
X028601Y008099
X028801Y007199
X029051Y017349
X029101Y005149
X029651Y005149
X030251Y005599
X030801Y010149
X031251Y019599
X031251Y017449
X031301Y010999
X032001Y020949
X032001Y020199
X032001Y015599
X032101Y023749
X032301Y012499
X032351Y019899
X032366Y018499
X032366Y017799
X032651Y024699
X032651Y019599
X032966Y018499
X032966Y017799
X033551Y019599
X033601Y005249
X033701Y023099
X033701Y021249
X034151Y017449
X034151Y011699
X034451Y004349
X034551Y024699
X034551Y020999
X034551Y011149
X035201Y024699
X035201Y020799
X035251Y012749
X035451Y019299
X035551Y022599
X035651Y012199
X035901Y023149
X036001Y018699
X036001Y007149
X036651Y021549
X037051Y022099
X037701Y011349
X037851Y022349
X037951Y015349
X038051Y007149
X038051Y005249
X038751Y015349
X038901Y004349
X038951Y020349
X040101Y015349
T90
X004401Y027049
X004401Y008049
X005401Y027049
X005401Y008049
X006401Y027049
X006401Y008049
X006401Y003049
X007401Y027049
X007401Y008049
X007401Y003049
X008401Y027049
X008401Y008049
X008401Y003049
X009401Y027049
X009401Y008049
X009401Y003049
X010401Y008049
X010401Y003049
X011401Y027049
X011401Y008049
X011401Y003049
X012401Y027049
X013001Y008049
X013401Y027049
X014001Y008049
X014401Y027049
X015001Y008049
X015401Y027049
X016001Y008049
X016401Y027049
X017001Y008049
X017401Y027049
X018001Y008049
X018401Y027049
X019001Y008049
X019401Y027049
X020001Y008049
X020401Y027049
T91
X002601Y018949
X002601Y016949
X003601Y017949
X004601Y018949
X004601Y016949
T93
X003001Y029649
X003001Y002499
X040001Y029649
X040001Y002499
M30
