G04 start of page 13 for group -4014 idx -4014 *
G04 Title: (unknown), bottompaste *
G04 Creator: pcb 1.99z *
G04 CreationDate: Wed 29 Jul 2020 02:45:22 PM GMT UTC *
G04 For: mark *
G04 Format: Gerber/RS-274X *
G04 PCB-Dimensions (mil): 4300.00 3300.00 *
G04 PCB-Coordinate-Origin: lower left *
%MOIN*%
%FSLAX25Y25*%
%LNBOTTOMPASTE*%
%ADD228C,0.0071*%
%ADD227R,0.0551X0.0551*%
%ADD226R,0.0300X0.0300*%
%ADD225R,0.0100X0.0100*%
%ADD224R,0.1000X0.1000*%
%ADD223C,0.0100*%
%ADD222R,0.0200X0.0200*%
%ADD221C,0.0001*%
%ADD220R,0.0400X0.0400*%
%ADD219R,0.0098X0.0098*%
%ADD218R,0.0118X0.0118*%
%ADD217R,0.0295X0.0295*%
%ADD216R,0.0240X0.0240*%
%ADD215R,0.0512X0.0512*%
%ADD214R,0.0197X0.0197*%
G54D214*X286080Y165387D02*Y164601D01*
X282932Y165387D02*Y164601D01*
G54D215*X116613Y145951D02*X117399D01*
X116613Y153037D02*X117399D01*
X125911Y166175D02*Y163813D01*
X114101Y166175D02*Y163813D01*
G54D216*X105006Y62344D02*Y60770D01*
X108746Y50219D02*Y48644D01*
X101266Y50219D02*Y48644D01*
X108746Y62344D02*Y60770D01*
X101266Y62344D02*Y60770D01*
G54D217*X117014Y57553D02*X117998D01*
X117014Y52435D02*X117998D01*
G54D214*X91613Y47920D02*X92399D01*
X91613Y51068D02*X92399D01*
X134080Y238887D02*Y238101D01*
X130932Y238887D02*Y238101D01*
X114532Y71087D02*Y70301D01*
X117680Y71087D02*Y70301D01*
X161113Y114420D02*X161899D01*
X161113Y117568D02*X161899D01*
X282432Y205887D02*Y205101D01*
X285580Y205887D02*Y205101D01*
G54D217*X240053Y209986D02*Y209002D01*
X234935Y209986D02*Y209002D01*
G54D218*X258159Y203337D02*X258947D01*
G54D219*X262096D02*X264065D01*
X262096Y201368D02*X264065D01*
X262096Y205305D02*X264065D01*
X253041Y203337D02*X255010D01*
X253041Y201368D02*X255010D01*
X253041Y205305D02*X255010D01*
X259537Y199793D02*Y197825D01*
X257569Y199793D02*Y197825D01*
X259537Y208848D02*Y206880D01*
X257569Y208848D02*Y206880D01*
G54D217*X240065Y199986D02*Y199002D01*
X234947Y199986D02*Y199002D01*
G54D214*X260113Y192642D02*X260899D01*
X260113Y189494D02*X260899D01*
G54D215*X189463Y106887D02*Y106101D01*
X196549Y106887D02*Y106101D01*
G54D220*X118756Y181994D02*X121956D01*
X135056D02*X138256D01*
X128506Y175444D02*Y172244D01*
Y191744D02*Y188544D01*
G54D215*X190613Y192451D02*X191399D01*
X190613Y199537D02*X191399D01*
G54D221*G36*
X132615Y207051D02*X134562Y205103D01*
X133171Y203712D01*
X131223Y205659D01*
X132615Y207051D01*
G37*
G36*
X134841Y209277D02*X136788Y207329D01*
X135397Y205938D01*
X133449Y207885D01*
X134841Y209277D01*
G37*
G36*
X128115Y211551D02*X130062Y209603D01*
X128671Y208212D01*
X126723Y210159D01*
X128115Y211551D01*
G37*
G36*
X130341Y213777D02*X132288Y211829D01*
X130897Y210438D01*
X128949Y212385D01*
X130341Y213777D01*
G37*
G54D215*X142613Y202451D02*X143399D01*
X142613Y209537D02*X143399D01*
G54D222*X140506Y244994D02*X147006D01*
X140506Y249994D02*X147006D01*
X140506Y254994D02*X147006D01*
X140506Y259994D02*X147006D01*
X161006D02*X167506D01*
X161006Y254994D02*X167506D01*
X161006Y249994D02*X167506D01*
X161006Y244994D02*X167506D01*
G54D214*X282406Y245387D02*Y244601D01*
X285554Y245387D02*Y244601D01*
G54D217*X348065Y223986D02*Y223002D01*
X342947Y223986D02*Y223002D01*
G54D220*X262580Y254744D02*Y251544D01*
Y238444D02*Y235244D01*
X252830Y244994D02*X256030D01*
X269130D02*X272330D01*
G54D214*X228432Y245387D02*Y244601D01*
X231580Y245387D02*Y244601D01*
X189432Y245387D02*Y244601D01*
X192580Y245387D02*Y244601D01*
G54D217*X207921Y245486D02*Y244502D01*
X213039Y245486D02*Y244502D01*
G54D215*X241325Y247589D02*X243687D01*
X241325Y259399D02*X243687D01*
G54D217*X220514Y237935D02*X221498D01*
X220514Y243053D02*X221498D01*
X336514Y219553D02*X337498D01*
X336514Y214435D02*X337498D01*
G54D214*X328580Y227887D02*Y227101D01*
X325432Y227887D02*Y227101D01*
X328580Y219887D02*Y219101D01*
X325432Y219887D02*Y219101D01*
X336613Y226494D02*X337399D01*
X336613Y229642D02*X337399D01*
G54D221*G36*
X205032Y205769D02*X206410Y203385D01*
X204705Y202401D01*
X203328Y204785D01*
X205032Y205769D01*
G37*
G36*
X202306Y204195D02*X203684Y201811D01*
X201980Y200827D01*
X200602Y203211D01*
X202306Y204195D01*
G37*
G36*
X202033Y210965D02*X203409Y208580D01*
X201705Y207596D01*
X200328Y209982D01*
X202033Y210965D01*
G37*
G36*
X199307Y209392D02*X200684Y207007D01*
X198979Y206023D01*
X197602Y208408D01*
X199307Y209392D01*
G37*
G54D214*X73613Y94068D02*X74399D01*
X73613Y90920D02*X74399D01*
X282432Y155887D02*Y155101D01*
X285580Y155887D02*Y155101D01*
G54D215*X153049Y238887D02*Y238101D01*
X145963Y238887D02*Y238101D01*
G54D221*G36*
X129489Y154953D02*X131437Y156901D01*
X132828Y155509D01*
X130881Y153562D01*
X129489Y154953D01*
G37*
G36*
X127263Y157179D02*X129211Y159127D01*
X130602Y157735D01*
X128655Y155788D01*
X127263Y157179D01*
G37*
G36*
X133489Y158953D02*X135437Y160901D01*
X136828Y159509D01*
X134881Y157562D01*
X133489Y158953D01*
G37*
G36*
X131263Y161179D02*X133211Y163127D01*
X134602Y161735D01*
X132655Y159788D01*
X131263Y161179D01*
G37*
G54D215*X144613Y157951D02*X145399D01*
X144613Y165037D02*X145399D01*
G54D223*X302500Y211000D02*X306500Y215000D01*
G54D224*X197000Y127750D02*X302500D01*
X103000D02*X176000D01*
X103000Y226750D02*Y127750D01*
Y226750D02*X302500D01*
Y219750D01*
Y195000D02*Y127750D01*
G54D225*X298000Y211000D02*X302000D01*
X298000Y212000D02*X303000D01*
X298000Y213000D02*X304000D01*
X298000Y214000D02*X305000D01*
X298000Y215000D02*X306000D01*
G54D214*X95858Y260387D02*Y259601D01*
X99006Y260387D02*Y259601D01*
G54D217*X200588Y237935D02*X201572D01*
X200588Y243053D02*X201572D01*
G54D214*X256113Y192642D02*X256899D01*
X256113Y189494D02*X256899D01*
X283006Y160387D02*Y159601D01*
X286154Y160387D02*Y159601D01*
G54D222*X126506Y102494D02*X133006D01*
X126506Y107494D02*X133006D01*
X126506Y112494D02*X133006D01*
X126506Y117494D02*X133006D01*
X147006D02*X153506D01*
X147006Y112494D02*X153506D01*
X147006Y107494D02*X153506D01*
X147006Y102494D02*X153506D01*
G54D215*X162613Y99537D02*X163399D01*
X162613Y92451D02*X163399D01*
G54D214*X170432Y102887D02*Y102101D01*
X173580Y102887D02*Y102101D01*
X178858Y100387D02*Y99601D01*
X182006Y100387D02*Y99601D01*
X178858Y105387D02*Y104601D01*
X182006Y105387D02*Y104601D01*
G54D216*X95581Y247994D02*X97156D01*
X107707Y251734D02*X109282D01*
X107707Y244254D02*X109282D01*
X95581Y251734D02*X97156D01*
X95581Y244254D02*X97156D01*
G54D217*X85506Y256486D02*Y255502D01*
X80388Y256486D02*Y255502D01*
G54D214*X118432Y244887D02*Y244101D01*
X121580Y244887D02*Y244101D01*
X249113Y193420D02*X249899D01*
X249113Y196568D02*X249899D01*
G54D215*X268411Y265675D02*Y263313D01*
X256601Y265675D02*Y263313D01*
G54D214*X248613Y265420D02*X249399D01*
X248613Y268568D02*X249399D01*
X275613Y265420D02*X276399D01*
X275613Y268568D02*X276399D01*
G54D226*X225006Y197494D02*X226506D01*
X213006D02*X214506D01*
X225006Y203494D02*X226506D01*
X225006Y209494D02*X226506D01*
X213006D02*X214506D01*
G54D214*X128580Y95387D02*Y94601D01*
X125432Y95387D02*Y94601D01*
X139113Y96068D02*X139899D01*
X139113Y92920D02*X139899D01*
X149113D02*X149899D01*
X149113Y96068D02*X149899D01*
X176932Y252387D02*Y251601D01*
X180080Y252387D02*Y251601D01*
X176932Y257387D02*Y256601D01*
X180080Y257387D02*Y256601D01*
X187932Y257387D02*Y256601D01*
X191080Y257387D02*Y256601D01*
X113580Y139387D02*Y138601D01*
X110432Y139387D02*Y138601D01*
X149613Y70068D02*X150399D01*
X149613Y66920D02*X150399D01*
X142613D02*X143399D01*
X142613Y70068D02*X143399D01*
X166113Y165420D02*X166899D01*
X166113Y168568D02*X166899D01*
X153432Y135887D02*Y135101D01*
X156580Y135887D02*Y135101D01*
G54D215*X125601Y139175D02*Y136813D01*
X137411Y139175D02*Y136813D01*
G54D214*X275113Y191920D02*X275899D01*
X275113Y195068D02*X275899D01*
X320613Y221920D02*X321399D01*
X320613Y225068D02*X321399D01*
G54D217*X320514Y229994D02*X321498D01*
X320514Y235112D02*X321498D01*
G54D221*G36*
X319038Y218470D02*X322974Y218470D01*
X322974Y215518D01*
X319038Y215518D01*
X319038Y218470D01*
G37*
G54D217*X320514Y211876D02*X321498D01*
G54D214*X262432Y213387D02*Y212601D01*
X265580Y213387D02*Y212601D01*
X262432Y218387D02*Y217601D01*
X265580Y218387D02*Y217601D01*
X167113Y192068D02*X167899D01*
X167113Y188920D02*X167899D01*
X83613Y90920D02*X84399D01*
X83613Y94068D02*X84399D01*
X271432Y173887D02*Y173101D01*
X274580Y173887D02*Y173101D01*
G54D227*X176431Y154994D02*X179581D01*
X176431Y144994D02*X179581D01*
X153596Y154994D02*X156746D01*
X153596Y144994D02*X156746D01*
X166589Y159294D02*Y149994D01*
Y140742D01*
X154431Y202494D02*X157581D01*
X154431Y212494D02*X157581D01*
X177266Y202494D02*X180415D01*
X177266Y212494D02*X180415D01*
X167423Y207494D02*Y198194D01*
Y216746D02*Y207494D01*
G54D214*X50432Y89387D02*Y88601D01*
X53580Y89387D02*Y88601D01*
X59432Y89387D02*Y88601D01*
X62580Y89387D02*Y88601D01*
G54D217*X273447Y164486D02*Y163502D01*
X278565Y164486D02*Y163502D01*
X286565Y143986D02*Y143002D01*
X281447Y143986D02*Y143002D01*
X287565Y150486D02*Y149502D01*
X282447Y150486D02*Y149502D01*
X278447Y184986D02*Y184002D01*
X283565Y184986D02*Y184002D01*
G54D214*X279432Y179387D02*Y178601D01*
X282580Y179387D02*Y178601D01*
G54D215*X270506Y183887D02*Y183101D01*
X263420Y183887D02*Y183101D01*
X246463Y183887D02*Y183101D01*
X253549Y183887D02*Y183101D01*
G54D214*X250613Y146420D02*X251399D01*
X250613Y149568D02*X251399D01*
G54D217*X339947Y141486D02*Y140502D01*
X345065Y141486D02*Y140502D01*
G54D214*X222080Y149887D02*Y149101D01*
X218932Y149887D02*Y149101D01*
X222080Y154887D02*Y154101D01*
X218932Y154887D02*Y154101D01*
X222080Y144887D02*Y144101D01*
X218932Y144887D02*Y144101D01*
X222080Y139887D02*Y139101D01*
X218932Y139887D02*Y139101D01*
G54D217*X236514Y148905D02*X237498D01*
X236514Y143787D02*X237498D01*
G54D214*X242113Y148068D02*X242899D01*
X242113Y144920D02*X242899D01*
G54D217*X278947Y170486D02*Y169502D01*
X284065Y170486D02*Y169502D01*
G54D228*X196316Y168684D03*
X197696D03*
X196316Y167304D03*
X197696D03*
G54D217*X191947Y162486D02*Y161502D01*
X197065Y162486D02*Y161502D01*
X191882Y174480D02*Y173496D01*
X197000Y174480D02*Y173496D01*
G54D221*G36*
X218521Y189118D02*X218523Y191872D01*
X220491Y191871D01*
X220489Y189117D01*
X218521Y189118D01*
G37*
G36*
X215374D02*X215375Y191872D01*
X217343Y191871D01*
X217342Y189117D01*
X215374Y189118D01*
G37*
G54D228*X248696Y106804D03*
X247316D03*
X248696Y108184D03*
X247316D03*
G54D217*X242888Y113486D02*Y112502D01*
X248006Y113486D02*Y112502D01*
X242888Y101986D02*Y101002D01*
X248006Y101986D02*Y101002D01*
G54D228*X269137Y106804D03*
X267757D03*
X269137Y108184D03*
X267757D03*
G54D217*X263388Y113486D02*Y112502D01*
X268506Y113486D02*Y112502D01*
G54D214*X218932Y159887D02*Y159101D01*
X222080Y159887D02*Y159101D01*
G54D215*X221613Y171951D02*X222399D01*
X221613Y179037D02*X222399D01*
G54D217*X233514Y178053D02*X234498D01*
X233514Y172935D02*X234498D01*
G54D214*X239113Y177068D02*X239899D01*
X239113Y173920D02*X239899D01*
G54D217*X273565Y101986D02*Y101002D01*
X268447Y101986D02*Y101002D01*
G54D214*X263113Y144568D02*X263899D01*
X263113Y141420D02*X263899D01*
G54D217*X268514Y145553D02*X269498D01*
X268514Y140435D02*X269498D01*
G54D218*X263049Y157604D02*X265608D01*
X263049Y159573D02*X265608D01*
X263049Y161541D02*X265608D01*
X263049Y163510D02*X265608D01*
X263049Y165478D02*X265608D01*
X263049Y167447D02*X265608D01*
X263049Y169415D02*X265608D01*
X263049Y171384D02*X265608D01*
X247616Y155951D02*Y153392D01*
X249585Y155951D02*Y153392D01*
X251553Y155951D02*Y153392D01*
X253522Y155951D02*Y153392D01*
X255490Y155951D02*Y153392D01*
X257459Y155951D02*Y153392D01*
X259427Y155951D02*Y153392D01*
X261396Y155951D02*Y153392D01*
X243404Y171384D02*X245963D01*
X243404Y169415D02*X245963D01*
X243404Y167447D02*X245963D01*
X243404Y165478D02*X245963D01*
X243404Y163510D02*X245963D01*
X243404Y161541D02*X245963D01*
X243404Y159573D02*X245963D01*
X243404Y157604D02*X245963D01*
X261396Y175596D02*Y173037D01*
X259427Y175596D02*Y173037D01*
X257459Y175596D02*Y173037D01*
X255490Y175596D02*Y173037D01*
X253522Y175596D02*Y173037D01*
X251553Y175596D02*Y173037D01*
X249585Y175596D02*Y173037D01*
X247616Y175596D02*Y173037D01*
G54D221*G36*
X248305Y170695D02*Y158293D01*
X260707D01*
Y170695D01*
X248305D01*
G37*
G36*
X364831Y229111D02*X373256Y226373D01*
X372526Y224127D01*
X364101Y226864D01*
X364831Y229111D01*
G37*
G36*
X364719Y219211D02*X370335Y217387D01*
X369606Y215141D01*
X363989Y216965D01*
X364719Y219211D01*
G37*
G36*
X366179Y223705D02*X371796Y221880D01*
X371066Y219633D01*
X365449Y221458D01*
X366179Y223705D01*
G37*
G36*
X354946Y227355D02*X360563Y225530D01*
X359833Y223283D01*
X354216Y225108D01*
X354946Y227355D01*
G37*
G36*
X356407Y231848D02*X362023Y230023D01*
X361292Y227776D01*
X355677Y229602D01*
X356407Y231848D01*
G37*
G36*
X353486Y222861D02*X359103Y221037D01*
X358373Y218790D01*
X352756Y220615D01*
X353486Y222861D01*
G37*
M02*
