G04 start of page 10 for group -4079 idx -4079 *
G04 Title: (unknown), topsilk *
G04 Creator: pcb 1.99z *
G04 CreationDate: Thu 02 Apr 2020 08:31:54 PM GMT UTC *
G04 For: mark *
G04 Format: Gerber/RS-274X *
G04 PCB-Dimensions (mil): 4300.00 3300.00 *
G04 PCB-Coordinate-Origin: lower left *
%MOIN*%
%FSLAX25Y25*%
%LNTOPSILK*%
%ADD149C,0.0250*%
%ADD148C,0.0063*%
%ADD147C,0.0098*%
%ADD146C,0.0061*%
%ADD145C,0.0080*%
%ADD144C,0.0079*%
%ADD143C,0.0100*%
%ADD142C,0.0060*%
G54D142*X82006Y20494D02*X75506D01*
X74006Y21994D01*
Y23994D01*
X102006Y40994D02*X95506D01*
X94006Y39494D01*
Y37494D01*
X162506Y73994D02*Y71994D01*
X162006Y71494D01*
X161006D02*X162006D01*
X160506Y71994D02*X161006Y71494D01*
X160506Y73494D02*Y71994D01*
X158506Y73494D02*X162506D01*
X160506Y72694D02*X158506Y71494D01*
Y69794D02*Y68294D01*
X159006Y70294D02*X158506Y69794D01*
X159006Y70294D02*X160006D01*
X160506Y69794D01*
Y68794D01*
X160006Y68294D01*
X159506Y70294D02*Y68294D01*
X160006D01*
X158506Y66594D02*X162006D01*
X162506Y66094D01*
Y65594D01*
X160506Y67094D02*Y66094D01*
X158506Y64594D02*Y62594D01*
X160706Y61394D02*Y59894D01*
X158506Y61394D02*Y59394D01*
Y61394D02*X162506D01*
Y59394D01*
X158506Y58194D02*X162506D01*
X158506Y55694D01*
X162506D01*
X161706Y54494D02*X162506Y53694D01*
X158506D02*X162506D01*
X158506Y54494D02*Y52994D01*
X172506Y73994D02*Y71994D01*
X172006Y71494D01*
X171006D02*X172006D01*
X170506Y71994D02*X171006Y71494D01*
X170506Y73494D02*Y71994D01*
X168506Y73494D02*X172506D01*
X170506Y72694D02*X168506Y71494D01*
X170706Y70294D02*Y68794D01*
X168506Y70294D02*Y68294D01*
Y70294D02*X172506D01*
Y68294D01*
X168506Y67094D02*X172506D01*
Y65094D01*
X170706Y67094D02*Y65594D01*
X168506Y63894D02*Y61894D01*
X170706Y60694D02*Y59194D01*
X168506Y60694D02*Y58694D01*
Y60694D02*X172506D01*
Y58694D01*
X168506Y57494D02*X172506D01*
X168506Y54994D01*
X172506D01*
X172006Y53794D02*X172506Y53294D01*
Y51794D01*
X172006Y51294D01*
X171006D02*X172006D01*
X168506Y53794D02*X171006Y51294D01*
X168506Y53794D02*Y51294D01*
X178506Y73494D02*X181506D01*
X182506Y72794D01*
Y71694D01*
X181506Y70994D01*
X178506D02*X181506D01*
X180506Y73494D02*Y70994D01*
X178506Y69294D02*X180006D01*
X180506Y68794D01*
Y67794D01*
Y69794D02*X180006Y69294D01*
X178506Y64594D02*X182506D01*
X178506Y65094D02*X179006Y64594D01*
X178506Y66094D02*Y65094D01*
X179006Y66594D02*X178506Y66094D01*
X179006Y66594D02*X180006D01*
X180506Y66094D01*
Y65094D01*
X180006Y64594D01*
X179006Y63394D02*X180506D01*
X179006D02*X178506Y62894D01*
Y61894D01*
X179006Y61394D01*
X180506D01*
X181406Y60194D02*X181506D01*
X178506D02*X180006D01*
X178506Y58694D02*X180006D01*
X180506Y58194D01*
Y57694D01*
X180006Y57194D01*
X178506D02*X180006D01*
X180506Y59194D02*X180006Y58694D01*
X179006Y55994D02*X180006D01*
X180506Y55494D01*
Y54494D01*
X180006Y53994D01*
X179006D02*X180006D01*
X178506Y54494D02*X179006Y53994D01*
X178506Y55494D02*Y54494D01*
X179006Y55994D02*X178506Y55494D01*
Y52794D02*Y50794D01*
Y49594D02*X181506D01*
X182506Y48894D01*
Y47794D01*
X181506Y47094D01*
X178506D02*X181506D01*
X180506Y49594D02*Y47094D01*
X182506Y45894D02*Y43894D01*
X182006Y43394D01*
X181006D02*X182006D01*
X180506Y43894D02*X181006Y43394D01*
X180506Y45394D02*Y43894D01*
X178506Y45394D02*X182506D01*
X180506Y44594D02*X178506Y43394D01*
X180706Y42194D02*Y40694D01*
X178506Y42194D02*Y40194D01*
Y42194D02*X182506D01*
Y40194D01*
X178506Y38994D02*X182506D01*
Y36994D01*
X180706Y38994D02*Y37494D01*
X198506Y73494D02*X201506D01*
X202506Y72794D01*
Y71694D01*
X201506Y70994D01*
X198506D02*X201506D01*
X200506Y73494D02*Y70994D01*
X198506Y69294D02*X200006D01*
X200506Y68794D01*
Y67794D01*
Y69794D02*X200006Y69294D01*
X198506Y64594D02*X202506D01*
X198506Y65094D02*X199006Y64594D01*
X198506Y66094D02*Y65094D01*
X199006Y66594D02*X198506Y66094D01*
X199006Y66594D02*X200006D01*
X200506Y66094D01*
Y65094D01*
X200006Y64594D01*
X199006Y63394D02*X200506D01*
X199006D02*X198506Y62894D01*
Y61894D01*
X199006Y61394D01*
X200506D01*
X201406Y60194D02*X201506D01*
X198506D02*X200006D01*
X198506Y58694D02*X200006D01*
X200506Y58194D01*
Y57694D01*
X200006Y57194D01*
X198506D02*X200006D01*
X200506Y59194D02*X200006Y58694D01*
X199006Y55994D02*X200006D01*
X200506Y55494D01*
Y54494D01*
X200006Y53994D01*
X199006D02*X200006D01*
X198506Y54494D02*X199006Y53994D01*
X198506Y55494D02*Y54494D01*
X199006Y55994D02*X198506Y55494D01*
Y52794D02*Y50794D01*
Y49594D02*X202506D01*
X198506D02*Y47594D01*
X200706Y46394D02*Y44894D01*
X198506Y46394D02*Y44394D01*
Y46394D02*X202506D01*
Y44394D01*
X198506Y42694D02*X202506D01*
Y41394D02*X201806Y40694D01*
X199206D02*X201806D01*
X198506Y41394D02*X199206Y40694D01*
X198506Y43194D02*Y41394D01*
X202506Y43194D02*Y41394D01*
X192506Y71494D02*X192006Y70994D01*
X192506Y72994D02*Y71494D01*
X192006Y73494D02*X192506Y72994D01*
X189006Y73494D02*X192006D01*
X189006D02*X188506Y72994D01*
Y71494D01*
X189006Y70994D01*
X190006D01*
X190506Y71494D02*X190006Y70994D01*
X190506Y72494D02*Y71494D01*
X188506Y69294D02*X190006D01*
X190506Y68794D01*
Y68294D01*
X190006Y67794D01*
X188506D02*X190006D01*
X190506Y69794D02*X190006Y69294D01*
X188506Y64594D02*X192506D01*
X188506Y65094D02*X189006Y64594D01*
X188506Y66094D02*Y65094D01*
X189006Y66594D02*X188506Y66094D01*
X189006Y66594D02*X190006D01*
X190506Y66094D01*
Y65094D01*
X190006Y64594D01*
X46506Y73494D02*Y71494D01*
X46006Y70994D01*
X45006D02*X46006D01*
X44506Y71494D02*X45006Y70994D01*
X44506Y72994D02*Y71494D01*
X42506Y72994D02*X46506D01*
X44506Y72194D02*X42506Y70994D01*
X44506Y69794D02*X42506Y67794D01*
Y69794D02*X44506Y67794D01*
X43006Y64794D02*X42506Y64294D01*
X43006Y64794D02*X46006D01*
X46506Y64294D01*
Y63294D01*
X46006Y62794D01*
X43006D02*X46006D01*
X42506Y63294D02*X43006Y62794D01*
X42506Y64294D02*Y63294D01*
X43506Y64794D02*X45506Y62794D01*
X56506Y73494D02*Y71494D01*
X52506Y72494D02*X56506D01*
X54506Y70294D02*X52506Y68294D01*
Y70294D02*X54506Y68294D01*
X55706Y65294D02*X56506Y64494D01*
X52506D02*X56506D01*
X52506Y65294D02*Y63794D01*
X72506Y73494D02*X76506D01*
X72506D02*Y71494D01*
X73006Y70294D02*X76006D01*
X76506Y69794D01*
Y68794D01*
X76006Y68294D01*
X73006D02*X76006D01*
X72506Y68794D02*X73006Y68294D01*
X72506Y69794D02*Y68794D01*
X73006Y70294D02*X72506Y69794D01*
X76006Y67094D02*X76506Y66594D01*
Y65594D01*
X76006Y65094D01*
X72506Y65594D02*X73006Y65094D01*
X72506Y66594D02*Y65594D01*
X73006Y67094D02*X72506Y66594D01*
X74706D02*Y65594D01*
X75206Y65094D02*X76006D01*
X73006D02*X74206D01*
X74706Y65594D01*
X75206Y65094D02*X74706Y65594D01*
X72506Y63894D02*Y61894D01*
Y60194D02*X76506D01*
Y58894D02*X75806Y58194D01*
X73206D02*X75806D01*
X72506Y58894D02*X73206Y58194D01*
X72506Y60694D02*Y58894D01*
X76506Y60694D02*Y58894D01*
X74506Y55494D02*X74006Y54994D01*
X74506Y56494D02*Y55494D01*
X74006Y56994D02*X74506Y56494D01*
X73006Y56994D02*X74006D01*
X73006D02*X72506Y56494D01*
X73006Y54994D02*X74506D01*
X73006D02*X72506Y54494D01*
Y56494D02*Y55494D01*
X73006Y54994D01*
Y52794D02*X76506D01*
X73006D02*X72506Y52294D01*
X75006Y53294D02*Y52294D01*
X74506Y49794D02*X74006Y49294D01*
X74506Y50794D02*Y49794D01*
X74006Y51294D02*X74506Y50794D01*
X73006Y51294D02*X74006D01*
X73006D02*X72506Y50794D01*
X73006Y49294D02*X74506D01*
X73006D02*X72506Y48794D01*
Y50794D02*Y49794D01*
X73006Y49294D01*
X62506Y73494D02*X66506D01*
X62506D02*Y71494D01*
X63006Y70294D02*X66006D01*
X66506Y69794D01*
Y68794D01*
X66006Y68294D01*
X63006D02*X66006D01*
X62506Y68794D02*X63006Y68294D01*
X62506Y69794D02*Y68794D01*
X63006Y70294D02*X62506Y69794D01*
X66006Y67094D02*X66506Y66594D01*
Y65594D01*
X66006Y65094D01*
X62506Y65594D02*X63006Y65094D01*
X62506Y66594D02*Y65594D01*
X63006Y67094D02*X62506Y66594D01*
X64706D02*Y65594D01*
X65206Y65094D02*X66006D01*
X63006D02*X64206D01*
X64706Y65594D01*
X65206Y65094D02*X64706Y65594D01*
X62506Y63894D02*Y61894D01*
Y60694D02*X66506D01*
X62506D02*Y58694D01*
X63006Y57494D02*X64006D01*
X64506Y56994D01*
Y55994D01*
X64006Y55494D01*
X63006D02*X64006D01*
X62506Y55994D02*X63006Y55494D01*
X62506Y56994D02*Y55994D01*
X63006Y57494D02*X62506Y56994D01*
X64506Y52794D02*X64006Y52294D01*
X64506Y53794D02*Y52794D01*
X64006Y54294D02*X64506Y53794D01*
X63006Y54294D02*X64006D01*
X63006D02*X62506Y53794D01*
X63006Y52294D02*X64506D01*
X63006D02*X62506Y51794D01*
Y53794D02*Y52794D01*
X63006Y52294D01*
X62506Y48594D02*X66506D01*
X62506Y49094D02*X63006Y48594D01*
X62506Y50094D02*Y49094D01*
X63006Y50594D02*X62506Y50094D01*
X63006Y50594D02*X64006D01*
X64506Y50094D01*
Y49094D01*
X64006Y48594D01*
X82506Y73494D02*X86506D01*
X82506D02*Y71494D01*
X83006Y70294D02*X86006D01*
X86506Y69794D01*
Y68794D01*
X86006Y68294D01*
X83006D02*X86006D01*
X82506Y68794D02*X83006Y68294D01*
X82506Y69794D02*Y68794D01*
X83006Y70294D02*X82506Y69794D01*
X86006Y67094D02*X86506Y66594D01*
Y65094D01*
X86006Y64594D01*
X85006D02*X86006D01*
X82506Y67094D02*X85006Y64594D01*
X82506Y67094D02*Y64594D01*
Y63394D02*Y61394D01*
Y59694D02*X86506D01*
Y58394D02*X85806Y57694D01*
X83206D02*X85806D01*
X82506Y58394D02*X83206Y57694D01*
X82506Y60194D02*Y58394D01*
X86506Y60194D02*Y58394D01*
X84506Y54994D02*X84006Y54494D01*
X84506Y55994D02*Y54994D01*
X84006Y56494D02*X84506Y55994D01*
X83006Y56494D02*X84006D01*
X83006D02*X82506Y55994D01*
X83006Y54494D02*X84506D01*
X83006D02*X82506Y53994D01*
Y55994D02*Y54994D01*
X83006Y54494D01*
Y52294D02*X86506D01*
X83006D02*X82506Y51794D01*
X85006Y52794D02*Y51794D01*
X84506Y49294D02*X84006Y48794D01*
X84506Y50294D02*Y49294D01*
X84006Y50794D02*X84506Y50294D01*
X83006Y50794D02*X84006D01*
X83006D02*X82506Y50294D01*
X83006Y48794D02*X84506D01*
X83006D02*X82506Y48294D01*
Y50294D02*Y49294D01*
X83006Y48794D01*
X92506Y73494D02*X96506D01*
X92506D02*Y71494D01*
X93006Y70294D02*X96006D01*
X96506Y69794D01*
Y68794D01*
X96006Y68294D01*
X93006D02*X96006D01*
X92506Y68794D02*X93006Y68294D01*
X92506Y69794D02*Y68794D01*
X93006Y70294D02*X92506Y69794D01*
X96006Y67094D02*X96506Y66594D01*
Y65094D01*
X96006Y64594D01*
X95006D02*X96006D01*
X92506Y67094D02*X95006Y64594D01*
X92506Y67094D02*Y64594D01*
Y63394D02*Y61394D01*
Y60194D02*X96506D01*
X92506D02*Y58194D01*
X93006Y56994D02*X94006D01*
X94506Y56494D01*
Y55494D01*
X94006Y54994D01*
X93006D02*X94006D01*
X92506Y55494D02*X93006Y54994D01*
X92506Y56494D02*Y55494D01*
X93006Y56994D02*X92506Y56494D01*
X94506Y52294D02*X94006Y51794D01*
X94506Y53294D02*Y52294D01*
X94006Y53794D02*X94506Y53294D01*
X93006Y53794D02*X94006D01*
X93006D02*X92506Y53294D01*
X93006Y51794D02*X94506D01*
X93006D02*X92506Y51294D01*
Y53294D02*Y52294D01*
X93006Y51794D01*
X92506Y48094D02*X96506D01*
X92506Y48594D02*X93006Y48094D01*
X92506Y49594D02*Y48594D01*
X93006Y50094D02*X92506Y49594D01*
X93006Y50094D02*X94006D01*
X94506Y49594D01*
Y48594D01*
X94006Y48094D01*
X104006Y72994D02*Y70994D01*
X105006Y72994D02*Y70994D01*
X103506Y71494D02*X105506D01*
X103506Y72494D02*X105506D01*
X102506Y69794D02*X105506D01*
X106506Y69094D01*
Y67994D01*
X105506Y67294D01*
X102506D02*X105506D01*
X104506Y69794D02*Y67294D01*
X102506Y66094D02*X106506D01*
X102506Y63594D01*
X106506D01*
X102506Y62394D02*X105506D01*
X106506Y61694D01*
Y60594D01*
X105506Y59894D01*
X102506D02*X105506D01*
X104506Y62394D02*Y59894D01*
X102506Y58694D02*Y56694D01*
Y54794D02*Y53494D01*
X103206Y55494D02*X102506Y54794D01*
X103206Y55494D02*X105806D01*
X106506Y54794D01*
Y53494D01*
Y50294D02*X106006Y49794D01*
X106506Y51794D02*Y50294D01*
X106006Y52294D02*X106506Y51794D01*
X105006Y52294D02*X106006D01*
X105006D02*X104506Y51794D01*
Y50294D01*
X104006Y49794D01*
X103006D02*X104006D01*
X102506Y50294D02*X103006Y49794D01*
X102506Y51794D02*Y50294D01*
X103006Y52294D02*X102506Y51794D01*
X112506Y73494D02*X115506D01*
X116506Y72794D01*
Y71694D01*
X115506Y70994D01*
X112506D02*X115506D01*
X114506Y73494D02*Y70994D01*
X112506Y69794D02*X116506D01*
X112506Y67294D01*
X116506D01*
X112506Y66094D02*X115506D01*
X116506Y65394D01*
Y64294D01*
X115506Y63594D01*
X112506D02*X115506D01*
X114506Y66094D02*Y63594D01*
X112506Y62394D02*Y60394D01*
Y58694D02*X116506D01*
Y57394D02*X115806Y56694D01*
X113206D02*X115806D01*
X112506Y57394D02*X113206Y56694D01*
X112506Y59194D02*Y57394D01*
X116506Y59194D02*Y57394D01*
X113006Y55494D02*X114006D01*
X114506Y54994D01*
Y53994D01*
X114006Y53494D01*
X113006D02*X114006D01*
X112506Y53994D02*X113006Y53494D01*
X112506Y54994D02*Y53994D01*
X113006Y55494D02*X112506Y54994D01*
X113006Y52294D02*X114506D01*
X113006D02*X112506Y51794D01*
Y50794D01*
X113006Y50294D01*
X114506D01*
X113006Y48594D02*X116506D01*
X113006D02*X112506Y48094D01*
X115006Y49094D02*Y48094D01*
X128506Y73494D02*X131506D01*
X132506Y72794D01*
Y71694D01*
X131506Y70994D01*
X128506D02*X131506D01*
X130506Y73494D02*Y70994D01*
X128506Y69794D02*X132506D01*
X128506Y67294D01*
X132506D01*
X128506Y66094D02*X131506D01*
X132506Y65394D01*
Y64294D01*
X131506Y63594D01*
X128506D02*X131506D01*
X130506Y66094D02*Y63594D01*
X128506Y62394D02*Y60394D01*
X132506Y57194D02*X132006Y56694D01*
X132506Y58694D02*Y57194D01*
X132006Y59194D02*X132506Y58694D01*
X131006Y59194D02*X132006D01*
X131006D02*X130506Y58694D01*
Y57194D01*
X130006Y56694D01*
X129006D02*X130006D01*
X128506Y57194D02*X129006Y56694D01*
X128506Y58694D02*Y57194D01*
X129006Y59194D02*X128506Y58694D01*
X130506Y54994D02*Y53494D01*
X130006Y55494D02*X130506Y54994D01*
X129006Y55494D02*X130006D01*
X129006D02*X128506Y54994D01*
Y53494D01*
X129006Y52294D02*X132506D01*
X129006D02*X128506Y51794D01*
Y50794D02*X132506D01*
X130006D02*X128506Y49294D01*
X130006Y50794D02*X131006Y49794D01*
X104006Y42994D02*Y38994D01*
X106006D01*
X107206Y40494D02*Y39494D01*
Y40494D02*X107706Y40994D01*
X108706D01*
X109206Y40494D01*
Y39494D01*
X108706Y38994D02*X109206Y39494D01*
X107706Y38994D02*X108706D01*
X107206Y39494D02*X107706Y38994D01*
X111906Y40994D02*X112406Y40494D01*
X110906Y40994D02*X111906D01*
X110406Y40494D02*X110906Y40994D01*
X110406Y40494D02*Y39494D01*
X110906Y38994D01*
X111906D01*
X112406Y39494D01*
X110406Y37994D02*X110906Y37494D01*
X111906D01*
X112406Y37994D01*
Y40994D02*Y37994D01*
X113606Y41994D02*Y38994D01*
Y41994D02*X114306Y42994D01*
X115406D01*
X116106Y41994D01*
Y38994D01*
X113606Y40994D02*X116106D01*
X117806Y40494D02*Y38994D01*
Y40494D02*X118306Y40994D01*
X118806D01*
X119306Y40494D01*
Y38994D01*
Y40494D02*X119806Y40994D01*
X120306D01*
X120806Y40494D01*
Y38994D01*
X117306Y40994D02*X117806Y40494D01*
X122506D02*Y37494D01*
X122006Y40994D02*X122506Y40494D01*
X123006Y40994D01*
X124006D01*
X124506Y40494D01*
Y39494D01*
X124006Y38994D02*X124506Y39494D01*
X123006Y38994D02*X124006D01*
X122506Y39494D02*X123006Y38994D01*
X125706D02*X127706D01*
X128906Y40494D02*X130906Y42994D01*
X128906Y40494D02*X131406D01*
X130906Y42994D02*Y38994D01*
X132606Y42994D02*X134606D01*
X132606D02*Y40994D01*
X133106Y41494D01*
X134106D01*
X134606Y40994D01*
Y39494D01*
X134106Y38994D02*X134606Y39494D01*
X133106Y38994D02*X134106D01*
X132606Y39494D02*X133106Y38994D01*
X135806Y42994D02*Y38994D01*
Y42994D02*X137306Y40994D01*
X138806Y42994D01*
Y38994D01*
X140006Y42994D02*Y38994D01*
X142506Y42994D02*Y38994D01*
X140006Y40994D02*X142506D01*
X143706D02*X145706D01*
X143706Y38994D02*X145706Y40994D01*
X143706Y38994D02*X145706D01*
X84006Y22494D02*Y18494D01*
X86006D01*
X87206Y19994D02*Y18994D01*
Y19994D02*X87706Y20494D01*
X88706D01*
X89206Y19994D01*
Y18994D01*
X88706Y18494D02*X89206Y18994D01*
X87706Y18494D02*X88706D01*
X87206Y18994D02*X87706Y18494D01*
X91906Y20494D02*X92406Y19994D01*
X90906Y20494D02*X91906D01*
X90406Y19994D02*X90906Y20494D01*
X90406Y19994D02*Y18994D01*
X90906Y18494D01*
X91906D01*
X92406Y18994D01*
X90406Y17494D02*X90906Y16994D01*
X91906D01*
X92406Y17494D01*
Y20494D02*Y17494D01*
X93606Y21494D02*Y18494D01*
Y21494D02*X94306Y22494D01*
X95406D01*
X96106Y21494D01*
Y18494D01*
X93606Y20494D02*X96106D01*
X97806Y19994D02*Y18494D01*
Y19994D02*X98306Y20494D01*
X98806D01*
X99306Y19994D01*
Y18494D01*
Y19994D02*X99806Y20494D01*
X100306D01*
X100806Y19994D01*
Y18494D01*
X97306Y20494D02*X97806Y19994D01*
X102506D02*Y16994D01*
X102006Y20494D02*X102506Y19994D01*
X103006Y20494D01*
X104006D01*
X104506Y19994D01*
Y18994D01*
X104006Y18494D02*X104506Y18994D01*
X103006Y18494D02*X104006D01*
X102506Y18994D02*X103006Y18494D01*
X105706D02*X107706D01*
X108906Y21994D02*X109406Y22494D01*
X110406D01*
X110906Y21994D01*
X110406Y18494D02*X110906Y18994D01*
X109406Y18494D02*X110406D01*
X108906Y18994D02*X109406Y18494D01*
Y20694D02*X110406D01*
X110906Y21994D02*Y21194D01*
Y20194D02*Y18994D01*
Y20194D02*X110406Y20694D01*
X110906Y21194D02*X110406Y20694D01*
X112106Y21694D02*X112906Y22494D01*
Y18494D01*
X112106D02*X113606D01*
X114806Y22494D02*X116806D01*
X114806D02*Y20494D01*
X115306Y20994D01*
X116306D01*
X116806Y20494D01*
Y18994D01*
X116306Y18494D02*X116806Y18994D01*
X115306Y18494D02*X116306D01*
X114806Y18994D02*X115306Y18494D01*
X118006Y22494D02*Y18494D01*
Y22494D02*X119506Y20494D01*
X121006Y22494D01*
Y18494D01*
X122206Y22494D02*Y18494D01*
X124706Y22494D02*Y18494D01*
X122206Y20494D02*X124706D01*
X125906D02*X127906D01*
X125906Y18494D02*X127906Y20494D01*
X125906Y18494D02*X127906D01*
X138506Y73494D02*X141506D01*
X142506Y72794D01*
Y71694D01*
X141506Y70994D01*
X138506D02*X141506D01*
X140506Y73494D02*Y70994D01*
X138506Y69794D02*X142506D01*
X138506Y67294D01*
X142506D01*
X138506Y66094D02*X141506D01*
X142506Y65394D01*
Y64294D01*
X141506Y63594D01*
X138506D02*X141506D01*
X140506Y66094D02*Y63594D01*
X138506Y62394D02*Y60394D01*
Y58694D02*X142506D01*
Y57394D02*X141806Y56694D01*
X139206D02*X141806D01*
X138506Y57394D02*X139206Y56694D01*
X138506Y59194D02*Y57394D01*
X142506Y59194D02*Y57394D01*
X141406Y55494D02*X141506D01*
X138506D02*X140006D01*
X138506Y53994D02*X140006D01*
X140506Y53494D01*
Y52994D01*
X140006Y52494D01*
X138506D02*X140006D01*
X140506Y54494D02*X140006Y53994D01*
X148506Y72994D02*X152506D01*
Y73494D02*Y71494D01*
X152006Y70994D01*
X151006D02*X152006D01*
X150506Y71494D02*X151006Y70994D01*
X150506Y72994D02*Y71494D01*
X148506Y69794D02*X152506D01*
X148506D02*Y67794D01*
Y66594D02*X152506D01*
X148506D02*Y64594D01*
Y63394D02*Y61394D01*
Y59494D02*Y58194D01*
X149206Y60194D02*X148506Y59494D01*
X149206Y60194D02*X151806D01*
X152506Y59494D01*
Y58194D01*
X149006Y56994D02*X152506D01*
X149006D02*X148506Y56494D01*
Y55494D02*X152506D01*
X150006D02*X148506Y53994D01*
X150006Y55494D02*X151006Y54494D01*
X193506Y279494D02*Y277494D01*
X192506Y278494D02*X194506D01*
X192006Y280694D02*X191506Y281194D01*
Y282194D02*Y281194D01*
Y282194D02*X192006Y282694D01*
X195506Y282194D02*X195006Y282694D01*
X195506Y282194D02*Y281194D01*
X195006Y280694D02*X195506Y281194D01*
X193306Y282194D02*Y281194D01*
X192006Y282694D02*X192806D01*
X193806D02*X195006D01*
X193806D02*X193306Y282194D01*
X192806Y282694D02*X193306Y282194D01*
X195506Y284394D02*Y283894D01*
X192006Y285594D02*X191506Y286094D01*
Y287094D02*Y286094D01*
Y287094D02*X192006Y287594D01*
X195506Y287094D02*X195006Y287594D01*
X195506Y287094D02*Y286094D01*
X195006Y285594D02*X195506Y286094D01*
X193306Y287094D02*Y286094D01*
X192006Y287594D02*X192806D01*
X193806D02*X195006D01*
X193806D02*X193306Y287094D01*
X192806Y287594D02*X193306Y287094D01*
X191506Y290594D02*X195506Y291594D01*
X191506Y292594D01*
X201006Y279994D02*X201506Y280494D01*
X201006Y279994D02*Y278494D01*
X201506Y277994D02*X201006Y278494D01*
X201506Y277994D02*X204506D01*
X205006Y278494D01*
Y279994D02*Y278494D01*
Y279994D02*X204506Y280494D01*
X203506D02*X204506D01*
X203006Y279994D02*X203506Y280494D01*
X203006Y279994D02*Y278994D01*
X203506Y282194D02*X205006D01*
X203506D02*X203006Y282694D01*
Y283194D02*Y282694D01*
Y283194D02*X203506Y283694D01*
X205006D01*
X203006Y281694D02*X203506Y282194D01*
X201006Y286894D02*X205006D01*
Y286394D02*X204506Y286894D01*
X205006Y286394D02*Y285394D01*
X204506Y284894D02*X205006Y285394D01*
X203506Y284894D02*X204506D01*
X203506D02*X203006Y285394D01*
Y286394D02*Y285394D01*
Y286394D02*X203506Y286894D01*
X173506Y279494D02*Y277494D01*
X172506Y278494D02*X174506D01*
X171506Y282694D02*Y280694D01*
X173506D01*
X173006Y281194D01*
Y282194D02*Y281194D01*
Y282194D02*X173506Y282694D01*
X175006D01*
X175506Y282194D02*X175006Y282694D01*
X175506Y282194D02*Y281194D01*
X175006Y280694D02*X175506Y281194D01*
X171506Y285694D02*X175506Y286694D01*
X171506Y287694D01*
X181506Y279994D02*X182006Y280494D01*
X181506Y279994D02*Y278494D01*
X182006Y277994D02*X181506Y278494D01*
X182006Y277994D02*X185006D01*
X185506Y278494D01*
Y279994D02*Y278494D01*
Y279994D02*X185006Y280494D01*
X184006D02*X185006D01*
X183506Y279994D02*X184006Y280494D01*
X183506Y279994D02*Y278994D01*
X184006Y282194D02*X185506D01*
X184006D02*X183506Y282694D01*
Y283194D02*Y282694D01*
Y283194D02*X184006Y283694D01*
X185506D01*
X183506Y281694D02*X184006Y282194D01*
X181506Y286894D02*X185506D01*
Y286394D02*X185006Y286894D01*
X185506Y286394D02*Y285394D01*
X185006Y284894D02*X185506Y285394D01*
X184006Y284894D02*X185006D01*
X184006D02*X183506Y285394D01*
Y286394D02*Y285394D01*
Y286394D02*X184006Y286894D01*
X293506Y270494D02*X294506Y266494D01*
X295506Y270494D01*
X297206Y266494D02*X298706D01*
X296706Y266994D02*X297206Y266494D01*
X296706Y267994D02*Y266994D01*
Y267994D02*X297206Y268494D01*
X298206D01*
X298706Y267994D01*
X296706Y267494D02*X298706D01*
Y267994D02*Y267494D01*
X300406Y267994D02*Y266494D01*
Y267994D02*X300906Y268494D01*
X301906D01*
X299906D02*X300406Y267994D01*
X303106Y266494D02*X303606D01*
X306606Y269694D02*X307406Y270494D01*
Y266494D01*
X306606D02*X308106D01*
X309306D02*X309806D01*
X311006Y266994D02*X311506Y266494D01*
X311006Y269994D02*Y266994D01*
Y269994D02*X311506Y270494D01*
X312506D01*
X313006Y269994D01*
Y266994D01*
X312506Y266494D02*X313006Y266994D01*
X311506Y266494D02*X312506D01*
X311006Y267494D02*X313006Y269494D01*
X314206Y266494D02*X314706D01*
X315906Y269994D02*X316406Y270494D01*
X317906D01*
X318406Y269994D01*
Y268994D01*
X315906Y266494D02*X318406Y268994D01*
X315906Y266494D02*X318406D01*
X319606D02*X320106D01*
X321306Y266994D02*X321806Y266494D01*
X321306Y269994D02*Y266994D01*
Y269994D02*X321806Y270494D01*
X322806D01*
X323306Y269994D01*
Y266994D01*
X322806Y266494D02*X323306Y266994D01*
X321806Y266494D02*X322806D01*
X321306Y267494D02*X323306Y269494D01*
X324506Y269694D02*X325306Y270494D01*
Y266494D01*
X324506D02*X326006D01*
X271506Y278994D02*X272006Y279494D01*
X273006D01*
X273506Y278994D01*
X273006Y275494D02*X273506Y275994D01*
X272006Y275494D02*X273006D01*
X271506Y275994D02*X272006Y275494D01*
Y277694D02*X273006D01*
X273506Y278994D02*Y278194D01*
Y277194D02*Y275994D01*
Y277194D02*X273006Y277694D01*
X273506Y278194D02*X273006Y277694D01*
X278506Y279494D02*X279006Y278994D01*
X277006Y279494D02*X278506D01*
X276506Y278994D02*X277006Y279494D01*
X276506Y278994D02*Y275994D01*
X277006Y275494D01*
X278506D01*
X279006Y275994D01*
Y276994D02*Y275994D01*
X278506Y277494D02*X279006Y276994D01*
X277506Y277494D02*X278506D01*
X280206Y279494D02*Y275494D01*
X282706Y279494D02*Y275494D01*
X280206Y277494D02*X282706D01*
X283906D02*X285906D01*
X283906Y275494D02*X285906Y277494D01*
X283906Y275494D02*X285906D01*
X290906Y279494D02*X291406Y278994D01*
X289406Y279494D02*X290906D01*
X288906Y278994D02*X289406Y279494D01*
X288906Y278994D02*Y277994D01*
X289406Y277494D01*
X290906D01*
X291406Y276994D01*
Y275994D01*
X290906Y275494D02*X291406Y275994D01*
X289406Y275494D02*X290906D01*
X288906Y275994D02*X289406Y275494D01*
X293106Y276994D02*Y273994D01*
X292606Y277494D02*X293106Y276994D01*
X293606Y277494D01*
X294606D01*
X295106Y276994D01*
Y275994D01*
X294606Y275494D02*X295106Y275994D01*
X293606Y275494D02*X294606D01*
X293106Y275994D02*X293606Y275494D01*
X296806D02*X298306D01*
X296306Y275994D02*X296806Y275494D01*
X296306Y276994D02*Y275994D01*
Y276994D02*X296806Y277494D01*
X297806D01*
X298306Y276994D01*
X296306Y276494D02*X298306D01*
Y276994D02*Y276494D01*
X300006Y277494D02*X301506D01*
X299506Y276994D02*X300006Y277494D01*
X299506Y276994D02*Y275994D01*
X300006Y275494D01*
X301506D01*
X303206Y279494D02*Y275994D01*
X303706Y275494D01*
X302706Y277994D02*X303706D01*
X305206Y276994D02*Y275494D01*
Y276994D02*X305706Y277494D01*
X306706D01*
X304706D02*X305206Y276994D01*
X307906Y277494D02*Y275994D01*
X308406Y275494D01*
X309406D01*
X309906Y275994D01*
Y277494D02*Y275994D01*
X311606Y276994D02*Y275494D01*
Y276994D02*X312106Y277494D01*
X312606D01*
X313106Y276994D01*
Y275494D01*
Y276994D02*X313606Y277494D01*
X314106D01*
X314606Y276994D01*
Y275494D01*
X311106Y277494D02*X311606Y276994D01*
X317606Y278494D02*Y275494D01*
Y278494D02*X318306Y279494D01*
X319406D01*
X320106Y278494D01*
Y275494D01*
X317606Y277494D02*X320106D01*
X321806Y276994D02*Y275494D01*
Y276994D02*X322306Y277494D01*
X322806D01*
X323306Y276994D01*
Y275494D01*
X321306Y277494D02*X321806Y276994D01*
X326006Y277494D02*X326506Y276994D01*
X325006Y277494D02*X326006D01*
X324506Y276994D02*X325006Y277494D01*
X324506Y276994D02*Y275994D01*
X325006Y275494D01*
X326506Y277494D02*Y275994D01*
X327006Y275494D01*
X325006D02*X326006D01*
X326506Y275994D01*
X328206Y279494D02*Y275994D01*
X328706Y275494D01*
X329706Y277494D02*Y275994D01*
X330206Y275494D01*
X331706Y277494D02*Y274494D01*
X331206Y273994D02*X331706Y274494D01*
X330206Y273994D02*X331206D01*
X329706Y274494D02*X330206Y273994D01*
Y275494D02*X331206D01*
X331706Y275994D01*
X332906Y277494D02*X334906D01*
X332906Y275494D02*X334906Y277494D01*
X332906Y275494D02*X334906D01*
X336606D02*X338106D01*
X336106Y275994D02*X336606Y275494D01*
X336106Y276994D02*Y275994D01*
Y276994D02*X336606Y277494D01*
X337606D01*
X338106Y276994D01*
X336106Y276494D02*X338106D01*
Y276994D02*Y276494D01*
X339806Y276994D02*Y275494D01*
Y276994D02*X340306Y277494D01*
X341306D01*
X339306D02*X339806Y276994D01*
X305006Y287494D02*Y285494D01*
X305506Y283494D01*
X306506Y285494D01*
X307506Y283494D01*
X308006Y285494D01*
Y287494D02*Y285494D01*
X309206Y287494D02*Y283494D01*
Y287494D02*X311706Y283494D01*
Y287494D02*Y283494D01*
X312906Y286994D02*X313406Y287494D01*
X314906D01*
X315406Y286994D01*
Y285994D01*
X312906Y283494D02*X315406Y285994D01*
X312906Y283494D02*X315406D01*
X316606Y286494D02*Y283494D01*
Y286494D02*X317306Y287494D01*
X318406D01*
X319106Y286494D01*
Y283494D01*
X316606Y285494D02*X319106D01*
X42506Y276994D02*X45506D01*
X42506D02*X41506Y277694D01*
Y278794D02*Y277694D01*
Y278794D02*X42506Y279494D01*
X45506D01*
X43506D02*Y276994D01*
X41506Y281194D02*X45006D01*
X45506Y281694D01*
X43006D02*Y280694D01*
X41506Y283194D02*X45006D01*
X45506Y283694D01*
X43006D02*Y282694D01*
X45506Y286694D02*Y285194D01*
X45006Y284694D02*X45506Y285194D01*
X44006Y284694D02*X45006D01*
X44006D02*X43506Y285194D01*
Y286194D02*Y285194D01*
Y286194D02*X44006Y286694D01*
X44506D02*Y284694D01*
X44006Y286694D02*X44506D01*
X44006Y288394D02*X45506D01*
X44006D02*X43506Y288894D01*
Y289394D02*Y288894D01*
Y289394D02*X44006Y289894D01*
X45506D01*
X43506Y287894D02*X44006Y288394D01*
X45506Y293094D02*Y291094D01*
X41506Y294794D02*X45506D01*
X41506Y296094D02*X42206Y296794D01*
X44806D01*
X45506Y296094D02*X44806Y296794D01*
X45506Y296094D02*Y294294D01*
X41506Y296094D02*Y294294D01*
X43506Y299494D02*X44006Y299994D01*
X43506Y299494D02*Y298494D01*
X44006Y297994D02*X43506Y298494D01*
X44006Y297994D02*X45006D01*
X45506Y298494D01*
X43506Y299994D02*X45006D01*
X45506Y300494D01*
Y299494D02*Y298494D01*
Y299494D02*X45006Y299994D01*
X41506Y302194D02*X45006D01*
X45506Y302694D01*
X43006D02*Y301694D01*
X43506Y305194D02*X44006Y305694D01*
X43506Y305194D02*Y304194D01*
X44006Y303694D02*X43506Y304194D01*
X44006Y303694D02*X45006D01*
X45506Y304194D01*
X43506Y305694D02*X45006D01*
X45506Y306194D01*
Y305194D02*Y304194D01*
Y305194D02*X45006Y305694D01*
X52506Y277494D02*X55506D01*
X52506D02*X51506Y278194D01*
Y279294D02*Y278194D01*
Y279294D02*X52506Y279994D01*
X55506D01*
X53506D02*Y277494D01*
X51506Y281694D02*X55006D01*
X55506Y282194D01*
X53006D02*Y281194D01*
X51506Y283694D02*X55006D01*
X55506Y284194D01*
X53006D02*Y283194D01*
X55506Y287194D02*Y285694D01*
X55006Y285194D02*X55506Y285694D01*
X54006Y285194D02*X55006D01*
X54006D02*X53506Y285694D01*
Y286694D02*Y285694D01*
Y286694D02*X54006Y287194D01*
X54506D02*Y285194D01*
X54006Y287194D02*X54506D01*
X54006Y288894D02*X55506D01*
X54006D02*X53506Y289394D01*
Y289894D02*Y289394D01*
Y289894D02*X54006Y290394D01*
X55506D01*
X53506Y288394D02*X54006Y288894D01*
X55506Y293594D02*Y291594D01*
Y296794D02*Y295494D01*
X54806Y294794D02*X55506Y295494D01*
X52206Y294794D02*X54806D01*
X52206D02*X51506Y295494D01*
Y296794D02*Y295494D01*
Y297994D02*X55006D01*
X55506Y298494D01*
X51506Y299494D02*X55506D01*
X54006D02*X55506Y300994D01*
X54006Y299494D02*X53006Y300494D01*
X62506Y277494D02*X65506D01*
X62506D02*X61506Y278194D01*
Y279294D02*Y278194D01*
Y279294D02*X62506Y279994D01*
X65506D01*
X63506D02*Y277494D01*
X61506Y281694D02*X65006D01*
X65506Y282194D01*
X63006D02*Y281194D01*
X61506Y283694D02*X65006D01*
X65506Y284194D01*
X63006D02*Y283194D01*
X65506Y287194D02*Y285694D01*
X65006Y285194D02*X65506Y285694D01*
X64006Y285194D02*X65006D01*
X64006D02*X63506Y285694D01*
Y286694D02*Y285694D01*
Y286694D02*X64006Y287194D01*
X64506D02*Y285194D01*
X64006Y287194D02*X64506D01*
X64006Y288894D02*X65506D01*
X64006D02*X63506Y289394D01*
Y289894D02*Y289394D01*
Y289894D02*X64006Y290394D01*
X65506D01*
X63506Y288394D02*X64006Y288894D01*
X65506Y293594D02*Y291594D01*
X61506Y294794D02*X65506D01*
Y296794D02*Y294794D01*
X64006Y297994D02*X65006D01*
X64006D02*X63506Y298494D01*
Y299494D02*Y298494D01*
Y299494D02*X64006Y299994D01*
X65006D01*
X65506Y299494D02*X65006Y299994D01*
X65506Y299494D02*Y298494D01*
X65006Y297994D02*X65506Y298494D01*
X63506Y302694D02*X64006Y303194D01*
X63506Y302694D02*Y301694D01*
X64006Y301194D02*X63506Y301694D01*
X64006Y301194D02*X65006D01*
X65506Y301694D01*
X63506Y303194D02*X65006D01*
X65506Y303694D01*
Y302694D02*Y301694D01*
Y302694D02*X65006Y303194D01*
X61506Y306894D02*X65506D01*
Y306394D02*X65006Y306894D01*
X65506Y306394D02*Y305394D01*
X65006Y304894D02*X65506Y305394D01*
X64006Y304894D02*X65006D01*
X64006D02*X63506Y305394D01*
Y306394D02*Y305394D01*
Y306394D02*X64006Y306894D01*
X111006Y277494D02*X115006Y278494D01*
X111006Y279494D01*
X112006Y280694D02*X112106D01*
X113506D02*X115006D01*
X113506Y282194D02*X115006D01*
X113506D02*X113006Y282694D01*
Y283194D02*Y282694D01*
Y283194D02*X113506Y283694D01*
X115006D01*
X113006Y281694D02*X113506Y282194D01*
X144006Y279494D02*Y277494D01*
X143006Y278494D02*X145006D01*
X142006Y282694D02*Y280694D01*
X144006D01*
X143506Y281194D01*
Y282194D02*Y281194D01*
Y282194D02*X144006Y282694D01*
X145506D01*
X146006Y282194D02*X145506Y282694D01*
X146006Y282194D02*Y281194D01*
X145506Y280694D02*X146006Y281194D01*
X142006Y285694D02*X146006Y286694D01*
X142006Y287694D01*
X144506Y288894D02*X145506D01*
X144506D02*X144006Y289394D01*
Y290394D02*Y289394D01*
Y290394D02*X144506Y290894D01*
X145506D01*
X146006Y290394D02*X145506Y290894D01*
X146006Y290394D02*Y289394D01*
X145506Y288894D02*X146006Y289394D01*
X144006Y292094D02*X145506D01*
X146006Y292594D01*
Y293594D02*Y292594D01*
Y293594D02*X145506Y294094D01*
X144006D02*X145506D01*
X142006Y295794D02*X145506D01*
X146006Y296294D01*
X143506D02*Y295294D01*
X121506Y279494D02*X122006Y279994D01*
X121506Y279494D02*Y277994D01*
X122006Y277494D02*X121506Y277994D01*
X122006Y277494D02*X125006D01*
X125506Y277994D01*
Y279494D02*Y277994D01*
Y279494D02*X125006Y279994D01*
X124006D02*X125006D01*
X123506Y279494D02*X124006Y279994D01*
X123506Y279494D02*Y278494D01*
X124006Y281694D02*X125506D01*
X124006D02*X123506Y282194D01*
Y282694D02*Y282194D01*
Y282694D02*X124006Y283194D01*
X125506D01*
X123506Y281194D02*X124006Y281694D01*
X121506Y286394D02*X125506D01*
Y285894D02*X125006Y286394D01*
X125506Y285894D02*Y284894D01*
X125006Y284394D02*X125506Y284894D01*
X124006Y284394D02*X125006D01*
X124006D02*X123506Y284894D01*
Y285894D02*Y284894D01*
Y285894D02*X124006Y286394D01*
X131506Y279494D02*X132006Y279994D01*
X131506Y279494D02*Y277994D01*
X132006Y277494D02*X131506Y277994D01*
X132006Y277494D02*X135006D01*
X135506Y277994D01*
Y279494D02*Y277994D01*
Y279494D02*X135006Y279994D01*
X134006D02*X135006D01*
X133506Y279494D02*X134006Y279994D01*
X133506Y279494D02*Y278494D01*
X134006Y281694D02*X135506D01*
X134006D02*X133506Y282194D01*
Y282694D02*Y282194D01*
Y282694D02*X134006Y283194D01*
X135506D01*
X133506Y281194D02*X134006Y281694D01*
X131506Y286394D02*X135506D01*
Y285894D02*X135006Y286394D01*
X135506Y285894D02*Y284894D01*
X135006Y284394D02*X135506Y284894D01*
X134006Y284394D02*X135006D01*
X134006D02*X133506Y284894D01*
Y285894D02*Y284894D01*
Y285894D02*X134006Y286394D01*
X153506Y279494D02*Y277494D01*
X152506Y278494D02*X154506D01*
X155506Y281194D02*X151506Y283194D01*
Y280694D01*
X155506Y284894D02*Y284394D01*
X151506Y288094D02*Y286094D01*
X153506D01*
X153006Y286594D01*
Y287594D02*Y286594D01*
Y287594D02*X153506Y288094D01*
X155006D01*
X155506Y287594D02*X155006Y288094D01*
X155506Y287594D02*Y286594D01*
X155006Y286094D02*X155506Y286594D01*
X151506Y291094D02*X155506Y292094D01*
X151506Y293094D01*
X161506Y279494D02*X162006Y279994D01*
X161506Y279494D02*Y277994D01*
X162006Y277494D02*X161506Y277994D01*
X162006Y277494D02*X165006D01*
X165506Y277994D01*
Y279494D02*Y277994D01*
Y279494D02*X165006Y279994D01*
X164006D02*X165006D01*
X163506Y279494D02*X164006Y279994D01*
X163506Y279494D02*Y278494D01*
X164006Y281694D02*X165506D01*
X164006D02*X163506Y282194D01*
Y282694D02*Y282194D01*
Y282694D02*X164006Y283194D01*
X165506D01*
X163506Y281194D02*X164006Y281694D01*
X161506Y286394D02*X165506D01*
Y285894D02*X165006Y286394D01*
X165506Y285894D02*Y284894D01*
X165006Y284394D02*X165506Y284894D01*
X164006Y284394D02*X165006D01*
X164006D02*X163506Y284894D01*
Y285894D02*Y284894D01*
Y285894D02*X164006Y286394D01*
X91006Y277494D02*X95006D01*
Y279494D02*Y277494D01*
X91506Y280694D02*X94506D01*
X91506D02*X91006Y281194D01*
Y282194D02*Y281194D01*
Y282194D02*X91506Y282694D01*
X94506D01*
X95006Y282194D02*X94506Y282694D01*
X95006Y282194D02*Y281194D01*
X94506Y280694D02*X95006Y281194D01*
X91806Y283894D02*X91006Y284694D01*
X95006D01*
Y285394D02*Y283894D01*
Y288594D02*Y286594D01*
X91006Y290294D02*X95006D01*
X91006Y291594D02*X91706Y292294D01*
X94306D01*
X95006Y291594D02*X94306Y292294D01*
X95006Y291594D02*Y289794D01*
X91006Y291594D02*Y289794D01*
X93006Y294994D02*X93506Y295494D01*
X93006Y294994D02*Y293994D01*
X93506Y293494D02*X93006Y293994D01*
X93506Y293494D02*X94506D01*
X95006Y293994D01*
X93006Y295494D02*X94506D01*
X95006Y295994D01*
Y294994D02*Y293994D01*
Y294994D02*X94506Y295494D01*
X91006Y297694D02*X94506D01*
X95006Y298194D01*
X92506D02*Y297194D01*
X93006Y300694D02*X93506Y301194D01*
X93006Y300694D02*Y299694D01*
X93506Y299194D02*X93006Y299694D01*
X93506Y299194D02*X94506D01*
X95006Y299694D01*
X93006Y301194D02*X94506D01*
X95006Y301694D01*
Y300694D02*Y299694D01*
Y300694D02*X94506Y301194D01*
X81006Y277494D02*X85006D01*
Y279494D02*Y277494D01*
X81506Y280694D02*X84506D01*
X81506D02*X81006Y281194D01*
Y282194D02*Y281194D01*
Y282194D02*X81506Y282694D01*
X84506D01*
X85006Y282194D02*X84506Y282694D01*
X85006Y282194D02*Y281194D01*
X84506Y280694D02*X85006Y281194D01*
X81806Y283894D02*X81006Y284694D01*
X85006D01*
Y285394D02*Y283894D01*
Y288594D02*Y286594D01*
X81006Y289794D02*X85006D01*
Y291794D02*Y289794D01*
X83506Y292994D02*X84506D01*
X83506D02*X83006Y293494D01*
Y294494D02*Y293494D01*
Y294494D02*X83506Y294994D01*
X84506D01*
X85006Y294494D02*X84506Y294994D01*
X85006Y294494D02*Y293494D01*
X84506Y292994D02*X85006Y293494D01*
X83006Y297694D02*X83506Y298194D01*
X83006Y297694D02*Y296694D01*
X83506Y296194D02*X83006Y296694D01*
X83506Y296194D02*X84506D01*
X85006Y296694D01*
X83006Y298194D02*X84506D01*
X85006Y298694D01*
Y297694D02*Y296694D01*
Y297694D02*X84506Y298194D01*
X81006Y301894D02*X85006D01*
Y301394D02*X84506Y301894D01*
X85006Y301394D02*Y300394D01*
X84506Y299894D02*X85006Y300394D01*
X83506Y299894D02*X84506D01*
X83506D02*X83006Y300394D01*
Y301394D02*Y300394D01*
Y301394D02*X83506Y301894D01*
X71006Y277494D02*X75006D01*
X71006Y278994D02*Y276994D01*
Y278994D02*X71506Y279494D01*
X72506D01*
X73006Y278994D02*X72506Y279494D01*
X73006Y278994D02*Y277494D01*
X71006Y280694D02*X75006D01*
Y282694D02*Y280694D01*
X71006Y283894D02*X75006D01*
Y285894D02*Y283894D01*
Y289094D02*Y287094D01*
X71006Y290294D02*X75006D01*
X71006D02*X73006Y291794D01*
X71006Y293294D01*
X75006D01*
X73006Y294494D02*X74506D01*
X75006Y294994D01*
Y295994D02*Y294994D01*
Y295994D02*X74506Y296494D01*
X73006D02*X74506D01*
X73006Y297694D02*X75006Y299694D01*
Y297694D02*X73006Y299694D01*
G54D143*X49006Y85494D02*Y75494D01*
X39006Y85494D02*Y75494D01*
X119006Y85494D02*Y75494D01*
X39006D02*X119006D01*
X39006Y85494D02*X119006D01*
X125006D02*Y75494D01*
X205006Y85494D02*Y75494D01*
X125006D02*X205006D01*
X125006Y85494D02*X205006D01*
X39006Y275494D02*Y265494D01*
X99006Y275494D02*Y265494D01*
X39006D02*X99006D01*
X39006Y275494D02*X99006D01*
X109006D02*Y265494D01*
X149006Y275494D02*Y265494D01*
X109006D02*X149006D01*
X109006Y275494D02*X149006D01*
G54D144*X74738Y190762D02*X76510D01*
X74738D02*Y188990D01*
Y174226D02*X76510D01*
X74738Y175998D02*Y174226D01*
X91274Y175998D02*Y174226D01*
X89502D02*X91274D01*
Y190762D02*Y188990D01*
X89502Y190762D02*X91274D01*
X73506Y191994D03*
G54D142*X53994Y148006D03*
G54D145*X130613Y139249D02*X131399D01*
X130613Y133739D02*X131399D01*
X155613D02*X156399D01*
X155613Y139249D02*X156399D01*
G54D143*X59006Y25494D02*X119006D01*
Y35494D02*Y25494D01*
X59006Y35494D02*X119006D01*
X59006D02*Y25494D01*
X69006Y35494D02*Y25494D01*
X59006Y35494D02*X69006D01*
X19006Y196494D02*Y162494D01*
X53006D02*Y196494D01*
X19006D02*X53006D01*
Y162494D02*X19006D01*
G54D145*X401246Y168356D02*Y163632D01*
X393766Y168356D02*Y163632D01*
X390144Y186234D02*X394868D01*
X390144Y178754D02*X394868D01*
G54D143*X403467Y52990D03*
G54D142*X380106Y140344D03*
X414000Y98000D03*
G54D144*X264600Y107785D03*
X265585Y110344D02*Y108573D01*
X267356D01*
X265585Y118415D02*X267356D01*
X265585D02*Y116644D01*
X275427Y118415D02*Y116644D01*
X273656Y118415D02*X275427D01*
X273656Y108573D02*X275427D01*
Y110344D02*Y108573D01*
G54D146*X279274Y80888D02*Y79313D01*
X277699Y80888D02*X279274D01*
X277699Y60415D02*X279274D01*
Y61990D02*Y60415D01*
X258801Y61990D02*Y60415D01*
X260376D01*
X258801Y80888D02*X260376D01*
X258801D02*Y79313D01*
G54D147*X280848Y58841D03*
G54D148*X229537Y123329D02*X230758D01*
Y122108D01*
X222254Y123329D02*X223474D01*
X222254D02*Y122108D01*
X229537Y117659D02*X230758D01*
Y118880D02*Y117659D01*
X222254D02*X223474D01*
X222254Y118880D02*Y117659D01*
G54D142*X235006Y121744D02*Y106744D01*
X236006D01*
X235006Y121744D02*X236006D01*
X252006D02*Y106744D01*
X251006D02*X252006D01*
X251006Y121744D02*X252006D01*
G54D149*X233506Y125744D03*
X294756Y102494D03*
G54D142*X298756Y103994D02*X315256D01*
Y104994D02*Y103994D01*
X298756Y104994D02*Y103994D01*
Y122994D02*X315256D01*
Y121994D01*
X298756Y122994D02*Y121994D01*
X207000Y21000D03*
G54D145*X246113Y76249D02*X246899D01*
X246113Y70739D02*X246899D01*
G54D143*X358967Y52990D03*
X339828Y124170D03*
G54D142*X348519Y112712D02*X353386Y114294D01*
X355605Y119569D02*X355848Y118820D01*
X354145Y124062D02*X354389Y123313D01*
X343623Y115675D02*X343867Y114926D01*
X342163Y120169D02*X342407Y119420D01*
X347434Y125607D02*X349493Y126276D01*
G54D143*X149006Y265494D02*X209006D01*
Y275494D02*Y265494D01*
X149006Y275494D02*X209006D01*
X149006D02*Y265494D01*
X159006Y275494D02*Y265494D01*
X149006Y275494D02*X159006D01*
X194106Y186994D03*
G54D148*X187254Y117659D02*X188474D01*
X187254Y118880D02*Y117659D01*
X194537D02*X195758D01*
Y118880D02*Y117659D01*
X187254Y123329D02*X188474D01*
X187254Y122108D02*Y123329D01*
X194537D02*X195758D01*
Y122108D02*Y123329D01*
G54D142*X184906Y166644D03*
G54D145*X186613Y201249D02*X187399D01*
X186613Y195739D02*X187399D01*
X155251Y185430D02*Y184644D01*
X160761Y185430D02*Y184644D01*
G54D142*X126206Y182894D03*
G54D145*X257113Y197239D02*X257899D01*
X257113Y202749D02*X257899D01*
X233613Y197239D02*X234399D01*
X233613Y202749D02*X234399D01*
G54D142*X207006Y238994D03*
X295806Y181094D03*
G54D145*X327251Y159387D02*Y158601D01*
X332761Y159387D02*Y158601D01*
G54D146*X336892Y191730D02*Y190156D01*
X335317Y191730D02*X336892D01*
X335317Y171258D02*X336892D01*
Y172833D02*Y171258D01*
X316420Y172833D02*Y171258D01*
X317994D01*
X316420Y191730D02*X317994D01*
X316420D02*Y190156D01*
G54D147*X338656Y193494D03*
G54D142*X24566Y82694D02*X25206D01*
Y79894D01*
X24806Y79494D02*X25206Y79894D01*
X24406Y79494D02*X24806D01*
X24006Y79894D02*X24406Y79494D01*
X24006Y80294D02*Y79894D01*
X26166Y80694D02*X27766Y82694D01*
X26166Y80694D02*X28166D01*
X27766Y82694D02*Y79494D01*
X29126Y79894D02*X29526Y79494D01*
X29126Y82294D02*Y79894D01*
Y82294D02*X29526Y82694D01*
X30326D01*
X30726Y82294D01*
Y79894D01*
X30326Y79494D02*X30726Y79894D01*
X29526Y79494D02*X30326D01*
X29126Y80294D02*X30726Y81894D01*
X31686Y79894D02*X32086Y79494D01*
X31686Y82294D02*Y79894D01*
Y82294D02*X32086Y82694D01*
X32886D01*
X33286Y82294D01*
Y79894D01*
X32886Y79494D02*X33286Y79894D01*
X32086Y79494D02*X32886D01*
X31686Y80294D02*X33286Y81894D01*
X82306Y98094D02*Y96494D01*
Y98094D02*X82706Y98494D01*
X83506D01*
X83906Y98094D02*X83506Y98494D01*
X83906Y98094D02*Y96894D01*
X82306D02*X85506D01*
X83906Y97534D02*X85506Y98494D01*
X82706Y99454D02*X82306Y99854D01*
Y101054D02*Y99854D01*
Y101054D02*X82706Y101454D01*
X83506D01*
X85506Y99454D02*X83506Y101454D01*
X85506D02*Y99454D01*
X82946Y102414D02*X82306Y103054D01*
X85506D01*
Y103614D02*Y102414D01*
X82946Y104574D02*X82306Y105214D01*
X85506D01*
Y105774D02*Y104574D01*
X55566Y40694D02*X56206D01*
Y37894D01*
X55806Y37494D02*X56206Y37894D01*
X55406Y37494D02*X55806D01*
X55006Y37894D02*X55406Y37494D01*
X55006Y38294D02*Y37894D01*
X57166Y38694D02*X58766Y40694D01*
X57166Y38694D02*X59166D01*
X58766Y40694D02*Y37494D01*
X60126Y37894D02*X60526Y37494D01*
X60126Y40294D02*Y37894D01*
Y40294D02*X60526Y40694D01*
X61326D01*
X61726Y40294D01*
Y37894D01*
X61326Y37494D02*X61726Y37894D01*
X60526Y37494D02*X61326D01*
X60126Y38294D02*X61726Y39894D01*
X62686Y40294D02*X63086Y40694D01*
X64286D01*
X64686Y40294D01*
Y39494D01*
X62686Y37494D02*X64686Y39494D01*
X62686Y37494D02*X64686D01*
X145556Y121549D02*Y120509D01*
X144996Y119949D02*X145556Y120509D01*
X142916Y119949D02*X144996D01*
X142916D02*X142356Y120509D01*
Y121549D02*Y120509D01*
X142756Y122509D02*X142356Y122909D01*
Y124109D02*Y122909D01*
Y124109D02*X142756Y124509D01*
X143556D01*
X145556Y122509D02*X143556Y124509D01*
X145556D02*Y122509D01*
X145156Y125469D02*X145556Y125869D01*
X142756Y125469D02*X145156D01*
X142756D02*X142356Y125869D01*
Y126669D02*Y125869D01*
Y126669D02*X142756Y127069D01*
X145156D01*
X145556Y126669D02*X145156Y127069D01*
X145556Y126669D02*Y125869D01*
X144756Y125469D02*X143156Y127069D01*
X145156Y128029D02*X145556Y128429D01*
X142756Y128029D02*X145156D01*
X142756D02*X142356Y128429D01*
Y129229D02*Y128429D01*
Y129229D02*X142756Y129629D01*
X145156D01*
X145556Y129229D02*X145156Y129629D01*
X145556Y129229D02*Y128429D01*
X144756Y128029D02*X143156Y129629D01*
X124951Y146344D02*X126551D01*
X126951Y145944D01*
Y145144D01*
X126551Y144744D02*X126951Y145144D01*
X125351Y144744D02*X126551D01*
X125351Y146344D02*Y143144D01*
X125991Y144744D02*X126951Y143144D01*
X127911Y145944D02*X128311Y146344D01*
X129511D01*
X129911Y145944D01*
Y145144D01*
X127911Y143144D02*X129911Y145144D01*
X127911Y143144D02*X129911D01*
X130871Y143544D02*X131271Y143144D01*
X130871Y145944D02*Y143544D01*
Y145944D02*X131271Y146344D01*
X132071D01*
X132471Y145944D01*
Y143544D01*
X132071Y143144D02*X132471Y143544D01*
X131271Y143144D02*X132071D01*
X130871Y143944D02*X132471Y145544D01*
X133431Y143544D02*X133831Y143144D01*
X133431Y145944D02*Y143544D01*
Y145944D02*X133831Y146344D01*
X134631D01*
X135031Y145944D01*
Y143544D01*
X134631Y143144D02*X135031Y143544D01*
X133831Y143144D02*X134631D01*
X133431Y143944D02*X135031Y145544D01*
X148644Y146109D02*X150244D01*
X150644Y145709D01*
Y144909D01*
X150244Y144509D02*X150644Y144909D01*
X149044Y144509D02*X150244D01*
X149044Y146109D02*Y142909D01*
X149684Y144509D02*X150644Y142909D01*
X151604Y145709D02*X152004Y146109D01*
X153204D01*
X153604Y145709D01*
Y144909D01*
X151604Y142909D02*X153604Y144909D01*
X151604Y142909D02*X153604D01*
X154564Y143309D02*X154964Y142909D01*
X154564Y145709D02*Y143309D01*
Y145709D02*X154964Y146109D01*
X155764D01*
X156164Y145709D01*
Y143309D01*
X155764Y142909D02*X156164Y143309D01*
X154964Y142909D02*X155764D01*
X154564Y143709D02*X156164Y145309D01*
X157124Y145469D02*X157764Y146109D01*
Y142909D01*
X157124D02*X158324D01*
X117759Y171570D02*X118799D01*
X117199Y172130D02*X117759Y171570D01*
X117199Y174210D02*Y172130D01*
Y174210D02*X117759Y174770D01*
X118799D01*
X119759Y174130D02*X120399Y174770D01*
Y171570D01*
X119759D02*X120959D01*
X121919Y174370D02*X122319Y174770D01*
X123519D01*
X123919Y174370D01*
Y173570D01*
X121919Y171570D02*X123919Y173570D01*
X121919Y171570D02*X123919D01*
X125279D02*X126879Y174770D01*
X124879D02*X126879D01*
X79006Y196194D02*Y193394D01*
X79406Y192994D01*
X80206D01*
X80606Y193394D01*
Y196194D02*Y193394D01*
X81566Y195554D02*X82206Y196194D01*
Y192994D01*
X81566D02*X82766D01*
X83726Y193394D02*X84126Y192994D01*
X83726Y195794D02*Y193394D01*
Y195794D02*X84126Y196194D01*
X84926D01*
X85326Y195794D01*
Y193394D01*
X84926Y192994D02*X85326Y193394D01*
X84126Y192994D02*X84926D01*
X83726Y193794D02*X85326Y195394D01*
X86286Y195794D02*X86686Y196194D01*
X87486D01*
X87886Y195794D01*
X87486Y192994D02*X87886Y193394D01*
X86686Y192994D02*X87486D01*
X86286Y193394D02*X86686Y192994D01*
Y194754D02*X87486D01*
X87886Y195794D02*Y195154D01*
Y194354D02*Y193394D01*
Y194354D02*X87486Y194754D01*
X87886Y195154D02*X87486Y194754D01*
X70932Y167594D02*Y166554D01*
X70372Y165994D02*X70932Y166554D01*
X68292Y165994D02*X70372D01*
X68292D02*X67732Y166554D01*
Y167594D02*Y166554D01*
X68372Y168554D02*X67732Y169194D01*
X70932D01*
Y169754D02*Y168554D01*
X68132Y170714D02*X67732Y171114D01*
Y172314D02*Y171114D01*
Y172314D02*X68132Y172714D01*
X68932D01*
X70932Y170714D02*X68932Y172714D01*
X70932D02*Y170714D01*
X67732Y174874D02*X68132Y175274D01*
X67732Y174874D02*Y174074D01*
X68132Y173674D02*X67732Y174074D01*
X68132Y173674D02*X70532D01*
X70932Y174074D01*
X69172Y174874D02*X69572Y175274D01*
X69172Y174874D02*Y173674D01*
X70932Y174874D02*Y174074D01*
Y174874D02*X70532Y175274D01*
X69572D02*X70532D01*
X98128Y170194D02*Y166994D01*
Y170194D02*X99728D01*
X98128Y168754D02*X99328D01*
X100688Y170194D02*Y166994D01*
X102288D01*
X103248Y169554D02*X103888Y170194D01*
Y166994D01*
X103248D02*X104448D01*
X105408Y167394D02*X105808Y166994D01*
X105408Y169794D02*Y167394D01*
Y169794D02*X105808Y170194D01*
X106608D01*
X107008Y169794D01*
Y167394D01*
X106608Y166994D02*X107008Y167394D01*
X105808Y166994D02*X106608D01*
X105408Y167794D02*X107008Y169394D01*
X107968Y167394D02*X108368Y166994D01*
X107968Y169794D02*Y167394D01*
Y169794D02*X108368Y170194D01*
X109168D01*
X109568Y169794D01*
Y167394D01*
X109168Y166994D02*X109568Y167394D01*
X108368Y166994D02*X109168D01*
X107968Y167794D02*X109568Y169394D01*
X149656Y186582D02*Y184982D01*
Y186582D02*X150056Y186982D01*
X150856D01*
X151256Y186582D02*X150856Y186982D01*
X151256Y186582D02*Y185382D01*
X149656D02*X152856D01*
X151256Y186022D02*X152856Y186982D01*
X150296Y187942D02*X149656Y188582D01*
X152856D01*
Y189142D02*Y187942D01*
X150296Y190102D02*X149656Y190742D01*
X152856D01*
Y191302D02*Y190102D01*
X150056Y192262D02*X149656Y192662D01*
Y193462D02*Y192662D01*
Y193462D02*X150056Y193862D01*
X152856Y193462D02*X152456Y193862D01*
X152856Y193462D02*Y192662D01*
X152456Y192262D02*X152856Y192662D01*
X151096Y193462D02*Y192662D01*
X150056Y193862D02*X150696D01*
X151496D02*X152456D01*
X151496D02*X151096Y193462D01*
X150696Y193862D02*X151096Y193462D01*
X125856Y192694D02*Y189894D01*
X126256Y189494D01*
X127056D01*
X127456Y189894D01*
Y192694D02*Y189894D01*
X128416Y192054D02*X129056Y192694D01*
Y189494D01*
X128416D02*X129616D01*
X130576Y189894D02*X130976Y189494D01*
X130576Y192294D02*Y189894D01*
Y192294D02*X130976Y192694D01*
X131776D01*
X132176Y192294D01*
Y189894D01*
X131776Y189494D02*X132176Y189894D01*
X130976Y189494D02*X131776D01*
X130576Y190294D02*X132176Y191894D01*
X133136Y190694D02*X134736Y192694D01*
X133136Y190694D02*X135136D01*
X134736Y192694D02*Y189494D01*
X67585Y196366D02*X68625D01*
X67025Y196926D02*X67585Y196366D01*
X67025Y199006D02*Y196926D01*
Y199006D02*X67585Y199566D01*
X68625D01*
X69585Y198926D02*X70225Y199566D01*
Y196366D01*
X69585D02*X70785D01*
X71745Y199166D02*X72145Y199566D01*
X73345D01*
X73745Y199166D01*
Y198366D01*
X71745Y196366D02*X73745Y198366D01*
X71745Y196366D02*X73745D01*
X74705Y199566D02*X76305D01*
X74705D02*Y197966D01*
X75105Y198366D01*
X75905D01*
X76305Y197966D01*
Y196766D01*
X75905Y196366D02*X76305Y196766D01*
X75105Y196366D02*X75905D01*
X74705Y196766D02*X75105Y196366D01*
X38306Y253094D02*Y251494D01*
Y253094D02*X38706Y253494D01*
X39506D01*
X39906Y253094D02*X39506Y253494D01*
X39906Y253094D02*Y251894D01*
X38306D02*X41506D01*
X39906Y252534D02*X41506Y253494D01*
X38946Y254454D02*X38306Y255094D01*
X41506D01*
Y255654D02*Y254454D01*
X38946Y256614D02*X38306Y257254D01*
X41506D01*
Y257814D02*Y256614D01*
X41106Y258774D02*X41506Y259174D01*
X38706Y258774D02*X41106D01*
X38706D02*X38306Y259174D01*
Y259974D02*Y259174D01*
Y259974D02*X38706Y260374D01*
X41106D01*
X41506Y259974D02*X41106Y260374D01*
X41506Y259974D02*Y259174D01*
X40706Y258774D02*X39106Y260374D01*
X58306Y253094D02*Y251494D01*
Y253094D02*X58706Y253494D01*
X59506D01*
X59906Y253094D02*X59506Y253494D01*
X59906Y253094D02*Y251894D01*
X58306D02*X61506D01*
X59906Y252534D02*X61506Y253494D01*
X58946Y254454D02*X58306Y255094D01*
X61506D01*
Y255654D02*Y254454D01*
X58946Y256614D02*X58306Y257254D01*
X61506D01*
Y257814D02*Y256614D01*
X58706Y258774D02*X58306Y259174D01*
Y260374D02*Y259174D01*
Y260374D02*X58706Y260774D01*
X59506D01*
X61506Y258774D02*X59506Y260774D01*
X61506D02*Y258774D01*
X48306Y253094D02*Y251494D01*
Y253094D02*X48706Y253494D01*
X49506D01*
X49906Y253094D02*X49506Y253494D01*
X49906Y253094D02*Y251894D01*
X48306D02*X51506D01*
X49906Y252534D02*X51506Y253494D01*
X48946Y254454D02*X48306Y255094D01*
X51506D01*
Y255654D02*Y254454D01*
X48946Y256614D02*X48306Y257254D01*
X51506D01*
Y257814D02*Y256614D01*
X48946Y258774D02*X48306Y259414D01*
X51506D01*
Y259974D02*Y258774D01*
X77806Y253094D02*Y251494D01*
Y253094D02*X78206Y253494D01*
X79006D01*
X79406Y253094D02*X79006Y253494D01*
X79406Y253094D02*Y251894D01*
X77806D02*X81006D01*
X79406Y252534D02*X81006Y253494D01*
X78446Y254454D02*X77806Y255094D01*
X81006D01*
Y255654D02*Y254454D01*
X80606Y256614D02*X81006Y257014D01*
X78206Y256614D02*X80606D01*
X78206D02*X77806Y257014D01*
Y257814D02*Y257014D01*
Y257814D02*X78206Y258214D01*
X80606D01*
X81006Y257814D02*X80606Y258214D01*
X81006Y257814D02*Y257014D01*
X80206Y256614D02*X78606Y258214D01*
X78206Y259174D02*X77806Y259574D01*
Y260774D02*Y259574D01*
Y260774D02*X78206Y261174D01*
X79006D01*
X81006Y259174D02*X79006Y261174D01*
X81006D02*Y259174D01*
X82306Y233094D02*Y231494D01*
Y233094D02*X82706Y233494D01*
X83506D01*
X83906Y233094D02*X83506Y233494D01*
X83906Y233094D02*Y231894D01*
X82306D02*X85506D01*
X83906Y232534D02*X85506Y233494D01*
X82946Y234454D02*X82306Y235094D01*
X85506D01*
Y235654D02*Y234454D01*
X85106Y236614D02*X85506Y237014D01*
X82706Y236614D02*X85106D01*
X82706D02*X82306Y237014D01*
Y237814D02*Y237014D01*
Y237814D02*X82706Y238214D01*
X85106D01*
X85506Y237814D02*X85106Y238214D01*
X85506Y237814D02*Y237014D01*
X84706Y236614D02*X83106Y238214D01*
X85506Y239574D02*X82306Y241174D01*
Y239174D01*
X92306Y234094D02*Y232494D01*
Y234094D02*X92706Y234494D01*
X93506D01*
X93906Y234094D02*X93506Y234494D01*
X93906Y234094D02*Y232894D01*
X92306D02*X95506D01*
X93906Y233534D02*X95506Y234494D01*
X92946Y235454D02*X92306Y236094D01*
X95506D01*
Y236654D02*Y235454D01*
X95106Y237614D02*X95506Y238014D01*
X92706Y237614D02*X95106D01*
X92706D02*X92306Y238014D01*
Y238814D02*Y238014D01*
Y238814D02*X92706Y239214D01*
X95106D01*
X95506Y238814D02*X95106Y239214D01*
X95506Y238814D02*Y238014D01*
X94706Y237614D02*X93106Y239214D01*
X95106Y240174D02*X95506Y240574D01*
X94466Y240174D02*X95106D01*
X94466D02*X93906Y240734D01*
Y241214D02*Y240734D01*
Y241214D02*X94466Y241774D01*
X95106D01*
X95506Y241374D02*X95106Y241774D01*
X95506Y241374D02*Y240574D01*
X93346Y240174D02*X93906Y240734D01*
X92706Y240174D02*X93346D01*
X92706D02*X92306Y240574D01*
Y241374D02*Y240574D01*
Y241374D02*X92706Y241774D01*
X93346D01*
X93906Y241214D02*X93346Y241774D01*
X87806Y253094D02*Y251494D01*
Y253094D02*X88206Y253494D01*
X89006D01*
X89406Y253094D02*X89006Y253494D01*
X89406Y253094D02*Y251894D01*
X87806D02*X91006D01*
X89406Y252534D02*X91006Y253494D01*
X88446Y254454D02*X87806Y255094D01*
X91006D01*
Y255654D02*Y254454D01*
X90606Y256614D02*X91006Y257014D01*
X88206Y256614D02*X90606D01*
X88206D02*X87806Y257014D01*
Y257814D02*Y257014D01*
Y257814D02*X88206Y258214D01*
X90606D01*
X91006Y257814D02*X90606Y258214D01*
X91006Y257814D02*Y257014D01*
X90206Y256614D02*X88606Y258214D01*
X88446Y259174D02*X87806Y259814D01*
X91006D01*
Y260374D02*Y259174D01*
X35066Y159194D02*X35706D01*
Y156394D01*
X35306Y155994D02*X35706Y156394D01*
X34906Y155994D02*X35306D01*
X34506Y156394D02*X34906Y155994D01*
X34506Y156794D02*Y156394D01*
X36666Y158554D02*X37306Y159194D01*
Y155994D01*
X36666D02*X37866D01*
X38826Y156394D02*X39226Y155994D01*
X38826Y158794D02*Y156394D01*
Y158794D02*X39226Y159194D01*
X40026D01*
X40426Y158794D01*
Y156394D01*
X40026Y155994D02*X40426Y156394D01*
X39226Y155994D02*X40026D01*
X38826Y156794D02*X40426Y158394D01*
X41386Y156394D02*X41786Y155994D01*
X41386Y158794D02*Y156394D01*
Y158794D02*X41786Y159194D01*
X42586D01*
X42986Y158794D01*
Y156394D01*
X42586Y155994D02*X42986Y156394D01*
X41786Y155994D02*X42586D01*
X41386Y156794D02*X42986Y158394D01*
X59000Y147000D02*X59500Y146500D01*
X57500Y147000D02*X59000D01*
X57000Y146500D02*X57500Y147000D01*
X57000Y146500D02*Y145500D01*
X57500Y145000D01*
X59000D01*
X59500Y144500D01*
Y143500D01*
X59000Y143000D02*X59500Y143500D01*
X57500Y143000D02*X59000D01*
X57000Y143500D02*X57500Y143000D01*
X60700Y147000D02*Y143000D01*
Y144500D02*X61200Y145000D01*
X62200D01*
X62700Y144500D01*
Y143000D01*
X63900Y144500D02*X65900Y147000D01*
X63900Y144500D02*X66400D01*
X65900Y147000D02*Y143000D01*
X67600Y143500D02*X68100Y143000D01*
X67600Y146500D02*Y143500D01*
Y146500D02*X68100Y147000D01*
X69100D01*
X69600Y146500D01*
Y143500D01*
X69100Y143000D02*X69600Y143500D01*
X68100Y143000D02*X69100D01*
X67600Y144000D02*X69600Y146000D01*
X70800Y146200D02*X71600Y147000D01*
Y143000D01*
X70800D02*X72300D01*
X72806Y98094D02*Y96494D01*
Y98094D02*X73206Y98494D01*
X74006D01*
X74406Y98094D02*X74006Y98494D01*
X74406Y98094D02*Y96894D01*
X72806D02*X76006D01*
X74406Y97534D02*X76006Y98494D01*
X73206Y99454D02*X72806Y99854D01*
Y101054D02*Y99854D01*
Y101054D02*X73206Y101454D01*
X74006D01*
X76006Y99454D02*X74006Y101454D01*
X76006D02*Y99454D01*
X73446Y102414D02*X72806Y103054D01*
X76006D01*
Y103614D02*Y102414D01*
X72806Y106174D02*Y104574D01*
X74406D01*
X74006Y104974D01*
Y105774D02*Y104974D01*
Y105774D02*X74406Y106174D01*
X75606D01*
X76006Y105774D02*X75606Y106174D01*
X76006Y105774D02*Y104974D01*
X75606Y104574D02*X76006Y104974D01*
X92306Y98094D02*Y96494D01*
Y98094D02*X92706Y98494D01*
X93506D01*
X93906Y98094D02*X93506Y98494D01*
X93906Y98094D02*Y96894D01*
X92306D02*X95506D01*
X93906Y97534D02*X95506Y98494D01*
X92706Y99454D02*X92306Y99854D01*
Y101054D02*Y99854D01*
Y101054D02*X92706Y101454D01*
X93506D01*
X95506Y99454D02*X93506Y101454D01*
X95506D02*Y99454D01*
X92946Y102414D02*X92306Y103054D01*
X95506D01*
Y103614D02*Y102414D01*
X92706Y104574D02*X92306Y104974D01*
Y105774D02*Y104974D01*
Y105774D02*X92706Y106174D01*
X95506Y105774D02*X95106Y106174D01*
X95506Y105774D02*Y104974D01*
X95106Y104574D02*X95506Y104974D01*
X93746Y105774D02*Y104974D01*
X92706Y106174D02*X93346D01*
X94146D02*X95106D01*
X94146D02*X93746Y105774D01*
X93346Y106174D02*X93746Y105774D01*
X102306Y98094D02*Y96494D01*
Y98094D02*X102706Y98494D01*
X103506D01*
X103906Y98094D02*X103506Y98494D01*
X103906Y98094D02*Y96894D01*
X102306D02*X105506D01*
X103906Y97534D02*X105506Y98494D01*
X102706Y99454D02*X102306Y99854D01*
Y101054D02*Y99854D01*
Y101054D02*X102706Y101454D01*
X103506D01*
X105506Y99454D02*X103506Y101454D01*
X105506D02*Y99454D01*
X102946Y102414D02*X102306Y103054D01*
X105506D01*
Y103614D02*Y102414D01*
X102306Y105774D02*X102706Y106174D01*
X102306Y105774D02*Y104974D01*
X102706Y104574D02*X102306Y104974D01*
X102706Y104574D02*X105106D01*
X105506Y104974D01*
X103746Y105774D02*X104146Y106174D01*
X103746Y105774D02*Y104574D01*
X105506Y105774D02*Y104974D01*
Y105774D02*X105106Y106174D01*
X104146D02*X105106D01*
X212306Y267694D02*Y267054D01*
Y267694D02*X215106D01*
X215506Y267294D02*X215106Y267694D01*
X215506Y267294D02*Y266894D01*
X215106Y266494D02*X215506Y266894D01*
X214706Y266494D02*X215106D01*
X214306Y268654D02*X212306Y270254D01*
X214306Y270654D02*Y268654D01*
X212306Y270254D02*X215506D01*
X215106Y271614D02*X215506Y272014D01*
X212706Y271614D02*X215106D01*
X212706D02*X212306Y272014D01*
Y272814D02*Y272014D01*
Y272814D02*X212706Y273214D01*
X215106D01*
X215506Y272814D02*X215106Y273214D01*
X215506Y272814D02*Y272014D01*
X214706Y271614D02*X213106Y273214D01*
X212946Y274174D02*X212306Y274814D01*
X215506D01*
Y275374D02*Y274174D01*
X212006Y243994D02*X212506Y243494D01*
X210506Y243994D02*X212006D01*
X210006Y243494D02*X210506Y243994D01*
X210006Y243494D02*Y242494D01*
X210506Y241994D01*
X212006D01*
X212506Y241494D01*
Y240494D01*
X212006Y239994D02*X212506Y240494D01*
X210506Y239994D02*X212006D01*
X210006Y240494D02*X210506Y239994D01*
X213706Y243994D02*Y239994D01*
Y241494D02*X214206Y241994D01*
X215206D01*
X215706Y241494D01*
Y239994D01*
X216906Y241494D02*X218906Y243994D01*
X216906Y241494D02*X219406D01*
X218906Y243994D02*Y239994D01*
X220606Y240494D02*X221106Y239994D01*
X220606Y243494D02*Y240494D01*
Y243494D02*X221106Y243994D01*
X222106D01*
X222606Y243494D01*
Y240494D01*
X222106Y239994D02*X222606Y240494D01*
X221106Y239994D02*X222106D01*
X220606Y240994D02*X222606Y242994D01*
X223806Y243494D02*X224306Y243994D01*
X225806D01*
X226306Y243494D01*
Y242494D01*
X223806Y239994D02*X226306Y242494D01*
X223806Y239994D02*X226306D01*
X253006Y208194D02*X254606D01*
X255006Y207794D01*
Y206994D01*
X254606Y206594D02*X255006Y206994D01*
X253406Y206594D02*X254606D01*
X253406Y208194D02*Y204994D01*
X254046Y206594D02*X255006Y204994D01*
X255966Y207554D02*X256606Y208194D01*
Y204994D01*
X255966D02*X257166D01*
X258126Y205394D02*X258526Y204994D01*
X258126Y207794D02*Y205394D01*
Y207794D02*X258526Y208194D01*
X259326D01*
X259726Y207794D01*
Y205394D01*
X259326Y204994D02*X259726Y205394D01*
X258526Y204994D02*X259326D01*
X258126Y205794D02*X259726Y207394D01*
X260686Y208194D02*X262286D01*
X260686D02*Y206594D01*
X261086Y206994D01*
X261886D01*
X262286Y206594D01*
Y205394D01*
X261886Y204994D02*X262286Y205394D01*
X261086Y204994D02*X261886D01*
X260686Y205394D02*X261086Y204994D01*
X253951Y192344D02*Y189144D01*
X255551D01*
X256511Y191704D02*X257151Y192344D01*
Y189144D01*
X256511D02*X257711D01*
X258671Y189544D02*X259071Y189144D01*
X258671Y191944D02*Y189544D01*
Y191944D02*X259071Y192344D01*
X259871D01*
X260271Y191944D01*
Y189544D01*
X259871Y189144D02*X260271Y189544D01*
X259071Y189144D02*X259871D01*
X258671Y189944D02*X260271Y191544D01*
X261231Y189544D02*X261631Y189144D01*
X261231Y191944D02*Y189544D01*
Y191944D02*X261631Y192344D01*
X262431D01*
X262831Y191944D01*
Y189544D01*
X262431Y189144D02*X262831Y189544D01*
X261631Y189144D02*X262431D01*
X261231Y189944D02*X262831Y191544D01*
X247432Y208316D02*Y207276D01*
X246872Y206716D02*X247432Y207276D01*
X244792Y206716D02*X246872D01*
X244792D02*X244232Y207276D01*
Y208316D02*Y207276D01*
X244872Y209276D02*X244232Y209916D01*
X247432D01*
Y210476D02*Y209276D01*
X244872Y211436D02*X244232Y212076D01*
X247432D01*
Y212636D02*Y211436D01*
X244632Y213596D02*X244232Y213996D01*
Y215196D02*Y213996D01*
Y215196D02*X244632Y215596D01*
X245432D01*
X247432Y213596D02*X245432Y215596D01*
X247432D02*Y213596D01*
X298162Y189163D02*X299202D01*
X297602Y189723D02*X298162Y189163D01*
X297602Y191803D02*Y189723D01*
Y191803D02*X298162Y192363D01*
X299202D01*
X300162Y191723D02*X300802Y192363D01*
Y189163D01*
X300162D02*X301362D01*
X302322Y189563D02*X302722Y189163D01*
X302322Y191963D02*Y189563D01*
Y191963D02*X302722Y192363D01*
X303522D01*
X303922Y191963D01*
Y189563D01*
X303522Y189163D02*X303922Y189563D01*
X302722Y189163D02*X303522D01*
X302322Y189963D02*X303922Y191563D01*
X305282Y189163D02*X306482Y190763D01*
Y191963D02*Y190763D01*
X306082Y192363D02*X306482Y191963D01*
X305282Y192363D02*X306082D01*
X304882Y191963D02*X305282Y192363D01*
X304882Y191963D02*Y191163D01*
X305282Y190763D01*
X306482D01*
X294990Y194218D02*X296030D01*
X294430Y194778D02*X294990Y194218D01*
X294430Y196858D02*Y194778D01*
Y196858D02*X294990Y197418D01*
X296030D01*
X296990Y196778D02*X297630Y197418D01*
Y194218D01*
X296990D02*X298190D01*
X299150Y194618D02*X299550Y194218D01*
X299150Y197018D02*Y194618D01*
Y197018D02*X299550Y197418D01*
X300350D01*
X300750Y197018D01*
Y194618D01*
X300350Y194218D02*X300750Y194618D01*
X299550Y194218D02*X300350D01*
X299150Y195018D02*X300750Y196618D01*
X301710Y197018D02*X302110Y197418D01*
X302910D01*
X303310Y197018D01*
X302910Y194218D02*X303310Y194618D01*
X302110Y194218D02*X302910D01*
X301710Y194618D02*X302110Y194218D01*
Y195978D02*X302910D01*
X303310Y197018D02*Y196378D01*
Y195578D02*Y194618D01*
Y195578D02*X302910Y195978D01*
X303310Y196378D02*X302910Y195978D01*
X295066Y206994D02*X296106D01*
X294506Y207554D02*X295066Y206994D01*
X294506Y209634D02*Y207554D01*
Y209634D02*X295066Y210194D01*
X296106D01*
X297066Y209554D02*X297706Y210194D01*
Y206994D01*
X297066D02*X298266D01*
X299226Y209554D02*X299866Y210194D01*
Y206994D01*
X299226D02*X300426D01*
X301386Y210194D02*X302986D01*
X301386D02*Y208594D01*
X301786Y208994D01*
X302586D01*
X302986Y208594D01*
Y207394D01*
X302586Y206994D02*X302986Y207394D01*
X301786Y206994D02*X302586D01*
X301386Y207394D02*X301786Y206994D01*
X293511Y200644D02*X294551D01*
X292951Y201204D02*X293511Y200644D01*
X292951Y203284D02*Y201204D01*
Y203284D02*X293511Y203844D01*
X294551D01*
X295511Y203204D02*X296151Y203844D01*
Y200644D01*
X295511D02*X296711D01*
X297671Y203204D02*X298311Y203844D01*
Y200644D01*
X297671D02*X298871D01*
X299831Y201844D02*X301431Y203844D01*
X299831Y201844D02*X301831D01*
X301431Y203844D02*Y200644D01*
X270506Y197694D02*Y194894D01*
X270906Y194494D01*
X271706D01*
X272106Y194894D01*
Y197694D02*Y194894D01*
X273066Y197054D02*X273706Y197694D01*
Y194494D01*
X273066D02*X274266D01*
X275226Y194894D02*X275626Y194494D01*
X275226Y197294D02*Y194894D01*
Y197294D02*X275626Y197694D01*
X276426D01*
X276826Y197294D01*
Y194894D01*
X276426Y194494D02*X276826Y194894D01*
X275626Y194494D02*X276426D01*
X275226Y195294D02*X276826Y196894D01*
X277786Y197054D02*X278426Y197694D01*
Y194494D01*
X277786D02*X278986D01*
X224782Y208492D02*Y207452D01*
X224222Y206892D02*X224782Y207452D01*
X222142Y206892D02*X224222D01*
X222142D02*X221582Y207452D01*
Y208492D02*Y207452D01*
X222222Y209452D02*X221582Y210092D01*
X224782D01*
Y210652D02*Y209452D01*
X222222Y211612D02*X221582Y212252D01*
X224782D01*
Y212812D02*Y211612D01*
X222222Y213772D02*X221582Y214412D01*
X224782D01*
Y214972D02*Y213772D01*
X293990Y172498D02*X295030D01*
X293430Y173058D02*X293990Y172498D01*
X293430Y175138D02*Y173058D01*
Y175138D02*X293990Y175698D01*
X295030D01*
X295990Y175058D02*X296630Y175698D01*
Y172498D01*
X295990D02*X297190D01*
X298150Y172898D02*X298550Y172498D01*
X298150Y175298D02*Y172898D01*
Y175298D02*X298550Y175698D01*
X299350D01*
X299750Y175298D01*
Y172898D01*
X299350Y172498D02*X299750Y172898D01*
X298550Y172498D02*X299350D01*
X298150Y173298D02*X299750Y174898D01*
X300710Y175298D02*X301110Y175698D01*
X302310D01*
X302710Y175298D01*
Y174498D01*
X300710Y172498D02*X302710Y174498D01*
X300710Y172498D02*X302710D01*
X316473Y126452D02*X317513D01*
X315913Y127012D02*X316473Y126452D01*
X315913Y129092D02*Y127012D01*
Y129092D02*X316473Y129652D01*
X317513D01*
X318473Y129252D02*X318873Y129652D01*
X320073D01*
X320473Y129252D01*
Y128452D01*
X318473Y126452D02*X320473Y128452D01*
X318473Y126452D02*X320473D01*
X321433Y129012D02*X322073Y129652D01*
Y126452D01*
X321433D02*X322633D01*
X324793Y129652D02*X325193Y129252D01*
X323993Y129652D02*X324793D01*
X323593Y129252D02*X323993Y129652D01*
X323593Y129252D02*Y126852D01*
X323993Y126452D01*
X324793Y128212D02*X325193Y127812D01*
X323593Y128212D02*X324793D01*
X323993Y126452D02*X324793D01*
X325193Y126852D01*
Y127812D02*Y126852D01*
X252093Y125494D02*X253133D01*
X251533Y126054D02*X252093Y125494D01*
X251533Y128134D02*Y126054D01*
Y128134D02*X252093Y128694D01*
X253133D01*
X254093Y128294D02*X254493Y128694D01*
X255693D01*
X256093Y128294D01*
Y127494D01*
X254093Y125494D02*X256093Y127494D01*
X254093Y125494D02*X256093D01*
X257053Y125894D02*X257453Y125494D01*
X257053Y128294D02*Y125894D01*
Y128294D02*X257453Y128694D01*
X258253D01*
X258653Y128294D01*
Y125894D01*
X258253Y125494D02*X258653Y125894D01*
X257453Y125494D02*X258253D01*
X257053Y126294D02*X258653Y127894D01*
X260013Y125494D02*X261613Y128694D01*
X259613D02*X261613D01*
X300256Y130200D02*X301856D01*
X301056D02*Y127000D01*
X302816Y129800D02*X303216Y130200D01*
X304416D01*
X304816Y129800D01*
Y129000D01*
X302816Y127000D02*X304816Y129000D01*
X302816Y127000D02*X304816D01*
X305776Y127400D02*X306176Y127000D01*
X305776Y129800D02*Y127400D01*
Y129800D02*X306176Y130200D01*
X306976D01*
X307376Y129800D01*
Y127400D01*
X306976Y127000D02*X307376Y127400D01*
X306176Y127000D02*X306976D01*
X305776Y127800D02*X307376Y129400D01*
X308336Y129560D02*X308976Y130200D01*
Y127000D01*
X308336D02*X309536D01*
X287848Y124152D02*X291048D01*
Y125752D02*Y124152D01*
X288248Y126712D02*X287848Y127112D01*
Y128312D02*Y127112D01*
Y128312D02*X288248Y128712D01*
X289048D01*
X291048Y126712D02*X289048Y128712D01*
X291048D02*Y126712D01*
X290648Y129672D02*X291048Y130072D01*
X288248Y129672D02*X290648D01*
X288248D02*X287848Y130072D01*
Y130872D02*Y130072D01*
Y130872D02*X288248Y131272D01*
X290648D01*
X291048Y130872D02*X290648Y131272D01*
X291048Y130872D02*Y130072D01*
X290248Y129672D02*X288648Y131272D01*
X288248Y132232D02*X287848Y132632D01*
Y133832D02*Y132632D01*
Y133832D02*X288248Y134232D01*
X289048D01*
X291048Y132232D02*X289048Y134232D01*
X291048D02*Y132232D01*
X271566Y126568D02*X272606D01*
X271006Y127128D02*X271566Y126568D01*
X271006Y129208D02*Y127128D01*
Y129208D02*X271566Y129768D01*
X272606D01*
X273566Y129368D02*X273966Y129768D01*
X275166D01*
X275566Y129368D01*
Y128568D01*
X273566Y126568D02*X275566Y128568D01*
X273566Y126568D02*X275566D01*
X276526Y126968D02*X276926Y126568D01*
X276526Y129368D02*Y126968D01*
Y129368D02*X276926Y129768D01*
X277726D01*
X278126Y129368D01*
Y126968D01*
X277726Y126568D02*X278126Y126968D01*
X276926Y126568D02*X277726D01*
X276526Y127368D02*X278126Y128968D01*
X279086Y129368D02*X279486Y129768D01*
X280286D01*
X280686Y129368D01*
X280286Y126568D02*X280686Y126968D01*
X279486Y126568D02*X280286D01*
X279086Y126968D02*X279486Y126568D01*
Y128328D02*X280286D01*
X280686Y129368D02*Y128728D01*
Y127928D02*Y126968D01*
Y127928D02*X280286Y128328D01*
X280686Y128728D02*X280286Y128328D01*
X262790Y120994D02*X265590D01*
X265990Y121394D01*
Y122194D02*Y121394D01*
Y122194D02*X265590Y122594D01*
X262790D02*X265590D01*
X263190Y123554D02*X262790Y123954D01*
Y125154D02*Y123954D01*
Y125154D02*X263190Y125554D01*
X263990D01*
X265990Y123554D02*X263990Y125554D01*
X265990D02*Y123554D01*
X265590Y126514D02*X265990Y126914D01*
X263190Y126514D02*X265590D01*
X263190D02*X262790Y126914D01*
Y127714D02*Y126914D01*
Y127714D02*X263190Y128114D01*
X265590D01*
X265990Y127714D02*X265590Y128114D01*
X265990Y127714D02*Y126914D01*
X265190Y126514D02*X263590Y128114D01*
X265590Y129074D02*X265990Y129474D01*
X263190Y129074D02*X265590D01*
X263190D02*X262790Y129474D01*
Y130274D02*Y129474D01*
Y130274D02*X263190Y130674D01*
X265590D01*
X265990Y130274D02*X265590Y130674D01*
X265990Y130274D02*Y129474D01*
X265190Y129074D02*X263590Y130674D01*
X238506Y129956D02*X240106D01*
X239306D02*Y126756D01*
X241066Y129556D02*X241466Y129956D01*
X242666D01*
X243066Y129556D01*
Y128756D01*
X241066Y126756D02*X243066Y128756D01*
X241066Y126756D02*X243066D01*
X244026Y127156D02*X244426Y126756D01*
X244026Y129556D02*Y127156D01*
Y129556D02*X244426Y129956D01*
X245226D01*
X245626Y129556D01*
Y127156D01*
X245226Y126756D02*X245626Y127156D01*
X244426Y126756D02*X245226D01*
X244026Y127556D02*X245626Y129156D01*
X246586Y127156D02*X246986Y126756D01*
X246586Y129556D02*Y127156D01*
Y129556D02*X246986Y129956D01*
X247786D01*
X248186Y129556D01*
Y127156D01*
X247786Y126756D02*X248186Y127156D01*
X246986Y126756D02*X247786D01*
X246586Y127556D02*X248186Y129156D01*
X219006Y131694D02*X220606D01*
X221006Y131294D01*
Y130494D01*
X220606Y130094D02*X221006Y130494D01*
X219406Y130094D02*X220606D01*
X219406Y131694D02*Y128494D01*
X220046Y130094D02*X221006Y128494D01*
X221966Y131294D02*X222366Y131694D01*
X223566D01*
X223966Y131294D01*
Y130494D01*
X221966Y128494D02*X223966Y130494D01*
X221966Y128494D02*X223966D01*
X224926Y128894D02*X225326Y128494D01*
X224926Y131294D02*Y128894D01*
Y131294D02*X225326Y131694D01*
X226126D01*
X226526Y131294D01*
Y128894D01*
X226126Y128494D02*X226526Y128894D01*
X225326Y128494D02*X226126D01*
X224926Y129294D02*X226526Y130894D01*
X227486Y131694D02*X229086D01*
X227486D02*Y130094D01*
X227886Y130494D01*
X228686D01*
X229086Y130094D01*
Y128894D01*
X228686Y128494D02*X229086Y128894D01*
X227886Y128494D02*X228686D01*
X227486Y128894D02*X227886Y128494D01*
X256840Y36570D02*Y35530D01*
X256280Y34970D02*X256840Y35530D01*
X254200Y34970D02*X256280D01*
X254200D02*X253640Y35530D01*
Y36570D02*Y35530D01*
X254040Y37530D02*X253640Y37930D01*
Y39130D02*Y37930D01*
Y39130D02*X254040Y39530D01*
X254840D01*
X256840Y37530D02*X254840Y39530D01*
X256840D02*Y37530D01*
X254040Y40490D02*X253640Y40890D01*
Y42090D02*Y40890D01*
Y42090D02*X254040Y42490D01*
X254840D01*
X256840Y40490D02*X254840Y42490D01*
X256840D02*Y40490D01*
X253640Y45050D02*Y43450D01*
X255240D01*
X254840Y43850D01*
Y44650D02*Y43850D01*
Y44650D02*X255240Y45050D01*
X256440D01*
X256840Y44650D02*X256440Y45050D01*
X256840Y44650D02*Y43850D01*
X256440Y43450D02*X256840Y43850D01*
X278658Y36594D02*Y34994D01*
Y36594D02*X279058Y36994D01*
X279858D01*
X280258Y36594D02*X279858Y36994D01*
X280258Y36594D02*Y35394D01*
X278658D02*X281858D01*
X280258Y36034D02*X281858Y36994D01*
X279058Y37954D02*X278658Y38354D01*
Y39554D02*Y38354D01*
Y39554D02*X279058Y39954D01*
X279858D01*
X281858Y37954D02*X279858Y39954D01*
X281858D02*Y37954D01*
X279298Y40914D02*X278658Y41554D01*
X281858D01*
Y42114D02*Y40914D01*
X281458Y43074D02*X281858Y43474D01*
X279058Y43074D02*X281458D01*
X279058D02*X278658Y43474D01*
Y44274D02*Y43474D01*
Y44274D02*X279058Y44674D01*
X281458D01*
X281858Y44274D02*X281458Y44674D01*
X281858Y44274D02*Y43474D01*
X281058Y43074D02*X279458Y44674D01*
X263208Y36891D02*Y35851D01*
X262648Y35291D02*X263208Y35851D01*
X260568Y35291D02*X262648D01*
X260568D02*X260008Y35851D01*
Y36891D02*Y35851D01*
X260408Y37851D02*X260008Y38251D01*
Y39451D02*Y38251D01*
Y39451D02*X260408Y39851D01*
X261208D01*
X263208Y37851D02*X261208Y39851D01*
X263208D02*Y37851D01*
X260408Y40811D02*X260008Y41211D01*
Y42411D02*Y41211D01*
Y42411D02*X260408Y42811D01*
X261208D01*
X263208Y40811D02*X261208Y42811D01*
X263208D02*Y40811D01*
X260648Y43771D02*X260008Y44411D01*
X263208D01*
Y44971D02*Y43771D01*
X330742Y38962D02*X331782D01*
X330182Y39522D02*X330742Y38962D01*
X330182Y41602D02*Y39522D01*
Y41602D02*X330742Y42162D01*
X331782D01*
X333142Y38962D02*X334342Y40562D01*
Y41762D02*Y40562D01*
X333942Y42162D02*X334342Y41762D01*
X333142Y42162D02*X333942D01*
X332742Y41762D02*X333142Y42162D01*
X332742Y41762D02*Y40962D01*
X333142Y40562D01*
X334342D01*
X335302Y39362D02*X335702Y38962D01*
X335302Y41762D02*Y39362D01*
Y41762D02*X335702Y42162D01*
X336502D01*
X336902Y41762D01*
Y39362D01*
X336502Y38962D02*X336902Y39362D01*
X335702Y38962D02*X336502D01*
X335302Y39762D02*X336902Y41362D01*
X337862Y41762D02*X338262Y42162D01*
X339462D01*
X339862Y41762D01*
Y40962D01*
X337862Y38962D02*X339862Y40962D01*
X337862Y38962D02*X339862D01*
X347726Y42270D02*X349326D01*
X349726Y41870D01*
Y41070D01*
X349326Y40670D02*X349726Y41070D01*
X348126Y40670D02*X349326D01*
X348126Y42270D02*Y39070D01*
X348766Y40670D02*X349726Y39070D01*
X351086D02*X352286Y40670D01*
Y41870D02*Y40670D01*
X351886Y42270D02*X352286Y41870D01*
X351086Y42270D02*X351886D01*
X350686Y41870D02*X351086Y42270D01*
X350686Y41870D02*Y41070D01*
X351086Y40670D01*
X352286D01*
X353246Y39470D02*X353646Y39070D01*
X353246Y41870D02*Y39470D01*
Y41870D02*X353646Y42270D01*
X354446D01*
X354846Y41870D01*
Y39470D01*
X354446Y39070D02*X354846Y39470D01*
X353646Y39070D02*X354446D01*
X353246Y39870D02*X354846Y41470D01*
X355806Y41870D02*X356206Y42270D01*
X357406D01*
X357806Y41870D01*
Y41070D01*
X355806Y39070D02*X357806Y41070D01*
X355806Y39070D02*X357806D01*
X269238Y35039D02*Y33999D01*
X268678Y33439D02*X269238Y33999D01*
X266598Y33439D02*X268678D01*
X266598D02*X266038Y33999D01*
Y35039D02*Y33999D01*
X266438Y35999D02*X266038Y36399D01*
Y37599D02*Y36399D01*
Y37599D02*X266438Y37999D01*
X267238D01*
X269238Y35999D02*X267238Y37999D01*
X269238D02*Y35999D01*
X266438Y38959D02*X266038Y39359D01*
Y40559D02*Y39359D01*
Y40559D02*X266438Y40959D01*
X267238D01*
X269238Y38959D02*X267238Y40959D01*
X269238D02*Y38959D01*
Y42319D02*X266038Y43919D01*
Y41919D01*
X275356Y35135D02*Y34095D01*
X274796Y33535D02*X275356Y34095D01*
X272716Y33535D02*X274796D01*
X272716D02*X272156Y34095D01*
Y35135D02*Y34095D01*
X272556Y36095D02*X272156Y36495D01*
Y37695D02*Y36495D01*
Y37695D02*X272556Y38095D01*
X273356D01*
X275356Y36095D02*X273356Y38095D01*
X275356D02*Y36095D01*
X272556Y39055D02*X272156Y39455D01*
Y40655D02*Y39455D01*
Y40655D02*X272556Y41055D01*
X273356D01*
X275356Y39055D02*X273356Y41055D01*
X275356D02*Y39055D01*
X272156Y43215D02*X272556Y43615D01*
X272156Y43215D02*Y42415D01*
X272556Y42015D02*X272156Y42415D01*
X272556Y42015D02*X274956D01*
X275356Y42415D01*
X273596Y43215D02*X273996Y43615D01*
X273596Y43215D02*Y42015D01*
X275356Y43215D02*Y42415D01*
Y43215D02*X274956Y43615D01*
X273996D02*X274956D01*
X287356Y36444D02*Y35404D01*
X286796Y34844D02*X287356Y35404D01*
X284716Y34844D02*X286796D01*
X284716D02*X284156Y35404D01*
Y36444D02*Y35404D01*
X284556Y37404D02*X284156Y37804D01*
Y39004D02*Y37804D01*
Y39004D02*X284556Y39404D01*
X285356D01*
X287356Y37404D02*X285356Y39404D01*
X287356D02*Y37404D01*
X284556Y40364D02*X284156Y40764D01*
Y41964D02*Y40764D01*
Y41964D02*X284556Y42364D01*
X285356D01*
X287356Y40364D02*X285356Y42364D01*
X287356D02*Y40364D01*
X286156Y43324D02*X284156Y44924D01*
X286156Y45324D02*Y43324D01*
X284156Y44924D02*X287356D01*
X212000Y20000D02*X212500Y19500D01*
X210500Y20000D02*X212000D01*
X210000Y19500D02*X210500Y20000D01*
X210000Y19500D02*Y18500D01*
X210500Y18000D01*
X212000D01*
X212500Y17500D01*
Y16500D01*
X212000Y16000D02*X212500Y16500D01*
X210500Y16000D02*X212000D01*
X210000Y16500D02*X210500Y16000D01*
X213700Y20000D02*Y16000D01*
Y17500D02*X214200Y18000D01*
X215200D01*
X215700Y17500D01*
Y16000D01*
X216900Y17500D02*X218900Y20000D01*
X216900Y17500D02*X219400D01*
X218900Y20000D02*Y16000D01*
X220600Y16500D02*X221100Y16000D01*
X220600Y19500D02*Y16500D01*
Y19500D02*X221100Y20000D01*
X222100D01*
X222600Y19500D01*
Y16500D01*
X222100Y16000D02*X222600Y16500D01*
X221100Y16000D02*X222100D01*
X220600Y17000D02*X222600Y19000D01*
X223800Y17500D02*X225800Y20000D01*
X223800Y17500D02*X226300D01*
X225800Y20000D02*Y16000D01*
X229893Y71644D02*X230933D01*
X229333Y72204D02*X229893Y71644D01*
X229333Y74284D02*Y72204D01*
Y74284D02*X229893Y74844D01*
X230933D01*
X231893Y74444D02*X232293Y74844D01*
X233493D01*
X233893Y74444D01*
Y73644D01*
X231893Y71644D02*X233893Y73644D01*
X231893Y71644D02*X233893D01*
X234853Y74444D02*X235253Y74844D01*
X236053D01*
X236453Y74444D01*
X236053Y71644D02*X236453Y72044D01*
X235253Y71644D02*X236053D01*
X234853Y72044D02*X235253Y71644D01*
Y73404D02*X236053D01*
X236453Y74444D02*Y73804D01*
Y73004D02*Y72044D01*
Y73004D02*X236053Y73404D01*
X236453Y73804D02*X236053Y73404D01*
X237413Y74204D02*X238053Y74844D01*
Y71644D01*
X237413D02*X238613D01*
X219306Y104594D02*Y102994D01*
Y104594D02*X219706Y104994D01*
X220506D01*
X220906Y104594D02*X220506Y104994D01*
X220906Y104594D02*Y103394D01*
X219306D02*X222506D01*
X220906Y104034D02*X222506Y104994D01*
X219706Y105954D02*X219306Y106354D01*
Y107554D02*Y106354D01*
Y107554D02*X219706Y107954D01*
X220506D01*
X222506Y105954D02*X220506Y107954D01*
X222506D02*Y105954D01*
X222106Y108914D02*X222506Y109314D01*
X219706Y108914D02*X222106D01*
X219706D02*X219306Y109314D01*
Y110114D02*Y109314D01*
Y110114D02*X219706Y110514D01*
X222106D01*
X222506Y110114D02*X222106Y110514D01*
X222506Y110114D02*Y109314D01*
X221706Y108914D02*X220106Y110514D01*
X222506Y111874D02*X220906Y113074D01*
X219706D02*X220906D01*
X219306Y112674D02*X219706Y113074D01*
X219306Y112674D02*Y111874D01*
X219706Y111474D02*X219306Y111874D01*
X219706Y111474D02*X220506D01*
X220906Y111874D01*
Y113074D02*Y111874D01*
X250443Y58537D02*Y55737D01*
X250843Y55337D01*
X251643D01*
X252043Y55737D01*
Y58537D02*Y55737D01*
X253003Y58137D02*X253403Y58537D01*
X254603D01*
X255003Y58137D01*
Y57337D01*
X253003Y55337D02*X255003Y57337D01*
X253003Y55337D02*X255003D01*
X255963Y55737D02*X256363Y55337D01*
X255963Y58137D02*Y55737D01*
Y58137D02*X256363Y58537D01*
X257163D01*
X257563Y58137D01*
Y55737D01*
X257163Y55337D02*X257563Y55737D01*
X256363Y55337D02*X257163D01*
X255963Y56137D02*X257563Y57737D01*
X258523Y58137D02*X258923Y58537D01*
X259723D01*
X260123Y58137D01*
X259723Y55337D02*X260123Y55737D01*
X258923Y55337D02*X259723D01*
X258523Y55737D02*X258923Y55337D01*
Y57097D02*X259723D01*
X260123Y58137D02*Y57497D01*
Y56697D02*Y55737D01*
Y56697D02*X259723Y57097D01*
X260123Y57497D02*X259723Y57097D01*
X232006Y84046D02*X233606D01*
X234006Y83646D01*
Y82846D01*
X233606Y82446D02*X234006Y82846D01*
X232406Y82446D02*X233606D01*
X232406Y84046D02*Y80846D01*
X233046Y82446D02*X234006Y80846D01*
X234966Y83646D02*X235366Y84046D01*
X236566D01*
X236966Y83646D01*
Y82846D01*
X234966Y80846D02*X236966Y82846D01*
X234966Y80846D02*X236966D01*
X237926Y83406D02*X238566Y84046D01*
Y80846D01*
X237926D02*X239126D01*
X240086Y83646D02*X240486Y84046D01*
X241686D01*
X242086Y83646D01*
Y82846D01*
X240086Y80846D02*X242086Y82846D01*
X240086Y80846D02*X242086D01*
X232214Y59494D02*X233254D01*
X231654Y60054D02*X232214Y59494D01*
X231654Y62134D02*Y60054D01*
Y62134D02*X232214Y62694D01*
X233254D01*
X234214Y62294D02*X234614Y62694D01*
X235814D01*
X236214Y62294D01*
Y61494D01*
X234214Y59494D02*X236214Y61494D01*
X234214Y59494D02*X236214D01*
X237174Y62294D02*X237574Y62694D01*
X238374D01*
X238774Y62294D01*
X238374Y59494D02*X238774Y59894D01*
X237574Y59494D02*X238374D01*
X237174Y59894D02*X237574Y59494D01*
Y61254D02*X238374D01*
X238774Y62294D02*Y61654D01*
Y60854D02*Y59894D01*
Y60854D02*X238374Y61254D01*
X238774Y61654D02*X238374Y61254D01*
X239734Y62694D02*X241334D01*
X239734D02*Y61094D01*
X240134Y61494D01*
X240934D01*
X241334Y61094D01*
Y59894D01*
X240934Y59494D02*X241334Y59894D01*
X240134Y59494D02*X240934D01*
X239734Y59894D02*X240134Y59494D01*
X232066Y53994D02*X233106D01*
X231506Y54554D02*X232066Y53994D01*
X231506Y56634D02*Y54554D01*
Y56634D02*X232066Y57194D01*
X233106D01*
X234066Y56794D02*X234466Y57194D01*
X235666D01*
X236066Y56794D01*
Y55994D01*
X234066Y53994D02*X236066Y55994D01*
X234066Y53994D02*X236066D01*
X237026Y56794D02*X237426Y57194D01*
X238226D01*
X238626Y56794D01*
X238226Y53994D02*X238626Y54394D01*
X237426Y53994D02*X238226D01*
X237026Y54394D02*X237426Y53994D01*
Y55754D02*X238226D01*
X238626Y56794D02*Y56154D01*
Y55354D02*Y54394D01*
Y55354D02*X238226Y55754D01*
X238626Y56154D02*X238226Y55754D01*
X240786Y57194D02*X241186Y56794D01*
X239986Y57194D02*X240786D01*
X239586Y56794D02*X239986Y57194D01*
X239586Y56794D02*Y54394D01*
X239986Y53994D01*
X240786Y55754D02*X241186Y55354D01*
X239586Y55754D02*X240786D01*
X239986Y53994D02*X240786D01*
X241186Y54394D01*
Y55354D02*Y54394D01*
X232194Y48366D02*X233234D01*
X231634Y48926D02*X232194Y48366D01*
X231634Y51006D02*Y48926D01*
Y51006D02*X232194Y51566D01*
X233234D01*
X234194Y51166D02*X234594Y51566D01*
X235794D01*
X236194Y51166D01*
Y50366D01*
X234194Y48366D02*X236194Y50366D01*
X234194Y48366D02*X236194D01*
X237154Y51166D02*X237554Y51566D01*
X238354D01*
X238754Y51166D01*
X238354Y48366D02*X238754Y48766D01*
X237554Y48366D02*X238354D01*
X237154Y48766D02*X237554Y48366D01*
Y50126D02*X238354D01*
X238754Y51166D02*Y50526D01*
Y49726D02*Y48766D01*
Y49726D02*X238354Y50126D01*
X238754Y50526D02*X238354Y50126D01*
X240114Y48366D02*X241714Y51566D01*
X239714D02*X241714D01*
X232418Y42994D02*X233458D01*
X231858Y43554D02*X232418Y42994D01*
X231858Y45634D02*Y43554D01*
Y45634D02*X232418Y46194D01*
X233458D01*
X234418Y45794D02*X234818Y46194D01*
X236018D01*
X236418Y45794D01*
Y44994D01*
X234418Y42994D02*X236418Y44994D01*
X234418Y42994D02*X236418D01*
X237378Y45794D02*X237778Y46194D01*
X238578D01*
X238978Y45794D01*
X238578Y42994D02*X238978Y43394D01*
X237778Y42994D02*X238578D01*
X237378Y43394D02*X237778Y42994D01*
Y44754D02*X238578D01*
X238978Y45794D02*Y45154D01*
Y44354D02*Y43394D01*
Y44354D02*X238578Y44754D01*
X238978Y45154D02*X238578Y44754D01*
X239938Y43394D02*X240338Y42994D01*
X239938Y44034D02*Y43394D01*
Y44034D02*X240498Y44594D01*
X240978D01*
X241538Y44034D01*
Y43394D01*
X241138Y42994D02*X241538Y43394D01*
X240338Y42994D02*X241138D01*
X239938Y45154D02*X240498Y44594D01*
X239938Y45794D02*Y45154D01*
Y45794D02*X240338Y46194D01*
X241138D01*
X241538Y45794D01*
Y45154D01*
X240978Y44594D02*X241538Y45154D01*
X230856Y67844D02*X232456D01*
X232856Y67444D01*
Y66644D01*
X232456Y66244D02*X232856Y66644D01*
X231256Y66244D02*X232456D01*
X231256Y67844D02*Y64644D01*
X231896Y66244D02*X232856Y64644D01*
X233816Y67444D02*X234216Y67844D01*
X235416D01*
X235816Y67444D01*
Y66644D01*
X233816Y64644D02*X235816Y66644D01*
X233816Y64644D02*X235816D01*
X236776Y67204D02*X237416Y67844D01*
Y64644D01*
X236776D02*X237976D01*
X239336D02*X240936Y67844D01*
X238936D02*X240936D01*
X258354Y96995D02*Y95955D01*
X257794Y95395D02*X258354Y95955D01*
X255714Y95395D02*X257794D01*
X255714D02*X255154Y95955D01*
Y96995D02*Y95955D01*
X255554Y97955D02*X255154Y98355D01*
Y99555D02*Y98355D01*
Y99555D02*X255554Y99955D01*
X256354D01*
X258354Y97955D02*X256354Y99955D01*
X258354D02*Y97955D01*
X255794Y100915D02*X255154Y101555D01*
X258354D01*
Y102115D02*Y100915D01*
Y103475D02*X255154Y105075D01*
Y103075D01*
X263856Y85444D02*Y84404D01*
X263296Y83844D02*X263856Y84404D01*
X261216Y83844D02*X263296D01*
X261216D02*X260656Y84404D01*
Y85444D02*Y84404D01*
X261056Y86404D02*X260656Y86804D01*
Y88004D02*Y86804D01*
Y88004D02*X261056Y88404D01*
X261856D01*
X263856Y86404D02*X261856Y88404D01*
X263856D02*Y86404D01*
X261056Y89364D02*X260656Y89764D01*
Y90564D02*Y89764D01*
Y90564D02*X261056Y90964D01*
X263856Y90564D02*X263456Y90964D01*
X263856Y90564D02*Y89764D01*
X263456Y89364D02*X263856Y89764D01*
X262096Y90564D02*Y89764D01*
X261056Y90964D02*X261696D01*
X262496D02*X263456D01*
X262496D02*X262096Y90564D01*
X261696Y90964D02*X262096Y90564D01*
X261056Y91924D02*X260656Y92324D01*
Y93124D02*Y92324D01*
Y93124D02*X261056Y93524D01*
X263856Y93124D02*X263456Y93524D01*
X263856Y93124D02*Y92324D01*
X263456Y91924D02*X263856Y92324D01*
X262096Y93124D02*Y92324D01*
X261056Y93524D02*X261696D01*
X262496D02*X263456D01*
X262496D02*X262096Y93124D01*
X261696Y93524D02*X262096Y93124D01*
X243582Y90920D02*X244622D01*
X243022Y91480D02*X243582Y90920D01*
X243022Y93560D02*Y91480D01*
Y93560D02*X243582Y94120D01*
X244622D01*
X245582Y93720D02*X245982Y94120D01*
X247182D01*
X247582Y93720D01*
Y92920D01*
X245582Y90920D02*X247582Y92920D01*
X245582Y90920D02*X247582D01*
X248542Y93720D02*X248942Y94120D01*
X249742D01*
X250142Y93720D01*
X249742Y90920D02*X250142Y91320D01*
X248942Y90920D02*X249742D01*
X248542Y91320D02*X248942Y90920D01*
Y92680D02*X249742D01*
X250142Y93720D02*Y93080D01*
Y92280D02*Y91320D01*
Y92280D02*X249742Y92680D01*
X250142Y93080D02*X249742Y92680D01*
X251102Y92120D02*X252702Y94120D01*
X251102Y92120D02*X253102D01*
X252702Y94120D02*Y90920D01*
X289198Y95033D02*X292398D01*
Y96633D02*Y95033D01*
X289598Y97593D02*X289198Y97993D01*
Y99193D02*Y97993D01*
Y99193D02*X289598Y99593D01*
X290398D01*
X292398Y97593D02*X290398Y99593D01*
X292398D02*Y97593D01*
X291998Y100553D02*X292398Y100953D01*
X289598Y100553D02*X291998D01*
X289598D02*X289198Y100953D01*
Y101753D02*Y100953D01*
Y101753D02*X289598Y102153D01*
X291998D01*
X292398Y101753D02*X291998Y102153D01*
X292398Y101753D02*Y100953D01*
X291598Y100553D02*X289998Y102153D01*
X291998Y103113D02*X292398Y103513D01*
X291358Y103113D02*X291998D01*
X291358D02*X290798Y103673D01*
Y104153D02*Y103673D01*
Y104153D02*X291358Y104713D01*
X291998D01*
X292398Y104313D02*X291998Y104713D01*
X292398Y104313D02*Y103513D01*
X290238Y103113D02*X290798Y103673D01*
X289598Y103113D02*X290238D01*
X289598D02*X289198Y103513D01*
Y104313D02*Y103513D01*
Y104313D02*X289598Y104713D01*
X290238D01*
X290798Y104153D02*X290238Y104713D01*
X286506Y92594D02*Y91554D01*
X285946Y90994D02*X286506Y91554D01*
X283866Y90994D02*X285946D01*
X283866D02*X283306Y91554D01*
Y92594D02*Y91554D01*
X283706Y93554D02*X283306Y93954D01*
Y95154D02*Y93954D01*
Y95154D02*X283706Y95554D01*
X284506D01*
X286506Y93554D02*X284506Y95554D01*
X286506D02*Y93554D01*
X283706Y96514D02*X283306Y96914D01*
Y98114D02*Y96914D01*
Y98114D02*X283706Y98514D01*
X284506D01*
X286506Y96514D02*X284506Y98514D01*
X286506D02*Y96514D01*
X286106Y99474D02*X286506Y99874D01*
X283706Y99474D02*X286106D01*
X283706D02*X283306Y99874D01*
Y100674D02*Y99874D01*
Y100674D02*X283706Y101074D01*
X286106D01*
X286506Y100674D02*X286106Y101074D01*
X286506Y100674D02*Y99874D01*
X285706Y99474D02*X284106Y101074D01*
X300688Y81719D02*X301728D01*
X300128Y82279D02*X300688Y81719D01*
X300128Y84359D02*Y82279D01*
Y84359D02*X300688Y84919D01*
X301728D01*
X302688Y84519D02*X303088Y84919D01*
X304288D01*
X304688Y84519D01*
Y83719D01*
X302688Y81719D02*X304688Y83719D01*
X302688Y81719D02*X304688D01*
X305648Y84519D02*X306048Y84919D01*
X306848D01*
X307248Y84519D01*
X306848Y81719D02*X307248Y82119D01*
X306048Y81719D02*X306848D01*
X305648Y82119D02*X306048Y81719D01*
Y83479D02*X306848D01*
X307248Y84519D02*Y83879D01*
Y83079D02*Y82119D01*
Y83079D02*X306848Y83479D01*
X307248Y83879D02*X306848Y83479D01*
X308208Y82119D02*X308608Y81719D01*
X308208Y84519D02*Y82119D01*
Y84519D02*X308608Y84919D01*
X309408D01*
X309808Y84519D01*
Y82119D01*
X309408Y81719D02*X309808Y82119D01*
X308608Y81719D02*X309408D01*
X308208Y82519D02*X309808Y84119D01*
X298474Y79194D02*X300074D01*
X300474Y78794D01*
Y77994D01*
X300074Y77594D02*X300474Y77994D01*
X298874Y77594D02*X300074D01*
X298874Y79194D02*Y75994D01*
X299514Y77594D02*X300474Y75994D01*
X301434Y78794D02*X301834Y79194D01*
X303034D01*
X303434Y78794D01*
Y77994D01*
X301434Y75994D02*X303434Y77994D01*
X301434Y75994D02*X303434D01*
X304394Y78554D02*X305034Y79194D01*
Y75994D01*
X304394D02*X305594D01*
X306554Y77194D02*X308154Y79194D01*
X306554Y77194D02*X308554D01*
X308154Y79194D02*Y75994D01*
X288636Y87294D02*X289676D01*
X288076Y87854D02*X288636Y87294D01*
X288076Y89934D02*Y87854D01*
Y89934D02*X288636Y90494D01*
X289676D01*
X290636Y90094D02*X291036Y90494D01*
X292236D01*
X292636Y90094D01*
Y89294D01*
X290636Y87294D02*X292636Y89294D01*
X290636Y87294D02*X292636D01*
X293596Y90094D02*X293996Y90494D01*
X295196D01*
X295596Y90094D01*
Y89294D01*
X293596Y87294D02*X295596Y89294D01*
X293596Y87294D02*X295596D01*
X296556Y90094D02*X296956Y90494D01*
X298156D01*
X298556Y90094D01*
Y89294D01*
X296556Y87294D02*X298556Y89294D01*
X296556Y87294D02*X298556D01*
X300566Y95994D02*X301606D01*
X300006Y96554D02*X300566Y95994D01*
X300006Y98634D02*Y96554D01*
Y98634D02*X300566Y99194D01*
X301606D01*
X302566Y98794D02*X302966Y99194D01*
X304166D01*
X304566Y98794D01*
Y97994D01*
X302566Y95994D02*X304566Y97994D01*
X302566Y95994D02*X304566D01*
X305526Y98554D02*X306166Y99194D01*
Y95994D01*
X305526D02*X306726D01*
X307686Y98794D02*X308086Y99194D01*
X309286D01*
X309686Y98794D01*
Y97994D01*
X307686Y95994D02*X309686Y97994D01*
X307686Y95994D02*X309686D01*
X300032Y70644D02*X301072D01*
X299472Y71204D02*X300032Y70644D01*
X299472Y73284D02*Y71204D01*
Y73284D02*X300032Y73844D01*
X301072D01*
X302032Y73444D02*X302432Y73844D01*
X303632D01*
X304032Y73444D01*
Y72644D01*
X302032Y70644D02*X304032Y72644D01*
X302032Y70644D02*X304032D01*
X304992Y73444D02*X305392Y73844D01*
X306192D01*
X306592Y73444D01*
X306192Y70644D02*X306592Y71044D01*
X305392Y70644D02*X306192D01*
X304992Y71044D02*X305392Y70644D01*
Y72404D02*X306192D01*
X306592Y73444D02*Y72804D01*
Y72004D02*Y71044D01*
Y72004D02*X306192Y72404D01*
X306592Y72804D02*X306192Y72404D01*
X307552Y73444D02*X307952Y73844D01*
X309152D01*
X309552Y73444D01*
Y72644D01*
X307552Y70644D02*X309552Y72644D01*
X307552Y70644D02*X309552D01*
X299225Y65496D02*X300265D01*
X298665Y66056D02*X299225Y65496D01*
X298665Y68136D02*Y66056D01*
Y68136D02*X299225Y68696D01*
X300265D01*
X301225Y68296D02*X301625Y68696D01*
X302825D01*
X303225Y68296D01*
Y67496D01*
X301225Y65496D02*X303225Y67496D01*
X301225Y65496D02*X303225D01*
X304185Y68296D02*X304585Y68696D01*
X305785D01*
X306185Y68296D01*
Y67496D01*
X304185Y65496D02*X306185Y67496D01*
X304185Y65496D02*X306185D01*
X307145Y68296D02*X307545Y68696D01*
X308345D01*
X308745Y68296D01*
X308345Y65496D02*X308745Y65896D01*
X307545Y65496D02*X308345D01*
X307145Y65896D02*X307545Y65496D01*
Y67256D02*X308345D01*
X308745Y68296D02*Y67656D01*
Y66856D02*Y65896D01*
Y66856D02*X308345Y67256D01*
X308745Y67656D02*X308345Y67256D01*
X280240Y88594D02*Y87554D01*
X279680Y86994D02*X280240Y87554D01*
X277600Y86994D02*X279680D01*
X277600D02*X277040Y87554D01*
Y88594D02*Y87554D01*
X277440Y89554D02*X277040Y89954D01*
Y91154D02*Y89954D01*
Y91154D02*X277440Y91554D01*
X278240D01*
X280240Y89554D02*X278240Y91554D01*
X280240D02*Y89554D01*
X277440Y92514D02*X277040Y92914D01*
Y94114D02*Y92914D01*
Y94114D02*X277440Y94514D01*
X278240D01*
X280240Y92514D02*X278240Y94514D01*
X280240D02*Y92514D01*
X279840Y95474D02*X280240Y95874D01*
X279200Y95474D02*X279840D01*
X279200D02*X278640Y96034D01*
Y96514D02*Y96034D01*
Y96514D02*X279200Y97074D01*
X279840D01*
X280240Y96674D02*X279840Y97074D01*
X280240Y96674D02*Y95874D01*
X278080Y95474D02*X278640Y96034D01*
X277440Y95474D02*X278080D01*
X277440D02*X277040Y95874D01*
Y96674D02*Y95874D01*
Y96674D02*X277440Y97074D01*
X278080D01*
X278640Y96514D02*X278080Y97074D01*
X264660Y98465D02*Y97425D01*
X264100Y96865D02*X264660Y97425D01*
X262020Y96865D02*X264100D01*
X262020D02*X261460Y97425D01*
Y98465D02*Y97425D01*
X261860Y99425D02*X261460Y99825D01*
Y101025D02*Y99825D01*
Y101025D02*X261860Y101425D01*
X262660D01*
X264660Y99425D02*X262660Y101425D01*
X264660D02*Y99425D01*
X261860Y102385D02*X261460Y102785D01*
Y103985D02*Y102785D01*
Y103985D02*X261860Y104385D01*
X262660D01*
X264660Y102385D02*X262660Y104385D01*
X264660D02*Y102385D01*
Y105745D02*X263060Y106945D01*
X261860D02*X263060D01*
X261460Y106545D02*X261860Y106945D01*
X261460Y106545D02*Y105745D01*
X261860Y105345D02*X261460Y105745D01*
X261860Y105345D02*X262660D01*
X263060Y105745D01*
Y106945D02*Y105745D01*
X169506Y121594D02*Y120554D01*
X168946Y119994D02*X169506Y120554D01*
X166866Y119994D02*X168946D01*
X166866D02*X166306Y120554D01*
Y121594D02*Y120554D01*
X166706Y122554D02*X166306Y122954D01*
Y124154D02*Y122954D01*
Y124154D02*X166706Y124554D01*
X167506D01*
X169506Y122554D02*X167506Y124554D01*
X169506D02*Y122554D01*
X169106Y125514D02*X169506Y125914D01*
X166706Y125514D02*X169106D01*
X166706D02*X166306Y125914D01*
Y126714D02*Y125914D01*
Y126714D02*X166706Y127114D01*
X169106D01*
X169506Y126714D02*X169106Y127114D01*
X169506Y126714D02*Y125914D01*
X168706Y125514D02*X167106Y127114D01*
X166706Y128074D02*X166306Y128474D01*
Y129674D02*Y128474D01*
Y129674D02*X166706Y130074D01*
X167506D01*
X169506Y128074D02*X167506Y130074D01*
X169506D02*Y128074D01*
X163065Y194194D02*Y190994D01*
X164665D01*
X165625Y193554D02*X166265Y194194D01*
Y190994D01*
X165625D02*X166825D01*
X167785Y191394D02*X168185Y190994D01*
X167785Y193794D02*Y191394D01*
Y193794D02*X168185Y194194D01*
X168985D01*
X169385Y193794D01*
Y191394D01*
X168985Y190994D02*X169385Y191394D01*
X168185Y190994D02*X168985D01*
X167785Y191794D02*X169385Y193394D01*
X170345Y193554D02*X170985Y194194D01*
Y190994D01*
X170345D02*X171545D01*
X167932Y142768D02*Y139568D01*
X169532D01*
X170492Y142368D02*X170892Y142768D01*
X172092D01*
X172492Y142368D01*
Y141568D01*
X170492Y139568D02*X172492Y141568D01*
X170492Y139568D02*X172492D01*
X173452Y139968D02*X173852Y139568D01*
X173452Y142368D02*Y139968D01*
Y142368D02*X173852Y142768D01*
X174652D01*
X175052Y142368D01*
Y139968D01*
X174652Y139568D02*X175052Y139968D01*
X173852Y139568D02*X174652D01*
X173452Y140368D02*X175052Y141968D01*
X176012Y142128D02*X176652Y142768D01*
Y139568D01*
X176012D02*X177212D01*
X177506Y119020D02*Y117980D01*
X176946Y117420D02*X177506Y117980D01*
X174866Y117420D02*X176946D01*
X174866D02*X174306Y117980D01*
Y119020D02*Y117980D01*
X174706Y119980D02*X174306Y120380D01*
Y121580D02*Y120380D01*
Y121580D02*X174706Y121980D01*
X175506D01*
X177506Y119980D02*X175506Y121980D01*
X177506D02*Y119980D01*
X174946Y122940D02*X174306Y123580D01*
X177506D01*
Y124140D02*Y122940D01*
X174946Y125100D02*X174306Y125740D01*
X177506D01*
Y126300D02*Y125100D01*
X178006Y188594D02*Y187554D01*
X177446Y186994D02*X178006Y187554D01*
X175366Y186994D02*X177446D01*
X175366D02*X174806Y187554D01*
Y188594D02*Y187554D01*
X175446Y189554D02*X174806Y190194D01*
X178006D01*
Y190754D02*Y189554D01*
X175206Y191714D02*X174806Y192114D01*
Y193314D02*Y192114D01*
Y193314D02*X175206Y193714D01*
X176006D01*
X178006Y191714D02*X176006Y193714D01*
X178006D02*Y191714D01*
X176806Y194674D02*X174806Y196274D01*
X176806Y196674D02*Y194674D01*
X174806Y196274D02*X178006D01*
X189806Y127994D02*X193006D01*
X189806Y129594D02*Y127994D01*
X191246Y129194D02*Y127994D01*
X189806Y130554D02*X193006D01*
Y132154D02*Y130554D01*
X190206Y133114D02*X189806Y133514D01*
Y134714D02*Y133514D01*
Y134714D02*X190206Y135114D01*
X191006D01*
X193006Y133114D02*X191006Y135114D01*
X193006D02*Y133114D01*
X192606Y136074D02*X193006Y136474D01*
X190206Y136074D02*X192606D01*
X190206D02*X189806Y136474D01*
Y137274D02*Y136474D01*
Y137274D02*X190206Y137674D01*
X192606D01*
X193006Y137274D02*X192606Y137674D01*
X193006Y137274D02*Y136474D01*
X192206Y136074D02*X190606Y137674D01*
X190206Y138634D02*X189806Y139034D01*
Y140234D02*Y139034D01*
Y140234D02*X190206Y140634D01*
X191006D01*
X193006Y138634D02*X191006Y140634D01*
X193006D02*Y138634D01*
X226806Y101994D02*X230006D01*
X226806Y103594D02*Y101994D01*
X228246Y103194D02*Y101994D01*
X226806Y104554D02*X230006D01*
Y106154D02*Y104554D01*
X227206Y107114D02*X226806Y107514D01*
Y108714D02*Y107514D01*
Y108714D02*X227206Y109114D01*
X228006D01*
X230006Y107114D02*X228006Y109114D01*
X230006D02*Y107114D01*
X229606Y110074D02*X230006Y110474D01*
X227206Y110074D02*X229606D01*
X227206D02*X226806Y110474D01*
Y111274D02*Y110474D01*
Y111274D02*X227206Y111674D01*
X229606D01*
X230006Y111274D02*X229606Y111674D01*
X230006Y111274D02*Y110474D01*
X229206Y110074D02*X227606Y111674D01*
X227206Y112634D02*X226806Y113034D01*
Y113834D02*Y113034D01*
Y113834D02*X227206Y114234D01*
X230006Y113834D02*X229606Y114234D01*
X230006Y113834D02*Y113034D01*
X229606Y112634D02*X230006Y113034D01*
X228246Y113834D02*Y113034D01*
X227206Y114234D02*X227846D01*
X228646D02*X229606D01*
X228646D02*X228246Y113834D01*
X227846Y114234D02*X228246Y113834D01*
X229254Y208156D02*X230854D01*
X231254Y207756D01*
Y206956D01*
X230854Y206556D02*X231254Y206956D01*
X229654Y206556D02*X230854D01*
X229654Y208156D02*Y204956D01*
X230294Y206556D02*X231254Y204956D01*
X232214Y207516D02*X232854Y208156D01*
Y204956D01*
X232214D02*X233414D01*
X234374Y205356D02*X234774Y204956D01*
X234374Y207756D02*Y205356D01*
Y207756D02*X234774Y208156D01*
X235574D01*
X235974Y207756D01*
Y205356D01*
X235574Y204956D02*X235974Y205356D01*
X234774Y204956D02*X235574D01*
X234374Y205756D02*X235974Y207356D01*
X236934Y206156D02*X238534Y208156D01*
X236934Y206156D02*X238934D01*
X238534Y208156D02*Y204956D01*
X221106Y172094D02*Y169294D01*
X221506Y168894D01*
X222306D01*
X222706Y169294D01*
Y172094D02*Y169294D01*
X223666Y171454D02*X224306Y172094D01*
Y168894D01*
X223666D02*X224866D01*
X225826Y169294D02*X226226Y168894D01*
X225826Y171694D02*Y169294D01*
Y171694D02*X226226Y172094D01*
X227026D01*
X227426Y171694D01*
Y169294D01*
X227026Y168894D02*X227426Y169294D01*
X226226Y168894D02*X227026D01*
X225826Y169694D02*X227426Y171294D01*
X228386Y171694D02*X228786Y172094D01*
X229986D01*
X230386Y171694D01*
Y170894D01*
X228386Y168894D02*X230386Y170894D01*
X228386Y168894D02*X230386D01*
X224992Y175994D02*X226032D01*
X224432Y176554D02*X224992Y175994D01*
X224432Y178634D02*Y176554D01*
Y178634D02*X224992Y179194D01*
X226032D01*
X226992Y178554D02*X227632Y179194D01*
Y175994D01*
X226992D02*X228192D01*
X229152Y178554D02*X229792Y179194D01*
Y175994D01*
X229152D02*X230352D01*
X231312Y176394D02*X231712Y175994D01*
X231312Y178794D02*Y176394D01*
Y178794D02*X231712Y179194D01*
X232512D01*
X232912Y178794D01*
Y176394D01*
X232512Y175994D02*X232912Y176394D01*
X231712Y175994D02*X232512D01*
X231312Y176794D02*X232912Y178394D01*
X164006Y164194D02*Y161394D01*
X164406Y160994D01*
X165206D01*
X165606Y161394D01*
Y164194D02*Y161394D01*
X166566Y163794D02*X166966Y164194D01*
X168166D01*
X168566Y163794D01*
Y162994D01*
X166566Y160994D02*X168566Y162994D01*
X166566Y160994D02*X168566D01*
X169526Y161394D02*X169926Y160994D01*
X169526Y163794D02*Y161394D01*
Y163794D02*X169926Y164194D01*
X170726D01*
X171126Y163794D01*
Y161394D01*
X170726Y160994D02*X171126Y161394D01*
X169926Y160994D02*X170726D01*
X169526Y161794D02*X171126Y163394D01*
X172086Y163794D02*X172486Y164194D01*
X173686D01*
X174086Y163794D01*
Y162994D01*
X172086Y160994D02*X174086Y162994D01*
X172086Y160994D02*X174086D01*
X190342Y161644D02*X191382D01*
X189782Y162204D02*X190342Y161644D01*
X189782Y164284D02*Y162204D01*
Y164284D02*X190342Y164844D01*
X191382D01*
X192342Y164444D02*X192742Y164844D01*
X193942D01*
X194342Y164444D01*
Y163644D01*
X192342Y161644D02*X194342Y163644D01*
X192342Y161644D02*X194342D01*
X195302Y164204D02*X195942Y164844D01*
Y161644D01*
X195302D02*X196502D01*
X197462Y162044D02*X197862Y161644D01*
X197462Y164444D02*Y162044D01*
Y164444D02*X197862Y164844D01*
X198662D01*
X199062Y164444D01*
Y162044D01*
X198662Y161644D02*X199062Y162044D01*
X197862Y161644D02*X198662D01*
X197462Y162444D02*X199062Y164044D01*
X165628Y172194D02*Y168994D01*
Y172194D02*X167228D01*
X165628Y170754D02*X166828D01*
X168188Y172194D02*Y168994D01*
X169788D01*
X170748Y171554D02*X171388Y172194D01*
Y168994D01*
X170748D02*X171948D01*
X172908Y169394D02*X173308Y168994D01*
X172908Y171794D02*Y169394D01*
Y171794D02*X173308Y172194D01*
X174108D01*
X174508Y171794D01*
Y169394D01*
X174108Y168994D02*X174508Y169394D01*
X173308Y168994D02*X174108D01*
X172908Y169794D02*X174508Y171394D01*
X175468Y171554D02*X176108Y172194D01*
Y168994D01*
X175468D02*X176668D01*
X184066Y184420D02*X185106D01*
X183506Y184980D02*X184066Y184420D01*
X183506Y187060D02*Y184980D01*
Y187060D02*X184066Y187620D01*
X185106D01*
X186066Y186980D02*X186706Y187620D01*
Y184420D01*
X186066D02*X187266D01*
X188226Y187220D02*X188626Y187620D01*
X189826D01*
X190226Y187220D01*
Y186420D01*
X188226Y184420D02*X190226Y186420D01*
X188226Y184420D02*X190226D01*
X191186Y187220D02*X191586Y187620D01*
X192386D01*
X192786Y187220D01*
X192386Y184420D02*X192786Y184820D01*
X191586Y184420D02*X192386D01*
X191186Y184820D02*X191586Y184420D01*
Y186180D02*X192386D01*
X192786Y187220D02*Y186580D01*
Y185780D02*Y184820D01*
Y185780D02*X192386Y186180D01*
X192786Y186580D02*X192386Y186180D01*
X197066Y192494D02*X198106D01*
X196506Y193054D02*X197066Y192494D01*
X196506Y195134D02*Y193054D01*
Y195134D02*X197066Y195694D01*
X198106D01*
X199066Y195054D02*X199706Y195694D01*
Y192494D01*
X199066D02*X200266D01*
X201226Y195294D02*X201626Y195694D01*
X202826D01*
X203226Y195294D01*
Y194494D01*
X201226Y192494D02*X203226Y194494D01*
X201226Y192494D02*X203226D01*
X204186Y195294D02*X204586Y195694D01*
X205786D01*
X206186Y195294D01*
Y194494D01*
X204186Y192494D02*X206186Y194494D01*
X204186Y192494D02*X206186D01*
X199656Y104039D02*Y102439D01*
Y104039D02*X200056Y104439D01*
X200856D01*
X201256Y104039D02*X200856Y104439D01*
X201256Y104039D02*Y102839D01*
X199656D02*X202856D01*
X201256Y103479D02*X202856Y104439D01*
X200056Y105399D02*X199656Y105799D01*
Y106999D02*Y105799D01*
Y106999D02*X200056Y107399D01*
X200856D01*
X202856Y105399D02*X200856Y107399D01*
X202856D02*Y105399D01*
X202456Y108359D02*X202856Y108759D01*
X200056Y108359D02*X202456D01*
X200056D02*X199656Y108759D01*
Y109559D02*Y108759D01*
Y109559D02*X200056Y109959D01*
X202456D01*
X202856Y109559D02*X202456Y109959D01*
X202856Y109559D02*Y108759D01*
X202056Y108359D02*X200456Y109959D01*
X202456Y110919D02*X202856Y111319D01*
X201816Y110919D02*X202456D01*
X201816D02*X201256Y111479D01*
Y111959D02*Y111479D01*
Y111959D02*X201816Y112519D01*
X202456D01*
X202856Y112119D02*X202456Y112519D01*
X202856Y112119D02*Y111319D01*
X200696Y110919D02*X201256Y111479D01*
X200056Y110919D02*X200696D01*
X200056D02*X199656Y111319D01*
Y112119D02*Y111319D01*
Y112119D02*X200056Y112519D01*
X200696D01*
X201256Y111959D02*X200696Y112519D01*
X199732Y130094D02*Y128494D01*
Y130094D02*X200132Y130494D01*
X200932D01*
X201332Y130094D02*X200932Y130494D01*
X201332Y130094D02*Y128894D01*
X199732D02*X202932D01*
X201332Y129534D02*X202932Y130494D01*
X200132Y131454D02*X199732Y131854D01*
Y133054D02*Y131854D01*
Y133054D02*X200132Y133454D01*
X200932D01*
X202932Y131454D02*X200932Y133454D01*
X202932D02*Y131454D01*
X202532Y134414D02*X202932Y134814D01*
X200132Y134414D02*X202532D01*
X200132D02*X199732Y134814D01*
Y135614D02*Y134814D01*
Y135614D02*X200132Y136014D01*
X202532D01*
X202932Y135614D02*X202532Y136014D01*
X202932Y135614D02*Y134814D01*
X202132Y134414D02*X200532Y136014D01*
X201732Y136974D02*X199732Y138574D01*
X201732Y138974D02*Y136974D01*
X199732Y138574D02*X202932D01*
X182506Y193694D02*X184106D01*
X184506Y193294D01*
Y192494D01*
X184106Y192094D02*X184506Y192494D01*
X182906Y192094D02*X184106D01*
X182906Y193694D02*Y190494D01*
X183546Y192094D02*X184506Y190494D01*
X185466Y193054D02*X186106Y193694D01*
Y190494D01*
X185466D02*X186666D01*
X187626Y190894D02*X188026Y190494D01*
X187626Y193294D02*Y190894D01*
Y193294D02*X188026Y193694D01*
X188826D01*
X189226Y193294D01*
Y190894D01*
X188826Y190494D02*X189226Y190894D01*
X188026Y190494D02*X188826D01*
X187626Y191294D02*X189226Y192894D01*
X190586Y190494D02*X191786Y192094D01*
Y193294D02*Y192094D01*
X191386Y193694D02*X191786Y193294D01*
X190586Y193694D02*X191386D01*
X190186Y193294D02*X190586Y193694D01*
X190186Y193294D02*Y192494D01*
X190586Y192094D01*
X191786D01*
X204006Y127694D02*X205606D01*
X206006Y127294D01*
Y126494D01*
X205606Y126094D02*X206006Y126494D01*
X204406Y126094D02*X205606D01*
X204406Y127694D02*Y124494D01*
X205046Y126094D02*X206006Y124494D01*
X206966Y127294D02*X207366Y127694D01*
X208566D01*
X208966Y127294D01*
Y126494D01*
X206966Y124494D02*X208966Y126494D01*
X206966Y124494D02*X208966D01*
X209926Y124894D02*X210326Y124494D01*
X209926Y127294D02*Y124894D01*
Y127294D02*X210326Y127694D01*
X211126D01*
X211526Y127294D01*
Y124894D01*
X211126Y124494D02*X211526Y124894D01*
X210326Y124494D02*X211126D01*
X209926Y125294D02*X211526Y126894D01*
X212886Y124494D02*X214486Y127694D01*
X212486D02*X214486D01*
X318656Y197694D02*Y194894D01*
X319056Y194494D01*
X319856D01*
X320256Y194894D01*
Y197694D02*Y194894D01*
X321216Y197054D02*X321856Y197694D01*
Y194494D01*
X321216D02*X322416D01*
X323376Y194894D02*X323776Y194494D01*
X323376Y197294D02*Y194894D01*
Y197294D02*X323776Y197694D01*
X324576D01*
X324976Y197294D01*
Y194894D01*
X324576Y194494D02*X324976Y194894D01*
X323776Y194494D02*X324576D01*
X323376Y195294D02*X324976Y196894D01*
X325936Y194894D02*X326336Y194494D01*
X325936Y197294D02*Y194894D01*
Y197294D02*X326336Y197694D01*
X327136D01*
X327536Y197294D01*
Y194894D01*
X327136Y194494D02*X327536Y194894D01*
X326336Y194494D02*X327136D01*
X325936Y195294D02*X327536Y196894D01*
X313504Y211191D02*Y209591D01*
Y211191D02*X313904Y211591D01*
X314704D01*
X315104Y211191D02*X314704Y211591D01*
X315104Y211191D02*Y209991D01*
X313504D02*X316704D01*
X315104Y210631D02*X316704Y211591D01*
X314144Y212551D02*X313504Y213191D01*
X316704D01*
Y213751D02*Y212551D01*
X316304Y214711D02*X316704Y215111D01*
X313904Y214711D02*X316304D01*
X313904D02*X313504Y215111D01*
Y215911D02*Y215111D01*
Y215911D02*X313904Y216311D01*
X316304D01*
X316704Y215911D02*X316304Y216311D01*
X316704Y215911D02*Y215111D01*
X315904Y214711D02*X314304Y216311D01*
X313504Y218471D02*X313904Y218871D01*
X313504Y218471D02*Y217671D01*
X313904Y217271D02*X313504Y217671D01*
X313904Y217271D02*X316304D01*
X316704Y217671D01*
X314944Y218471D02*X315344Y218871D01*
X314944Y218471D02*Y217271D01*
X316704Y218471D02*Y217671D01*
Y218471D02*X316304Y218871D01*
X315344D02*X316304D01*
X330356Y211944D02*Y210904D01*
X329796Y210344D02*X330356Y210904D01*
X327716Y210344D02*X329796D01*
X327716D02*X327156Y210904D01*
Y211944D02*Y210904D01*
X327796Y212904D02*X327156Y213544D01*
X330356D01*
Y214104D02*Y212904D01*
X329956Y215064D02*X330356Y215464D01*
X327556Y215064D02*X329956D01*
X327556D02*X327156Y215464D01*
Y216264D02*Y215464D01*
Y216264D02*X327556Y216664D01*
X329956D01*
X330356Y216264D02*X329956Y216664D01*
X330356Y216264D02*Y215464D01*
X329556Y215064D02*X327956Y216664D01*
X327796Y217624D02*X327156Y218264D01*
X330356D01*
Y218824D02*Y217624D01*
X326001Y212133D02*Y211093D01*
X325441Y210533D02*X326001Y211093D01*
X323361Y210533D02*X325441D01*
X323361D02*X322801Y211093D01*
Y212133D02*Y211093D01*
X323441Y213093D02*X322801Y213733D01*
X326001D01*
Y214293D02*Y213093D01*
X325601Y215253D02*X326001Y215653D01*
X323201Y215253D02*X325601D01*
X323201D02*X322801Y215653D01*
Y216453D02*Y215653D01*
Y216453D02*X323201Y216853D01*
X325601D01*
X326001Y216453D02*X325601Y216853D01*
X326001Y216453D02*Y215653D01*
X325201Y215253D02*X323601Y216853D01*
X324801Y217813D02*X322801Y219413D01*
X324801Y219813D02*Y217813D01*
X322801Y219413D02*X326001D01*
X314484Y156768D02*X316084D01*
X316484Y156368D01*
Y155568D01*
X316084Y155168D02*X316484Y155568D01*
X314884Y155168D02*X316084D01*
X314884Y156768D02*Y153568D01*
X315524Y155168D02*X316484Y153568D01*
X317444Y156128D02*X318084Y156768D01*
Y153568D01*
X317444D02*X318644D01*
X319604Y153968D02*X320004Y153568D01*
X319604Y156368D02*Y153968D01*
Y156368D02*X320004Y156768D01*
X320804D01*
X321204Y156368D01*
Y153968D01*
X320804Y153568D02*X321204Y153968D01*
X320004Y153568D02*X320804D01*
X319604Y154368D02*X321204Y155968D01*
X322164Y156368D02*X322564Y156768D01*
X323364D01*
X323764Y156368D01*
X323364Y153568D02*X323764Y153968D01*
X322564Y153568D02*X323364D01*
X322164Y153968D02*X322564Y153568D01*
Y155328D02*X323364D01*
X323764Y156368D02*Y155728D01*
Y154928D02*Y153968D01*
Y154928D02*X323364Y155328D01*
X323764Y155728D02*X323364Y155328D01*
X304640Y165292D02*X305680D01*
X304080Y165852D02*X304640Y165292D01*
X304080Y167932D02*Y165852D01*
Y167932D02*X304640Y168492D01*
X305680D01*
X306640Y167852D02*X307280Y168492D01*
Y165292D01*
X306640D02*X307840D01*
X308800Y167852D02*X309440Y168492D01*
Y165292D01*
X308800D02*X310000D01*
X312160Y168492D02*X312560Y168092D01*
X311360Y168492D02*X312160D01*
X310960Y168092D02*X311360Y168492D01*
X310960Y168092D02*Y165692D01*
X311360Y165292D01*
X312160Y167052D02*X312560Y166652D01*
X310960Y167052D02*X312160D01*
X311360Y165292D02*X312160D01*
X312560Y165692D01*
Y166652D02*Y165692D01*
X304511Y159644D02*X305551D01*
X303951Y160204D02*X304511Y159644D01*
X303951Y162284D02*Y160204D01*
Y162284D02*X304511Y162844D01*
X305551D01*
X306511Y162204D02*X307151Y162844D01*
Y159644D01*
X306511D02*X307711D01*
X308671Y162204D02*X309311Y162844D01*
Y159644D01*
X308671D02*X309871D01*
X311231D02*X312831Y162844D01*
X310831D02*X312831D01*
X325011Y147644D02*X326051D01*
X324451Y148204D02*X325011Y147644D01*
X324451Y150284D02*Y148204D01*
Y150284D02*X325011Y150844D01*
X326051D01*
X327011Y150204D02*X327651Y150844D01*
Y147644D01*
X327011D02*X328211D01*
X329171Y150204D02*X329811Y150844D01*
Y147644D01*
X329171D02*X330371D01*
X331331Y150444D02*X331731Y150844D01*
X332531D01*
X332931Y150444D01*
X332531Y147644D02*X332931Y148044D01*
X331731Y147644D02*X332531D01*
X331331Y148044D02*X331731Y147644D01*
Y149404D02*X332531D01*
X332931Y150444D02*Y149804D01*
Y149004D02*Y148044D01*
Y149004D02*X332531Y149404D01*
X332931Y149804D02*X332531Y149404D01*
X399196Y136094D02*Y135054D01*
X398636Y134494D02*X399196Y135054D01*
X396556Y134494D02*X398636D01*
X396556D02*X395996Y135054D01*
Y136094D02*Y135054D01*
X396396Y137054D02*X395996Y137454D01*
Y138654D02*Y137454D01*
Y138654D02*X396396Y139054D01*
X397196D01*
X399196Y137054D02*X397196Y139054D01*
X399196D02*Y137054D01*
X398796Y140014D02*X399196Y140414D01*
X396396Y140014D02*X398796D01*
X396396D02*X395996Y140414D01*
Y141214D02*Y140414D01*
Y141214D02*X396396Y141614D01*
X398796D01*
X399196Y141214D02*X398796Y141614D01*
X399196Y141214D02*Y140414D01*
X398396Y140014D02*X396796Y141614D01*
X396636Y142574D02*X395996Y143214D01*
X399196D01*
Y143774D02*Y142574D01*
X352006Y148594D02*Y147554D01*
X351446Y146994D02*X352006Y147554D01*
X349366Y146994D02*X351446D01*
X349366D02*X348806Y147554D01*
Y148594D02*Y147554D01*
X349446Y149554D02*X348806Y150194D01*
X352006D01*
Y150754D02*Y149554D01*
X349206Y151714D02*X348806Y152114D01*
Y153314D02*Y152114D01*
Y153314D02*X349206Y153714D01*
X350006D01*
X352006Y151714D02*X350006Y153714D01*
X352006D02*Y151714D01*
X351606Y154674D02*X352006Y155074D01*
X349206Y154674D02*X351606D01*
X349206D02*X348806Y155074D01*
Y155874D02*Y155074D01*
Y155874D02*X349206Y156274D01*
X351606D01*
X352006Y155874D02*X351606Y156274D01*
X352006Y155874D02*Y155074D01*
X351206Y154674D02*X349606Y156274D01*
X357506Y148594D02*Y147554D01*
X356946Y146994D02*X357506Y147554D01*
X354866Y146994D02*X356946D01*
X354866D02*X354306Y147554D01*
Y148594D02*Y147554D01*
X354946Y149554D02*X354306Y150194D01*
X357506D01*
Y150754D02*Y149554D01*
X354706Y151714D02*X354306Y152114D01*
Y153314D02*Y152114D01*
Y153314D02*X354706Y153714D01*
X355506D01*
X357506Y151714D02*X355506Y153714D01*
X357506D02*Y151714D01*
X354946Y154674D02*X354306Y155314D01*
X357506D01*
Y155874D02*Y154674D01*
X346506Y148594D02*Y147554D01*
X345946Y146994D02*X346506Y147554D01*
X343866Y146994D02*X345946D01*
X343866D02*X343306Y147554D01*
Y148594D02*Y147554D01*
X343946Y149554D02*X343306Y150194D01*
X346506D01*
Y150754D02*Y149554D01*
X343946Y151714D02*X343306Y152354D01*
X346506D01*
Y152914D02*Y151714D01*
Y154274D02*X344906Y155474D01*
X343706D02*X344906D01*
X343306Y155074D02*X343706Y155474D01*
X343306Y155074D02*Y154274D01*
X343706Y153874D02*X343306Y154274D01*
X343706Y153874D02*X344506D01*
X344906Y154274D01*
Y155474D02*Y154274D01*
X340856Y148539D02*Y147499D01*
X340296Y146939D02*X340856Y147499D01*
X338216Y146939D02*X340296D01*
X338216D02*X337656Y147499D01*
Y148539D02*Y147499D01*
X338296Y149499D02*X337656Y150139D01*
X340856D01*
Y150699D02*Y149499D01*
X338296Y151659D02*X337656Y152299D01*
X340856D01*
Y152859D02*Y151659D01*
X340456Y153819D02*X340856Y154219D01*
X339816Y153819D02*X340456D01*
X339816D02*X339256Y154379D01*
Y154859D02*Y154379D01*
Y154859D02*X339816Y155419D01*
X340456D01*
X340856Y155019D02*X340456Y155419D01*
X340856Y155019D02*Y154219D01*
X338696Y153819D02*X339256Y154379D01*
X338056Y153819D02*X338696D01*
X338056D02*X337656Y154219D01*
Y155019D02*Y154219D01*
Y155019D02*X338056Y155419D01*
X338696D01*
X339256Y154859D02*X338696Y155419D01*
X391006Y130784D02*Y129744D01*
X390446Y129184D02*X391006Y129744D01*
X388366Y129184D02*X390446D01*
X388366D02*X387806Y129744D01*
Y130784D02*Y129744D01*
X388206Y131744D02*X387806Y132144D01*
Y133344D02*Y132144D01*
Y133344D02*X388206Y133744D01*
X389006D01*
X391006Y131744D02*X389006Y133744D01*
X391006D02*Y131744D01*
X390606Y134704D02*X391006Y135104D01*
X388206Y134704D02*X390606D01*
X388206D02*X387806Y135104D01*
Y135904D02*Y135104D01*
Y135904D02*X388206Y136304D01*
X390606D01*
X391006Y135904D02*X390606Y136304D01*
X391006Y135904D02*Y135104D01*
X390206Y134704D02*X388606Y136304D01*
X391006Y137664D02*X389406Y138864D01*
X388206D02*X389406D01*
X387806Y138464D02*X388206Y138864D01*
X387806Y138464D02*Y137664D01*
X388206Y137264D02*X387806Y137664D01*
X388206Y137264D02*X389006D01*
X389406Y137664D01*
Y138864D02*Y137664D01*
X396000Y97000D02*X396500Y96500D01*
X394500Y97000D02*X396000D01*
X394000Y96500D02*X394500Y97000D01*
X394000Y96500D02*Y95500D01*
X394500Y95000D01*
X396000D01*
X396500Y94500D01*
Y93500D01*
X396000Y93000D02*X396500Y93500D01*
X394500Y93000D02*X396000D01*
X394000Y93500D02*X394500Y93000D01*
X397700Y97000D02*Y93000D01*
Y94500D02*X398200Y95000D01*
X399200D01*
X399700Y94500D01*
Y93000D01*
X400900Y94500D02*X402900Y97000D01*
X400900Y94500D02*X403400D01*
X402900Y97000D02*Y93000D01*
X404600Y93500D02*X405100Y93000D01*
X404600Y96500D02*Y93500D01*
Y96500D02*X405100Y97000D01*
X406100D01*
X406600Y96500D01*
Y93500D01*
X406100Y93000D02*X406600Y93500D01*
X405100Y93000D02*X406100D01*
X404600Y94000D02*X406600Y96000D01*
X407800Y96500D02*X408300Y97000D01*
X409300D01*
X409800Y96500D01*
X409300Y93000D02*X409800Y93500D01*
X408300Y93000D02*X409300D01*
X407800Y93500D02*X408300Y93000D01*
Y95200D02*X409300D01*
X409800Y96500D02*Y95700D01*
Y94700D02*Y93500D01*
Y94700D02*X409300Y95200D01*
X409800Y95700D02*X409300Y95200D01*
X381256Y111494D02*X382296D01*
X380696Y112054D02*X381256Y111494D01*
X380696Y114134D02*Y112054D01*
Y114134D02*X381256Y114694D01*
X382296D01*
X383256Y114294D02*X383656Y114694D01*
X384856D01*
X385256Y114294D01*
Y113494D01*
X383256Y111494D02*X385256Y113494D01*
X383256Y111494D02*X385256D01*
X386216Y114054D02*X386856Y114694D01*
Y111494D01*
X386216D02*X387416D01*
X388376Y111894D02*X388776Y111494D01*
X388376Y112534D02*Y111894D01*
Y112534D02*X388936Y113094D01*
X389416D01*
X389976Y112534D01*
Y111894D01*
X389576Y111494D02*X389976Y111894D01*
X388776Y111494D02*X389576D01*
X388376Y113654D02*X388936Y113094D01*
X388376Y114294D02*Y113654D01*
Y114294D02*X388776Y114694D01*
X389576D01*
X389976Y114294D01*
Y113654D01*
X389416Y113094D02*X389976Y113654D01*
X374806Y157184D02*X377606D01*
X378006Y157584D01*
Y158384D02*Y157584D01*
Y158384D02*X377606Y158784D01*
X374806D02*X377606D01*
X375206Y159744D02*X374806Y160144D01*
Y161344D02*Y160144D01*
Y161344D02*X375206Y161744D01*
X376006D01*
X378006Y159744D02*X376006Y161744D01*
X378006D02*Y159744D01*
X377606Y162704D02*X378006Y163104D01*
X375206Y162704D02*X377606D01*
X375206D02*X374806Y163104D01*
Y163904D02*Y163104D01*
Y163904D02*X375206Y164304D01*
X377606D01*
X378006Y163904D02*X377606Y164304D01*
X378006Y163904D02*Y163104D01*
X377206Y162704D02*X375606Y164304D01*
X375446Y165264D02*X374806Y165904D01*
X378006D01*
Y166464D02*Y165264D01*
X374306Y124243D02*X377506D01*
Y125843D02*Y124243D01*
X374706Y126803D02*X374306Y127203D01*
Y128403D02*Y127203D01*
Y128403D02*X374706Y128803D01*
X375506D01*
X377506Y126803D02*X375506Y128803D01*
X377506D02*Y126803D01*
X377106Y129763D02*X377506Y130163D01*
X374706Y129763D02*X377106D01*
X374706D02*X374306Y130163D01*
Y130963D02*Y130163D01*
Y130963D02*X374706Y131363D01*
X377106D01*
X377506Y130963D02*X377106Y131363D01*
X377506Y130963D02*Y130163D01*
X376706Y129763D02*X375106Y131363D01*
X376306Y132323D02*X374306Y133923D01*
X376306Y134323D02*Y132323D01*
X374306Y133923D02*X377506D01*
X375006Y93694D02*Y90894D01*
X375406Y90494D01*
X376206D01*
X376606Y90894D01*
Y93694D02*Y90894D01*
X377966Y90494D02*X379166Y92094D01*
Y93294D02*Y92094D01*
X378766Y93694D02*X379166Y93294D01*
X377966Y93694D02*X378766D01*
X377566Y93294D02*X377966Y93694D01*
X377566Y93294D02*Y92494D01*
X377966Y92094D01*
X379166D01*
X380126Y90894D02*X380526Y90494D01*
X380126Y93294D02*Y90894D01*
Y93294D02*X380526Y93694D01*
X381326D01*
X381726Y93294D01*
Y90894D01*
X381326Y90494D02*X381726Y90894D01*
X380526Y90494D02*X381326D01*
X380126Y91294D02*X381726Y92894D01*
X382686Y93054D02*X383326Y93694D01*
Y90494D01*
X382686D02*X383886D01*
X329380Y123994D02*X332580D01*
Y125594D02*Y123994D01*
X329780Y126554D02*X329380Y126954D01*
Y128154D02*Y126954D01*
Y128154D02*X329780Y128554D01*
X330580D01*
X332580Y126554D02*X330580Y128554D01*
X332580D02*Y126554D01*
X332180Y129514D02*X332580Y129914D01*
X329780Y129514D02*X332180D01*
X329780D02*X329380Y129914D01*
Y130714D02*Y129914D01*
Y130714D02*X329780Y131114D01*
X332180D01*
X332580Y130714D02*X332180Y131114D01*
X332580Y130714D02*Y129914D01*
X331780Y129514D02*X330180Y131114D01*
X329780Y132074D02*X329380Y132474D01*
Y133274D02*Y132474D01*
Y133274D02*X329780Y133674D01*
X332580Y133274D02*X332180Y133674D01*
X332580Y133274D02*Y132474D01*
X332180Y132074D02*X332580Y132474D01*
X330820Y133274D02*Y132474D01*
X329780Y133674D02*X330420D01*
X331220D02*X332180D01*
X331220D02*X330820Y133274D01*
X330420Y133674D02*X330820Y133274D01*
X330506Y93694D02*Y90894D01*
X330906Y90494D01*
X331706D01*
X332106Y90894D01*
Y93694D02*Y90894D01*
X333466Y90494D02*X334666Y92094D01*
Y93294D02*Y92094D01*
X334266Y93694D02*X334666Y93294D01*
X333466Y93694D02*X334266D01*
X333066Y93294D02*X333466Y93694D01*
X333066Y93294D02*Y92494D01*
X333466Y92094D01*
X334666D01*
X335626Y90894D02*X336026Y90494D01*
X335626Y93294D02*Y90894D01*
Y93294D02*X336026Y93694D01*
X336826D01*
X337226Y93294D01*
Y90894D01*
X336826Y90494D02*X337226Y90894D01*
X336026Y90494D02*X336826D01*
X335626Y91294D02*X337226Y92894D01*
X338186Y93294D02*X338586Y93694D01*
X339786D01*
X340186Y93294D01*
Y92494D01*
X338186Y90494D02*X340186Y92494D01*
X338186Y90494D02*X340186D01*
X341506Y108694D02*Y105494D01*
Y108694D02*X343106D01*
X341506Y107254D02*X342706D01*
X344066Y108694D02*Y105494D01*
X345666D01*
X346626Y108294D02*X347026Y108694D01*
X348226D01*
X348626Y108294D01*
Y107494D01*
X346626Y105494D02*X348626Y107494D01*
X346626Y105494D02*X348626D01*
X349586Y105894D02*X349986Y105494D01*
X349586Y108294D02*Y105894D01*
Y108294D02*X349986Y108694D01*
X350786D01*
X351186Y108294D01*
Y105894D01*
X350786Y105494D02*X351186Y105894D01*
X349986Y105494D02*X350786D01*
X349586Y106294D02*X351186Y107894D01*
X352146Y105894D02*X352546Y105494D01*
X352146Y108294D02*Y105894D01*
Y108294D02*X352546Y108694D01*
X353346D01*
X353746Y108294D01*
Y105894D01*
X353346Y105494D02*X353746Y105894D01*
X352546Y105494D02*X353346D01*
X352146Y106294D02*X353746Y107894D01*
X324066Y99994D02*X325106D01*
X323506Y100554D02*X324066Y99994D01*
X323506Y102634D02*Y100554D01*
Y102634D02*X324066Y103194D01*
X325106D01*
X326066Y102794D02*X326466Y103194D01*
X327666D01*
X328066Y102794D01*
Y101994D01*
X326066Y99994D02*X328066Y101994D01*
X326066Y99994D02*X328066D01*
X329026Y100394D02*X329426Y99994D01*
X329026Y102794D02*Y100394D01*
Y102794D02*X329426Y103194D01*
X330226D01*
X330626Y102794D01*
Y100394D01*
X330226Y99994D02*X330626Y100394D01*
X329426Y99994D02*X330226D01*
X329026Y100794D02*X330626Y102394D01*
X332786Y103194D02*X333186Y102794D01*
X331986Y103194D02*X332786D01*
X331586Y102794D02*X331986Y103194D01*
X331586Y102794D02*Y100394D01*
X331986Y99994D01*
X332786Y101754D02*X333186Y101354D01*
X331586Y101754D02*X332786D01*
X331986Y99994D02*X332786D01*
X333186Y100394D01*
Y101354D02*Y100394D01*
X392232Y42294D02*X393832D01*
X394232Y41894D01*
Y41094D01*
X393832Y40694D02*X394232Y41094D01*
X392632Y40694D02*X393832D01*
X392632Y42294D02*Y39094D01*
X393272Y40694D02*X394232Y39094D01*
X395592D02*X396792Y40694D01*
Y41894D02*Y40694D01*
X396392Y42294D02*X396792Y41894D01*
X395592Y42294D02*X396392D01*
X395192Y41894D02*X395592Y42294D01*
X395192Y41894D02*Y41094D01*
X395592Y40694D01*
X396792D01*
X397752Y39494D02*X398152Y39094D01*
X397752Y41894D02*Y39494D01*
Y41894D02*X398152Y42294D01*
X398952D01*
X399352Y41894D01*
Y39494D01*
X398952Y39094D02*X399352Y39494D01*
X398152Y39094D02*X398952D01*
X397752Y39894D02*X399352Y41494D01*
X400312Y41654D02*X400952Y42294D01*
Y39094D01*
X400312D02*X401512D01*
X376040Y38694D02*X377080D01*
X375480Y39254D02*X376040Y38694D01*
X375480Y41334D02*Y39254D01*
Y41334D02*X376040Y41894D01*
X377080D01*
X378440Y38694D02*X379640Y40294D01*
Y41494D02*Y40294D01*
X379240Y41894D02*X379640Y41494D01*
X378440Y41894D02*X379240D01*
X378040Y41494D02*X378440Y41894D01*
X378040Y41494D02*Y40694D01*
X378440Y40294D01*
X379640D01*
X380600Y39094D02*X381000Y38694D01*
X380600Y41494D02*Y39094D01*
Y41494D02*X381000Y41894D01*
X381800D01*
X382200Y41494D01*
Y39094D01*
X381800Y38694D02*X382200Y39094D01*
X381000Y38694D02*X381800D01*
X380600Y39494D02*X382200Y41094D01*
X383160Y41254D02*X383800Y41894D01*
Y38694D01*
X383160D02*X384360D01*
X388996Y163189D02*Y161589D01*
Y163189D02*X389396Y163589D01*
X390196D01*
X390596Y163189D02*X390196Y163589D01*
X390596Y163189D02*Y161989D01*
X388996D02*X392196D01*
X390596Y162629D02*X392196Y163589D01*
X389396Y164549D02*X388996Y164949D01*
Y166149D02*Y164949D01*
Y166149D02*X389396Y166549D01*
X390196D01*
X392196Y164549D02*X390196Y166549D01*
X392196D02*Y164549D01*
X391796Y167509D02*X392196Y167909D01*
X389396Y167509D02*X391796D01*
X389396D02*X388996Y167909D01*
Y168709D02*Y167909D01*
Y168709D02*X389396Y169109D01*
X391796D01*
X392196Y168709D02*X391796Y169109D01*
X392196Y168709D02*Y167909D01*
X391396Y167509D02*X389796Y169109D01*
X389396Y170069D02*X388996Y170469D01*
Y171669D02*Y170469D01*
Y171669D02*X389396Y172069D01*
X390196D01*
X392196Y170069D02*X390196Y172069D01*
X392196D02*Y170069D01*
X388506Y215694D02*Y212494D01*
X390106D01*
X391066Y215294D02*X391466Y215694D01*
X392666D01*
X393066Y215294D01*
Y214494D01*
X391066Y212494D02*X393066Y214494D01*
X391066Y212494D02*X393066D01*
X394026Y212894D02*X394426Y212494D01*
X394026Y215294D02*Y212894D01*
Y215294D02*X394426Y215694D01*
X395226D01*
X395626Y215294D01*
Y212894D01*
X395226Y212494D02*X395626Y212894D01*
X394426Y212494D02*X395226D01*
X394026Y213294D02*X395626Y214894D01*
X396586Y215694D02*X398186D01*
X396586D02*Y214094D01*
X396986Y214494D01*
X397786D01*
X398186Y214094D01*
Y212894D01*
X397786Y212494D02*X398186Y212894D01*
X396986Y212494D02*X397786D01*
X396586Y212894D02*X396986Y212494D01*
X392566Y197804D02*X393606D01*
X392006Y198364D02*X392566Y197804D01*
X392006Y200444D02*Y198364D01*
Y200444D02*X392566Y201004D01*
X393606D01*
X394566Y200604D02*X394966Y201004D01*
X396166D01*
X396566Y200604D01*
Y199804D01*
X394566Y197804D02*X396566Y199804D01*
X394566Y197804D02*X396566D01*
X397526Y198204D02*X397926Y197804D01*
X397526Y200604D02*Y198204D01*
Y200604D02*X397926Y201004D01*
X398726D01*
X399126Y200604D01*
Y198204D01*
X398726Y197804D02*X399126Y198204D01*
X397926Y197804D02*X398726D01*
X397526Y198604D02*X399126Y200204D01*
X400086Y199004D02*X401686Y201004D01*
X400086Y199004D02*X402086D01*
X401686Y201004D02*Y197804D01*
X378620Y194018D02*Y192978D01*
X378060Y192418D02*X378620Y192978D01*
X375980Y192418D02*X378060D01*
X375980D02*X375420Y192978D01*
Y194018D02*Y192978D01*
X375820Y194978D02*X375420Y195378D01*
Y196578D02*Y195378D01*
Y196578D02*X375820Y196978D01*
X376620D01*
X378620Y194978D02*X376620Y196978D01*
X378620D02*Y194978D01*
X378220Y197938D02*X378620Y198338D01*
X375820Y197938D02*X378220D01*
X375820D02*X375420Y198338D01*
Y199138D02*Y198338D01*
Y199138D02*X375820Y199538D01*
X378220D01*
X378620Y199138D02*X378220Y199538D01*
X378620Y199138D02*Y198338D01*
X377820Y197938D02*X376220Y199538D01*
X378220Y200498D02*X378620Y200898D01*
X377580Y200498D02*X378220D01*
X377580D02*X377020Y201058D01*
Y201538D02*Y201058D01*
Y201538D02*X377580Y202098D01*
X378220D01*
X378620Y201698D02*X378220Y202098D01*
X378620Y201698D02*Y200898D01*
X376460Y200498D02*X377020Y201058D01*
X375820Y200498D02*X376460D01*
X375820D02*X375420Y200898D01*
Y201698D02*Y200898D01*
Y201698D02*X375820Y202098D01*
X376460D01*
X377020Y201538D02*X376460Y202098D01*
X388141Y191344D02*X389741D01*
X390141Y190944D01*
Y190144D01*
X389741Y189744D02*X390141Y190144D01*
X388541Y189744D02*X389741D01*
X388541Y191344D02*Y188144D01*
X389181Y189744D02*X390141Y188144D01*
X391101Y190944D02*X391501Y191344D01*
X392701D01*
X393101Y190944D01*
Y190144D01*
X391101Y188144D02*X393101Y190144D01*
X391101Y188144D02*X393101D01*
X394061Y188544D02*X394461Y188144D01*
X394061Y190944D02*Y188544D01*
Y190944D02*X394461Y191344D01*
X395261D01*
X395661Y190944D01*
Y188544D01*
X395261Y188144D02*X395661Y188544D01*
X394461Y188144D02*X395261D01*
X394061Y188944D02*X395661Y190544D01*
X396621Y190944D02*X397021Y191344D01*
X397821D01*
X398221Y190944D01*
X397821Y188144D02*X398221Y188544D01*
X397021Y188144D02*X397821D01*
X396621Y188544D02*X397021Y188144D01*
Y189904D02*X397821D01*
X398221Y190944D02*Y190304D01*
Y189504D02*Y188544D01*
Y189504D02*X397821Y189904D01*
X398221Y190304D02*X397821Y189904D01*
X391066Y203994D02*X392106D01*
X390506Y204554D02*X391066Y203994D01*
X390506Y206634D02*Y204554D01*
Y206634D02*X391066Y207194D01*
X392106D01*
X393066Y206794D02*X393466Y207194D01*
X394666D01*
X395066Y206794D01*
Y205994D01*
X393066Y203994D02*X395066Y205994D01*
X393066Y203994D02*X395066D01*
X396026Y206554D02*X396666Y207194D01*
Y203994D01*
X396026D02*X397226D01*
X398186Y206794D02*X398586Y207194D01*
X399386D01*
X399786Y206794D01*
X399386Y203994D02*X399786Y204394D01*
X398586Y203994D02*X399386D01*
X398186Y204394D02*X398586Y203994D01*
Y205754D02*X399386D01*
X399786Y206794D02*Y206154D01*
Y205354D02*Y204394D01*
Y205354D02*X399386Y205754D01*
X399786Y206154D02*X399386Y205754D01*
X353011Y173144D02*X354051D01*
X352451Y173704D02*X353011Y173144D01*
X352451Y175784D02*Y173704D01*
Y175784D02*X353011Y176344D01*
X354051D01*
X355011Y175704D02*X355651Y176344D01*
Y173144D01*
X355011D02*X356211D01*
X357171Y173544D02*X357571Y173144D01*
X357171Y175944D02*Y173544D01*
Y175944D02*X357571Y176344D01*
X358371D01*
X358771Y175944D01*
Y173544D01*
X358371Y173144D02*X358771Y173544D01*
X357571Y173144D02*X358371D01*
X357171Y173944D02*X358771Y175544D01*
X359731Y173544D02*X360131Y173144D01*
X359731Y175944D02*Y173544D01*
Y175944D02*X360131Y176344D01*
X360931D01*
X361331Y175944D01*
Y173544D01*
X360931Y173144D02*X361331Y173544D01*
X360131Y173144D02*X360931D01*
X359731Y173944D02*X361331Y175544D01*
X353916Y178994D02*X354956D01*
X353356Y179554D02*X353916Y178994D01*
X353356Y181634D02*Y179554D01*
Y181634D02*X353916Y182194D01*
X354956D01*
X355916Y181554D02*X356556Y182194D01*
Y178994D01*
X355916D02*X357116D01*
X358076Y179394D02*X358476Y178994D01*
X358076Y181794D02*Y179394D01*
Y181794D02*X358476Y182194D01*
X359276D01*
X359676Y181794D01*
Y179394D01*
X359276Y178994D02*X359676Y179394D01*
X358476Y178994D02*X359276D01*
X358076Y179794D02*X359676Y181394D01*
X360636Y179394D02*X361036Y178994D01*
X360636Y180034D02*Y179394D01*
Y180034D02*X361196Y180594D01*
X361676D01*
X362236Y180034D01*
Y179394D01*
X361836Y178994D02*X362236Y179394D01*
X361036Y178994D02*X361836D01*
X360636Y181154D02*X361196Y180594D01*
X360636Y181794D02*Y181154D01*
Y181794D02*X361036Y182194D01*
X361836D01*
X362236Y181794D01*
Y181154D01*
X361676Y180594D02*X362236Y181154D01*
X353511Y185644D02*X354551D01*
X352951Y186204D02*X353511Y185644D01*
X352951Y188284D02*Y186204D01*
Y188284D02*X353511Y188844D01*
X354551D01*
X355511Y188204D02*X356151Y188844D01*
Y185644D01*
X355511D02*X356711D01*
X357671Y186044D02*X358071Y185644D01*
X357671Y188444D02*Y186044D01*
Y188444D02*X358071Y188844D01*
X358871D01*
X359271Y188444D01*
Y186044D01*
X358871Y185644D02*X359271Y186044D01*
X358071Y185644D02*X358871D01*
X357671Y186444D02*X359271Y188044D01*
X360631Y185644D02*X362231Y188844D01*
X360231D02*X362231D01*
X352006Y194694D02*X353606D01*
X354006Y194294D01*
Y193494D01*
X353606Y193094D02*X354006Y193494D01*
X352406Y193094D02*X353606D01*
X352406Y194694D02*Y191494D01*
X353046Y193094D02*X354006Y191494D01*
X354966Y194054D02*X355606Y194694D01*
Y191494D01*
X354966D02*X356166D01*
X357126Y191894D02*X357526Y191494D01*
X357126Y194294D02*Y191894D01*
Y194294D02*X357526Y194694D01*
X358326D01*
X358726Y194294D01*
Y191894D01*
X358326Y191494D02*X358726Y191894D01*
X357526Y191494D02*X358326D01*
X357126Y192294D02*X358726Y193894D01*
X359686Y191894D02*X360086Y191494D01*
X359686Y194294D02*Y191894D01*
Y194294D02*X360086Y194694D01*
X360886D01*
X361286Y194294D01*
Y191894D01*
X360886Y191494D02*X361286Y191894D01*
X360086Y191494D02*X360886D01*
X359686Y192294D02*X361286Y193894D01*
X352566Y198494D02*X353606D01*
X352006Y199054D02*X352566Y198494D01*
X352006Y201134D02*Y199054D01*
Y201134D02*X352566Y201694D01*
X353606D01*
X354566Y201054D02*X355206Y201694D01*
Y198494D01*
X354566D02*X355766D01*
X356726Y198894D02*X357126Y198494D01*
X356726Y201294D02*Y198894D01*
Y201294D02*X357126Y201694D01*
X357926D01*
X358326Y201294D01*
Y198894D01*
X357926Y198494D02*X358326Y198894D01*
X357126Y198494D02*X357926D01*
X356726Y199294D02*X358326Y200894D01*
X359286Y201694D02*X360886D01*
X359286D02*Y200094D01*
X359686Y200494D01*
X360486D01*
X360886Y200094D01*
Y198894D01*
X360486Y198494D02*X360886Y198894D01*
X359686Y198494D02*X360486D01*
X359286Y198894D02*X359686Y198494D01*
X352806Y167544D02*X353846D01*
X352246Y168104D02*X352806Y167544D01*
X352246Y170184D02*Y168104D01*
Y170184D02*X352806Y170744D01*
X353846D01*
X354806Y170104D02*X355446Y170744D01*
Y167544D01*
X354806D02*X356006D01*
X356966Y167944D02*X357366Y167544D01*
X356966Y170344D02*Y167944D01*
Y170344D02*X357366Y170744D01*
X358166D01*
X358566Y170344D01*
Y167944D01*
X358166Y167544D02*X358566Y167944D01*
X357366Y167544D02*X358166D01*
X356966Y168344D02*X358566Y169944D01*
X360726Y170744D02*X361126Y170344D01*
X359926Y170744D02*X360726D01*
X359526Y170344D02*X359926Y170744D01*
X359526Y170344D02*Y167944D01*
X359926Y167544D01*
X360726Y169304D02*X361126Y168904D01*
X359526Y169304D02*X360726D01*
X359926Y167544D02*X360726D01*
X361126Y167944D01*
Y168904D02*Y167944D01*
M02*
