G04 start of page 11 for group -4078 idx -4078 *
G04 Title: (unknown), bottomsilk *
G04 Creator: pcb 1.99z *
G04 CreationDate: Sat 25 Jul 2020 11:48:19 AM GMT UTC *
G04 For: mark *
G04 Format: Gerber/RS-274X *
G04 PCB-Dimensions (mil): 4300.00 3300.00 *
G04 PCB-Coordinate-Origin: lower left *
%MOIN*%
%FSLAX25Y25*%
%LNBOTTOMSILK*%
%ADD194C,0.0250*%
%ADD193C,0.0079*%
%ADD192C,0.0061*%
%ADD191C,0.0098*%
%ADD190C,0.0100*%
%ADD189C,0.0080*%
%ADD188C,0.0118*%
%ADD187C,0.0060*%
G54D187*X313006Y223494D02*X318506D01*
X195266Y169734D02*Y166254D01*
X198746D01*
Y169734D02*Y166254D01*
X195266Y169734D02*X198746D01*
X194806Y170194D03*
X152809Y139758D02*Y141569D01*
Y139758D02*X163163D01*
X152809Y160230D02*Y158419D01*
Y160230D02*X163163D01*
X180368Y139758D02*Y141569D01*
X170014Y139758D02*X180368D01*
Y158419D02*Y160230D01*
X170014D02*X180368D01*
G54D188*X149589Y136994D03*
G54D189*X192613Y103739D02*X193399D01*
X192613Y109249D02*X193399D01*
G54D187*X125106Y195144D03*
G54D189*X129144Y134254D02*X133868D01*
X129144Y141734D02*X133868D01*
X145761Y206387D02*Y205601D01*
X140251Y206387D02*Y205601D01*
G54D187*X181203Y217730D02*Y215919D01*
X170848Y217730D02*X181203D01*
Y199069D02*Y197258D01*
X170848D02*X181203D01*
X153644Y217730D02*Y215919D01*
Y217730D02*X163998D01*
X153644Y199069D02*Y197258D01*
X163998D01*
G54D188*X184423Y220494D03*
G54D190*X138506Y261994D02*Y242994D01*
Y261994D02*X169506D01*
Y242994D01*
X138506D02*X151506D01*
X156506D02*X169506D01*
X156506D02*G75*G03X151506Y242994I-2500J0D01*G01*
G54D189*X149113Y241249D02*X149899D01*
X149113Y235739D02*X149899D01*
G54D187*X307500Y122500D03*
G54D189*X224761Y175887D02*Y175101D01*
X219251Y175887D02*Y175101D01*
G54D191*X242695Y152683D03*
G54D192*X264742Y174730D02*Y173156D01*
X263167Y174730D02*X264742D01*
X263167Y154258D02*X264742D01*
Y155833D02*Y154258D01*
X244270Y155833D02*Y154258D01*
X245844D01*
X244270Y174730D02*X245844D01*
X244270D02*Y173156D01*
G54D193*X264459Y197628D03*
X263474Y200187D02*Y198415D01*
X261703D02*X263474D01*
X261703Y208258D02*X263474D01*
Y206486D01*
X253632Y208258D02*Y206486D01*
Y208258D02*X255404D01*
X253632Y198415D02*X255404D01*
X253632Y200187D02*Y198415D01*
G54D189*X193761Y196387D02*Y195601D01*
X188251Y196387D02*Y195601D01*
X249613Y180739D02*X250399D01*
X249613Y186249D02*X250399D01*
X266570D02*X267356D01*
X266570Y180739D02*X267356D01*
G54D194*X232006Y192494D03*
G54D187*X211506Y193994D02*X228006D01*
X211506Y194994D02*Y193994D01*
X228006Y194994D02*Y193994D01*
X211506Y212994D02*X228006D01*
X211506D02*Y211994D01*
X228006Y212994D02*Y211994D01*
G54D189*X147761Y161887D02*Y161101D01*
X142251Y161887D02*Y161101D01*
X119761Y149887D02*Y149101D01*
X114251Y149887D02*Y149101D01*
X117644Y168734D02*X122368D01*
X117644Y161254D02*X122368D01*
G54D190*X93495Y253821D02*X111369D01*
Y242167D01*
X93495D02*X111369D01*
X93495Y253810D02*Y242167D01*
X110833Y64431D02*Y46557D01*
X99179D02*X110833D01*
X99179Y64431D02*Y46557D01*
Y64431D02*X110822D01*
X124506Y119494D02*Y100494D01*
Y119494D02*X155506D01*
Y100494D01*
X124506D02*X137506D01*
X142506D02*X155506D01*
X142506D02*G75*G03X137506Y100494I-2500J0D01*G01*
G54D189*X160251Y96387D02*Y95601D01*
X165761Y96387D02*Y95601D01*
G54D187*X275730Y248394D03*
G54D189*X246246Y255856D02*Y251132D01*
X238766Y255856D02*Y251132D01*
X260144Y268234D02*X264868D01*
X260144Y260754D02*X264868D01*
G54D190*X372184Y228170D03*
G54D187*X358626Y218294D02*X363493Y216712D01*
X356407Y223569D02*X356163Y222820D01*
X357867Y228062D02*X357623Y227313D01*
X368389Y219675D02*X368145Y218926D01*
X369848Y224169D02*X369605Y223420D01*
X362519Y230276D02*X364578Y229607D01*
X249746Y109234D02*Y105754D01*
X246266Y109234D02*X249746D01*
X246266D02*Y105754D01*
X249746D01*
X250206Y105294D03*
X270187Y109234D02*Y105754D01*
X266707Y109234D02*X270187D01*
X266707D02*Y105754D01*
X270187D01*
X270647Y105294D03*
X226104Y257500D02*Y258540D01*
X225544Y259100D02*X226104Y258540D01*
X223464Y259100D02*X225544D01*
X223464D02*X222904Y258540D01*
Y257500D02*Y258540D01*
X223304Y256540D02*X222904Y256140D01*
Y255340D02*Y256140D01*
Y255340D02*X223304Y254940D01*
X226104Y255340D02*X225704Y254940D01*
X226104Y255340D02*Y256140D01*
X225704Y256540D02*X226104Y256140D01*
X224344Y255340D02*Y256140D01*
X223304Y254940D02*X223944D01*
X224744D02*X225704D01*
X224744D02*X224344Y255340D01*
X223944Y254940D02*X224344Y255340D01*
X225704Y253980D02*X226104Y253580D01*
X223304Y253980D02*X225704D01*
X223304D02*X222904Y253580D01*
Y252780D02*Y253580D01*
Y252780D02*X223304Y252380D01*
X225704D01*
X226104Y252780D02*X225704Y252380D01*
X226104Y252780D02*Y253580D01*
X225304Y253980D02*X223704Y252380D01*
X224904Y251420D02*X222904Y249820D01*
X224904Y249420D02*Y251420D01*
X222904Y249820D02*X226104D01*
X224663Y233557D02*X226263D01*
X226663Y233957D01*
Y234757D01*
X226263Y235157D02*X226663Y234757D01*
X225063Y235157D02*X226263D01*
X225063Y233557D02*Y236757D01*
X225703Y235157D02*X226663Y236757D01*
X227623Y233957D02*X228023Y233557D01*
X228823D01*
X229223Y233957D01*
X228823Y236757D02*X229223Y236357D01*
X228023Y236757D02*X228823D01*
X227623Y236357D02*X228023Y236757D01*
Y234997D02*X228823D01*
X229223Y233957D02*Y234597D01*
Y235397D02*Y236357D01*
Y235397D02*X228823Y234997D01*
X229223Y234597D02*X228823Y234997D01*
X230183Y236357D02*X230583Y236757D01*
X230183Y233957D02*Y236357D01*
Y233957D02*X230583Y233557D01*
X231383D01*
X231783Y233957D01*
Y236357D01*
X231383Y236757D02*X231783Y236357D01*
X230583Y236757D02*X231383D01*
X230183Y235957D02*X231783Y234357D01*
X232743Y235557D02*X234343Y233557D01*
X232743Y235557D02*X234743D01*
X234343Y233557D02*Y236757D01*
X212006Y215288D02*X213606D01*
X212806D02*Y218488D01*
X214566Y215688D02*X214966Y215288D01*
X215766D01*
X216166Y215688D01*
X215766Y218488D02*X216166Y218088D01*
X214966Y218488D02*X215766D01*
X214566Y218088D02*X214966Y218488D01*
Y216728D02*X215766D01*
X216166Y215688D02*Y216328D01*
Y217128D02*Y218088D01*
Y217128D02*X215766Y216728D01*
X216166Y216328D02*X215766Y216728D01*
X217126Y218088D02*X217526Y218488D01*
X217126Y215688D02*Y218088D01*
Y215688D02*X217526Y215288D01*
X218326D01*
X218726Y215688D01*
Y218088D01*
X218326Y218488D02*X218726Y218088D01*
X217526Y218488D02*X218326D01*
X217126Y217688D02*X218726Y216088D01*
X219686Y218088D02*X220086Y218488D01*
X219686Y215688D02*Y218088D01*
Y215688D02*X220086Y215288D01*
X220886D01*
X221286Y215688D01*
Y218088D01*
X220886Y218488D02*X221286Y218088D01*
X220086Y218488D02*X220886D01*
X219686Y217688D02*X221286Y216088D01*
X248656Y252044D02*X250256D01*
X250656Y252444D01*
Y253244D01*
X250256Y253644D02*X250656Y253244D01*
X249056Y253644D02*X250256D01*
X249056Y252044D02*Y255244D01*
X249696Y253644D02*X250656Y255244D01*
X251616Y252444D02*X252016Y252044D01*
X252816D01*
X253216Y252444D01*
X252816Y255244D02*X253216Y254844D01*
X252016Y255244D02*X252816D01*
X251616Y254844D02*X252016Y255244D01*
Y253484D02*X252816D01*
X253216Y252444D02*Y253084D01*
Y253884D02*Y254844D01*
Y253884D02*X252816Y253484D01*
X253216Y253084D02*X252816Y253484D01*
X254176Y254844D02*X254576Y255244D01*
X254176Y252444D02*Y254844D01*
Y252444D02*X254576Y252044D01*
X255376D01*
X255776Y252444D01*
Y254844D01*
X255376Y255244D02*X255776Y254844D01*
X254576Y255244D02*X255376D01*
X254176Y254444D02*X255776Y252844D01*
X256736Y252684D02*X257376Y252044D01*
Y255244D01*
X256736D02*X257936D01*
X269176Y214699D02*X270216D01*
X268616Y214139D02*X269176Y214699D01*
X268616Y212059D02*Y214139D01*
Y212059D02*X269176Y211499D01*
X270216D01*
X271176Y211899D02*X271576Y211499D01*
X272376D01*
X272776Y211899D01*
X272376Y214699D02*X272776Y214299D01*
X271576Y214699D02*X272376D01*
X271176Y214299D02*X271576Y214699D01*
Y212939D02*X272376D01*
X272776Y211899D02*Y212539D01*
Y213339D02*Y214299D01*
Y213339D02*X272376Y212939D01*
X272776Y212539D02*X272376Y212939D01*
X273736Y212139D02*X274376Y211499D01*
Y214699D01*
X273736D02*X274936D01*
X275896Y212139D02*X276536Y211499D01*
Y214699D01*
X275896D02*X277096D01*
X269176Y219699D02*X270216D01*
X268616Y219139D02*X269176Y219699D01*
X268616Y217059D02*Y219139D01*
Y217059D02*X269176Y216499D01*
X270216D01*
X271176Y216899D02*X271576Y216499D01*
X272376D01*
X272776Y216899D01*
X272376Y219699D02*X272776Y219299D01*
X271576Y219699D02*X272376D01*
X271176Y219299D02*X271576Y219699D01*
Y217939D02*X272376D01*
X272776Y216899D02*Y217539D01*
Y218339D02*Y219299D01*
Y218339D02*X272376Y217939D01*
X272776Y217539D02*X272376Y217939D01*
X273736Y217139D02*X274376Y216499D01*
Y219699D01*
X273736D02*X274936D01*
X275896Y216899D02*X276296Y216499D01*
X277496D01*
X277896Y216899D01*
Y217699D01*
X275896Y219699D02*X277896Y217699D01*
X275896Y219699D02*X277896D01*
X257813Y271144D02*X259413D01*
X259813Y271544D01*
Y272344D01*
X259413Y272744D02*X259813Y272344D01*
X258213Y272744D02*X259413D01*
X258213Y271144D02*Y274344D01*
X258853Y272744D02*X259813Y274344D01*
X260773Y271544D02*X261173Y271144D01*
X261973D01*
X262373Y271544D01*
X261973Y274344D02*X262373Y273944D01*
X261173Y274344D02*X261973D01*
X260773Y273944D02*X261173Y274344D01*
Y272584D02*X261973D01*
X262373Y271544D02*Y272184D01*
Y272984D02*Y273944D01*
Y272984D02*X261973Y272584D01*
X262373Y272184D02*X261973Y272584D01*
X263333Y273944D02*X263733Y274344D01*
X263333Y271544D02*Y273944D01*
Y271544D02*X263733Y271144D01*
X264533D01*
X264933Y271544D01*
Y273944D01*
X264533Y274344D02*X264933Y273944D01*
X263733Y274344D02*X264533D01*
X263333Y273544D02*X264933Y271944D01*
X265893Y273944D02*X266293Y274344D01*
X265893Y271544D02*Y273944D01*
Y271544D02*X266293Y271144D01*
X267093D01*
X267493Y271544D01*
Y273944D01*
X267093Y274344D02*X267493Y273944D01*
X266293Y274344D02*X267093D01*
X265893Y273544D02*X267493Y271944D01*
X275566Y274394D02*X276606D01*
X275006Y273834D02*X275566Y274394D01*
X275006Y271754D02*Y273834D01*
Y271754D02*X275566Y271194D01*
X276606D01*
X277566Y271594D02*X277966Y271194D01*
X278766D01*
X279166Y271594D01*
X278766Y274394D02*X279166Y273994D01*
X277966Y274394D02*X278766D01*
X277566Y273994D02*X277966Y274394D01*
Y272634D02*X278766D01*
X279166Y271594D02*Y272234D01*
Y273034D02*Y273994D01*
Y273034D02*X278766Y272634D01*
X279166Y272234D02*X278766Y272634D01*
X280126Y273994D02*X280526Y274394D01*
X280126Y271594D02*Y273994D01*
Y271594D02*X280526Y271194D01*
X281326D01*
X281726Y271594D01*
Y273994D01*
X281326Y274394D02*X281726Y273994D01*
X280526Y274394D02*X281326D01*
X280126Y273594D02*X281726Y271994D01*
X282686Y271834D02*X283326Y271194D01*
Y274394D01*
X282686D02*X283886D01*
X241359Y274244D02*X242399D01*
X240799Y273684D02*X241359Y274244D01*
X240799Y271604D02*Y273684D01*
Y271604D02*X241359Y271044D01*
X242399D01*
X243359Y271444D02*X243759Y271044D01*
X244559D01*
X244959Y271444D01*
X244559Y274244D02*X244959Y273844D01*
X243759Y274244D02*X244559D01*
X243359Y273844D02*X243759Y274244D01*
Y272484D02*X244559D01*
X244959Y271444D02*Y272084D01*
Y272884D02*Y273844D01*
Y272884D02*X244559Y272484D01*
X244959Y272084D02*X244559Y272484D01*
X245919Y273844D02*X246319Y274244D01*
X245919Y271444D02*Y273844D01*
Y271444D02*X246319Y271044D01*
X247119D01*
X247519Y271444D01*
Y273844D01*
X247119Y274244D02*X247519Y273844D01*
X246319Y274244D02*X247119D01*
X245919Y273444D02*X247519Y271844D01*
X248479Y273844D02*X248879Y274244D01*
X248479Y271444D02*Y273844D01*
Y271444D02*X248879Y271044D01*
X249679D01*
X250079Y271444D01*
Y273844D01*
X249679Y274244D02*X250079Y273844D01*
X248879Y274244D02*X249679D01*
X248479Y273444D02*X250079Y271844D01*
X213992Y187494D02*X215032D01*
X213432Y186934D02*X213992Y187494D01*
X213432Y184854D02*Y186934D01*
Y184854D02*X213992Y184294D01*
X215032D01*
X215992Y184694D02*X216392Y184294D01*
X217192D01*
X217592Y184694D01*
X217192Y187494D02*X217592Y187094D01*
X216392Y187494D02*X217192D01*
X215992Y187094D02*X216392Y187494D01*
Y185734D02*X217192D01*
X217592Y184694D02*Y185334D01*
Y186134D02*Y187094D01*
Y186134D02*X217192Y185734D01*
X217592Y185334D02*X217192Y185734D01*
X218552Y184934D02*X219192Y184294D01*
Y187494D01*
X218552D02*X219752D01*
X221112D02*X222312Y185894D01*
Y184694D02*Y185894D01*
X221912Y184294D02*X222312Y184694D01*
X221112Y184294D02*X221912D01*
X220712Y184694D02*X221112Y184294D01*
X220712Y184694D02*Y185494D01*
X221112Y185894D01*
X222312D01*
X217006Y178894D02*Y179934D01*
X216446Y180494D02*X217006Y179934D01*
X214366Y180494D02*X216446D01*
X214366D02*X213806Y179934D01*
Y178894D02*Y179934D01*
X214206Y177934D02*X213806Y177534D01*
Y176734D02*Y177534D01*
Y176734D02*X214206Y176334D01*
X217006Y176734D02*X216606Y176334D01*
X217006Y176734D02*Y177534D01*
X216606Y177934D02*X217006Y177534D01*
X215246Y176734D02*Y177534D01*
X214206Y176334D02*X214846D01*
X215646D02*X216606D01*
X215646D02*X215246Y176734D01*
X214846Y176334D02*X215246Y176734D01*
X213806Y173774D02*Y175374D01*
X215406D01*
X215006Y174974D01*
Y174174D02*Y174974D01*
Y174174D02*X215406Y173774D01*
X216606D01*
X217006Y174174D02*X216606Y173774D01*
X217006Y174174D02*Y174974D01*
X216606Y175374D02*X217006Y174974D01*
X214206Y172814D02*X213806Y172414D01*
Y171614D02*Y172414D01*
Y171614D02*X214206Y171214D01*
X217006Y171614D02*X216606Y171214D01*
X217006Y171614D02*Y172414D01*
X216606Y172814D02*X217006Y172414D01*
X215246Y171614D02*Y172414D01*
X214206Y171214D02*X214846D01*
X215646D02*X216606D01*
X215646D02*X215246Y171614D01*
X214846Y171214D02*X215246Y171614D01*
X246506Y195894D02*Y196934D01*
X245946Y197494D02*X246506Y196934D01*
X243866Y197494D02*X245946D01*
X243866D02*X243306Y196934D01*
Y195894D02*Y196934D01*
X243706Y194934D02*X243306Y194534D01*
Y193734D02*Y194534D01*
Y193734D02*X243706Y193334D01*
X246506Y193734D02*X246106Y193334D01*
X246506Y193734D02*Y194534D01*
X246106Y194934D02*X246506Y194534D01*
X244746Y193734D02*Y194534D01*
X243706Y193334D02*X244346D01*
X245146D02*X246106D01*
X245146D02*X244746Y193734D01*
X244346Y193334D02*X244746Y193734D01*
X243706Y192374D02*X243306Y191974D01*
Y191174D02*Y191974D01*
Y191174D02*X243706Y190774D01*
X246506Y191174D02*X246106Y190774D01*
X246506Y191174D02*Y191974D01*
X246106Y192374D02*X246506Y191974D01*
X244746Y191174D02*Y191974D01*
X243706Y190774D02*X244346D01*
X245146D02*X246106D01*
X245146D02*X244746Y191174D01*
X244346Y190774D02*X244746Y191174D01*
X246106Y189814D02*X246506Y189414D01*
X243706Y189814D02*X246106D01*
X243706D02*X243306Y189414D01*
Y188614D02*Y189414D01*
Y188614D02*X243706Y188214D01*
X246106D01*
X246506Y188614D02*X246106Y188214D01*
X246506Y188614D02*Y189414D01*
X245706Y189814D02*X244106Y188214D01*
X233806Y194935D02*X237006D01*
Y193335D02*Y194935D01*
X234206Y192375D02*X233806Y191975D01*
Y191175D02*Y191975D01*
Y191175D02*X234206Y190775D01*
X237006Y191175D02*X236606Y190775D01*
X237006Y191175D02*Y191975D01*
X236606Y192375D02*X237006Y191975D01*
X235246Y191175D02*Y191975D01*
X234206Y190775D02*X234846D01*
X235646D02*X236606D01*
X235646D02*X235246Y191175D01*
X234846Y190775D02*X235246Y191175D01*
X236606Y189815D02*X237006Y189415D01*
X234206Y189815D02*X236606D01*
X234206D02*X233806Y189415D01*
Y188615D02*Y189415D01*
Y188615D02*X234206Y188215D01*
X236606D01*
X237006Y188615D02*X236606Y188215D01*
X237006Y188615D02*Y189415D01*
X236206Y189815D02*X234606Y188215D01*
X235806Y187255D02*X233806Y185655D01*
X235806Y185255D02*Y187255D01*
X233806Y185655D02*X237006D01*
X233303Y181150D02*X234903D01*
X235303Y181550D01*
Y182350D01*
X234903Y182750D02*X235303Y182350D01*
X233703Y182750D02*X234903D01*
X233703Y181150D02*Y184350D01*
X234343Y182750D02*X235303Y184350D01*
X236263Y181550D02*X236663Y181150D01*
X237463D01*
X237863Y181550D01*
X237463Y184350D02*X237863Y183950D01*
X236663Y184350D02*X237463D01*
X236263Y183950D02*X236663Y184350D01*
Y182590D02*X237463D01*
X237863Y181550D02*Y182190D01*
Y182990D02*Y183950D01*
Y182990D02*X237463Y182590D01*
X237863Y182190D02*X237463Y182590D01*
X238823Y181790D02*X239463Y181150D01*
Y184350D01*
X238823D02*X240023D01*
X240983Y181150D02*X242583D01*
X240983D02*Y182750D01*
X241383Y182350D01*
X242183D01*
X242583Y182750D01*
Y183950D01*
X242183Y184350D02*X242583Y183950D01*
X241383Y184350D02*X242183D01*
X240983Y183950D02*X241383Y184350D01*
X234506Y168894D02*Y169934D01*
X233946Y170494D02*X234506Y169934D01*
X231866Y170494D02*X233946D01*
X231866D02*X231306Y169934D01*
Y168894D02*Y169934D01*
X231706Y167934D02*X231306Y167534D01*
Y166734D02*Y167534D01*
Y166734D02*X231706Y166334D01*
X234506Y166734D02*X234106Y166334D01*
X234506Y166734D02*Y167534D01*
X234106Y167934D02*X234506Y167534D01*
X232746Y166734D02*Y167534D01*
X231706Y166334D02*X232346D01*
X233146D02*X234106D01*
X233146D02*X232746Y166734D01*
X232346Y166334D02*X232746Y166734D01*
X231306Y163774D02*Y165374D01*
X232906D01*
X232506Y164974D01*
Y164174D02*Y164974D01*
Y164174D02*X232906Y163774D01*
X234106D01*
X234506Y164174D02*X234106Y163774D01*
X234506Y164174D02*Y164974D01*
X234106Y165374D02*X234506Y164974D01*
X234106Y162814D02*X234506Y162414D01*
X231706Y162814D02*X234106D01*
X231706D02*X231306Y162414D01*
Y161614D02*Y162414D01*
Y161614D02*X231706Y161214D01*
X234106D01*
X234506Y161614D02*X234106Y161214D01*
X234506Y161614D02*Y162414D01*
X233706Y162814D02*X232106Y161214D01*
X241006Y170394D02*Y171434D01*
X240446Y171994D02*X241006Y171434D01*
X238366Y171994D02*X240446D01*
X238366D02*X237806Y171434D01*
Y170394D02*Y171434D01*
X238206Y169434D02*X237806Y169034D01*
Y168234D02*Y169034D01*
Y168234D02*X238206Y167834D01*
X241006Y168234D02*X240606Y167834D01*
X241006Y168234D02*Y169034D01*
X240606Y169434D02*X241006Y169034D01*
X239246Y168234D02*Y169034D01*
X238206Y167834D02*X238846D01*
X239646D02*X240606D01*
X239646D02*X239246Y168234D01*
X238846Y167834D02*X239246Y168234D01*
X239806Y166874D02*X237806Y165274D01*
X239806Y164874D02*Y166874D01*
X237806Y165274D02*X241006D01*
Y163514D02*X239406Y162314D01*
X238206D02*X239406D01*
X237806Y162714D02*X238206Y162314D01*
X237806Y162714D02*Y163514D01*
X238206Y163914D02*X237806Y163514D01*
X238206Y163914D02*X239006D01*
X239406Y163514D01*
Y162314D02*Y163514D01*
X232006Y152794D02*Y155594D01*
X232406Y155994D01*
X233206D01*
X233606Y155594D01*
Y152794D02*Y155594D01*
X234566Y153194D02*X234966Y152794D01*
X235766D01*
X236166Y153194D01*
X235766Y155994D02*X236166Y155594D01*
X234966Y155994D02*X235766D01*
X234566Y155594D02*X234966Y155994D01*
Y154234D02*X235766D01*
X236166Y153194D02*Y153834D01*
Y154634D02*Y155594D01*
Y154634D02*X235766Y154234D01*
X236166Y153834D02*X235766Y154234D01*
X237126Y155594D02*X237526Y155994D01*
X237126Y153194D02*Y155594D01*
Y153194D02*X237526Y152794D01*
X238326D01*
X238726Y153194D01*
Y155594D01*
X238326Y155994D02*X238726Y155594D01*
X237526Y155994D02*X238326D01*
X237126Y155194D02*X238726Y153594D01*
X240086Y155994D02*X241686Y152794D01*
X239686D02*X241686D01*
X288006Y163294D02*X289606D01*
X290006Y163694D01*
Y164494D01*
X289606Y164894D02*X290006Y164494D01*
X288406Y164894D02*X289606D01*
X288406Y163294D02*Y166494D01*
X289046Y164894D02*X290006Y166494D01*
X290966Y163694D02*X291366Y163294D01*
X292166D01*
X292566Y163694D01*
X292166Y166494D02*X292566Y166094D01*
X291366Y166494D02*X292166D01*
X290966Y166094D02*X291366Y166494D01*
Y164734D02*X292166D01*
X292566Y163694D02*Y164334D01*
Y165134D02*Y166094D01*
Y165134D02*X292166Y164734D01*
X292566Y164334D02*X292166Y164734D01*
X293526Y163934D02*X294166Y163294D01*
Y166494D01*
X293526D02*X294726D01*
X295686Y163694D02*X296086Y163294D01*
X296886D01*
X297286Y163694D01*
X296886Y166494D02*X297286Y166094D01*
X296086Y166494D02*X296886D01*
X295686Y166094D02*X296086Y166494D01*
Y164734D02*X296886D01*
X297286Y163694D02*Y164334D01*
Y165134D02*Y166094D01*
Y165134D02*X296886Y164734D01*
X297286Y164334D02*X296886Y164734D01*
X270342Y160770D02*X271382D01*
X269782Y160210D02*X270342Y160770D01*
X269782Y158130D02*Y160210D01*
Y158130D02*X270342Y157570D01*
X271382D01*
X272342Y157970D02*X272742Y157570D01*
X273542D01*
X273942Y157970D01*
X273542Y160770D02*X273942Y160370D01*
X272742Y160770D02*X273542D01*
X272342Y160370D02*X272742Y160770D01*
Y159010D02*X273542D01*
X273942Y157970D02*Y158610D01*
Y159410D02*Y160370D01*
Y159410D02*X273542Y159010D01*
X273942Y158610D02*X273542Y159010D01*
X274902Y157970D02*X275302Y157570D01*
X276102D01*
X276502Y157970D01*
X276102Y160770D02*X276502Y160370D01*
X275302Y160770D02*X276102D01*
X274902Y160370D02*X275302Y160770D01*
Y159010D02*X276102D01*
X276502Y157970D02*Y158610D01*
Y159410D02*Y160370D01*
Y159410D02*X276102Y159010D01*
X276502Y158610D02*X276102Y159010D01*
X277462Y159570D02*X279062Y157570D01*
X277462Y159570D02*X279462D01*
X279062Y157570D02*Y160770D01*
X287916Y185844D02*X288956D01*
X287356Y185284D02*X287916Y185844D01*
X287356Y183204D02*Y185284D01*
Y183204D02*X287916Y182644D01*
X288956D01*
X289916Y183044D02*X290316Y182644D01*
X291116D01*
X291516Y183044D01*
X291116Y185844D02*X291516Y185444D01*
X290316Y185844D02*X291116D01*
X289916Y185444D02*X290316Y185844D01*
Y184084D02*X291116D01*
X291516Y183044D02*Y183684D01*
Y184484D02*Y185444D01*
Y184484D02*X291116Y184084D01*
X291516Y183684D02*X291116Y184084D01*
X292476Y184644D02*X294076Y182644D01*
X292476Y184644D02*X294476D01*
X294076Y182644D02*Y185844D01*
X295436Y183284D02*X296076Y182644D01*
Y185844D01*
X295436D02*X296636D01*
X286363Y180350D02*X287403D01*
X285803Y179790D02*X286363Y180350D01*
X285803Y177710D02*Y179790D01*
Y177710D02*X286363Y177150D01*
X287403D01*
X288363Y177550D02*X288763Y177150D01*
X289563D01*
X289963Y177550D01*
X289563Y180350D02*X289963Y179950D01*
X288763Y180350D02*X289563D01*
X288363Y179950D02*X288763Y180350D01*
Y178590D02*X289563D01*
X289963Y177550D02*Y178190D01*
Y178990D02*Y179950D01*
Y178990D02*X289563Y178590D01*
X289963Y178190D02*X289563Y178590D01*
X290923Y179150D02*X292523Y177150D01*
X290923Y179150D02*X292923D01*
X292523Y177150D02*Y180350D01*
X293883Y179950D02*X294283Y180350D01*
X293883Y177550D02*Y179950D01*
Y177550D02*X294283Y177150D01*
X295083D01*
X295483Y177550D01*
Y179950D01*
X295083Y180350D02*X295483Y179950D01*
X294283Y180350D02*X295083D01*
X293883Y179550D02*X295483Y177950D01*
X287873Y171344D02*X288913D01*
X287313Y170784D02*X287873Y171344D01*
X287313Y168704D02*Y170784D01*
Y168704D02*X287873Y168144D01*
X288913D01*
X289873Y168544D02*X290273Y168144D01*
X291073D01*
X291473Y168544D01*
X291073Y171344D02*X291473Y170944D01*
X290273Y171344D02*X291073D01*
X289873Y170944D02*X290273Y171344D01*
Y169584D02*X291073D01*
X291473Y168544D02*Y169184D01*
Y169984D02*Y170944D01*
Y169984D02*X291073Y169584D01*
X291473Y169184D02*X291073Y169584D01*
X292433Y168544D02*X292833Y168144D01*
X293633D01*
X294033Y168544D01*
X293633Y171344D02*X294033Y170944D01*
X292833Y171344D02*X293633D01*
X292433Y170944D02*X292833Y171344D01*
Y169584D02*X293633D01*
X294033Y168544D02*Y169184D01*
Y169984D02*Y170944D01*
Y169984D02*X293633Y169584D01*
X294033Y169184D02*X293633Y169584D01*
X295393Y171344D02*X296593Y169744D01*
Y168544D02*Y169744D01*
X296193Y168144D02*X296593Y168544D01*
X295393Y168144D02*X296193D01*
X294993Y168544D02*X295393Y168144D01*
X294993Y168544D02*Y169344D01*
X295393Y169744D01*
X296593D01*
X266301Y196078D02*Y197118D01*
X265741Y197678D02*X266301Y197118D01*
X263661Y197678D02*X265741D01*
X263661D02*X263101Y197118D01*
Y196078D02*Y197118D01*
X263501Y195118D02*X263101Y194718D01*
Y193918D02*Y194718D01*
Y193918D02*X263501Y193518D01*
X266301Y193918D02*X265901Y193518D01*
X266301Y193918D02*Y194718D01*
X265901Y195118D02*X266301Y194718D01*
X264541Y193918D02*Y194718D01*
X263501Y193518D02*X264141D01*
X264941D02*X265901D01*
X264941D02*X264541Y193918D01*
X264141Y193518D02*X264541Y193918D01*
X265101Y192558D02*X263101Y190958D01*
X265101Y190558D02*Y192558D01*
X263101Y190958D02*X266301D01*
X263501Y189598D02*X263101Y189198D01*
Y187998D02*Y189198D01*
Y187998D02*X263501Y187598D01*
X264301D01*
X266301Y189598D02*X264301Y187598D01*
X266301D02*Y189598D01*
X280838Y240244D02*X281878D01*
X280278Y239684D02*X280838Y240244D01*
X280278Y237604D02*Y239684D01*
Y237604D02*X280838Y237044D01*
X281878D01*
X282838Y237444D02*X283238Y237044D01*
X284038D01*
X284438Y237444D01*
X284038Y240244D02*X284438Y239844D01*
X283238Y240244D02*X284038D01*
X282838Y239844D02*X283238Y240244D01*
Y238484D02*X284038D01*
X284438Y237444D02*Y238084D01*
Y238884D02*Y239844D01*
Y238884D02*X284038Y238484D01*
X284438Y238084D02*X284038Y238484D01*
X285398Y239844D02*X285798Y240244D01*
X285398Y237444D02*Y239844D01*
Y237444D02*X285798Y237044D01*
X286598D01*
X286998Y237444D01*
Y239844D01*
X286598Y240244D02*X286998Y239844D01*
X285798Y240244D02*X286598D01*
X285398Y239444D02*X286998Y237844D01*
X287958Y237444D02*X288358Y237044D01*
X289158D01*
X289558Y237444D01*
X289158Y240244D02*X289558Y239844D01*
X288358Y240244D02*X289158D01*
X287958Y239844D02*X288358Y240244D01*
Y238484D02*X289158D01*
X289558Y237444D02*Y238084D01*
Y238884D02*Y239844D01*
Y238884D02*X289158Y238484D01*
X289558Y238084D02*X289158Y238484D01*
X279492Y194420D02*X280532D01*
X278932Y193860D02*X279492Y194420D01*
X278932Y191780D02*Y193860D01*
Y191780D02*X279492Y191220D01*
X280532D01*
X281492Y191620D02*X281892Y191220D01*
X282692D01*
X283092Y191620D01*
X282692Y194420D02*X283092Y194020D01*
X281892Y194420D02*X282692D01*
X281492Y194020D02*X281892Y194420D01*
Y192660D02*X282692D01*
X283092Y191620D02*Y192260D01*
Y193060D02*Y194020D01*
Y193060D02*X282692Y192660D01*
X283092Y192260D02*X282692Y192660D01*
X284052Y191620D02*X284452Y191220D01*
X285652D01*
X286052Y191620D01*
Y192420D01*
X284052Y194420D02*X286052Y192420D01*
X284052Y194420D02*X286052D01*
X287012Y193220D02*X288612Y191220D01*
X287012Y193220D02*X289012D01*
X288612Y191220D02*Y194420D01*
X344156Y238144D02*X347356D01*
Y236544D02*Y238144D01*
X344556Y235584D02*X344156Y235184D01*
Y233984D02*Y235184D01*
Y233984D02*X344556Y233584D01*
X345356D01*
X347356Y235584D02*X345356Y233584D01*
X347356D02*Y235584D01*
X346956Y232624D02*X347356Y232224D01*
X344556Y232624D02*X346956D01*
X344556D02*X344156Y232224D01*
Y231424D02*Y232224D01*
Y231424D02*X344556Y231024D01*
X346956D01*
X347356Y231424D02*X346956Y231024D01*
X347356Y231424D02*Y232224D01*
X346556Y232624D02*X344956Y231024D01*
X344156Y228864D02*X344556Y228464D01*
X344156Y228864D02*Y229664D01*
X344556Y230064D02*X344156Y229664D01*
X344556Y230064D02*X346956D01*
X347356Y229664D01*
X345596Y228864D02*X345996Y228464D01*
X345596Y228864D02*Y230064D01*
X347356Y228864D02*Y229664D01*
Y228864D02*X346956Y228464D01*
X345996D02*X346956D01*
X325427Y241854D02*X328627D01*
Y240254D02*Y241854D01*
X325827Y239294D02*X325427Y238894D01*
Y237694D02*Y238894D01*
Y237694D02*X325827Y237294D01*
X326627D01*
X328627Y239294D02*X326627Y237294D01*
X328627D02*Y239294D01*
X328227Y236334D02*X328627Y235934D01*
X325827Y236334D02*X328227D01*
X325827D02*X325427Y235934D01*
Y235134D02*Y235934D01*
Y235134D02*X325827Y234734D01*
X328227D01*
X328627Y235134D02*X328227Y234734D01*
X328627Y235134D02*Y235934D01*
X327827Y236334D02*X326227Y234734D01*
X328227Y233774D02*X328627Y233374D01*
X325827Y233774D02*X328227D01*
X325827D02*X325427Y233374D01*
Y232574D02*Y233374D01*
Y232574D02*X325827Y232174D01*
X328227D01*
X328627Y232574D02*X328227Y232174D01*
X328627Y232574D02*Y233374D01*
X327827Y233774D02*X326227Y232174D01*
X338856Y240618D02*Y241658D01*
X338296Y242218D02*X338856Y241658D01*
X336216Y242218D02*X338296D01*
X336216D02*X335656Y241658D01*
Y240618D02*Y241658D01*
X336056Y239658D02*X335656Y239258D01*
Y238058D02*Y239258D01*
Y238058D02*X336056Y237658D01*
X336856D01*
X338856Y239658D02*X336856Y237658D01*
X338856D02*Y239658D01*
X336296Y236698D02*X335656Y236058D01*
X338856D01*
Y235498D02*Y236698D01*
X337656Y234538D02*X335656Y232938D01*
X337656Y232538D02*Y234538D01*
X335656Y232938D02*X338856D01*
X308406Y227534D02*Y229134D01*
Y227534D02*X308806Y227134D01*
X309606D01*
X310006Y227534D02*X309606Y227134D01*
X310006Y227534D02*Y228734D01*
X308406D02*X311606D01*
X310006Y228094D02*X311606Y227134D01*
X308806Y226174D02*X308406Y225774D01*
Y224574D02*Y225774D01*
Y224574D02*X308806Y224174D01*
X309606D01*
X311606Y226174D02*X309606Y224174D01*
X311606D02*Y226174D01*
X311206Y223214D02*X311606Y222814D01*
X308806Y223214D02*X311206D01*
X308806D02*X308406Y222814D01*
Y222014D02*Y222814D01*
Y222014D02*X308806Y221614D01*
X311206D01*
X311606Y222014D02*X311206Y221614D01*
X311606Y222014D02*Y222814D01*
X310806Y223214D02*X309206Y221614D01*
X308406Y219454D02*X308806Y219054D01*
X308406Y219454D02*Y220254D01*
X308806Y220654D02*X308406Y220254D01*
X308806Y220654D02*X311206D01*
X311606Y220254D01*
X309846Y219454D02*X310246Y219054D01*
X309846Y219454D02*Y220654D01*
X311606Y219454D02*Y220254D01*
Y219454D02*X311206Y219054D01*
X310246D02*X311206D01*
X318956Y245346D02*Y246386D01*
X318396Y246946D02*X318956Y246386D01*
X316316Y246946D02*X318396D01*
X316316D02*X315756Y246386D01*
Y245346D02*Y246386D01*
X316156Y244386D02*X315756Y243986D01*
Y242786D02*Y243986D01*
Y242786D02*X316156Y242386D01*
X316956D01*
X318956Y244386D02*X316956Y242386D01*
X318956D02*Y244386D01*
X318556Y241426D02*X318956Y241026D01*
X316156Y241426D02*X318556D01*
X316156D02*X315756Y241026D01*
Y240226D02*Y241026D01*
Y240226D02*X316156Y239826D01*
X318556D01*
X318956Y240226D02*X318556Y239826D01*
X318956Y240226D02*Y241026D01*
X318156Y241426D02*X316556Y239826D01*
X315756Y237266D02*Y238866D01*
X317356D01*
X316956Y238466D01*
Y237666D02*Y238466D01*
Y237666D02*X317356Y237266D01*
X318556D01*
X318956Y237666D02*X318556Y237266D01*
X318956Y237666D02*Y238466D01*
X318556Y238866D02*X318956Y238466D01*
X319006Y207935D02*Y208975D01*
X318446Y209535D02*X319006Y208975D01*
X316366Y209535D02*X318446D01*
X316366D02*X315806Y208975D01*
Y207935D02*Y208975D01*
X316206Y206975D02*X315806Y206575D01*
Y205375D02*Y206575D01*
Y205375D02*X316206Y204975D01*
X317006D01*
X319006Y206975D02*X317006Y204975D01*
X319006D02*Y206975D01*
X316446Y204015D02*X315806Y203375D01*
X319006D01*
Y202815D02*Y204015D01*
Y201455D02*X317406Y200255D01*
X316206D02*X317406D01*
X315806Y200655D02*X316206Y200255D01*
X315806Y200655D02*Y201455D01*
X316206Y201855D02*X315806Y201455D01*
X316206Y201855D02*X317006D01*
X317406Y201455D01*
Y200255D02*Y201455D01*
X338415Y209390D02*Y210430D01*
X337855Y210990D02*X338415Y210430D01*
X335775Y210990D02*X337855D01*
X335775D02*X335215Y210430D01*
Y209390D02*Y210430D01*
X335615Y208430D02*X335215Y208030D01*
Y206830D02*Y208030D01*
Y206830D02*X335615Y206430D01*
X336415D01*
X338415Y208430D02*X336415Y206430D01*
X338415D02*Y208430D01*
X335855Y205470D02*X335215Y204830D01*
X338415D01*
Y204270D02*Y205470D01*
X335215Y201710D02*Y203310D01*
X336815D01*
X336415Y202910D01*
Y202110D02*Y202910D01*
Y202110D02*X336815Y201710D01*
X338015D01*
X338415Y202110D02*X338015Y201710D01*
X338415Y202110D02*Y202910D01*
X338015Y203310D02*X338415Y202910D01*
X325333Y215134D02*X328533D01*
Y213534D02*Y215134D01*
X325733Y212574D02*X325333Y212174D01*
Y210974D02*Y212174D01*
Y210974D02*X325733Y210574D01*
X326533D01*
X328533Y212574D02*X326533Y210574D01*
X328533D02*Y212574D01*
X328133Y209614D02*X328533Y209214D01*
X325733Y209614D02*X328133D01*
X325733D02*X325333Y209214D01*
Y208414D02*Y209214D01*
Y208414D02*X325733Y208014D01*
X328133D01*
X328533Y208414D02*X328133Y208014D01*
X328533Y208414D02*Y209214D01*
X327733Y209614D02*X326133Y208014D01*
X328533Y206654D02*X325333Y205054D01*
Y207054D01*
X286663Y217441D02*Y218481D01*
X286103Y219041D02*X286663Y218481D01*
X284023Y219041D02*X286103D01*
X284023D02*X283463Y218481D01*
Y217441D02*Y218481D01*
X283863Y216481D02*X283463Y216081D01*
Y215281D02*Y216081D01*
Y215281D02*X283863Y214881D01*
X286663Y215281D02*X286263Y214881D01*
X286663Y215281D02*Y216081D01*
X286263Y216481D02*X286663Y216081D01*
X284903Y215281D02*Y216081D01*
X283863Y214881D02*X284503D01*
X285303D02*X286263D01*
X285303D02*X284903Y215281D01*
X284503Y214881D02*X284903Y215281D01*
X284103Y213921D02*X283463Y213281D01*
X286663D01*
Y212721D02*Y213921D01*
X283463Y210561D02*X283863Y210161D01*
X283463Y210561D02*Y211361D01*
X283863Y211761D02*X283463Y211361D01*
X283863Y211761D02*X286263D01*
X286663Y211361D01*
X284903Y210561D02*X285303Y210161D01*
X284903Y210561D02*Y211761D01*
X286663Y210561D02*Y211361D01*
Y210561D02*X286263Y210161D01*
X285303D02*X286263D01*
X230663Y213999D02*Y217199D01*
X232263D01*
X233223Y214399D02*X233623Y213999D01*
X234423D01*
X234823Y214399D01*
X234423Y217199D02*X234823Y216799D01*
X233623Y217199D02*X234423D01*
X233223Y216799D02*X233623Y217199D01*
Y215439D02*X234423D01*
X234823Y214399D02*Y215039D01*
Y215839D02*Y216799D01*
Y215839D02*X234423Y215439D01*
X234823Y215039D02*X234423Y215439D01*
X235783Y216799D02*X236183Y217199D01*
X235783Y214399D02*Y216799D01*
Y214399D02*X236183Y213999D01*
X236983D01*
X237383Y214399D01*
Y216799D01*
X236983Y217199D02*X237383Y216799D01*
X236183Y217199D02*X236983D01*
X235783Y216399D02*X237383Y214799D01*
X238343Y214399D02*X238743Y213999D01*
X239943D01*
X240343Y214399D01*
Y215199D01*
X238343Y217199D02*X240343Y215199D01*
X238343Y217199D02*X240343D01*
X245053Y212137D02*Y214937D01*
X245453Y215337D01*
X246253D01*
X246653Y214937D01*
Y212137D02*Y214937D01*
X247613Y212537D02*X248013Y212137D01*
X248813D01*
X249213Y212537D01*
X248813Y215337D02*X249213Y214937D01*
X248013Y215337D02*X248813D01*
X247613Y214937D02*X248013Y215337D01*
Y213577D02*X248813D01*
X249213Y212537D02*Y213177D01*
Y213977D02*Y214937D01*
Y213977D02*X248813Y213577D01*
X249213Y213177D02*X248813Y213577D01*
X250173Y214937D02*X250573Y215337D01*
X250173Y212537D02*Y214937D01*
Y212537D02*X250573Y212137D01*
X251373D01*
X251773Y212537D01*
Y214937D01*
X251373Y215337D02*X251773Y214937D01*
X250573Y215337D02*X251373D01*
X250173Y214537D02*X251773Y212937D01*
X252733Y212537D02*X253133Y212137D01*
X253933D01*
X254333Y212537D01*
X253933Y215337D02*X254333Y214937D01*
X253133Y215337D02*X253933D01*
X252733Y214937D02*X253133Y215337D01*
Y213577D02*X253933D01*
X254333Y212537D02*Y213177D01*
Y213977D02*Y214937D01*
Y213977D02*X253933Y213577D01*
X254333Y213177D02*X253933Y213577D01*
X249180Y234394D02*Y237194D01*
X249580Y237594D01*
X250380D01*
X250780Y237194D01*
Y234394D02*Y237194D01*
X251740Y234794D02*X252140Y234394D01*
X252940D01*
X253340Y234794D01*
X252940Y237594D02*X253340Y237194D01*
X252140Y237594D02*X252940D01*
X251740Y237194D02*X252140Y237594D01*
Y235834D02*X252940D01*
X253340Y234794D02*Y235434D01*
Y236234D02*Y237194D01*
Y236234D02*X252940Y235834D01*
X253340Y235434D02*X252940Y235834D01*
X254300Y237194D02*X254700Y237594D01*
X254300Y234794D02*Y237194D01*
Y234794D02*X254700Y234394D01*
X255500D01*
X255900Y234794D01*
Y237194D01*
X255500Y237594D02*X255900Y237194D01*
X254700Y237594D02*X255500D01*
X254300Y236794D02*X255900Y235194D01*
X256860Y237194D02*X257260Y237594D01*
X256860Y234794D02*Y237194D01*
Y234794D02*X257260Y234394D01*
X258060D01*
X258460Y234794D01*
Y237194D01*
X258060Y237594D02*X258460Y237194D01*
X257260Y237594D02*X258060D01*
X256860Y236794D02*X258460Y235194D01*
X254654Y195405D02*Y196445D01*
X254094Y197005D02*X254654Y196445D01*
X252014Y197005D02*X254094D01*
X252014D02*X251454Y196445D01*
Y195405D02*Y196445D01*
X251854Y194445D02*X251454Y194045D01*
Y193245D02*Y194045D01*
Y193245D02*X251854Y192845D01*
X254654Y193245D02*X254254Y192845D01*
X254654Y193245D02*Y194045D01*
X254254Y194445D02*X254654Y194045D01*
X252894Y193245D02*Y194045D01*
X251854Y192845D02*X252494D01*
X253294D02*X254254D01*
X253294D02*X252894Y193245D01*
X252494Y192845D02*X252894Y193245D01*
X253454Y191885D02*X251454Y190285D01*
X253454Y189885D02*Y191885D01*
X251454Y190285D02*X254654D01*
X251454Y187325D02*Y188925D01*
X253054D01*
X252654Y188525D01*
Y187725D02*Y188525D01*
Y187725D02*X253054Y187325D01*
X254254D01*
X254654Y187725D02*X254254Y187325D01*
X254654Y187725D02*Y188525D01*
X254254Y188925D02*X254654Y188525D01*
X277066Y176494D02*X278106D01*
X276506Y175934D02*X277066Y176494D01*
X276506Y173854D02*Y175934D01*
Y173854D02*X277066Y173294D01*
X278106D01*
X279066Y173694D02*X279466Y173294D01*
X280266D01*
X280666Y173694D01*
X280266Y176494D02*X280666Y176094D01*
X279466Y176494D02*X280266D01*
X279066Y176094D02*X279466Y176494D01*
Y174734D02*X280266D01*
X280666Y173694D02*Y174334D01*
Y175134D02*Y176094D01*
Y175134D02*X280266Y174734D01*
X280666Y174334D02*X280266Y174734D01*
X281626Y173694D02*X282026Y173294D01*
X282826D01*
X283226Y173694D01*
X282826Y176494D02*X283226Y176094D01*
X282026Y176494D02*X282826D01*
X281626Y176094D02*X282026Y176494D01*
Y174734D02*X282826D01*
X283226Y173694D02*Y174334D01*
Y175134D02*Y176094D01*
Y175134D02*X282826Y174734D01*
X283226Y174334D02*X282826Y174734D01*
X284586Y176494D02*X286186Y173294D01*
X284186D02*X286186D01*
X267831Y187150D02*X269431D01*
X269831Y187550D01*
Y188350D01*
X269431Y188750D02*X269831Y188350D01*
X268231Y188750D02*X269431D01*
X268231Y187150D02*Y190350D01*
X268871Y188750D02*X269831Y190350D01*
X270791Y187550D02*X271191Y187150D01*
X271991D01*
X272391Y187550D01*
X271991Y190350D02*X272391Y189950D01*
X271191Y190350D02*X271991D01*
X270791Y189950D02*X271191Y190350D01*
Y188590D02*X271991D01*
X272391Y187550D02*Y188190D01*
Y188990D02*Y189950D01*
Y188990D02*X271991Y188590D01*
X272391Y188190D02*X271991Y188590D01*
X273351Y187790D02*X273991Y187150D01*
Y190350D01*
X273351D02*X274551D01*
X276711Y187150D02*X277111Y187550D01*
X275911Y187150D02*X276711D01*
X275511Y187550D02*X275911Y187150D01*
X275511Y187550D02*Y189950D01*
X275911Y190350D01*
X276711Y188590D02*X277111Y188990D01*
X275511Y188590D02*X276711D01*
X275911Y190350D02*X276711D01*
X277111Y189950D01*
Y188990D02*Y189950D01*
X187656Y188144D02*X190856D01*
Y186544D02*Y188144D01*
X188056Y185584D02*X187656Y185184D01*
Y184384D02*Y185184D01*
Y184384D02*X188056Y183984D01*
X190856Y184384D02*X190456Y183984D01*
X190856Y184384D02*Y185184D01*
X190456Y185584D02*X190856Y185184D01*
X189096Y184384D02*Y185184D01*
X188056Y183984D02*X188696D01*
X189496D02*X190456D01*
X189496D02*X189096Y184384D01*
X188696Y183984D02*X189096Y184384D01*
X190456Y183024D02*X190856Y182624D01*
X188056Y183024D02*X190456D01*
X188056D02*X187656Y182624D01*
Y181824D02*Y182624D01*
Y181824D02*X188056Y181424D01*
X190456D01*
X190856Y181824D02*X190456Y181424D01*
X190856Y181824D02*Y182624D01*
X190056Y183024D02*X188456Y181424D01*
X190456Y180464D02*X190856Y180064D01*
X189816Y180464D02*X190456D01*
X189816D02*X189256Y179904D01*
Y179424D02*Y179904D01*
Y179424D02*X189816Y178864D01*
X190456D01*
X190856Y179264D02*X190456Y178864D01*
X190856Y179264D02*Y180064D01*
X188696Y180464D02*X189256Y179904D01*
X188056Y180464D02*X188696D01*
X188056D02*X187656Y180064D01*
Y179264D02*Y180064D01*
Y179264D02*X188056Y178864D01*
X188696D01*
X189256Y179424D02*X188696Y178864D01*
X204708Y196298D02*Y197338D01*
X204148Y197898D02*X204708Y197338D01*
X202068Y197898D02*X204148D01*
X202068D02*X201508Y197338D01*
Y196298D02*Y197338D01*
X201908Y195338D02*X201508Y194938D01*
Y194138D02*Y194938D01*
Y194138D02*X201908Y193738D01*
X204708Y194138D02*X204308Y193738D01*
X204708Y194138D02*Y194938D01*
X204308Y195338D02*X204708Y194938D01*
X202948Y194138D02*Y194938D01*
X201908Y193738D02*X202548D01*
X203348D02*X204308D01*
X203348D02*X202948Y194138D01*
X202548Y193738D02*X202948Y194138D01*
X201908Y192778D02*X201508Y192378D01*
Y191178D02*Y192378D01*
Y191178D02*X201908Y190778D01*
X202708D01*
X204708Y192778D02*X202708Y190778D01*
X204708D02*Y192778D01*
X202148Y189818D02*X201508Y189178D01*
X204708D01*
Y188618D02*Y189818D01*
X109846Y178949D02*Y180549D01*
Y178949D02*X110246Y178549D01*
X111046D01*
X111446Y178949D02*X111046Y178549D01*
X111446Y178949D02*Y180149D01*
X109846D02*X113046D01*
X111446Y179509D02*X113046Y178549D01*
X110246Y177589D02*X109846Y177189D01*
Y176389D02*Y177189D01*
Y176389D02*X110246Y175989D01*
X113046Y176389D02*X112646Y175989D01*
X113046Y176389D02*Y177189D01*
X112646Y177589D02*X113046Y177189D01*
X111286Y176389D02*Y177189D01*
X110246Y175989D02*X110886D01*
X111686D02*X112646D01*
X111686D02*X111286Y176389D01*
X110886Y175989D02*X111286Y176389D01*
X112646Y175029D02*X113046Y174629D01*
X110246Y175029D02*X112646D01*
X110246D02*X109846Y174629D01*
Y173829D02*Y174629D01*
Y173829D02*X110246Y173429D01*
X112646D01*
X113046Y173829D02*X112646Y173429D01*
X113046Y173829D02*Y174629D01*
X112246Y175029D02*X110646Y173429D01*
X113046Y172069D02*X111446Y170869D01*
X110246D02*X111446D01*
X109846Y171269D02*X110246Y170869D01*
X109846Y171269D02*Y172069D01*
X110246Y172469D02*X109846Y172069D01*
X110246Y172469D02*X111046D01*
X111446Y172069D01*
Y170869D02*Y172069D01*
X173856Y193544D02*Y194584D01*
X173296Y195144D02*X173856Y194584D01*
X171216Y195144D02*X173296D01*
X171216D02*X170656Y194584D01*
Y193544D02*Y194584D01*
X171056Y192584D02*X170656Y192184D01*
Y191384D02*Y192184D01*
Y191384D02*X171056Y190984D01*
X173856Y191384D02*X173456Y190984D01*
X173856Y191384D02*Y192184D01*
X173456Y192584D02*X173856Y192184D01*
X172096Y191384D02*Y192184D01*
X171056Y190984D02*X171696D01*
X172496D02*X173456D01*
X172496D02*X172096Y191384D01*
X171696Y190984D02*X172096Y191384D01*
X171056Y190024D02*X170656Y189624D01*
Y188424D02*Y189624D01*
Y188424D02*X171056Y188024D01*
X171856D01*
X173856Y190024D02*X171856Y188024D01*
X173856D02*Y190024D01*
Y186664D02*X172256Y185464D01*
X171056D02*X172256D01*
X170656Y185864D02*X171056Y185464D01*
X170656Y185864D02*Y186664D01*
X171056Y187064D02*X170656Y186664D01*
X171056Y187064D02*X171856D01*
X172256Y186664D01*
Y185464D02*Y186664D01*
X149923Y189294D02*Y192494D01*
Y189294D02*X151523D01*
X149923Y190734D02*X151123D01*
X152483Y189294D02*Y192494D01*
X154083D01*
X155043Y189694D02*X155443Y189294D01*
X156243D01*
X156643Y189694D01*
X156243Y192494D02*X156643Y192094D01*
X155443Y192494D02*X156243D01*
X155043Y192094D02*X155443Y192494D01*
Y190734D02*X156243D01*
X156643Y189694D02*Y190334D01*
Y191134D02*Y192094D01*
Y191134D02*X156243Y190734D01*
X156643Y190334D02*X156243Y190734D01*
X157603Y192094D02*X158003Y192494D01*
X157603Y189694D02*Y192094D01*
Y189694D02*X158003Y189294D01*
X158803D01*
X159203Y189694D01*
Y192094D01*
X158803Y192494D02*X159203Y192094D01*
X158003Y192494D02*X158803D01*
X157603Y191694D02*X159203Y190094D01*
X160163Y189934D02*X160803Y189294D01*
Y192494D01*
X160163D02*X161363D01*
X141739Y197974D02*X144939D01*
Y196374D02*Y197974D01*
X142139Y195414D02*X141739Y195014D01*
Y194214D02*Y195014D01*
Y194214D02*X142139Y193814D01*
X144939Y194214D02*X144539Y193814D01*
X144939Y194214D02*Y195014D01*
X144539Y195414D02*X144939Y195014D01*
X143179Y194214D02*Y195014D01*
X142139Y193814D02*X142779D01*
X143579D02*X144539D01*
X143579D02*X143179Y194214D01*
X142779Y193814D02*X143179Y194214D01*
X144539Y192854D02*X144939Y192454D01*
X142139Y192854D02*X144539D01*
X142139D02*X141739Y192454D01*
Y191654D02*Y192454D01*
Y191654D02*X142139Y191254D01*
X144539D01*
X144939Y191654D02*X144539Y191254D01*
X144939Y191654D02*Y192454D01*
X144139Y192854D02*X142539Y191254D01*
X141739Y189094D02*X142139Y188694D01*
X141739Y189094D02*Y189894D01*
X142139Y190294D02*X141739Y189894D01*
X142139Y190294D02*X144539D01*
X144939Y189894D01*
X143179Y189094D02*X143579Y188694D01*
X143179Y189094D02*Y190294D01*
X144939Y189094D02*Y189894D01*
Y189094D02*X144539Y188694D01*
X143579D02*X144539D01*
X144131Y178606D02*X147331D01*
Y177006D02*Y178606D01*
X144531Y176046D02*X144131Y175646D01*
Y174846D02*Y175646D01*
Y174846D02*X144531Y174446D01*
X147331Y174846D02*X146931Y174446D01*
X147331Y174846D02*Y175646D01*
X146931Y176046D02*X147331Y175646D01*
X145571Y174846D02*Y175646D01*
X144531Y174446D02*X145171D01*
X145971D02*X146931D01*
X145971D02*X145571Y174846D01*
X145171Y174446D02*X145571Y174846D01*
X146931Y173486D02*X147331Y173086D01*
X144531Y173486D02*X146931D01*
X144531D02*X144131Y173086D01*
Y172286D02*Y173086D01*
Y172286D02*X144531Y171886D01*
X146931D01*
X147331Y172286D02*X146931Y171886D01*
X147331Y172286D02*Y173086D01*
X146531Y173486D02*X144931Y171886D01*
X144131Y169326D02*Y170926D01*
X145731D01*
X145331Y170526D01*
Y169726D02*Y170526D01*
Y169726D02*X145731Y169326D01*
X146931D01*
X147331Y169726D02*X146931Y169326D01*
X147331Y169726D02*Y170526D01*
X146931Y170926D02*X147331Y170526D01*
X184006Y166294D02*Y169094D01*
X184406Y169494D01*
X185206D01*
X185606Y169094D01*
Y166294D02*Y169094D01*
X186566Y166694D02*X186966Y166294D01*
X187766D01*
X188166Y166694D01*
X187766Y169494D02*X188166Y169094D01*
X186966Y169494D02*X187766D01*
X186566Y169094D02*X186966Y169494D01*
Y167734D02*X187766D01*
X188166Y166694D02*Y167334D01*
Y168134D02*Y169094D01*
Y168134D02*X187766Y167734D01*
X188166Y167334D02*X187766Y167734D01*
X189126Y169094D02*X189526Y169494D01*
X189126Y166694D02*Y169094D01*
Y166694D02*X189526Y166294D01*
X190326D01*
X190726Y166694D01*
Y169094D01*
X190326Y169494D02*X190726Y169094D01*
X189526Y169494D02*X190326D01*
X189126Y168694D02*X190726Y167094D01*
X191686Y169094D02*X192086Y169494D01*
X191686Y168454D02*Y169094D01*
Y168454D02*X192246Y167894D01*
X192726D01*
X193286Y168454D01*
Y169094D01*
X192886Y169494D02*X193286Y169094D01*
X192086Y169494D02*X192886D01*
X191686Y167334D02*X192246Y167894D01*
X191686Y166694D02*Y167334D01*
Y166694D02*X192086Y166294D01*
X192886D01*
X193286Y166694D01*
Y167334D01*
X192726Y167894D02*X193286Y167334D01*
X178351Y175338D02*X179391D01*
X177791Y174778D02*X178351Y175338D01*
X177791Y172698D02*Y174778D01*
Y172698D02*X178351Y172138D01*
X179391D01*
X180351Y172538D02*X180751Y172138D01*
X181551D01*
X181951Y172538D01*
X181551Y175338D02*X181951Y174938D01*
X180751Y175338D02*X181551D01*
X180351Y174938D02*X180751Y175338D01*
Y173578D02*X181551D01*
X181951Y172538D02*Y173178D01*
Y173978D02*Y174938D01*
Y173978D02*X181551Y173578D01*
X181951Y173178D02*X181551Y173578D01*
X182911Y174138D02*X184511Y172138D01*
X182911Y174138D02*X184911D01*
X184511Y172138D02*Y175338D01*
X186271D02*X187871Y172138D01*
X185871D02*X187871D01*
X128764Y245396D02*X129804D01*
X128204Y244836D02*X128764Y245396D01*
X128204Y242756D02*Y244836D01*
Y242756D02*X128764Y242196D01*
X129804D01*
X130764Y242596D02*X131164Y242196D01*
X131964D01*
X132364Y242596D01*
X131964Y245396D02*X132364Y244996D01*
X131164Y245396D02*X131964D01*
X130764Y244996D02*X131164Y245396D01*
Y243636D02*X131964D01*
X132364Y242596D02*Y243236D01*
Y244036D02*Y244996D01*
Y244036D02*X131964Y243636D01*
X132364Y243236D02*X131964Y243636D01*
X133324Y244996D02*X133724Y245396D01*
X133324Y242596D02*Y244996D01*
Y242596D02*X133724Y242196D01*
X134524D01*
X134924Y242596D01*
Y244996D01*
X134524Y245396D02*X134924Y244996D01*
X133724Y245396D02*X134524D01*
X133324Y244596D02*X134924Y242996D01*
X135884Y244996D02*X136284Y245396D01*
X135884Y244356D02*Y244996D01*
Y244356D02*X136444Y243796D01*
X136924D01*
X137484Y244356D01*
Y244996D01*
X137084Y245396D02*X137484Y244996D01*
X136284Y245396D02*X137084D01*
X135884Y243236D02*X136444Y243796D01*
X135884Y242596D02*Y243236D01*
Y242596D02*X136284Y242196D01*
X137084D01*
X137484Y242596D01*
Y243236D01*
X136924Y243796D02*X137484Y243236D01*
X111356Y189744D02*Y192544D01*
X111756Y192944D01*
X112556D01*
X112956Y192544D01*
Y189744D02*Y192544D01*
X113916Y190144D02*X114316Y189744D01*
X115116D01*
X115516Y190144D01*
X115116Y192944D02*X115516Y192544D01*
X114316Y192944D02*X115116D01*
X113916Y192544D02*X114316Y192944D01*
Y191184D02*X115116D01*
X115516Y190144D02*Y190784D01*
Y191584D02*Y192544D01*
Y191584D02*X115116Y191184D01*
X115516Y190784D02*X115116Y191184D01*
X116476Y192544D02*X116876Y192944D01*
X116476Y190144D02*Y192544D01*
Y190144D02*X116876Y189744D01*
X117676D01*
X118076Y190144D01*
Y192544D01*
X117676Y192944D02*X118076Y192544D01*
X116876Y192944D02*X117676D01*
X116476Y192144D02*X118076Y190544D01*
X119036Y191744D02*X120636Y189744D01*
X119036Y191744D02*X121036D01*
X120636Y189744D02*Y192944D01*
X122853Y215469D02*Y216509D01*
X122293Y217069D02*X122853Y216509D01*
X120213Y217069D02*X122293D01*
X120213D02*X119653Y216509D01*
Y215469D02*Y216509D01*
X120053Y214509D02*X119653Y214109D01*
Y213309D02*Y214109D01*
Y213309D02*X120053Y212909D01*
X122853Y213309D02*X122453Y212909D01*
X122853Y213309D02*Y214109D01*
X122453Y214509D02*X122853Y214109D01*
X121093Y213309D02*Y214109D01*
X120053Y212909D02*X120693D01*
X121493D02*X122453D01*
X121493D02*X121093Y213309D01*
X120693Y212909D02*X121093Y213309D01*
X120053Y211948D02*X119653Y211548D01*
Y210348D02*Y211548D01*
Y210348D02*X120053Y209948D01*
X120853D01*
X122853Y211948D02*X120853Y209948D01*
X122853D02*Y211948D01*
X119653Y207788D02*X120053Y207388D01*
X119653Y207788D02*Y208588D01*
X120053Y208988D02*X119653Y208588D01*
X120053Y208988D02*X122453D01*
X122853Y208588D01*
X121093Y207788D02*X121493Y207388D01*
X121093Y207788D02*Y208988D01*
X122853Y207788D02*Y208588D01*
Y207788D02*X122453Y207388D01*
X121493D02*X122453D01*
X137655Y200305D02*Y201345D01*
X137095Y201905D02*X137655Y201345D01*
X135015Y201905D02*X137095D01*
X135015D02*X134455Y201345D01*
Y200305D02*Y201345D01*
X134855Y199345D02*X134455Y198945D01*
Y198145D02*Y198945D01*
Y198145D02*X134855Y197745D01*
X137655Y198145D02*X137255Y197745D01*
X137655Y198145D02*Y198945D01*
X137255Y199345D02*X137655Y198945D01*
X135895Y198145D02*Y198945D01*
X134855Y197745D02*X135495D01*
X136295D02*X137255D01*
X136295D02*X135895Y198145D01*
X135495Y197745D02*X135895Y198145D01*
X134855Y196785D02*X134455Y196385D01*
Y195185D02*Y196385D01*
Y195185D02*X134855Y194785D01*
X135655D01*
X137655Y196785D02*X135655Y194785D01*
X137655D02*Y196785D01*
X134855Y193825D02*X134455Y193425D01*
Y192225D02*Y193425D01*
Y192225D02*X134855Y191825D01*
X135655D01*
X137655Y193825D02*X135655Y191825D01*
X137655D02*Y193825D01*
X126406Y259094D02*Y261894D01*
X126806Y262294D01*
X127606D01*
X128006Y261894D01*
Y259094D02*Y261894D01*
X128966Y259494D02*X129366Y259094D01*
X130166D01*
X130566Y259494D01*
X130166Y262294D02*X130566Y261894D01*
X129366Y262294D02*X130166D01*
X128966Y261894D02*X129366Y262294D01*
Y260534D02*X130166D01*
X130566Y259494D02*Y260134D01*
Y260934D02*Y261894D01*
Y260934D02*X130166Y260534D01*
X130566Y260134D02*X130166Y260534D01*
X131526Y261894D02*X131926Y262294D01*
X131526Y259494D02*Y261894D01*
Y259494D02*X131926Y259094D01*
X132726D01*
X133126Y259494D01*
Y261894D01*
X132726Y262294D02*X133126Y261894D01*
X131926Y262294D02*X132726D01*
X131526Y261494D02*X133126Y259894D01*
X134086Y259734D02*X134726Y259094D01*
Y262294D01*
X134086D02*X135286D01*
X184536Y240159D02*X185576D01*
X183976Y239599D02*X184536Y240159D01*
X183976Y237519D02*Y239599D01*
Y237519D02*X184536Y236959D01*
X185576D01*
X186536Y237359D02*X186936Y236959D01*
X187736D01*
X188136Y237359D01*
X187736Y240159D02*X188136Y239759D01*
X186936Y240159D02*X187736D01*
X186536Y239759D02*X186936Y240159D01*
Y238399D02*X187736D01*
X188136Y237359D02*Y237999D01*
Y238799D02*Y239759D01*
Y238799D02*X187736Y238399D01*
X188136Y237999D02*X187736Y238399D01*
X189096Y239759D02*X189496Y240159D01*
X189096Y237359D02*Y239759D01*
Y237359D02*X189496Y236959D01*
X190296D01*
X190696Y237359D01*
Y239759D01*
X190296Y240159D02*X190696Y239759D01*
X189496Y240159D02*X190296D01*
X189096Y239359D02*X190696Y237759D01*
X192856Y236959D02*X193256Y237359D01*
X192056Y236959D02*X192856D01*
X191656Y237359D02*X192056Y236959D01*
X191656Y237359D02*Y239759D01*
X192056Y240159D01*
X192856Y238399D02*X193256Y238799D01*
X191656Y238399D02*X192856D01*
X192056Y240159D02*X192856D01*
X193256Y239759D01*
Y238799D02*Y239759D01*
X208830Y257826D02*Y259426D01*
Y257826D02*X209230Y257426D01*
X210030D01*
X210430Y257826D02*X210030Y257426D01*
X210430Y257826D02*Y259026D01*
X208830D02*X212030D01*
X210430Y258386D02*X212030Y257426D01*
X209230Y256466D02*X208830Y256066D01*
Y255266D02*Y256066D01*
Y255266D02*X209230Y254866D01*
X212030Y255266D02*X211630Y254866D01*
X212030Y255266D02*Y256066D01*
X211630Y256466D02*X212030Y256066D01*
X210270Y255266D02*Y256066D01*
X209230Y254866D02*X209870D01*
X210670D02*X211630D01*
X210670D02*X210270Y255266D01*
X209870Y254866D02*X210270Y255266D01*
X211630Y253906D02*X212030Y253506D01*
X209230Y253906D02*X211630D01*
X209230D02*X208830Y253506D01*
Y252706D02*Y253506D01*
Y252706D02*X209230Y252306D01*
X211630D01*
X212030Y252706D02*X211630Y252306D01*
X212030Y252706D02*Y253506D01*
X211230Y253906D02*X209630Y252306D01*
X209230Y251346D02*X208830Y250946D01*
Y250146D02*Y250946D01*
Y250146D02*X209230Y249746D01*
X212030Y250146D02*X211630Y249746D01*
X212030Y250146D02*Y250946D01*
X211630Y251346D02*X212030Y250946D01*
X210270Y250146D02*Y250946D01*
X209230Y249746D02*X209870D01*
X210670D02*X211630D01*
X210670D02*X210270Y250146D01*
X209870Y249746D02*X210270Y250146D01*
X204519Y233657D02*X206119D01*
X206519Y234057D01*
Y234857D01*
X206119Y235257D02*X206519Y234857D01*
X204919Y235257D02*X206119D01*
X204919Y233657D02*Y236857D01*
X205559Y235257D02*X206519Y236857D01*
X207479Y234057D02*X207879Y233657D01*
X208679D01*
X209079Y234057D01*
X208679Y236857D02*X209079Y236457D01*
X207879Y236857D02*X208679D01*
X207479Y236457D02*X207879Y236857D01*
Y235097D02*X208679D01*
X209079Y234057D02*Y234697D01*
Y235497D02*Y236457D01*
Y235497D02*X208679Y235097D01*
X209079Y234697D02*X208679Y235097D01*
X210039Y236457D02*X210439Y236857D01*
X210039Y234057D02*Y236457D01*
Y234057D02*X210439Y233657D01*
X211239D01*
X211639Y234057D01*
Y236457D01*
X211239Y236857D02*X211639Y236457D01*
X210439Y236857D02*X211239D01*
X210039Y236057D02*X211639Y234457D01*
X212599Y233657D02*X214199D01*
X212599D02*Y235257D01*
X212999Y234857D01*
X213799D01*
X214199Y235257D01*
Y236457D01*
X213799Y236857D02*X214199Y236457D01*
X212999Y236857D02*X213799D01*
X212599Y236457D02*X212999Y236857D01*
X183566Y253494D02*X184606D01*
X183006Y252934D02*X183566Y253494D01*
X183006Y250854D02*Y252934D01*
Y250854D02*X183566Y250294D01*
X184606D01*
X185566Y250694D02*X185966Y250294D01*
X186766D01*
X187166Y250694D01*
X186766Y253494D02*X187166Y253094D01*
X185966Y253494D02*X186766D01*
X185566Y253094D02*X185966Y253494D01*
Y251734D02*X186766D01*
X187166Y250694D02*Y251334D01*
Y252134D02*Y253094D01*
Y252134D02*X186766Y251734D01*
X187166Y251334D02*X186766Y251734D01*
X188126Y253094D02*X188526Y253494D01*
X188126Y250694D02*Y253094D01*
Y250694D02*X188526Y250294D01*
X189326D01*
X189726Y250694D01*
Y253094D01*
X189326Y253494D02*X189726Y253094D01*
X188526Y253494D02*X189326D01*
X188126Y252694D02*X189726Y251094D01*
X190686Y250294D02*X192286D01*
X190686D02*Y251894D01*
X191086Y251494D01*
X191886D01*
X192286Y251894D01*
Y253094D01*
X191886Y253494D02*X192286Y253094D01*
X191086Y253494D02*X191886D01*
X190686Y253094D02*X191086Y253494D01*
X174689Y260296D02*X176289D01*
X176689Y260696D01*
Y261496D01*
X176289Y261896D02*X176689Y261496D01*
X175089Y261896D02*X176289D01*
X175089Y260296D02*Y263496D01*
X175729Y261896D02*X176689Y263496D01*
X177649Y260696D02*X178049Y260296D01*
X178849D01*
X179249Y260696D01*
X178849Y263496D02*X179249Y263096D01*
X178049Y263496D02*X178849D01*
X177649Y263096D02*X178049Y263496D01*
Y261736D02*X178849D01*
X179249Y260696D02*Y261336D01*
Y262136D02*Y263096D01*
Y262136D02*X178849Y261736D01*
X179249Y261336D02*X178849Y261736D01*
X180209Y263096D02*X180609Y263496D01*
X180209Y260696D02*Y263096D01*
Y260696D02*X180609Y260296D01*
X181409D01*
X181809Y260696D01*
Y263096D01*
X181409Y263496D02*X181809Y263096D01*
X180609Y263496D02*X181409D01*
X180209Y262696D02*X181809Y261096D01*
X182769Y260696D02*X183169Y260296D01*
X184369D01*
X184769Y260696D01*
Y261496D01*
X182769Y263496D02*X184769Y261496D01*
X182769Y263496D02*X184769D01*
X194468Y258748D02*X195508D01*
X193908Y258188D02*X194468Y258748D01*
X193908Y256108D02*Y258188D01*
Y256108D02*X194468Y255548D01*
X195508D01*
X196468Y255948D02*X196868Y255548D01*
X197668D01*
X198068Y255948D01*
X197668Y258748D02*X198068Y258348D01*
X196868Y258748D02*X197668D01*
X196468Y258348D02*X196868Y258748D01*
Y256988D02*X197668D01*
X198068Y255948D02*Y256588D01*
Y257388D02*Y258348D01*
Y257388D02*X197668Y256988D01*
X198068Y256588D02*X197668Y256988D01*
X199028Y258348D02*X199428Y258748D01*
X199028Y255948D02*Y258348D01*
Y255948D02*X199428Y255548D01*
X200228D01*
X200628Y255948D01*
Y258348D01*
X200228Y258748D02*X200628Y258348D01*
X199428Y258748D02*X200228D01*
X199028Y257948D02*X200628Y256348D01*
X201588Y255948D02*X201988Y255548D01*
X203188D01*
X203588Y255948D01*
Y256748D01*
X201588Y258748D02*X203588Y256748D01*
X201588Y258748D02*X203588D01*
X189293Y215118D02*X190333D01*
X188733Y214558D02*X189293Y215118D01*
X188733Y212478D02*Y214558D01*
Y212478D02*X189293Y211918D01*
X190333D01*
X191293Y212318D02*X191693Y211918D01*
X192493D01*
X192893Y212318D01*
X192493Y215118D02*X192893Y214718D01*
X191693Y215118D02*X192493D01*
X191293Y214718D02*X191693Y215118D01*
Y213358D02*X192493D01*
X192893Y212318D02*Y212958D01*
Y213758D02*Y214718D01*
Y213758D02*X192493Y213358D01*
X192893Y212958D02*X192493Y213358D01*
X193853Y212318D02*X194253Y211918D01*
X195453D01*
X195853Y212318D01*
Y213118D01*
X193853Y215118D02*X195853Y213118D01*
X193853Y215118D02*X195853D01*
X196813Y214718D02*X197213Y215118D01*
X196813Y212318D02*Y214718D01*
Y212318D02*X197213Y211918D01*
X198013D01*
X198413Y212318D01*
Y214718D01*
X198013Y215118D02*X198413Y214718D01*
X197213Y215118D02*X198013D01*
X196813Y214318D02*X198413Y212718D01*
X159851Y237144D02*Y240344D01*
X161451D01*
X162411Y237544D02*X162811Y237144D01*
X163611D01*
X164011Y237544D01*
X163611Y240344D02*X164011Y239944D01*
X162811Y240344D02*X163611D01*
X162411Y239944D02*X162811Y240344D01*
Y238584D02*X163611D01*
X164011Y237544D02*Y238184D01*
Y238984D02*Y239944D01*
Y238984D02*X163611Y238584D01*
X164011Y238184D02*X163611Y238584D01*
X164971Y239944D02*X165371Y240344D01*
X164971Y237544D02*Y239944D01*
Y237544D02*X165371Y237144D01*
X166171D01*
X166571Y237544D01*
Y239944D01*
X166171Y240344D02*X166571Y239944D01*
X165371Y240344D02*X166171D01*
X164971Y239544D02*X166571Y237944D01*
X167531Y239944D02*X167931Y240344D01*
X167531Y237544D02*Y239944D01*
Y237544D02*X167931Y237144D01*
X168731D01*
X169131Y237544D01*
Y239944D01*
X168731Y240344D02*X169131Y239944D01*
X167931Y240344D02*X168731D01*
X167531Y239544D02*X169131Y237944D01*
X114159Y251344D02*X115199D01*
X113599Y250784D02*X114159Y251344D01*
X113599Y248704D02*Y250784D01*
Y248704D02*X114159Y248144D01*
X115199D01*
X116159Y248544D02*X116559Y248144D01*
X117359D01*
X117759Y248544D01*
X117359Y251344D02*X117759Y250944D01*
X116559Y251344D02*X117359D01*
X116159Y250944D02*X116559Y251344D01*
Y249584D02*X117359D01*
X117759Y248544D02*Y249184D01*
Y249984D02*Y250944D01*
Y249984D02*X117359Y249584D01*
X117759Y249184D02*X117359Y249584D01*
X118719Y248544D02*X119119Y248144D01*
X119919D01*
X120319Y248544D01*
X119919Y251344D02*X120319Y250944D01*
X119119Y251344D02*X119919D01*
X118719Y250944D02*X119119Y251344D01*
Y249584D02*X119919D01*
X120319Y248544D02*Y249184D01*
Y249984D02*Y250944D01*
Y249984D02*X119919Y249584D01*
X120319Y249184D02*X119919Y249584D01*
X122479Y248144D02*X122879Y248544D01*
X121679Y248144D02*X122479D01*
X121279Y248544D02*X121679Y248144D01*
X121279Y248544D02*Y250944D01*
X121679Y251344D01*
X122479Y249584D02*X122879Y249984D01*
X121279Y249584D02*X122479D01*
X121679Y251344D02*X122479D01*
X122879Y250944D01*
Y249984D02*Y250944D01*
X101853Y258278D02*X103453D01*
X103853Y258678D01*
Y259478D01*
X103453Y259878D02*X103853Y259478D01*
X102253Y259878D02*X103453D01*
X102253Y258278D02*Y261478D01*
X102893Y259878D02*X103853Y261478D01*
X104813Y258678D02*X105213Y258278D01*
X106013D01*
X106413Y258678D01*
X106013Y261478D02*X106413Y261078D01*
X105213Y261478D02*X106013D01*
X104813Y261078D02*X105213Y261478D01*
Y259718D02*X106013D01*
X106413Y258678D02*Y259318D01*
Y260118D02*Y261078D01*
Y260118D02*X106013Y259718D01*
X106413Y259318D02*X106013Y259718D01*
X107373Y261078D02*X107773Y261478D01*
X107373Y258678D02*Y261078D01*
Y258678D02*X107773Y258278D01*
X108573D01*
X108973Y258678D01*
Y261078D01*
X108573Y261478D02*X108973Y261078D01*
X107773Y261478D02*X108573D01*
X107373Y260678D02*X108973Y259078D01*
X111133Y258278D02*X111533Y258678D01*
X110333Y258278D02*X111133D01*
X109933Y258678D02*X110333Y258278D01*
X109933Y258678D02*Y261078D01*
X110333Y261478D01*
X111133Y259718D02*X111533Y260118D01*
X109933Y259718D02*X111133D01*
X110333Y261478D02*X111133D01*
X111533Y261078D01*
Y260118D02*Y261078D01*
X80132Y241294D02*Y244094D01*
X80532Y244494D01*
X81332D01*
X81732Y244094D01*
Y241294D02*Y244094D01*
X82692Y241694D02*X83092Y241294D01*
X83892D01*
X84292Y241694D01*
X83892Y244494D02*X84292Y244094D01*
X83092Y244494D02*X83892D01*
X82692Y244094D02*X83092Y244494D01*
Y242734D02*X83892D01*
X84292Y241694D02*Y242334D01*
Y243134D02*Y244094D01*
Y243134D02*X83892Y242734D01*
X84292Y242334D02*X83892Y242734D01*
X85252Y244094D02*X85652Y244494D01*
X85252Y241694D02*Y244094D01*
Y241694D02*X85652Y241294D01*
X86452D01*
X86852Y241694D01*
Y244094D01*
X86452Y244494D02*X86852Y244094D01*
X85652Y244494D02*X86452D01*
X85252Y243694D02*X86852Y242094D01*
X87812Y241694D02*X88212Y241294D01*
X89412D01*
X89812Y241694D01*
Y242494D01*
X87812Y244494D02*X89812Y242494D01*
X87812Y244494D02*X89812D01*
X67907Y257394D02*X68947D01*
X67347Y256834D02*X67907Y257394D01*
X67347Y254754D02*Y256834D01*
Y254754D02*X67907Y254194D01*
X68947D01*
X69907Y254594D02*X70307Y254194D01*
X71107D01*
X71507Y254594D01*
X71107Y257394D02*X71507Y256994D01*
X70307Y257394D02*X71107D01*
X69907Y256994D02*X70307Y257394D01*
Y255634D02*X71107D01*
X71507Y254594D02*Y255234D01*
Y256034D02*Y256994D01*
Y256034D02*X71107Y255634D01*
X71507Y255234D02*X71107Y255634D01*
X72467Y256994D02*X72867Y257394D01*
X72467Y254594D02*Y256994D01*
Y254594D02*X72867Y254194D01*
X73667D01*
X74067Y254594D01*
Y256994D01*
X73667Y257394D02*X74067Y256994D01*
X72867Y257394D02*X73667D01*
X72467Y256594D02*X74067Y254994D01*
X75427Y257394D02*X76627Y255794D01*
Y254594D02*Y255794D01*
X76227Y254194D02*X76627Y254594D01*
X75427Y254194D02*X76227D01*
X75027Y254594D02*X75427Y254194D01*
X75027Y254594D02*Y255394D01*
X75427Y255794D01*
X76627D01*
X287710Y153794D02*X289310D01*
X289710Y154194D01*
Y154994D01*
X289310Y155394D02*X289710Y154994D01*
X288110Y155394D02*X289310D01*
X288110Y153794D02*Y156994D01*
X288750Y155394D02*X289710Y156994D01*
X290670Y154194D02*X291070Y153794D01*
X291870D01*
X292270Y154194D01*
X291870Y156994D02*X292270Y156594D01*
X291070Y156994D02*X291870D01*
X290670Y156594D02*X291070Y156994D01*
Y155234D02*X291870D01*
X292270Y154194D02*Y154834D01*
Y155634D02*Y156594D01*
Y155634D02*X291870Y155234D01*
X292270Y154834D02*X291870Y155234D01*
X293230Y154434D02*X293870Y153794D01*
Y156994D01*
X293230D02*X294430D01*
X295390Y155794D02*X296990Y153794D01*
X295390Y155794D02*X297390D01*
X296990Y153794D02*Y156994D01*
X288640Y161463D02*X289680D01*
X288080Y160903D02*X288640Y161463D01*
X288080Y158823D02*Y160903D01*
Y158823D02*X288640Y158263D01*
X289680D01*
X290640Y158663D02*X291040Y158263D01*
X291840D01*
X292240Y158663D01*
X291840Y161463D02*X292240Y161063D01*
X291040Y161463D02*X291840D01*
X290640Y161063D02*X291040Y161463D01*
Y159703D02*X291840D01*
X292240Y158663D02*Y159303D01*
Y160103D02*Y161063D01*
Y160103D02*X291840Y159703D01*
X292240Y159303D02*X291840Y159703D01*
X293200Y158663D02*X293600Y158263D01*
X294400D01*
X294800Y158663D01*
X294400Y161463D02*X294800Y161063D01*
X293600Y161463D02*X294400D01*
X293200Y161063D02*X293600Y161463D01*
Y159703D02*X294400D01*
X294800Y158663D02*Y159303D01*
Y160103D02*Y161063D01*
Y160103D02*X294400Y159703D01*
X294800Y159303D02*X294400Y159703D01*
X295760Y158663D02*X296160Y158263D01*
X296960D01*
X297360Y158663D01*
X296960Y161463D02*X297360Y161063D01*
X296160Y161463D02*X296960D01*
X295760Y161063D02*X296160Y161463D01*
Y159703D02*X296960D01*
X297360Y158663D02*Y159303D01*
Y160103D02*Y161063D01*
Y160103D02*X296960Y159703D01*
X297360Y159303D02*X296960Y159703D01*
X293506Y150394D02*Y151434D01*
X292946Y151994D02*X293506Y151434D01*
X290866Y151994D02*X292946D01*
X290866D02*X290306Y151434D01*
Y150394D02*Y151434D01*
X290706Y149434D02*X290306Y149034D01*
Y148234D02*Y149034D01*
Y148234D02*X290706Y147834D01*
X293506Y148234D02*X293106Y147834D01*
X293506Y148234D02*Y149034D01*
X293106Y149434D02*X293506Y149034D01*
X291746Y148234D02*Y149034D01*
X290706Y147834D02*X291346D01*
X292146D02*X293106D01*
X292146D02*X291746Y148234D01*
X291346Y147834D02*X291746Y148234D01*
X290706Y146874D02*X290306Y146474D01*
Y145674D02*Y146474D01*
Y145674D02*X290706Y145274D01*
X293506Y145674D02*X293106Y145274D01*
X293506Y145674D02*Y146474D01*
X293106Y146874D02*X293506Y146474D01*
X291746Y145674D02*Y146474D01*
X290706Y145274D02*X291346D01*
X292146D02*X293106D01*
X292146D02*X291746Y145674D01*
X291346Y145274D02*X291746Y145674D01*
X290306Y142714D02*Y144314D01*
X291906D01*
X291506Y143914D01*
Y143114D02*Y143914D01*
Y143114D02*X291906Y142714D01*
X293106D01*
X293506Y143114D02*X293106Y142714D01*
X293506Y143114D02*Y143914D01*
X293106Y144314D02*X293506Y143914D01*
X336879Y137350D02*X337919D01*
X336319Y136790D02*X336879Y137350D01*
X336319Y134710D02*Y136790D01*
Y134710D02*X336879Y134150D01*
X337919D01*
X338879Y134550D02*X339279Y134150D01*
X340079D01*
X340479Y134550D01*
X340079Y137350D02*X340479Y136950D01*
X339279Y137350D02*X340079D01*
X338879Y136950D02*X339279Y137350D01*
Y135590D02*X340079D01*
X340479Y134550D02*Y135190D01*
Y135990D02*Y136950D01*
Y135990D02*X340079Y135590D01*
X340479Y135190D02*X340079Y135590D01*
X341439Y136150D02*X343039Y134150D01*
X341439Y136150D02*X343439D01*
X343039Y134150D02*Y137350D01*
X345599Y134150D02*X345999Y134550D01*
X344799Y134150D02*X345599D01*
X344399Y134550D02*X344799Y134150D01*
X344399Y134550D02*Y136950D01*
X344799Y137350D01*
X345599Y135590D02*X345999Y135990D01*
X344399Y135590D02*X345599D01*
X344799Y137350D02*X345599D01*
X345999Y136950D01*
Y135990D02*Y136950D01*
X355187Y210924D02*Y214124D01*
Y210924D02*X356787D01*
X355187Y212364D02*X356387D01*
X357747Y210924D02*Y214124D01*
X359347D01*
X360307Y211324D02*X360707Y210924D01*
X361907D01*
X362307Y211324D01*
Y212124D01*
X360307Y214124D02*X362307Y212124D01*
X360307Y214124D02*X362307D01*
X363267Y213724D02*X363667Y214124D01*
X363267Y211324D02*Y213724D01*
Y211324D02*X363667Y210924D01*
X364467D01*
X364867Y211324D01*
Y213724D01*
X364467Y214124D02*X364867Y213724D01*
X363667Y214124D02*X364467D01*
X363267Y213324D02*X364867Y211724D01*
X365827Y211564D02*X366467Y210924D01*
Y214124D01*
X365827D02*X367027D01*
X43006Y92794D02*X44606D01*
X45006Y93194D01*
Y93994D01*
X44606Y94394D02*X45006Y93994D01*
X43406Y94394D02*X44606D01*
X43406Y92794D02*Y95994D01*
X44046Y94394D02*X45006Y95994D01*
X45966Y93194D02*X46366Y92794D01*
X47166D01*
X47566Y93194D01*
X47166Y95994D02*X47566Y95594D01*
X46366Y95994D02*X47166D01*
X45966Y95594D02*X46366Y95994D01*
Y94234D02*X47166D01*
X47566Y93194D02*Y93834D01*
Y94634D02*Y95594D01*
Y94634D02*X47166Y94234D01*
X47566Y93834D02*X47166Y94234D01*
X48526Y93194D02*X48926Y92794D01*
X50126D01*
X50526Y93194D01*
Y93994D01*
X48526Y95994D02*X50526Y93994D01*
X48526Y95994D02*X50526D01*
X51486Y95594D02*X51886Y95994D01*
X51486Y93194D02*Y95594D01*
Y93194D02*X51886Y92794D01*
X52686D01*
X53086Y93194D01*
Y95594D01*
X52686Y95994D02*X53086Y95594D01*
X51886Y95994D02*X52686D01*
X51486Y95194D02*X53086Y93594D01*
X68306Y96394D02*Y97994D01*
Y96394D02*X68706Y95994D01*
X69506D01*
X69906Y96394D02*X69506Y95994D01*
X69906Y96394D02*Y97594D01*
X68306D02*X71506D01*
X69906Y96954D02*X71506Y95994D01*
X68706Y95034D02*X68306Y94634D01*
Y93834D02*Y94634D01*
Y93834D02*X68706Y93434D01*
X71506Y93834D02*X71106Y93434D01*
X71506Y93834D02*Y94634D01*
X71106Y95034D02*X71506Y94634D01*
X69746Y93834D02*Y94634D01*
X68706Y93434D02*X69346D01*
X70146D02*X71106D01*
X70146D02*X69746Y93834D01*
X69346Y93434D02*X69746Y93834D01*
X68946Y92474D02*X68306Y91834D01*
X71506D01*
Y91274D02*Y92474D01*
Y89914D02*X68306Y88314D01*
Y90314D01*
X86162Y98081D02*Y99681D01*
Y98081D02*X86562Y97681D01*
X87362D01*
X87762Y98081D02*X87362Y97681D01*
X87762Y98081D02*Y99281D01*
X86162D02*X89362D01*
X87762Y98641D02*X89362Y97681D01*
X86562Y96721D02*X86162Y96321D01*
Y95521D02*Y96321D01*
Y95521D02*X86562Y95121D01*
X89362Y95521D02*X88962Y95121D01*
X89362Y95521D02*Y96321D01*
X88962Y96721D02*X89362Y96321D01*
X87602Y95521D02*Y96321D01*
X86562Y95121D02*X87202D01*
X88002D02*X88962D01*
X88002D02*X87602Y95521D01*
X87202Y95121D02*X87602Y95521D01*
X86562Y94161D02*X86162Y93761D01*
Y92561D02*Y93761D01*
Y92561D02*X86562Y92161D01*
X87362D01*
X89362Y94161D02*X87362Y92161D01*
X89362D02*Y94161D01*
X86802Y91201D02*X86162Y90561D01*
X89362D01*
Y90001D02*Y91201D01*
X54506Y91794D02*X56106D01*
X56506Y92194D01*
Y92994D01*
X56106Y93394D02*X56506Y92994D01*
X54906Y93394D02*X56106D01*
X54906Y91794D02*Y94994D01*
X55546Y93394D02*X56506Y94994D01*
X57466Y92194D02*X57866Y91794D01*
X58666D01*
X59066Y92194D01*
X58666Y94994D02*X59066Y94594D01*
X57866Y94994D02*X58666D01*
X57466Y94594D02*X57866Y94994D01*
Y93234D02*X58666D01*
X59066Y92194D02*Y92834D01*
Y93634D02*Y94594D01*
Y93634D02*X58666Y93234D01*
X59066Y92834D02*X58666Y93234D01*
X60026Y92434D02*X60666Y91794D01*
Y94994D01*
X60026D02*X61226D01*
X62186Y94594D02*X62586Y94994D01*
X62186Y93954D02*Y94594D01*
Y93954D02*X62746Y93394D01*
X63226D01*
X63786Y93954D01*
Y94594D01*
X63386Y94994D02*X63786Y94594D01*
X62586Y94994D02*X63386D01*
X62186Y92834D02*X62746Y93394D01*
X62186Y92194D02*Y92834D01*
Y92194D02*X62586Y91794D01*
X63386D01*
X63786Y92194D01*
Y92834D01*
X63226Y93394D02*X63786Y92834D01*
X109656Y154049D02*X112856D01*
Y152449D02*Y154049D01*
X110056Y151489D02*X109656Y151089D01*
Y150289D02*Y151089D01*
Y150289D02*X110056Y149889D01*
X112856Y150289D02*X112456Y149889D01*
X112856Y150289D02*Y151089D01*
X112456Y151489D02*X112856Y151089D01*
X111096Y150289D02*Y151089D01*
X110056Y149889D02*X110696D01*
X111496D02*X112456D01*
X111496D02*X111096Y150289D01*
X110696Y149889D02*X111096Y150289D01*
X112456Y148929D02*X112856Y148529D01*
X110056Y148929D02*X112456D01*
X110056D02*X109656Y148529D01*
Y147729D02*Y148529D01*
Y147729D02*X110056Y147329D01*
X112456D01*
X112856Y147729D02*X112456Y147329D01*
X112856Y147729D02*Y148529D01*
X112056Y148929D02*X110456Y147329D01*
X110296Y146369D02*X109656Y145729D01*
X112856D01*
Y145169D02*Y146369D01*
X138970Y172468D02*Y173508D01*
X138410Y174068D02*X138970Y173508D01*
X136330Y174068D02*X138410D01*
X136330D02*X135770Y173508D01*
Y172468D02*Y173508D01*
X136170Y171508D02*X135770Y171108D01*
Y170308D02*Y171108D01*
Y170308D02*X136170Y169908D01*
X138970Y170308D02*X138570Y169908D01*
X138970Y170308D02*Y171108D01*
X138570Y171508D02*X138970Y171108D01*
X137210Y170308D02*Y171108D01*
X136170Y169908D02*X136810D01*
X137610D02*X138570D01*
X137610D02*X137210Y170308D01*
X136810Y169908D02*X137210Y170308D01*
X136170Y168948D02*X135770Y168548D01*
Y167348D02*Y168548D01*
Y167348D02*X136170Y166948D01*
X136970D01*
X138970Y168948D02*X136970Y166948D01*
X138970D02*Y168948D01*
X136170Y165988D02*X135770Y165588D01*
Y164788D02*Y165588D01*
Y164788D02*X136170Y164388D01*
X138970Y164788D02*X138570Y164388D01*
X138970Y164788D02*Y165588D01*
X138570Y165988D02*X138970Y165588D01*
X137210Y164788D02*Y165588D01*
X136170Y164388D02*X136810D01*
X137610D02*X138570D01*
X137610D02*X137210Y164788D01*
X136810Y164388D02*X137210Y164788D01*
X201506Y104794D02*Y107994D01*
X203106D01*
X204066Y105194D02*X204466Y104794D01*
X205266D01*
X205666Y105194D01*
X205266Y107994D02*X205666Y107594D01*
X204466Y107994D02*X205266D01*
X204066Y107594D02*X204466Y107994D01*
Y106234D02*X205266D01*
X205666Y105194D02*Y105834D01*
Y106634D02*Y107594D01*
Y106634D02*X205266Y106234D01*
X205666Y105834D02*X205266Y106234D01*
X206626Y107594D02*X207026Y107994D01*
X206626Y105194D02*Y107594D01*
Y105194D02*X207026Y104794D01*
X207826D01*
X208226Y105194D01*
Y107594D01*
X207826Y107994D02*X208226Y107594D01*
X207026Y107994D02*X207826D01*
X206626Y107194D02*X208226Y105594D01*
X209186Y105194D02*X209586Y104794D01*
X210386D01*
X210786Y105194D01*
X210386Y107994D02*X210786Y107594D01*
X209586Y107994D02*X210386D01*
X209186Y107594D02*X209586Y107994D01*
Y106234D02*X210386D01*
X210786Y105194D02*Y105834D01*
Y106634D02*Y107594D01*
Y106634D02*X210386Y106234D01*
X210786Y105834D02*X210386Y106234D01*
X190348Y157850D02*X191388D01*
X189788Y157290D02*X190348Y157850D01*
X189788Y155210D02*Y157290D01*
Y155210D02*X190348Y154650D01*
X191388D01*
X192348Y155050D02*X192748Y154650D01*
X193548D01*
X193948Y155050D01*
X193548Y157850D02*X193948Y157450D01*
X192748Y157850D02*X193548D01*
X192348Y157450D02*X192748Y157850D01*
Y156090D02*X193548D01*
X193948Y155050D02*Y155690D01*
Y156490D02*Y157450D01*
Y156490D02*X193548Y156090D01*
X193948Y155690D02*X193548Y156090D01*
X194908Y156650D02*X196508Y154650D01*
X194908Y156650D02*X196908D01*
X196508Y154650D02*Y157850D01*
X197868Y157450D02*X198268Y157850D01*
X197868Y156810D02*Y157450D01*
Y156810D02*X198428Y156250D01*
X198908D01*
X199468Y156810D01*
Y157450D01*
X199068Y157850D02*X199468Y157450D01*
X198268Y157850D02*X199068D01*
X197868Y155690D02*X198428Y156250D01*
X197868Y155050D02*Y155690D01*
Y155050D02*X198268Y154650D01*
X199068D01*
X199468Y155050D01*
Y155690D01*
X198908Y156250D02*X199468Y155690D01*
X163310Y172375D02*Y173415D01*
X162750Y173975D02*X163310Y173415D01*
X160670Y173975D02*X162750D01*
X160670D02*X160110Y173415D01*
Y172375D02*Y173415D01*
X160510Y171415D02*X160110Y171015D01*
Y170215D02*Y171015D01*
Y170215D02*X160510Y169815D01*
X163310Y170215D02*X162910Y169815D01*
X163310Y170215D02*Y171015D01*
X162910Y171415D02*X163310Y171015D01*
X161550Y170215D02*Y171015D01*
X160510Y169815D02*X161150D01*
X161950D02*X162910D01*
X161950D02*X161550Y170215D01*
X161150Y169815D02*X161550Y170215D01*
X160510Y168855D02*X160110Y168455D01*
Y167255D02*Y168455D01*
Y167255D02*X160510Y166855D01*
X161310D01*
X163310Y168855D02*X161310Y166855D01*
X163310D02*Y168855D01*
X162910Y165895D02*X163310Y165495D01*
X162270Y165895D02*X162910D01*
X162270D02*X161710Y165335D01*
Y164855D02*Y165335D01*
Y164855D02*X162270Y164295D01*
X162910D01*
X163310Y164695D02*X162910Y164295D01*
X163310Y164695D02*Y165495D01*
X161150Y165895D02*X161710Y165335D01*
X160510Y165895D02*X161150D01*
X160510D02*X160110Y165495D01*
Y164695D02*Y165495D01*
Y164695D02*X160510Y164295D01*
X161150D01*
X161710Y164855D02*X161150Y164295D01*
X174589Y161794D02*Y164994D01*
Y161794D02*X176189D01*
X174589Y163234D02*X175789D01*
X177149Y161794D02*Y164994D01*
X178749D01*
X179709Y162194D02*X180109Y161794D01*
X180909D01*
X181309Y162194D01*
X180909Y164994D02*X181309Y164594D01*
X180109Y164994D02*X180909D01*
X179709Y164594D02*X180109Y164994D01*
Y163234D02*X180909D01*
X181309Y162194D02*Y162834D01*
Y163634D02*Y164594D01*
Y163634D02*X180909Y163234D01*
X181309Y162834D02*X180909Y163234D01*
X182269Y164594D02*X182669Y164994D01*
X182269Y162194D02*Y164594D01*
Y162194D02*X182669Y161794D01*
X183469D01*
X183869Y162194D01*
Y164594D01*
X183469Y164994D02*X183869Y164594D01*
X182669Y164994D02*X183469D01*
X182269Y164194D02*X183869Y162594D01*
X184829Y164594D02*X185229Y164994D01*
X184829Y162194D02*Y164594D01*
Y162194D02*X185229Y161794D01*
X186029D01*
X186429Y162194D01*
Y164594D01*
X186029Y164994D02*X186429Y164594D01*
X185229Y164994D02*X186029D01*
X184829Y164194D02*X186429Y162594D01*
X165566Y110494D02*X166606D01*
X165006Y109934D02*X165566Y110494D01*
X165006Y107854D02*Y109934D01*
Y107854D02*X165566Y107294D01*
X166606D01*
X167566Y107694D02*X167966Y107294D01*
X168766D01*
X169166Y107694D01*
X168766Y110494D02*X169166Y110094D01*
X167966Y110494D02*X168766D01*
X167566Y110094D02*X167966Y110494D01*
Y108734D02*X168766D01*
X169166Y107694D02*Y108334D01*
Y109134D02*Y110094D01*
Y109134D02*X168766Y108734D01*
X169166Y108334D02*X168766Y108734D01*
X170126Y107934D02*X170766Y107294D01*
Y110494D01*
X170126D02*X171326D01*
X172286Y110094D02*X172686Y110494D01*
X172286Y109454D02*Y110094D01*
Y109454D02*X172846Y108894D01*
X173326D01*
X173886Y109454D01*
Y110094D01*
X173486Y110494D02*X173886Y110094D01*
X172686Y110494D02*X173486D01*
X172286Y108334D02*X172846Y108894D01*
X172286Y107694D02*Y108334D01*
Y107694D02*X172686Y107294D01*
X173486D01*
X173886Y107694D01*
Y108334D01*
X173326Y108894D02*X173886Y108334D01*
X181770Y116087D02*Y117127D01*
X181210Y117687D02*X181770Y117127D01*
X179130Y117687D02*X181210D01*
X179130D02*X178570Y117127D01*
Y116087D02*Y117127D01*
X178970Y115127D02*X178570Y114727D01*
Y113927D02*Y114727D01*
Y113927D02*X178970Y113527D01*
X181770Y113927D02*X181370Y113527D01*
X181770Y113927D02*Y114727D01*
X181370Y115127D02*X181770Y114727D01*
X180010Y113927D02*Y114727D01*
X178970Y113527D02*X179610D01*
X180410D02*X181370D01*
X180410D02*X180010Y113927D01*
X179610Y113527D02*X180010Y113927D01*
X179210Y112567D02*X178570Y111927D01*
X181770D01*
Y111367D02*Y112567D01*
Y110007D02*X178570Y108407D01*
Y110407D01*
X166066Y117494D02*X167106D01*
X165506Y116934D02*X166066Y117494D01*
X165506Y114854D02*Y116934D01*
Y114854D02*X166066Y114294D01*
X167106D01*
X168066Y114694D02*X168466Y114294D01*
X169266D01*
X169666Y114694D01*
X169266Y117494D02*X169666Y117094D01*
X168466Y117494D02*X169266D01*
X168066Y117094D02*X168466Y117494D01*
Y115734D02*X169266D01*
X169666Y114694D02*Y115334D01*
Y116134D02*Y117094D01*
Y116134D02*X169266Y115734D01*
X169666Y115334D02*X169266Y115734D01*
X170626Y114934D02*X171266Y114294D01*
Y117494D01*
X170626D02*X171826D01*
X172786Y114294D02*X174386D01*
X172786D02*Y115894D01*
X173186Y115494D01*
X173986D01*
X174386Y115894D01*
Y117094D01*
X173986Y117494D02*X174386Y117094D01*
X173186Y117494D02*X173986D01*
X172786Y117094D02*X173186Y117494D01*
X159416Y136844D02*X160456D01*
X158856Y136284D02*X159416Y136844D01*
X158856Y134204D02*Y136284D01*
Y134204D02*X159416Y133644D01*
X160456D01*
X161416Y134044D02*X161816Y133644D01*
X162616D01*
X163016Y134044D01*
X162616Y136844D02*X163016Y136444D01*
X161816Y136844D02*X162616D01*
X161416Y136444D02*X161816Y136844D01*
Y135084D02*X162616D01*
X163016Y134044D02*Y134684D01*
Y135484D02*Y136444D01*
Y135484D02*X162616Y135084D01*
X163016Y134684D02*X162616Y135084D01*
X163976Y136444D02*X164376Y136844D01*
X163976Y134044D02*Y136444D01*
Y134044D02*X164376Y133644D01*
X165176D01*
X165576Y134044D01*
Y136444D01*
X165176Y136844D02*X165576Y136444D01*
X164376Y136844D02*X165176D01*
X163976Y136044D02*X165576Y134444D01*
X166936Y136844D02*X168536Y133644D01*
X166536D02*X168536D01*
X207066Y150994D02*X208106D01*
X206506Y150434D02*X207066Y150994D01*
X206506Y148354D02*Y150434D01*
Y148354D02*X207066Y147794D01*
X208106D01*
X209066Y148194D02*X209466Y147794D01*
X210266D01*
X210666Y148194D01*
X210266Y150994D02*X210666Y150594D01*
X209466Y150994D02*X210266D01*
X209066Y150594D02*X209466Y150994D01*
Y149234D02*X210266D01*
X210666Y148194D02*Y148834D01*
Y149634D02*Y150594D01*
Y149634D02*X210266Y149234D01*
X210666Y148834D02*X210266Y149234D01*
X211626Y147794D02*X213226D01*
X211626D02*Y149394D01*
X212026Y148994D01*
X212826D01*
X213226Y149394D01*
Y150594D01*
X212826Y150994D02*X213226Y150594D01*
X212026Y150994D02*X212826D01*
X211626Y150594D02*X212026Y150994D01*
X214186Y150594D02*X214586Y150994D01*
X214186Y149954D02*Y150594D01*
Y149954D02*X214746Y149394D01*
X215226D01*
X215786Y149954D01*
Y150594D01*
X215386Y150994D02*X215786Y150594D01*
X214586Y150994D02*X215386D01*
X214186Y148834D02*X214746Y149394D01*
X214186Y148194D02*Y148834D01*
Y148194D02*X214586Y147794D01*
X215386D01*
X215786Y148194D01*
Y148834D01*
X215226Y149394D02*X215786Y148834D01*
X207066Y155994D02*X208106D01*
X206506Y155434D02*X207066Y155994D01*
X206506Y153354D02*Y155434D01*
Y153354D02*X207066Y152794D01*
X208106D01*
X209066Y153194D02*X209466Y152794D01*
X210266D01*
X210666Y153194D01*
X210266Y155994D02*X210666Y155594D01*
X209466Y155994D02*X210266D01*
X209066Y155594D02*X209466Y155994D01*
Y154234D02*X210266D01*
X210666Y153194D02*Y153834D01*
Y154634D02*Y155594D01*
Y154634D02*X210266Y154234D01*
X210666Y153834D02*X210266Y154234D01*
X211626Y152794D02*X213226D01*
X211626D02*Y154394D01*
X212026Y153994D01*
X212826D01*
X213226Y154394D01*
Y155594D01*
X212826Y155994D02*X213226Y155594D01*
X212026Y155994D02*X212826D01*
X211626Y155594D02*X212026Y155994D01*
X214586D02*X216186Y152794D01*
X214186D02*X216186D01*
X205506Y142794D02*X207106D01*
X207506Y143194D01*
Y143994D01*
X207106Y144394D02*X207506Y143994D01*
X205906Y144394D02*X207106D01*
X205906Y142794D02*Y145994D01*
X206546Y144394D02*X207506Y145994D01*
X208466Y143194D02*X208866Y142794D01*
X209666D01*
X210066Y143194D01*
X209666Y145994D02*X210066Y145594D01*
X208866Y145994D02*X209666D01*
X208466Y145594D02*X208866Y145994D01*
Y144234D02*X209666D01*
X210066Y143194D02*Y143834D01*
Y144634D02*Y145594D01*
Y144634D02*X209666Y144234D01*
X210066Y143834D02*X209666Y144234D01*
X211026Y143194D02*X211426Y142794D01*
X212626D01*
X213026Y143194D01*
Y143994D01*
X211026Y145994D02*X213026Y143994D01*
X211026Y145994D02*X213026D01*
X213986Y143194D02*X214386Y142794D01*
X215586D01*
X215986Y143194D01*
Y143994D01*
X213986Y145994D02*X215986Y143994D01*
X213986Y145994D02*X215986D01*
X206506Y137794D02*X208106D01*
X208506Y138194D01*
Y138994D01*
X208106Y139394D02*X208506Y138994D01*
X206906Y139394D02*X208106D01*
X206906Y137794D02*Y140994D01*
X207546Y139394D02*X208506Y140994D01*
X209466Y138194D02*X209866Y137794D01*
X210666D01*
X211066Y138194D01*
X210666Y140994D02*X211066Y140594D01*
X209866Y140994D02*X210666D01*
X209466Y140594D02*X209866Y140994D01*
Y139234D02*X210666D01*
X211066Y138194D02*Y138834D01*
Y139634D02*Y140594D01*
Y139634D02*X210666Y139234D01*
X211066Y138834D02*X210666Y139234D01*
X212026Y138434D02*X212666Y137794D01*
Y140994D01*
X212026D02*X213226D01*
X214586D02*X215786Y139394D01*
Y138194D02*Y139394D01*
X215386Y137794D02*X215786Y138194D01*
X214586Y137794D02*X215386D01*
X214186Y138194D02*X214586Y137794D01*
X214186Y138194D02*Y138994D01*
X214586Y139394D01*
X215786D01*
X207066Y160994D02*X208106D01*
X206506Y160434D02*X207066Y160994D01*
X206506Y158354D02*Y160434D01*
Y158354D02*X207066Y157794D01*
X208106D01*
X209066Y158194D02*X209466Y157794D01*
X210266D01*
X210666Y158194D01*
X210266Y160994D02*X210666Y160594D01*
X209466Y160994D02*X210266D01*
X209066Y160594D02*X209466Y160994D01*
Y159234D02*X210266D01*
X210666Y158194D02*Y158834D01*
Y159634D02*Y160594D01*
Y159634D02*X210266Y159234D01*
X210666Y158834D02*X210266Y159234D01*
X211626Y157794D02*X213226D01*
X211626D02*Y159394D01*
X212026Y158994D01*
X212826D01*
X213226Y159394D01*
Y160594D01*
X212826Y160994D02*X213226Y160594D01*
X212026Y160994D02*X212826D01*
X211626Y160594D02*X212026Y160994D01*
X214186Y159794D02*X215786Y157794D01*
X214186Y159794D02*X216186D01*
X215786Y157794D02*Y160994D01*
X107406Y40694D02*Y43494D01*
X107806Y43894D01*
X108606D01*
X109006Y43494D01*
Y40694D02*Y43494D01*
X109966Y41094D02*X110366Y40694D01*
X111166D01*
X111566Y41094D01*
X111166Y43894D02*X111566Y43494D01*
X110366Y43894D02*X111166D01*
X109966Y43494D02*X110366Y43894D01*
Y42134D02*X111166D01*
X111566Y41094D02*Y41734D01*
Y42534D02*Y43494D01*
Y42534D02*X111166Y42134D01*
X111566Y41734D02*X111166Y42134D01*
X112526Y43494D02*X112926Y43894D01*
X112526Y41094D02*Y43494D01*
Y41094D02*X112926Y40694D01*
X113726D01*
X114126Y41094D01*
Y43494D01*
X113726Y43894D02*X114126Y43494D01*
X112926Y43894D02*X113726D01*
X112526Y43094D02*X114126Y41494D01*
X116286Y40694D02*X116686Y41094D01*
X115486Y40694D02*X116286D01*
X115086Y41094D02*X115486Y40694D01*
X115086Y41094D02*Y43494D01*
X115486Y43894D01*
X116286Y42134D02*X116686Y42534D01*
X115086Y42134D02*X116286D01*
X115486Y43894D02*X116286D01*
X116686Y43494D01*
Y42534D02*Y43494D01*
X122866Y59294D02*X123906D01*
X122306Y58734D02*X122866Y59294D01*
X122306Y56654D02*Y58734D01*
Y56654D02*X122866Y56094D01*
X123906D01*
X124866Y56494D02*X125266Y56094D01*
X126066D01*
X126466Y56494D01*
X126066Y59294D02*X126466Y58894D01*
X125266Y59294D02*X126066D01*
X124866Y58894D02*X125266Y59294D01*
Y57534D02*X126066D01*
X126466Y56494D02*Y57134D01*
Y57934D02*Y58894D01*
Y57934D02*X126066Y57534D01*
X126466Y57134D02*X126066Y57534D01*
X127426Y56494D02*X127826Y56094D01*
X128626D01*
X129026Y56494D01*
X128626Y59294D02*X129026Y58894D01*
X127826Y59294D02*X128626D01*
X127426Y58894D02*X127826Y59294D01*
Y57534D02*X128626D01*
X129026Y56494D02*Y57134D01*
Y57934D02*Y58894D01*
Y57934D02*X128626Y57534D01*
X129026Y57134D02*X128626Y57534D01*
X129986Y56494D02*X130386Y56094D01*
X131586D01*
X131986Y56494D01*
Y57294D01*
X129986Y59294D02*X131986Y57294D01*
X129986Y59294D02*X131986D01*
X93506Y60894D02*Y61934D01*
X92946Y62494D02*X93506Y61934D01*
X90866Y62494D02*X92946D01*
X90866D02*X90306Y61934D01*
Y60894D02*Y61934D01*
X90706Y59934D02*X90306Y59534D01*
Y58734D02*Y59534D01*
Y58734D02*X90706Y58334D01*
X93506Y58734D02*X93106Y58334D01*
X93506Y58734D02*Y59534D01*
X93106Y59934D02*X93506Y59534D01*
X91746Y58734D02*Y59534D01*
X90706Y58334D02*X91346D01*
X92146D02*X93106D01*
X92146D02*X91746Y58734D01*
X91346Y58334D02*X91746Y58734D01*
X90946Y57374D02*X90306Y56734D01*
X93506D01*
Y56174D02*Y57374D01*
X90706Y55214D02*X90306Y54814D01*
Y54014D02*Y54814D01*
Y54014D02*X90706Y53614D01*
X93506Y54014D02*X93106Y53614D01*
X93506Y54014D02*Y54814D01*
X93106Y55214D02*X93506Y54814D01*
X91746Y54014D02*Y54814D01*
X90706Y53614D02*X91346D01*
X92146D02*X93106D01*
X92146D02*X91746Y54014D01*
X91346Y53614D02*X91746Y54014D01*
X151706Y53994D02*Y55594D01*
X151306Y55994D01*
X150506D02*X151306D01*
X150106Y55594D02*X150506Y55994D01*
X150106Y54394D02*Y55594D01*
X148506Y54394D02*X151706D01*
X150106Y55034D02*X148506Y55994D01*
X149706Y56954D02*X151706Y58554D01*
X149706Y56954D02*Y58954D01*
X148506Y58554D02*X151706D01*
X148906Y59914D02*X148506Y60314D01*
X148906Y59914D02*X151306D01*
X151706Y60314D01*
Y61114D01*
X151306Y61514D01*
X148906D02*X151306D01*
X148506Y61114D02*X148906Y61514D01*
X148506Y60314D02*Y61114D01*
X149306Y59914D02*X150906Y61514D01*
X151066Y62474D02*X151706Y63114D01*
X148506D02*X151706D01*
X148506Y62474D02*Y63674D01*
X144706Y53920D02*Y55520D01*
X144306Y55920D01*
X143506D02*X144306D01*
X143106Y55520D02*X143506Y55920D01*
X143106Y54320D02*Y55520D01*
X141506Y54320D02*X144706D01*
X143106Y54960D02*X141506Y55920D01*
X142706Y56880D02*X144706Y58480D01*
X142706Y56880D02*Y58880D01*
X141506Y58480D02*X144706D01*
X141906Y59840D02*X141506Y60240D01*
X141906Y59840D02*X144306D01*
X144706Y60240D01*
Y61040D01*
X144306Y61440D01*
X141906D02*X144306D01*
X141506Y61040D02*X141906Y61440D01*
X141506Y60240D02*Y61040D01*
X142306Y59840D02*X143906Y61440D01*
X141906Y62400D02*X141506Y62800D01*
X141906Y62400D02*X144306D01*
X144706Y62800D01*
Y63600D01*
X144306Y64000D01*
X141906D02*X144306D01*
X141506Y63600D02*X141906Y64000D01*
X141506Y62800D02*Y63600D01*
X142306Y62400D02*X143906Y64000D01*
X120622Y69126D02*X122222D01*
X122622Y69526D01*
Y70326D01*
X122222Y70726D02*X122622Y70326D01*
X121022Y70726D02*X122222D01*
X121022Y69126D02*Y72326D01*
X121662Y70726D02*X122622Y72326D01*
X123582Y69526D02*X123982Y69126D01*
X124782D01*
X125182Y69526D01*
X124782Y72326D02*X125182Y71926D01*
X123982Y72326D02*X124782D01*
X123582Y71926D02*X123982Y72326D01*
Y70566D02*X124782D01*
X125182Y69526D02*Y70166D01*
Y70966D02*Y71926D01*
Y70966D02*X124782Y70566D01*
X125182Y70166D02*X124782Y70566D01*
X126142Y69766D02*X126782Y69126D01*
Y72326D01*
X126142D02*X127342D01*
X128302Y69766D02*X128942Y69126D01*
Y72326D01*
X128302D02*X129502D01*
X126491Y152524D02*Y153564D01*
X125931Y154124D02*X126491Y153564D01*
X123851Y154124D02*X125931D01*
X123851D02*X123291Y153564D01*
Y152524D02*Y153564D01*
X123691Y151564D02*X123291Y151164D01*
Y150364D02*Y151164D01*
Y150364D02*X123691Y149964D01*
X126491Y150364D02*X126091Y149964D01*
X126491Y150364D02*Y151164D01*
X126091Y151564D02*X126491Y151164D01*
X124731Y150364D02*Y151164D01*
X123691Y149964D02*X124331D01*
X125131D02*X126091D01*
X125131D02*X124731Y150364D01*
X124331Y149964D02*X124731Y150364D01*
X123691Y149004D02*X123291Y148604D01*
Y147404D02*Y148604D01*
Y147404D02*X123691Y147004D01*
X124491D01*
X126491Y149004D02*X124491Y147004D01*
X126491D02*Y149004D01*
Y145644D02*X123291Y144044D01*
Y146044D01*
X112006Y112794D02*Y115594D01*
X112406Y115994D01*
X113206D01*
X113606Y115594D01*
Y112794D02*Y115594D01*
X114566Y113194D02*X114966Y112794D01*
X115766D01*
X116166Y113194D01*
X115766Y115994D02*X116166Y115594D01*
X114966Y115994D02*X115766D01*
X114566Y115594D02*X114966Y115994D01*
Y114234D02*X115766D01*
X116166Y113194D02*Y113834D01*
Y114634D02*Y115594D01*
Y114634D02*X115766Y114234D01*
X116166Y113834D02*X115766Y114234D01*
X117126Y115594D02*X117526Y115994D01*
X117126Y113194D02*Y115594D01*
Y113194D02*X117526Y112794D01*
X118326D01*
X118726Y113194D01*
Y115594D01*
X118326Y115994D02*X118726Y115594D01*
X117526Y115994D02*X118326D01*
X117126Y115194D02*X118726Y113594D01*
X119686Y112794D02*X121286D01*
X119686D02*Y114394D01*
X120086Y113994D01*
X120886D01*
X121286Y114394D01*
Y115594D01*
X120886Y115994D02*X121286Y115594D01*
X120086Y115994D02*X120886D01*
X119686Y115594D02*X120086Y115994D01*
X114066Y96494D02*X115106D01*
X113506Y95934D02*X114066Y96494D01*
X113506Y93854D02*Y95934D01*
Y93854D02*X114066Y93294D01*
X115106D01*
X116066Y93694D02*X116466Y93294D01*
X117266D01*
X117666Y93694D01*
X117266Y96494D02*X117666Y96094D01*
X116466Y96494D02*X117266D01*
X116066Y96094D02*X116466Y96494D01*
Y94734D02*X117266D01*
X117666Y93694D02*Y94334D01*
Y95134D02*Y96094D01*
Y95134D02*X117266Y94734D01*
X117666Y94334D02*X117266Y94734D01*
X118626Y93694D02*X119026Y93294D01*
X119826D01*
X120226Y93694D01*
X119826Y96494D02*X120226Y96094D01*
X119026Y96494D02*X119826D01*
X118626Y96094D02*X119026Y96494D01*
Y94734D02*X119826D01*
X120226Y93694D02*Y94334D01*
Y95134D02*Y96094D01*
Y95134D02*X119826Y94734D01*
X120226Y94334D02*X119826Y94734D01*
X121186Y93934D02*X121826Y93294D01*
Y96494D01*
X121186D02*X122386D01*
X110490Y136418D02*X111530D01*
X109930Y135858D02*X110490Y136418D01*
X109930Y133778D02*Y135858D01*
Y133778D02*X110490Y133218D01*
X111530D01*
X112490Y133618D02*X112890Y133218D01*
X113690D01*
X114090Y133618D01*
X113690Y136418D02*X114090Y136018D01*
X112890Y136418D02*X113690D01*
X112490Y136018D02*X112890Y136418D01*
Y134658D02*X113690D01*
X114090Y133618D02*Y134258D01*
Y135058D02*Y136018D01*
Y135058D02*X113690Y134658D01*
X114090Y134258D02*X113690Y134658D01*
X115050Y133858D02*X115690Y133218D01*
Y136418D01*
X115050D02*X116250D01*
X117210Y136018D02*X117610Y136418D01*
X117210Y133618D02*Y136018D01*
Y133618D02*X117610Y133218D01*
X118410D01*
X118810Y133618D01*
Y136018D01*
X118410Y136418D02*X118810Y136018D01*
X117610Y136418D02*X118410D01*
X117210Y135618D02*X118810Y134018D01*
X128607Y143344D02*X130207D01*
X130607Y143744D01*
Y144544D01*
X130207Y144944D02*X130607Y144544D01*
X129007Y144944D02*X130207D01*
X129007Y143344D02*Y146544D01*
X129647Y144944D02*X130607Y146544D01*
X131567Y143744D02*X131967Y143344D01*
X132767D01*
X133167Y143744D01*
X132767Y146544D02*X133167Y146144D01*
X131967Y146544D02*X132767D01*
X131567Y146144D02*X131967Y146544D01*
Y144784D02*X132767D01*
X133167Y143744D02*Y144384D01*
Y145184D02*Y146144D01*
Y145184D02*X132767Y144784D01*
X133167Y144384D02*X132767Y144784D01*
X134127Y146144D02*X134527Y146544D01*
X134127Y143744D02*Y146144D01*
Y143744D02*X134527Y143344D01*
X135327D01*
X135727Y143744D01*
Y146144D01*
X135327Y146544D02*X135727Y146144D01*
X134527Y146544D02*X135327D01*
X134127Y145744D02*X135727Y144144D01*
X137087Y146544D02*X138687Y143344D01*
X136687D02*X138687D01*
X168506Y89294D02*Y92494D01*
X170106D01*
X171066Y89694D02*X171466Y89294D01*
X172266D01*
X172666Y89694D01*
X172266Y92494D02*X172666Y92094D01*
X171466Y92494D02*X172266D01*
X171066Y92094D02*X171466Y92494D01*
Y90734D02*X172266D01*
X172666Y89694D02*Y90334D01*
Y91134D02*Y92094D01*
Y91134D02*X172266Y90734D01*
X172666Y90334D02*X172266Y90734D01*
X173626Y92094D02*X174026Y92494D01*
X173626Y89694D02*Y92094D01*
Y89694D02*X174026Y89294D01*
X174826D01*
X175226Y89694D01*
Y92094D01*
X174826Y92494D02*X175226Y92094D01*
X174026Y92494D02*X174826D01*
X173626Y91694D02*X175226Y90094D01*
X176586Y92494D02*X178186Y89294D01*
X176186D02*X178186D01*
X185767Y97770D02*X186807D01*
X185207Y97210D02*X185767Y97770D01*
X185207Y95130D02*Y97210D01*
Y95130D02*X185767Y94570D01*
X186807D01*
X187767Y94970D02*X188167Y94570D01*
X188967D01*
X189367Y94970D01*
X188967Y97770D02*X189367Y97370D01*
X188167Y97770D02*X188967D01*
X187767Y97370D02*X188167Y97770D01*
Y96010D02*X188967D01*
X189367Y94970D02*Y95610D01*
Y96410D02*Y97370D01*
Y96410D02*X188967Y96010D01*
X189367Y95610D02*X188967Y96010D01*
X190327Y94970D02*X190727Y94570D01*
X191927D01*
X192327Y94970D01*
Y95770D01*
X190327Y97770D02*X192327Y95770D01*
X190327Y97770D02*X192327D01*
X193287Y94570D02*X194887D01*
X193287D02*Y96170D01*
X193687Y95770D01*
X194487D01*
X194887Y96170D01*
Y97370D01*
X194487Y97770D02*X194887Y97370D01*
X193687Y97770D02*X194487D01*
X193287Y97370D02*X193687Y97770D01*
X133308Y97387D02*Y98987D01*
Y97387D02*X133708Y96987D01*
X134508D01*
X134908Y97387D02*X134508Y96987D01*
X134908Y97387D02*Y98587D01*
X133308D02*X136508D01*
X134908Y97947D02*X136508Y96987D01*
X133708Y96027D02*X133308Y95627D01*
Y94827D02*Y95627D01*
Y94827D02*X133708Y94427D01*
X136508Y94827D02*X136108Y94427D01*
X136508Y94827D02*Y95627D01*
X136108Y96027D02*X136508Y95627D01*
X134748Y94827D02*Y95627D01*
X133708Y94427D02*X134348D01*
X135148D02*X136108D01*
X135148D02*X134748Y94827D01*
X134348Y94427D02*X134748Y94827D01*
X136108Y93467D02*X136508Y93067D01*
X133708Y93467D02*X136108D01*
X133708D02*X133308Y93067D01*
Y92267D02*Y93067D01*
Y92267D02*X133708Y91867D01*
X136108D01*
X136508Y92267D02*X136108Y91867D01*
X136508Y92267D02*Y93067D01*
X135708Y93467D02*X134108Y91867D01*
X136108Y90907D02*X136508Y90507D01*
X135468Y90907D02*X136108D01*
X135468D02*X134908Y90347D01*
Y89867D02*Y90347D01*
Y89867D02*X135468Y89307D01*
X136108D01*
X136508Y89707D02*X136108Y89307D01*
X136508Y89707D02*Y90507D01*
X134348Y90907D02*X134908Y90347D01*
X133708Y90907D02*X134348D01*
X133708D02*X133308Y90507D01*
Y89707D02*Y90507D01*
Y89707D02*X133708Y89307D01*
X134348D01*
X134908Y89867D02*X134348Y89307D01*
X155506Y95894D02*Y96934D01*
X154946Y97494D02*X155506Y96934D01*
X152866Y97494D02*X154946D01*
X152866D02*X152306Y96934D01*
Y95894D02*Y96934D01*
X152706Y94934D02*X152306Y94534D01*
Y93734D02*Y94534D01*
Y93734D02*X152706Y93334D01*
X155506Y93734D02*X155106Y93334D01*
X155506Y93734D02*Y94534D01*
X155106Y94934D02*X155506Y94534D01*
X153746Y93734D02*Y94534D01*
X152706Y93334D02*X153346D01*
X154146D02*X155106D01*
X154146D02*X153746Y93734D01*
X153346Y93334D02*X153746Y93734D01*
X152946Y92374D02*X152306Y91734D01*
X155506D01*
Y91174D02*Y92374D01*
X154306Y90214D02*X152306Y88614D01*
X154306Y88214D02*Y90214D01*
X152306Y88614D02*X155506D01*
X272427Y114222D02*X273467D01*
X271867Y113662D02*X272427Y114222D01*
X271867Y111582D02*Y113662D01*
Y111582D02*X272427Y111022D01*
X273467D01*
X274427Y111422D02*X274827Y111022D01*
X275627D01*
X276027Y111422D01*
X275627Y114222D02*X276027Y113822D01*
X274827Y114222D02*X275627D01*
X274427Y113822D02*X274827Y114222D01*
Y112462D02*X275627D01*
X276027Y111422D02*Y112062D01*
Y112862D02*Y113822D01*
Y112862D02*X275627Y112462D01*
X276027Y112062D02*X275627Y112462D01*
X276987Y111022D02*X278587D01*
X276987D02*Y112622D01*
X277387Y112222D01*
X278187D01*
X278587Y112622D01*
Y113822D01*
X278187Y114222D02*X278587Y113822D01*
X277387Y114222D02*X278187D01*
X276987Y113822D02*X277387Y114222D01*
X280747Y111022D02*X281147Y111422D01*
X279947Y111022D02*X280747D01*
X279547Y111422D02*X279947Y111022D01*
X279547Y111422D02*Y113822D01*
X279947Y114222D01*
X280747Y112462D02*X281147Y112862D01*
X279547Y112462D02*X280747D01*
X279947Y114222D02*X280747D01*
X281147Y113822D01*
Y112862D02*Y113822D01*
X277566Y102994D02*X278606D01*
X277006Y102434D02*X277566Y102994D01*
X277006Y100354D02*Y102434D01*
Y100354D02*X277566Y99794D01*
X278606D01*
X279566Y100194D02*X279966Y99794D01*
X280766D01*
X281166Y100194D01*
X280766Y102994D02*X281166Y102594D01*
X279966Y102994D02*X280766D01*
X279566Y102594D02*X279966Y102994D01*
Y101234D02*X280766D01*
X281166Y100194D02*Y100834D01*
Y101634D02*Y102594D01*
Y101634D02*X280766Y101234D01*
X281166Y100834D02*X280766Y101234D01*
X282126Y99794D02*X283726D01*
X282126D02*Y101394D01*
X282526Y100994D01*
X283326D01*
X283726Y101394D01*
Y102594D01*
X283326Y102994D02*X283726Y102594D01*
X282526Y102994D02*X283326D01*
X282126Y102594D02*X282526Y102994D01*
X284686Y99794D02*X286286D01*
X284686D02*Y101394D01*
X285086Y100994D01*
X285886D01*
X286286Y101394D01*
Y102594D01*
X285886Y102994D02*X286286Y102594D01*
X285086Y102994D02*X285886D01*
X284686Y102594D02*X285086Y102994D01*
X290600Y116800D02*X291000Y117200D01*
X289400Y116800D02*X290600D01*
X289000Y117200D02*X289400Y116800D01*
X289000Y117200D02*Y118000D01*
X289400Y118400D01*
X290600D01*
X291000Y118800D01*
Y119600D01*
X290600Y120000D02*X291000Y119600D01*
X289400Y120000D02*X290600D01*
X289000Y119600D02*X289400Y120000D01*
X291960Y116800D02*Y120000D01*
Y118800D02*X292360Y118400D01*
X293160D01*
X293560Y118800D01*
Y120000D01*
X294520Y118800D02*X296120Y116800D01*
X294520Y118800D02*X296520D01*
X296120Y116800D02*Y120000D01*
X297480Y119600D02*X297880Y120000D01*
X297480Y117200D02*Y119600D01*
Y117200D02*X297880Y116800D01*
X298680D01*
X299080Y117200D01*
Y119600D01*
X298680Y120000D02*X299080Y119600D01*
X297880Y120000D02*X298680D01*
X297480Y119200D02*X299080Y117600D01*
X300040Y116800D02*X301640D01*
X300040D02*Y118400D01*
X300440Y118000D01*
X301240D01*
X301640Y118400D01*
Y119600D01*
X301240Y120000D02*X301640Y119600D01*
X300440Y120000D02*X301240D01*
X300040Y119600D02*X300440Y120000D01*
X280066Y139994D02*X281106D01*
X279506Y139434D02*X280066Y139994D01*
X279506Y137354D02*Y139434D01*
Y137354D02*X280066Y136794D01*
X281106D01*
X282066Y137194D02*X282466Y136794D01*
X283266D01*
X283666Y137194D01*
X283266Y139994D02*X283666Y139594D01*
X282466Y139994D02*X283266D01*
X282066Y139594D02*X282466Y139994D01*
Y138234D02*X283266D01*
X283666Y137194D02*Y137834D01*
Y138634D02*Y139594D01*
Y138634D02*X283266Y138234D01*
X283666Y137834D02*X283266Y138234D01*
X284626Y137194D02*X285026Y136794D01*
X285826D01*
X286226Y137194D01*
X285826Y139994D02*X286226Y139594D01*
X285026Y139994D02*X285826D01*
X284626Y139594D02*X285026Y139994D01*
Y138234D02*X285826D01*
X286226Y137194D02*Y137834D01*
Y138634D02*Y139594D01*
Y138634D02*X285826Y138234D01*
X286226Y137834D02*X285826Y138234D01*
X287186Y139594D02*X287586Y139994D01*
X287186Y138954D02*Y139594D01*
Y138954D02*X287746Y138394D01*
X288226D01*
X288786Y138954D01*
Y139594D01*
X288386Y139994D02*X288786Y139594D01*
X287586Y139994D02*X288386D01*
X287186Y137834D02*X287746Y138394D01*
X287186Y137194D02*Y137834D01*
Y137194D02*X287586Y136794D01*
X288386D01*
X288786Y137194D01*
Y137834D01*
X288226Y138394D02*X288786Y137834D01*
X275856Y144872D02*Y145912D01*
X275296Y146472D02*X275856Y145912D01*
X273216Y146472D02*X275296D01*
X273216D02*X272656Y145912D01*
Y144872D02*Y145912D01*
X273056Y143912D02*X272656Y143512D01*
Y142712D02*Y143512D01*
Y142712D02*X273056Y142312D01*
X275856Y142712D02*X275456Y142312D01*
X275856Y142712D02*Y143512D01*
X275456Y143912D02*X275856Y143512D01*
X274096Y142712D02*Y143512D01*
X273056Y142312D02*X273696D01*
X274496D02*X275456D01*
X274496D02*X274096Y142712D01*
X273696Y142312D02*X274096Y142712D01*
X274656Y141352D02*X272656Y139752D01*
X274656Y139352D02*Y141352D01*
X272656Y139752D02*X275856D01*
X274656Y138392D02*X272656Y136792D01*
X274656Y136392D02*Y138392D01*
X272656Y136792D02*X275856D01*
X249306Y143042D02*Y144642D01*
Y143042D02*X249706Y142642D01*
X250506D01*
X250906Y143042D02*X250506Y142642D01*
X250906Y143042D02*Y144242D01*
X249306D02*X252506D01*
X250906Y143602D02*X252506Y142642D01*
X249706Y141682D02*X249306Y141282D01*
Y140482D02*Y141282D01*
Y140482D02*X249706Y140082D01*
X252506Y140482D02*X252106Y140082D01*
X252506Y140482D02*Y141282D01*
X252106Y141682D02*X252506Y141282D01*
X250746Y140482D02*Y141282D01*
X249706Y140082D02*X250346D01*
X251146D02*X252106D01*
X251146D02*X250746Y140482D01*
X250346Y140082D02*X250746Y140482D01*
X249946Y139122D02*X249306Y138482D01*
X252506D01*
Y137922D02*Y139122D01*
X249706Y136962D02*X249306Y136562D01*
Y135362D02*Y136562D01*
Y135362D02*X249706Y134962D01*
X250506D01*
X252506Y136962D02*X250506Y134962D01*
X252506D02*Y136962D01*
X260504Y144692D02*Y145732D01*
X259944Y146292D02*X260504Y145732D01*
X257864Y146292D02*X259944D01*
X257864D02*X257304Y145732D01*
Y144692D02*Y145732D01*
X257704Y143732D02*X257304Y143332D01*
Y142532D02*Y143332D01*
Y142532D02*X257704Y142132D01*
X260504Y142532D02*X260104Y142132D01*
X260504Y142532D02*Y143332D01*
X260104Y143732D02*X260504Y143332D01*
X258744Y142532D02*Y143332D01*
X257704Y142132D02*X258344D01*
X259144D02*X260104D01*
X259144D02*X258744Y142532D01*
X258344Y142132D02*X258744Y142532D01*
X259304Y141172D02*X257304Y139572D01*
X259304Y139172D02*Y141172D01*
X257304Y139572D02*X260504D01*
X257704Y138212D02*X257304Y137812D01*
Y137012D02*Y137812D01*
Y137012D02*X257704Y136612D01*
X260504Y137012D02*X260104Y136612D01*
X260504Y137012D02*Y137812D01*
X260104Y138212D02*X260504Y137812D01*
X258744Y137012D02*Y137812D01*
X257704Y136612D02*X258344D01*
X259144D02*X260104D01*
X259144D02*X258744Y137012D01*
X258344Y136612D02*X258744Y137012D01*
X228714Y140994D02*X229754D01*
X228154Y140434D02*X228714Y140994D01*
X228154Y138354D02*Y140434D01*
Y138354D02*X228714Y137794D01*
X229754D01*
X230714Y138194D02*X231114Y137794D01*
X231914D01*
X232314Y138194D01*
X231914Y140994D02*X232314Y140594D01*
X231114Y140994D02*X231914D01*
X230714Y140594D02*X231114Y140994D01*
Y139234D02*X231914D01*
X232314Y138194D02*Y138834D01*
Y139634D02*Y140594D01*
Y139634D02*X231914Y139234D01*
X232314Y138834D02*X231914Y139234D01*
X233274Y137794D02*X234874D01*
X233274D02*Y139394D01*
X233674Y138994D01*
X234474D01*
X234874Y139394D01*
Y140594D01*
X234474Y140994D02*X234874Y140594D01*
X233674Y140994D02*X234474D01*
X233274Y140594D02*X233674Y140994D01*
X235834Y138194D02*X236234Y137794D01*
X237434D01*
X237834Y138194D01*
Y138994D01*
X235834Y140994D02*X237834Y138994D01*
X235834Y140994D02*X237834D01*
X244006Y140894D02*Y141934D01*
X243446Y142494D02*X244006Y141934D01*
X241366Y142494D02*X243446D01*
X241366D02*X240806Y141934D01*
Y140894D02*Y141934D01*
X241206Y139934D02*X240806Y139534D01*
Y138734D02*Y139534D01*
Y138734D02*X241206Y138334D01*
X244006Y138734D02*X243606Y138334D01*
X244006Y138734D02*Y139534D01*
X243606Y139934D02*X244006Y139534D01*
X242246Y138734D02*Y139534D01*
X241206Y138334D02*X241846D01*
X242646D02*X243606D01*
X242646D02*X242246Y138734D01*
X241846Y138334D02*X242246Y138734D01*
X240806Y135774D02*Y137374D01*
X242406D01*
X242006Y136974D01*
Y136174D02*Y136974D01*
Y136174D02*X242406Y135774D01*
X243606D01*
X244006Y136174D02*X243606Y135774D01*
X244006Y136174D02*Y136974D01*
X243606Y137374D02*X244006Y136974D01*
X241446Y134814D02*X240806Y134174D01*
X244006D01*
Y133614D02*Y134814D01*
X235006Y105794D02*Y108594D01*
X235406Y108994D01*
X236206D01*
X236606Y108594D01*
Y105794D02*Y108594D01*
X237566Y106194D02*X237966Y105794D01*
X238766D01*
X239166Y106194D01*
X238766Y108994D02*X239166Y108594D01*
X237966Y108994D02*X238766D01*
X237566Y108594D02*X237966Y108994D01*
Y107234D02*X238766D01*
X239166Y106194D02*Y106834D01*
Y107634D02*Y108594D01*
Y107634D02*X238766Y107234D01*
X239166Y106834D02*X238766Y107234D01*
X240126Y106434D02*X240766Y105794D01*
Y108994D01*
X240126D02*X241326D01*
X242286Y108594D02*X242686Y108994D01*
X242286Y106194D02*Y108594D01*
Y106194D02*X242686Y105794D01*
X243486D01*
X243886Y106194D01*
Y108594D01*
X243486Y108994D02*X243886Y108594D01*
X242686Y108994D02*X243486D01*
X242286Y108194D02*X243886Y106594D01*
X230507Y114494D02*X231547D01*
X229947Y113934D02*X230507Y114494D01*
X229947Y111854D02*Y113934D01*
Y111854D02*X230507Y111294D01*
X231547D01*
X232507Y111694D02*X232907Y111294D01*
X233707D01*
X234107Y111694D01*
X233707Y114494D02*X234107Y114094D01*
X232907Y114494D02*X233707D01*
X232507Y114094D02*X232907Y114494D01*
Y112734D02*X233707D01*
X234107Y111694D02*Y112334D01*
Y113134D02*Y114094D01*
Y113134D02*X233707Y112734D01*
X234107Y112334D02*X233707Y112734D01*
X236267Y111294D02*X236667Y111694D01*
X235467Y111294D02*X236267D01*
X235067Y111694D02*X235467Y111294D01*
X235067Y111694D02*Y114094D01*
X235467Y114494D01*
X236267Y112734D02*X236667Y113134D01*
X235067Y112734D02*X236267D01*
X235467Y114494D02*X236267D01*
X236667Y114094D01*
Y113134D02*Y114094D01*
X237627D02*X238027Y114494D01*
X237627Y111694D02*Y114094D01*
Y111694D02*X238027Y111294D01*
X238827D01*
X239227Y111694D01*
Y114094D01*
X238827Y114494D02*X239227Y114094D01*
X238027Y114494D02*X238827D01*
X237627Y113694D02*X239227Y112094D01*
X230507Y103494D02*X231547D01*
X229947Y102934D02*X230507Y103494D01*
X229947Y100854D02*Y102934D01*
Y100854D02*X230507Y100294D01*
X231547D01*
X232507Y100694D02*X232907Y100294D01*
X233707D01*
X234107Y100694D01*
X233707Y103494D02*X234107Y103094D01*
X232907Y103494D02*X233707D01*
X232507Y103094D02*X232907Y103494D01*
Y101734D02*X233707D01*
X234107Y100694D02*Y101334D01*
Y102134D02*Y103094D01*
Y102134D02*X233707Y101734D01*
X234107Y101334D02*X233707Y101734D01*
X235067Y100294D02*X236667D01*
X235067D02*Y101894D01*
X235467Y101494D01*
X236267D01*
X236667Y101894D01*
Y103094D01*
X236267Y103494D02*X236667Y103094D01*
X235467Y103494D02*X236267D01*
X235067Y103094D02*X235467Y103494D01*
X238027D02*X239227Y101894D01*
Y100694D02*Y101894D01*
X238827Y100294D02*X239227Y100694D01*
X238027Y100294D02*X238827D01*
X237627Y100694D02*X238027Y100294D01*
X237627Y100694D02*Y101494D01*
X238027Y101894D01*
X239227D01*
X255947Y105794D02*Y108594D01*
X256347Y108994D01*
X257147D01*
X257547Y108594D01*
Y105794D02*Y108594D01*
X258507Y106194D02*X258907Y105794D01*
X259707D01*
X260107Y106194D01*
X259707Y108994D02*X260107Y108594D01*
X258907Y108994D02*X259707D01*
X258507Y108594D02*X258907Y108994D01*
Y107234D02*X259707D01*
X260107Y106194D02*Y106834D01*
Y107634D02*Y108594D01*
Y107634D02*X259707Y107234D01*
X260107Y106834D02*X259707Y107234D01*
X261067Y108594D02*X261467Y108994D01*
X261067Y106194D02*Y108594D01*
Y106194D02*X261467Y105794D01*
X262267D01*
X262667Y106194D01*
Y108594D01*
X262267Y108994D02*X262667Y108594D01*
X261467Y108994D02*X262267D01*
X261067Y108194D02*X262667Y106594D01*
X264027Y108994D02*X265227Y107394D01*
Y106194D02*Y107394D01*
X264827Y105794D02*X265227Y106194D01*
X264027Y105794D02*X264827D01*
X263627Y106194D02*X264027Y105794D01*
X263627Y106194D02*Y106994D01*
X264027Y107394D01*
X265227D01*
M02*
