G04 start of page 14 for group -3984 idx -3984 *
G04 Title: (unknown), fab *
G04 Creator: pcb 1.99z *
G04 CreationDate: Thu 02 Apr 2020 08:31:54 PM GMT UTC *
G04 For: mark *
G04 Format: Gerber/RS-274X *
G04 PCB-Dimensions (mil): 4300.00 3300.00 *
G04 PCB-Coordinate-Origin: lower left *
%MOIN*%
%FSLAX25Y25*%
%LNFAB*%
%ADD192C,0.0100*%
%ADD191C,0.0075*%
%ADD190C,0.0060*%
%ADD189R,0.0080X0.0080*%
G54D189*X29206Y296494D02*G75*G03X30806Y296494I800J0D01*G01*
G75*G03X29206Y296494I-800J0D01*G01*
Y24994D02*G75*G03X30806Y24994I800J0D01*G01*
G75*G03X29206Y24994I-800J0D01*G01*
X399206D02*G75*G03X400806Y24994I800J0D01*G01*
G75*G03X399206Y24994I-800J0D01*G01*
Y296494D02*G75*G03X400806Y296494I800J0D01*G01*
G75*G03X399206Y296494I-800J0D01*G01*
X14200Y341250D02*G75*G03X15800Y341250I800J0D01*G01*
G75*G03X14200Y341250I-800J0D01*G01*
G54D190*X135000Y343500D02*X136500Y340500D01*
X138000Y343500D01*
X136500Y340500D02*Y337500D01*
X139800Y340800D02*X142050D01*
X139800Y337500D02*X142800D01*
X139800Y343500D02*Y337500D01*
Y343500D02*X142800D01*
X147600D02*X148350Y342750D01*
X145350Y343500D02*X147600D01*
X144600Y342750D02*X145350Y343500D01*
X144600Y342750D02*Y341250D01*
X145350Y340500D01*
X147600D01*
X148350Y339750D01*
Y338250D01*
X147600Y337500D02*X148350Y338250D01*
X145350Y337500D02*X147600D01*
X144600Y338250D02*X145350Y337500D01*
X98000Y339750D02*X101000Y343500D01*
X98000Y339750D02*X101750D01*
X101000Y343500D02*Y337500D01*
X45000Y338250D02*X45750Y337500D01*
X45000Y342750D02*Y338250D01*
Y342750D02*X45750Y343500D01*
X47250D01*
X48000Y342750D01*
Y338250D01*
X47250Y337500D02*X48000Y338250D01*
X45750Y337500D02*X47250D01*
X45000Y339000D02*X48000Y342000D01*
X49800Y337500D02*X50550D01*
X52350Y342300D02*X53550Y343500D01*
Y337500D01*
X52350D02*X54600D01*
X56400Y342750D02*X57150Y343500D01*
X59400D01*
X60150Y342750D01*
Y341250D01*
X56400Y337500D02*X60150Y341250D01*
X56400Y337500D02*X60150D01*
X61950Y343500D02*X64950D01*
X61950D02*Y340500D01*
X62700Y341250D01*
X64200D01*
X64950Y340500D01*
Y338250D01*
X64200Y337500D02*X64950Y338250D01*
X62700Y337500D02*X64200D01*
X61950Y338250D02*X62700Y337500D01*
X34806Y180694D02*X37206Y178294D01*
X34806D02*X37206Y180694D01*
X24806Y190694D02*X27206Y188294D01*
X24806D02*X27206Y190694D01*
X24806Y170694D02*X27206Y168294D01*
X24806D02*X27206Y170694D01*
X44806Y190694D02*X47206Y188294D01*
X44806D02*X47206Y190694D01*
X44806Y170694D02*X47206Y168294D01*
X44806D02*X47206Y170694D01*
X13800Y357450D02*X16200Y355050D01*
X13800D02*X16200Y357450D01*
X135000Y358500D02*X136500Y355500D01*
X138000Y358500D01*
X136500Y355500D02*Y352500D01*
X139800Y355800D02*X142050D01*
X139800Y352500D02*X142800D01*
X139800Y358500D02*Y352500D01*
Y358500D02*X142800D01*
X147600D02*X148350Y357750D01*
X145350Y358500D02*X147600D01*
X144600Y357750D02*X145350Y358500D01*
X144600Y357750D02*Y356250D01*
X145350Y355500D01*
X147600D01*
X148350Y354750D01*
Y353250D01*
X147600Y352500D02*X148350Y353250D01*
X145350Y352500D02*X147600D01*
X144600Y353250D02*X145350Y352500D01*
X98000Y358500D02*X101000D01*
X98000D02*Y355500D01*
X98750Y356250D01*
X100250D01*
X101000Y355500D01*
Y353250D01*
X100250Y352500D02*X101000Y353250D01*
X98750Y352500D02*X100250D01*
X98000Y353250D02*X98750Y352500D01*
X45000Y353250D02*X45750Y352500D01*
X45000Y357750D02*Y353250D01*
Y357750D02*X45750Y358500D01*
X47250D01*
X48000Y357750D01*
Y353250D01*
X47250Y352500D02*X48000Y353250D01*
X45750Y352500D02*X47250D01*
X45000Y354000D02*X48000Y357000D01*
X49800Y352500D02*X50550D01*
X52350Y353250D02*X53100Y352500D01*
X52350Y357750D02*Y353250D01*
Y357750D02*X53100Y358500D01*
X54600D01*
X55350Y357750D01*
Y353250D01*
X54600Y352500D02*X55350Y353250D01*
X53100Y352500D02*X54600D01*
X52350Y354000D02*X55350Y357000D01*
X59400Y358500D02*X60150Y357750D01*
X57900Y358500D02*X59400D01*
X57150Y357750D02*X57900Y358500D01*
X57150Y357750D02*Y353250D01*
X57900Y352500D01*
X59400Y355800D02*X60150Y355050D01*
X57150Y355800D02*X59400D01*
X57900Y352500D02*X59400D01*
X60150Y353250D01*
Y355050D02*Y353250D01*
X62700Y352500D02*X65700Y358500D01*
X61950D02*X65700D01*
X154006Y272094D02*Y268894D01*
X152406Y270494D02*X155606D01*
X164006Y272094D02*Y268894D01*
X162406Y270494D02*X165606D01*
X174006Y272094D02*Y268894D01*
X172406Y270494D02*X175606D01*
X184006Y272094D02*Y268894D01*
X182406Y270494D02*X185606D01*
X194006Y272094D02*Y268894D01*
X192406Y270494D02*X195606D01*
X204006Y272094D02*Y268894D01*
X202406Y270494D02*X205606D01*
X104006Y82094D02*Y78894D01*
X102406Y80494D02*X105606D01*
X114006Y82094D02*Y78894D01*
X112406Y80494D02*X115606D01*
X44006Y82094D02*Y78894D01*
X42406Y80494D02*X45606D01*
X54006Y82094D02*Y78894D01*
X52406Y80494D02*X55606D01*
X64006Y82094D02*Y78894D01*
X62406Y80494D02*X65606D01*
X74006Y82094D02*Y78894D01*
X72406Y80494D02*X75606D01*
X84006Y82094D02*Y78894D01*
X82406Y80494D02*X85606D01*
X94006Y82094D02*Y78894D01*
X92406Y80494D02*X95606D01*
X190006Y82094D02*Y78894D01*
X188406Y80494D02*X191606D01*
X200006Y82094D02*Y78894D01*
X198406Y80494D02*X201606D01*
X130006Y82094D02*Y78894D01*
X128406Y80494D02*X131606D01*
X140006Y82094D02*Y78894D01*
X138406Y80494D02*X141606D01*
X150006Y82094D02*Y78894D01*
X148406Y80494D02*X151606D01*
X160006Y82094D02*Y78894D01*
X158406Y80494D02*X161606D01*
X170006Y82094D02*Y78894D01*
X168406Y80494D02*X171606D01*
X180006Y82094D02*Y78894D01*
X178406Y80494D02*X181606D01*
X44006Y272094D02*Y268894D01*
X42406Y270494D02*X45606D01*
X54006Y272094D02*Y268894D01*
X52406Y270494D02*X55606D01*
X64006Y272094D02*Y268894D01*
X62406Y270494D02*X65606D01*
X74006Y272094D02*Y268894D01*
X72406Y270494D02*X75606D01*
X84006Y272094D02*Y268894D01*
X82406Y270494D02*X85606D01*
X94006Y272094D02*Y268894D01*
X92406Y270494D02*X95606D01*
X114006Y272094D02*Y268894D01*
X112406Y270494D02*X115606D01*
X124006Y272094D02*Y268894D01*
X122406Y270494D02*X125606D01*
X134006Y272094D02*Y268894D01*
X132406Y270494D02*X135606D01*
X144006Y272094D02*Y268894D01*
X142406Y270494D02*X145606D01*
X64006Y32094D02*Y28894D01*
X62406Y30494D02*X65606D01*
X74006Y32094D02*Y28894D01*
X72406Y30494D02*X75606D01*
X84006Y32094D02*Y28894D01*
X82406Y30494D02*X85606D01*
X94006Y32094D02*Y28894D01*
X92406Y30494D02*X95606D01*
X104006Y32094D02*Y28894D01*
X102406Y30494D02*X105606D01*
X114006Y32094D02*Y28894D01*
X112406Y30494D02*X115606D01*
X15000Y372850D02*Y369650D01*
X13400Y371250D02*X16600D01*
X135000Y373500D02*X136500Y370500D01*
X138000Y373500D01*
X136500Y370500D02*Y367500D01*
X139800Y370800D02*X142050D01*
X139800Y367500D02*X142800D01*
X139800Y373500D02*Y367500D01*
Y373500D02*X142800D01*
X147600D02*X148350Y372750D01*
X145350Y373500D02*X147600D01*
X144600Y372750D02*X145350Y373500D01*
X144600Y372750D02*Y371250D01*
X145350Y370500D01*
X147600D01*
X148350Y369750D01*
Y368250D01*
X147600Y367500D02*X148350Y368250D01*
X145350Y367500D02*X147600D01*
X144600Y368250D02*X145350Y367500D01*
X98000Y372750D02*X98750Y373500D01*
X100250D01*
X101000Y372750D01*
X100250Y367500D02*X101000Y368250D01*
X98750Y367500D02*X100250D01*
X98000Y368250D02*X98750Y367500D01*
Y370800D02*X100250D01*
X101000Y372750D02*Y371550D01*
Y370050D02*Y368250D01*
Y370050D02*X100250Y370800D01*
X101000Y371550D02*X100250Y370800D01*
X102800Y368250D02*X103550Y367500D01*
X102800Y369450D02*Y368250D01*
Y369450D02*X103850Y370500D01*
X104750D01*
X105800Y369450D01*
Y368250D01*
X105050Y367500D02*X105800Y368250D01*
X103550Y367500D02*X105050D01*
X102800Y371550D02*X103850Y370500D01*
X102800Y372750D02*Y371550D01*
Y372750D02*X103550Y373500D01*
X105050D01*
X105800Y372750D01*
Y371550D01*
X104750Y370500D02*X105800Y371550D01*
X45000Y368250D02*X45750Y367500D01*
X45000Y372750D02*Y368250D01*
Y372750D02*X45750Y373500D01*
X47250D01*
X48000Y372750D01*
Y368250D01*
X47250Y367500D02*X48000Y368250D01*
X45750Y367500D02*X47250D01*
X45000Y369000D02*X48000Y372000D01*
X49800Y367500D02*X50550D01*
X52350Y368250D02*X53100Y367500D01*
X52350Y372750D02*Y368250D01*
Y372750D02*X53100Y373500D01*
X54600D01*
X55350Y372750D01*
Y368250D01*
X54600Y367500D02*X55350Y368250D01*
X53100Y367500D02*X54600D01*
X52350Y369000D02*X55350Y372000D01*
X57150Y369750D02*X60150Y373500D01*
X57150Y369750D02*X60900D01*
X60150Y373500D02*Y367500D01*
X62700Y368250D02*X63450Y367500D01*
X62700Y372750D02*Y368250D01*
Y372750D02*X63450Y373500D01*
X64950D01*
X65700Y372750D01*
Y368250D01*
X64950Y367500D02*X65700Y368250D01*
X63450Y367500D02*X64950D01*
X62700Y369000D02*X65700Y372000D01*
X271990Y73494D02*Y71894D01*
Y73494D02*X273377Y74294D01*
X271990Y73494D02*X270603Y74294D01*
X271990Y67494D02*Y65894D01*
Y67494D02*X273377Y68294D01*
X271990Y67494D02*X270603Y68294D01*
X265990Y67494D02*Y65894D01*
Y67494D02*X267377Y68294D01*
X265990Y67494D02*X264603Y68294D01*
X265990Y73494D02*Y71894D01*
Y73494D02*X267377Y74294D01*
X265990Y73494D02*X264603Y74294D01*
X81006Y184494D02*Y182894D01*
Y184494D02*X82393Y185294D01*
X81006Y184494D02*X79619Y185294D01*
X85006Y180494D02*Y178894D01*
Y180494D02*X86393Y181294D01*
X85006Y180494D02*X83619Y181294D01*
X85006Y184494D02*Y182894D01*
Y184494D02*X86393Y185294D01*
X85006Y184494D02*X83619Y185294D01*
X81006Y180494D02*Y178894D01*
Y180494D02*X82393Y181294D01*
X81006Y180494D02*X79619Y181294D01*
X259006Y204994D02*Y203394D01*
Y204994D02*X260393Y205794D01*
X259006Y204994D02*X257619Y205794D01*
X341506Y174494D02*Y172894D01*
Y174494D02*X342893Y175294D01*
X341506Y174494D02*X340119Y175294D01*
X323656Y184994D02*Y183394D01*
Y184994D02*X325043Y185794D01*
X323656Y184994D02*X322269Y185794D01*
X329656Y184994D02*Y183394D01*
Y184994D02*X331043Y185794D01*
X329656Y184994D02*X328269Y185794D01*
X329656Y177994D02*Y176394D01*
Y177994D02*X331043Y178794D01*
X329656Y177994D02*X328269Y178794D01*
X323656Y177994D02*Y176394D01*
Y177994D02*X325043Y178794D01*
X323656Y177994D02*X322269Y178794D01*
X209506Y184494D02*Y182894D01*
Y184494D02*X210893Y185294D01*
X209506Y184494D02*X208119Y185294D01*
X204506Y179494D02*Y177894D01*
Y179494D02*X205893Y180294D01*
X204506Y179494D02*X203119Y180294D01*
X209506Y174494D02*Y172894D01*
Y174494D02*X210893Y175294D01*
X209506Y174494D02*X208119Y175294D01*
X204506Y169494D02*Y167894D01*
Y169494D02*X205893Y170294D01*
X204506Y169494D02*X203119Y170294D01*
X378506Y223494D02*Y221894D01*
Y223494D02*X379893Y224294D01*
X378506Y223494D02*X377119Y224294D01*
X257490Y161152D02*Y159552D01*
Y161152D02*X258877Y161952D01*
X257490Y161152D02*X256103Y161952D01*
X263490Y161152D02*Y159552D01*
Y161152D02*X264877Y161952D01*
X263490Y161152D02*X262103Y161952D01*
X263490Y167152D02*Y165552D01*
Y167152D02*X264877Y167952D01*
X263490Y167152D02*X262103Y167952D01*
X257490Y167152D02*Y165552D01*
Y167152D02*X258877Y167952D01*
X257490Y167152D02*X256103Y167952D01*
X380506Y71494D02*Y69894D01*
Y71494D02*X381893Y72294D01*
X380506Y71494D02*X379119Y72294D01*
X228006Y146994D02*Y145394D01*
Y146994D02*X229393Y147794D01*
X228006Y146994D02*X226619Y147794D01*
X360006Y71494D02*Y69894D01*
Y71494D02*X361393Y72294D01*
X360006Y71494D02*X358619Y72294D01*
X228006Y44994D02*Y43394D01*
Y44994D02*X229393Y45794D01*
X228006Y44994D02*X226619Y45794D01*
X69506Y197994D02*Y196394D01*
Y197994D02*X70893Y198794D01*
X69506Y197994D02*X68119Y198794D01*
X72506Y200994D02*Y199394D01*
Y200994D02*X73893Y201794D01*
X72506Y200994D02*X71119Y201794D01*
X75506Y203994D02*Y202394D01*
Y203994D02*X76893Y204794D01*
X75506Y203994D02*X74119Y204794D01*
X44006Y210494D02*Y208894D01*
Y210494D02*X45393Y211294D01*
X44006Y210494D02*X42619Y211294D01*
X48006Y214494D02*Y212894D01*
Y214494D02*X49393Y215294D01*
X48006Y214494D02*X46619Y215294D01*
X52006Y218494D02*Y216894D01*
Y218494D02*X53393Y219294D01*
X52006Y218494D02*X50619Y219294D01*
X320006Y155994D02*Y154394D01*
Y155994D02*X321393Y156794D01*
X320006Y155994D02*X318619Y156794D01*
X312506Y174494D02*Y172894D01*
Y174494D02*X313893Y175294D01*
X312506Y174494D02*X311119Y175294D01*
X312506Y195994D02*Y194394D01*
Y195994D02*X313893Y196794D01*
X312506Y195994D02*X311119Y196794D01*
X326506Y195994D02*Y194394D01*
Y195994D02*X327893Y196794D01*
X326506Y195994D02*X325119Y196794D01*
X320006Y201994D02*Y200394D01*
Y201994D02*X321393Y202794D01*
X320006Y201994D02*X318619Y202794D01*
X360006Y186994D02*Y185394D01*
Y186994D02*X361393Y187794D01*
X360006Y186994D02*X358619Y187794D01*
X247006Y173494D02*Y171894D01*
Y173494D02*X248393Y174294D01*
X247006Y173494D02*X245619Y174294D01*
X290506Y173494D02*Y171894D01*
Y173494D02*X291893Y174294D01*
X290506Y173494D02*X289119Y174294D01*
X243506Y167994D02*Y166394D01*
Y167994D02*X244893Y168794D01*
X243506Y167994D02*X242119Y168794D01*
X267506Y177994D02*Y176394D01*
Y177994D02*X268893Y178794D01*
X267506Y177994D02*X266119Y178794D01*
X267506Y146994D02*Y145394D01*
Y146994D02*X268893Y147794D01*
X267506Y146994D02*X266119Y147794D01*
X243506Y177994D02*Y176394D01*
Y177994D02*X244893Y178794D01*
X243506Y177994D02*X242119Y178794D01*
X240006Y170994D02*Y169394D01*
Y170994D02*X241393Y171794D01*
X240006Y170994D02*X238619Y171794D01*
X323506Y198994D02*Y197394D01*
Y198994D02*X324893Y199794D01*
X323506Y198994D02*X322119Y199794D01*
X240006Y280494D02*Y278894D01*
Y280494D02*X241393Y281294D01*
X240006Y280494D02*X238619Y281294D01*
X69506Y187994D02*Y186394D01*
Y187994D02*X70893Y188794D01*
X69506Y187994D02*X68119Y188794D01*
X326506Y246994D02*Y245394D01*
Y246994D02*X327893Y247794D01*
X326506Y246994D02*X325119Y247794D01*
X389006Y43494D02*Y41894D01*
Y43494D02*X390393Y44294D01*
X389006Y43494D02*X387619Y44294D01*
X257506Y217994D02*Y216394D01*
Y217994D02*X258893Y218794D01*
X257506Y217994D02*X256119Y218794D01*
X144006Y146494D02*Y144894D01*
Y146494D02*X145393Y147294D01*
X144006Y146494D02*X142619Y147294D01*
X114506Y244494D02*Y242894D01*
Y244494D02*X115893Y245294D01*
X114506Y244494D02*X113119Y245294D01*
X401006Y153494D02*Y151894D01*
Y153494D02*X402393Y154294D01*
X401006Y153494D02*X399619Y154294D01*
X284006Y264494D02*Y262894D01*
Y264494D02*X285393Y265294D01*
X284006Y264494D02*X282619Y265294D01*
X230506Y264494D02*Y262894D01*
Y264494D02*X231893Y265294D01*
X230506Y264494D02*X229119Y265294D01*
X114506Y256994D02*Y255394D01*
Y256994D02*X115893Y257794D01*
X114506Y256994D02*X113119Y257794D01*
X143006Y109994D02*Y108394D01*
Y109994D02*X144393Y110794D01*
X143006Y109994D02*X141619Y110794D01*
X96506Y67494D02*Y65894D01*
Y67494D02*X97893Y68294D01*
X96506Y67494D02*X95119Y68294D01*
X197506Y193994D02*Y192394D01*
Y193994D02*X198893Y194794D01*
X197506Y193994D02*X196119Y194794D01*
X281506Y92994D02*Y91394D01*
Y92994D02*X282893Y93794D01*
X281506Y92994D02*X280119Y93794D01*
X267506Y120994D02*Y119394D01*
Y120994D02*X268893Y121794D01*
X267506Y120994D02*X266119Y121794D01*
X336006Y52494D02*Y50894D01*
Y52494D02*X337393Y53294D01*
X336006Y52494D02*X334619Y53294D01*
X380506Y52494D02*Y50894D01*
Y52494D02*X381893Y53294D01*
X380506Y52494D02*X379119Y53294D01*
X344506Y43494D02*Y41894D01*
Y43494D02*X345893Y44294D01*
X344506Y43494D02*X343119Y44294D01*
X262006Y92994D02*Y91394D01*
Y92994D02*X263393Y93794D01*
X262006Y92994D02*X260619Y93794D01*
X302506Y55994D02*Y54394D01*
Y55994D02*X303893Y56794D01*
X302506Y55994D02*X301119Y56794D01*
X263506Y55994D02*Y54394D01*
Y55994D02*X264893Y56794D01*
X263506Y55994D02*X262119Y56794D01*
X286006Y80994D02*Y79394D01*
Y80994D02*X287393Y81794D01*
X286006Y80994D02*X284619Y81794D01*
X253006Y80994D02*Y79394D01*
Y80994D02*X254393Y81794D01*
X253006Y80994D02*X251619Y81794D01*
X226006Y217494D02*Y215894D01*
Y217494D02*X227393Y218294D01*
X226006Y217494D02*X224619Y218294D01*
X240006Y190494D02*Y188894D01*
Y190494D02*X241393Y191294D01*
X240006Y190494D02*X238619Y191294D01*
X232506Y152494D02*Y150894D01*
Y152494D02*X233893Y153294D01*
X232506Y152494D02*X231119Y153294D01*
X280006Y44494D02*Y42894D01*
Y44494D02*X281393Y45294D01*
X280006Y44494D02*X278619Y45294D01*
X354506Y192994D02*Y191394D01*
Y192994D02*X355893Y193794D01*
X354506Y192994D02*X353119Y193794D01*
X282006Y61494D02*Y59894D01*
Y61494D02*X283393Y62294D01*
X282006Y61494D02*X280619Y62294D01*
X187006Y186494D02*Y184894D01*
Y186494D02*X188393Y187294D01*
X187006Y186494D02*X185619Y187294D01*
X230506Y190994D02*Y189394D01*
Y190994D02*X231893Y191794D01*
X230506Y190994D02*X229119Y191794D01*
X345506Y209994D02*Y208394D01*
Y209994D02*X346893Y210794D01*
X345506Y209994D02*X344119Y210794D01*
X203506Y101494D02*Y99894D01*
Y101494D02*X204893Y102294D01*
X203506Y101494D02*X202119Y102294D01*
X200506Y96994D02*Y95394D01*
Y96994D02*X201893Y97794D01*
X200506Y96994D02*X199119Y97794D01*
X291006Y51494D02*Y49894D01*
Y51494D02*X292393Y52294D01*
X291006Y51494D02*X289619Y52294D01*
X296506Y51494D02*Y49894D01*
Y51494D02*X297893Y52294D01*
X296506Y51494D02*X295119Y52294D01*
X288006Y71994D02*Y70394D01*
Y71994D02*X289393Y72794D01*
X288006Y71994D02*X286619Y72794D01*
X156506Y167994D02*Y166394D01*
Y167994D02*X157893Y168794D01*
X156506Y167994D02*X155119Y168794D01*
X152506Y172494D02*Y170894D01*
Y172494D02*X153893Y173294D01*
X152506Y172494D02*X151119Y173294D01*
X59506Y96994D02*Y95394D01*
Y96994D02*X60893Y97794D01*
X59506Y96994D02*X58119Y97794D01*
X79506Y96994D02*Y95394D01*
Y96994D02*X80893Y97794D01*
X79506Y96994D02*X78119Y97794D01*
X220506Y150494D02*Y148894D01*
Y150494D02*X221893Y151294D01*
X220506Y150494D02*X219119Y151294D01*
X220506Y61494D02*Y59894D01*
Y61494D02*X221893Y62294D01*
X220506Y61494D02*X219119Y62294D01*
X220506Y162994D02*Y161394D01*
Y162994D02*X221893Y163794D01*
X220506Y162994D02*X219119Y163794D01*
X335506Y195994D02*Y194394D01*
Y195994D02*X336893Y196794D01*
X335506Y195994D02*X334119Y196794D01*
X345506Y246994D02*Y245394D01*
Y246994D02*X346893Y247794D01*
X345506Y246994D02*X344119Y247794D01*
X341506Y116994D02*Y115394D01*
Y116994D02*X342893Y117794D01*
X341506Y116994D02*X340119Y117794D01*
X356506Y121994D02*Y120394D01*
Y121994D02*X357893Y122794D01*
X356506Y121994D02*X355119Y122794D01*
X352506Y127494D02*Y125894D01*
Y127494D02*X353893Y128294D01*
X352506Y127494D02*X351119Y128294D01*
X345506Y111494D02*Y109894D01*
Y111494D02*X346893Y112294D01*
X345506Y111494D02*X344119Y112294D01*
X323006Y124994D02*Y123394D01*
Y124994D02*X324393Y125794D01*
X323006Y124994D02*X321619Y125794D01*
X377006Y113494D02*Y111894D01*
Y113494D02*X378393Y114294D01*
X377006Y113494D02*X375619Y114294D01*
X389506Y203494D02*Y201894D01*
Y203494D02*X390893Y204294D01*
X389506Y203494D02*X388119Y204294D01*
X370506Y220994D02*Y219394D01*
Y220994D02*X371893Y221794D01*
X370506Y220994D02*X369119Y221794D01*
X355506Y225994D02*Y224394D01*
Y225994D02*X356893Y226794D01*
X355506Y225994D02*X354119Y226794D01*
X359006Y231494D02*Y229894D01*
Y231494D02*X360393Y232294D01*
X359006Y231494D02*X357619Y232294D01*
X366506Y215494D02*Y213894D01*
Y215494D02*X367893Y216294D01*
X366506Y215494D02*X365119Y216294D01*
X337006Y212494D02*Y210894D01*
Y212494D02*X338393Y213294D01*
X337006Y212494D02*X335619Y213294D01*
X337006Y230994D02*Y229394D01*
Y230994D02*X338393Y231794D01*
X337006Y230994D02*X335619Y231794D01*
X352006Y207994D02*Y206394D01*
Y207994D02*X353393Y208794D01*
X352006Y207994D02*X350619Y208794D01*
X352006Y246994D02*Y245394D01*
Y246994D02*X353393Y247794D01*
X352006Y246994D02*X350619Y247794D01*
X313006Y109994D02*Y108394D01*
Y109994D02*X314393Y110794D01*
X313006Y109994D02*X311619Y110794D01*
X236006Y107494D02*Y105894D01*
Y107494D02*X237393Y108294D01*
X236006Y107494D02*X234619Y108294D01*
X87006Y171494D02*Y169894D01*
Y171494D02*X88393Y172294D01*
X87006Y171494D02*X85619Y172294D01*
X83006Y171494D02*Y169894D01*
Y171494D02*X84393Y172294D01*
X83006Y171494D02*X81619Y172294D01*
X79006Y171494D02*Y169894D01*
Y171494D02*X80393Y172294D01*
X79006Y171494D02*X77619Y172294D01*
X79006Y193494D02*Y191894D01*
Y193494D02*X80393Y194294D01*
X79006Y193494D02*X77619Y194294D01*
X83006Y193494D02*Y191894D01*
Y193494D02*X84393Y194294D01*
X83006Y193494D02*X81619Y194294D01*
X87006Y193494D02*Y191894D01*
Y193494D02*X88393Y194294D01*
X87006Y193494D02*X85619Y194294D01*
X106006Y172494D02*Y170894D01*
Y172494D02*X107393Y173294D01*
X106006Y172494D02*X104619Y173294D01*
X106006Y186494D02*Y184894D01*
Y186494D02*X107393Y187294D01*
X106006Y186494D02*X104619Y187294D01*
X139006Y175994D02*Y174394D01*
Y175994D02*X140393Y176794D01*
X139006Y175994D02*X137619Y176794D01*
X139506Y182994D02*Y181394D01*
Y182994D02*X140893Y183794D01*
X139506Y182994D02*X138119Y183794D01*
X173006Y186494D02*Y184894D01*
Y186494D02*X174393Y187294D01*
X173006Y186494D02*X171619Y187294D01*
X283006Y188494D02*Y186894D01*
Y188494D02*X284393Y189294D01*
X283006Y188494D02*X281619Y189294D01*
X283006Y180494D02*Y178894D01*
Y180494D02*X284393Y181294D01*
X283006Y180494D02*X281619Y181294D01*
X173006Y172494D02*Y170894D01*
Y172494D02*X174393Y173294D01*
X173006Y172494D02*X171619Y173294D01*
X185506Y155994D02*Y154394D01*
Y155994D02*X186893Y156794D01*
X185506Y155994D02*X184119Y156794D01*
X177506Y151494D02*Y149894D01*
Y151494D02*X178893Y152294D01*
X177506Y151494D02*X176119Y152294D01*
X192506Y113994D02*Y112394D01*
Y113994D02*X193893Y114794D01*
X192506Y113994D02*X191119Y114794D01*
X192506Y126994D02*Y125394D01*
Y126994D02*X193893Y127794D01*
X192506Y126994D02*X191119Y127794D01*
X225506Y113994D02*Y112394D01*
Y113994D02*X226893Y114794D01*
X225506Y113994D02*X224119Y114794D01*
X225506Y126994D02*Y125394D01*
Y126994D02*X226893Y127794D01*
X225506Y126994D02*X224119Y127794D01*
X308006Y101494D02*Y99894D01*
Y101494D02*X309393Y102294D01*
X308006Y101494D02*X306619Y102294D01*
X387506Y153494D02*Y151894D01*
Y153494D02*X388893Y154294D01*
X387506Y153494D02*X386119Y154294D01*
X379506Y153494D02*Y151894D01*
Y153494D02*X380893Y154294D01*
X379506Y153494D02*X378119Y154294D01*
X321006Y237494D02*Y235894D01*
Y237494D02*X322393Y238294D01*
X321006Y237494D02*X319619Y238294D01*
X320006Y209494D02*Y207894D01*
Y209494D02*X321393Y210294D01*
X320006Y209494D02*X318619Y210294D01*
X262506Y248994D02*Y247394D01*
Y248994D02*X263893Y249794D01*
X262506Y248994D02*X261119Y249794D01*
X262506Y240994D02*Y239394D01*
Y240994D02*X263893Y241794D01*
X262506Y240994D02*X261119Y241794D01*
X221006Y235494D02*Y233894D01*
Y235494D02*X222393Y236294D01*
X221006Y235494D02*X219619Y236294D01*
X201006Y235494D02*Y233894D01*
Y235494D02*X202393Y236294D01*
X201006Y235494D02*X199619Y236294D01*
X213506Y199994D02*Y198394D01*
Y199994D02*X214893Y200794D01*
X213506Y199994D02*X212119Y200794D01*
X191006Y188994D02*Y187394D01*
Y188994D02*X192393Y189794D01*
X191006Y188994D02*X189619Y189794D01*
X174006Y212494D02*Y210894D01*
Y212494D02*X175393Y213294D01*
X174006Y212494D02*X172619Y213294D01*
X167506Y209994D02*Y208394D01*
Y209994D02*X168893Y210794D01*
X167506Y209994D02*X166119Y210794D01*
X156006Y205994D02*Y204394D01*
Y205994D02*X157393Y206794D01*
X156006Y205994D02*X154619Y206794D01*
X143006Y198994D02*Y197394D01*
Y198994D02*X144393Y199794D01*
X143006Y198994D02*X141619Y199794D01*
X121006Y184994D02*Y183394D01*
Y184994D02*X122393Y185794D01*
X121006Y184994D02*X119619Y185794D01*
X145006Y168494D02*Y166894D01*
Y168494D02*X146393Y169294D01*
X145006Y168494D02*X143619Y169294D01*
X155006Y148494D02*Y146894D01*
Y148494D02*X156393Y149294D01*
X155006Y148494D02*X153619Y149294D01*
X166506Y147494D02*Y145894D01*
Y147494D02*X167893Y148294D01*
X166506Y147494D02*X165119Y148294D01*
X200006Y106494D02*Y104894D01*
Y106494D02*X201393Y107294D01*
X200006Y106494D02*X198619Y107294D01*
X201506Y112994D02*Y111394D01*
Y112994D02*X202893Y113794D01*
X201506Y112994D02*X200119Y113794D01*
X217506Y112994D02*Y111394D01*
Y112994D02*X218893Y113794D01*
X217506Y112994D02*X216119Y113794D01*
X217506Y127994D02*Y126394D01*
Y127994D02*X218893Y128794D01*
X217506Y127994D02*X216119Y128794D01*
X201506Y127994D02*Y126394D01*
Y127994D02*X202893Y128794D01*
X201506Y127994D02*X200119Y128794D01*
X250506Y191494D02*Y189894D01*
Y191494D02*X251893Y192294D01*
X250506Y191494D02*X249119Y192294D01*
X167506Y186994D02*Y185394D01*
Y186994D02*X168893Y187794D01*
X167506Y186994D02*X166119Y187794D01*
X166506Y170494D02*Y168894D01*
Y170494D02*X167893Y171294D01*
X166506Y170494D02*X165119Y171294D01*
X15000Y386250D02*Y384650D01*
Y386250D02*X16387Y387050D01*
X15000Y386250D02*X13613Y387050D01*
X135000Y388500D02*X136500Y385500D01*
X138000Y388500D01*
X136500Y385500D02*Y382500D01*
X139800Y385800D02*X142050D01*
X139800Y382500D02*X142800D01*
X139800Y388500D02*Y382500D01*
Y388500D02*X142800D01*
X147600D02*X148350Y387750D01*
X145350Y388500D02*X147600D01*
X144600Y387750D02*X145350Y388500D01*
X144600Y387750D02*Y386250D01*
X145350Y385500D01*
X147600D01*
X148350Y384750D01*
Y383250D01*
X147600Y382500D02*X148350Y383250D01*
X145350Y382500D02*X147600D01*
X144600Y383250D02*X145350Y382500D01*
X98000Y387300D02*X99200Y388500D01*
Y382500D01*
X98000D02*X100250D01*
X102050Y388500D02*X105050D01*
X102050D02*Y385500D01*
X102800Y386250D01*
X104300D01*
X105050Y385500D01*
Y383250D01*
X104300Y382500D02*X105050Y383250D01*
X102800Y382500D02*X104300D01*
X102050Y383250D02*X102800Y382500D01*
X106850Y383250D02*X107600Y382500D01*
X106850Y384450D02*Y383250D01*
Y384450D02*X107900Y385500D01*
X108800D01*
X109850Y384450D01*
Y383250D01*
X109100Y382500D02*X109850Y383250D01*
X107600Y382500D02*X109100D01*
X106850Y386550D02*X107900Y385500D01*
X106850Y387750D02*Y386550D01*
Y387750D02*X107600Y388500D01*
X109100D01*
X109850Y387750D01*
Y386550D01*
X108800Y385500D02*X109850Y386550D01*
X45000Y383250D02*X45750Y382500D01*
X45000Y387750D02*Y383250D01*
Y387750D02*X45750Y388500D01*
X47250D01*
X48000Y387750D01*
Y383250D01*
X47250Y382500D02*X48000Y383250D01*
X45750Y382500D02*X47250D01*
X45000Y384000D02*X48000Y387000D01*
X49800Y382500D02*X50550D01*
X52350Y383250D02*X53100Y382500D01*
X52350Y387750D02*Y383250D01*
Y387750D02*X53100Y388500D01*
X54600D01*
X55350Y387750D01*
Y383250D01*
X54600Y382500D02*X55350Y383250D01*
X53100Y382500D02*X54600D01*
X52350Y384000D02*X55350Y387000D01*
X57150Y387300D02*X58350Y388500D01*
Y382500D01*
X57150D02*X59400D01*
X61200Y387750D02*X61950Y388500D01*
X64200D01*
X64950Y387750D01*
Y386250D01*
X61200Y382500D02*X64950Y386250D01*
X61200Y382500D02*X64950D01*
X3000Y403500D02*X3750Y402750D01*
X750Y403500D02*X3000D01*
X0Y402750D02*X750Y403500D01*
X0Y402750D02*Y401250D01*
X750Y400500D01*
X3000D01*
X3750Y399750D01*
Y398250D01*
X3000Y397500D02*X3750Y398250D01*
X750Y397500D02*X3000D01*
X0Y398250D02*X750Y397500D01*
X5550Y400500D02*Y398250D01*
X6300Y397500D01*
X8550Y400500D02*Y396000D01*
X7800Y395250D02*X8550Y396000D01*
X6300Y395250D02*X7800D01*
X5550Y396000D02*X6300Y395250D01*
Y397500D02*X7800D01*
X8550Y398250D01*
X11100Y399750D02*Y397500D01*
Y399750D02*X11850Y400500D01*
X12600D01*
X13350Y399750D01*
Y397500D01*
Y399750D02*X14100Y400500D01*
X14850D01*
X15600Y399750D01*
Y397500D01*
X10350Y400500D02*X11100Y399750D01*
X17400Y403500D02*Y397500D01*
Y398250D02*X18150Y397500D01*
X19650D01*
X20400Y398250D01*
Y399750D02*Y398250D01*
X19650Y400500D02*X20400Y399750D01*
X18150Y400500D02*X19650D01*
X17400Y399750D02*X18150Y400500D01*
X22200Y399750D02*Y398250D01*
Y399750D02*X22950Y400500D01*
X24450D01*
X25200Y399750D01*
Y398250D01*
X24450Y397500D02*X25200Y398250D01*
X22950Y397500D02*X24450D01*
X22200Y398250D02*X22950Y397500D01*
X27000Y403500D02*Y398250D01*
X27750Y397500D01*
X0Y394250D02*X29250D01*
X41750Y403500D02*Y397500D01*
X43700Y403500D02*X44750Y402450D01*
Y398550D01*
X43700Y397500D02*X44750Y398550D01*
X41000Y397500D02*X43700D01*
X41000Y403500D02*X43700D01*
G54D191*X46550Y402000D02*Y401850D01*
G54D190*Y399750D02*Y397500D01*
X50300Y400500D02*X51050Y399750D01*
X48800Y400500D02*X50300D01*
X48050Y399750D02*X48800Y400500D01*
X48050Y399750D02*Y398250D01*
X48800Y397500D01*
X51050Y400500D02*Y398250D01*
X51800Y397500D01*
X48800D02*X50300D01*
X51050Y398250D01*
X54350Y399750D02*Y397500D01*
Y399750D02*X55100Y400500D01*
X55850D01*
X56600Y399750D01*
Y397500D01*
Y399750D02*X57350Y400500D01*
X58100D01*
X58850Y399750D01*
Y397500D01*
X53600Y400500D02*X54350Y399750D01*
X60650Y397500D02*X61400D01*
X65900Y398250D02*X66650Y397500D01*
X65900Y402750D02*X66650Y403500D01*
X65900Y402750D02*Y398250D01*
X68450Y403500D02*X69950D01*
X69200D02*Y397500D01*
X68450D02*X69950D01*
X72500Y399750D02*Y397500D01*
Y399750D02*X73250Y400500D01*
X74000D01*
X74750Y399750D01*
Y397500D01*
X71750Y400500D02*X72500Y399750D01*
X77300Y400500D02*X79550D01*
X76550Y399750D02*X77300Y400500D01*
X76550Y399750D02*Y398250D01*
X77300Y397500D01*
X79550D01*
X81350Y403500D02*Y397500D01*
Y399750D02*X82100Y400500D01*
X83600D01*
X84350Y399750D01*
Y397500D01*
X86150Y403500D02*X86900Y402750D01*
Y398250D01*
X86150Y397500D02*X86900Y398250D01*
X41000Y394250D02*X88700D01*
X96050Y397500D02*X98000D01*
X95000Y398550D02*X96050Y397500D01*
X95000Y402450D02*Y398550D01*
Y402450D02*X96050Y403500D01*
X98000D01*
X99800Y399750D02*Y398250D01*
Y399750D02*X100550Y400500D01*
X102050D01*
X102800Y399750D01*
Y398250D01*
X102050Y397500D02*X102800Y398250D01*
X100550Y397500D02*X102050D01*
X99800Y398250D02*X100550Y397500D01*
X104600Y400500D02*Y398250D01*
X105350Y397500D01*
X106850D01*
X107600Y398250D01*
Y400500D02*Y398250D01*
X110150Y399750D02*Y397500D01*
Y399750D02*X110900Y400500D01*
X111650D01*
X112400Y399750D01*
Y397500D01*
X109400Y400500D02*X110150Y399750D01*
X114950Y403500D02*Y398250D01*
X115700Y397500D01*
X114200Y401250D02*X115700D01*
X95000Y394250D02*X117200D01*
X130750Y403500D02*Y397500D01*
X130000Y403500D02*X133000D01*
X133750Y402750D01*
Y401250D01*
X133000Y400500D02*X133750Y401250D01*
X130750Y400500D02*X133000D01*
X135550Y403500D02*Y398250D01*
X136300Y397500D01*
X140050Y400500D02*X140800Y399750D01*
X138550Y400500D02*X140050D01*
X137800Y399750D02*X138550Y400500D01*
X137800Y399750D02*Y398250D01*
X138550Y397500D01*
X140800Y400500D02*Y398250D01*
X141550Y397500D01*
X138550D02*X140050D01*
X140800Y398250D01*
X144100Y403500D02*Y398250D01*
X144850Y397500D01*
X143350Y401250D02*X144850D01*
X147100Y397500D02*X149350D01*
X146350Y398250D02*X147100Y397500D01*
X146350Y399750D02*Y398250D01*
Y399750D02*X147100Y400500D01*
X148600D01*
X149350Y399750D01*
X146350Y399000D02*X149350D01*
Y399750D02*Y399000D01*
X154150Y403500D02*Y397500D01*
X153400D02*X154150Y398250D01*
X151900Y397500D02*X153400D01*
X151150Y398250D02*X151900Y397500D01*
X151150Y399750D02*Y398250D01*
Y399750D02*X151900Y400500D01*
X153400D01*
X154150Y399750D01*
X157450Y400500D02*Y399750D01*
Y398250D02*Y397500D01*
X155950Y402750D02*Y402000D01*
Y402750D02*X156700Y403500D01*
X158200D01*
X158950Y402750D01*
Y402000D01*
X157450Y400500D02*X158950Y402000D01*
X130000Y394250D02*X160750D01*
X0Y418500D02*X3000D01*
X1500D02*Y412500D01*
X4800Y418500D02*Y412500D01*
Y414750D02*X5550Y415500D01*
X7050D01*
X7800Y414750D01*
Y412500D01*
X10350D02*X12600D01*
X9600Y413250D02*X10350Y412500D01*
X9600Y414750D02*Y413250D01*
Y414750D02*X10350Y415500D01*
X11850D01*
X12600Y414750D01*
X9600Y414000D02*X12600D01*
Y414750D02*Y414000D01*
X15150Y414750D02*Y412500D01*
Y414750D02*X15900Y415500D01*
X17400D01*
X14400D02*X15150Y414750D01*
X19950Y412500D02*X22200D01*
X19200Y413250D02*X19950Y412500D01*
X19200Y414750D02*Y413250D01*
Y414750D02*X19950Y415500D01*
X21450D01*
X22200Y414750D01*
X19200Y414000D02*X22200D01*
Y414750D02*Y414000D01*
X28950Y415500D02*X29700Y414750D01*
X27450Y415500D02*X28950D01*
X26700Y414750D02*X27450Y415500D01*
X26700Y414750D02*Y413250D01*
X27450Y412500D01*
X29700Y415500D02*Y413250D01*
X30450Y412500D01*
X27450D02*X28950D01*
X29700Y413250D01*
X33000Y414750D02*Y412500D01*
Y414750D02*X33750Y415500D01*
X35250D01*
X32250D02*X33000Y414750D01*
X37800Y412500D02*X40050D01*
X37050Y413250D02*X37800Y412500D01*
X37050Y414750D02*Y413250D01*
Y414750D02*X37800Y415500D01*
X39300D01*
X40050Y414750D01*
X37050Y414000D02*X40050D01*
Y414750D02*Y414000D01*
X44550Y414750D02*X47550Y418500D01*
X44550Y414750D02*X48300D01*
X47550Y418500D02*Y412500D01*
X55800Y418500D02*Y412500D01*
X55050D02*X55800Y413250D01*
X53550Y412500D02*X55050D01*
X52800Y413250D02*X53550Y412500D01*
X52800Y414750D02*Y413250D01*
Y414750D02*X53550Y415500D01*
X55050D01*
X55800Y414750D01*
G54D191*X57600Y417000D02*Y416850D01*
G54D190*Y414750D02*Y412500D01*
X59850Y417750D02*Y412500D01*
Y417750D02*X60600Y418500D01*
X61350D01*
X59100Y415500D02*X60600D01*
X63600Y417750D02*Y412500D01*
Y417750D02*X64350Y418500D01*
X65100D01*
X62850Y415500D02*X64350D01*
X67350Y412500D02*X69600D01*
X66600Y413250D02*X67350Y412500D01*
X66600Y414750D02*Y413250D01*
Y414750D02*X67350Y415500D01*
X68850D01*
X69600Y414750D01*
X66600Y414000D02*X69600D01*
Y414750D02*Y414000D01*
X72150Y414750D02*Y412500D01*
Y414750D02*X72900Y415500D01*
X74400D01*
X71400D02*X72150Y414750D01*
X76950Y412500D02*X79200D01*
X76200Y413250D02*X76950Y412500D01*
X76200Y414750D02*Y413250D01*
Y414750D02*X76950Y415500D01*
X78450D01*
X79200Y414750D01*
X76200Y414000D02*X79200D01*
Y414750D02*Y414000D01*
X81750Y414750D02*Y412500D01*
Y414750D02*X82500Y415500D01*
X83250D01*
X84000Y414750D01*
Y412500D01*
X81000Y415500D02*X81750Y414750D01*
X86550Y418500D02*Y413250D01*
X87300Y412500D01*
X85800Y416250D02*X87300D01*
X94500Y418500D02*Y412500D01*
X93750D02*X94500Y413250D01*
X92250Y412500D02*X93750D01*
X91500Y413250D02*X92250Y412500D01*
X91500Y414750D02*Y413250D01*
Y414750D02*X92250Y415500D01*
X93750D01*
X94500Y414750D01*
X97050D02*Y412500D01*
Y414750D02*X97800Y415500D01*
X99300D01*
X96300D02*X97050Y414750D01*
G54D191*X101100Y417000D02*Y416850D01*
G54D190*Y414750D02*Y412500D01*
X102600Y418500D02*Y413250D01*
X103350Y412500D01*
X104850Y418500D02*Y413250D01*
X105600Y412500D01*
X110550D02*X112800D01*
X113550Y413250D01*
X112800Y414000D02*X113550Y413250D01*
X110550Y414000D02*X112800D01*
X109800Y414750D02*X110550Y414000D01*
X109800Y414750D02*X110550Y415500D01*
X112800D01*
X113550Y414750D01*
X109800Y413250D02*X110550Y412500D01*
G54D191*X115350Y417000D02*Y416850D01*
G54D190*Y414750D02*Y412500D01*
X116850Y415500D02*X119850D01*
X116850Y412500D02*X119850Y415500D01*
X116850Y412500D02*X119850D01*
X122400D02*X124650D01*
X121650Y413250D02*X122400Y412500D01*
X121650Y414750D02*Y413250D01*
Y414750D02*X122400Y415500D01*
X123900D01*
X124650Y414750D01*
X121650Y414000D02*X124650D01*
Y414750D02*Y414000D01*
X127200Y412500D02*X129450D01*
X130200Y413250D01*
X129450Y414000D02*X130200Y413250D01*
X127200Y414000D02*X129450D01*
X126450Y414750D02*X127200Y414000D01*
X126450Y414750D02*X127200Y415500D01*
X129450D01*
X130200Y414750D01*
X126450Y413250D02*X127200Y412500D01*
X134700Y415500D02*Y413250D01*
X135450Y412500D01*
X136950D01*
X137700Y413250D01*
Y415500D02*Y413250D01*
X140250Y412500D02*X142500D01*
X143250Y413250D01*
X142500Y414000D02*X143250Y413250D01*
X140250Y414000D02*X142500D01*
X139500Y414750D02*X140250Y414000D01*
X139500Y414750D02*X140250Y415500D01*
X142500D01*
X143250Y414750D01*
X139500Y413250D02*X140250Y412500D01*
X145800D02*X148050D01*
X145050Y413250D02*X145800Y412500D01*
X145050Y414750D02*Y413250D01*
Y414750D02*X145800Y415500D01*
X147300D01*
X148050Y414750D01*
X145050Y414000D02*X148050D01*
Y414750D02*Y414000D01*
X152850Y418500D02*Y412500D01*
X152100D02*X152850Y413250D01*
X150600Y412500D02*X152100D01*
X149850Y413250D02*X150600Y412500D01*
X149850Y414750D02*Y413250D01*
Y414750D02*X150600Y415500D01*
X152100D01*
X152850Y414750D01*
G54D191*X157350Y417000D02*Y416850D01*
G54D190*Y414750D02*Y412500D01*
X159600Y414750D02*Y412500D01*
Y414750D02*X160350Y415500D01*
X161100D01*
X161850Y414750D01*
Y412500D01*
X158850Y415500D02*X159600Y414750D01*
X167100Y418500D02*Y413250D01*
X167850Y412500D01*
X166350Y416250D02*X167850D01*
X169350Y418500D02*Y412500D01*
Y414750D02*X170100Y415500D01*
X171600D01*
X172350Y414750D01*
Y412500D01*
G54D191*X174150Y417000D02*Y416850D01*
G54D190*Y414750D02*Y412500D01*
X176400D02*X178650D01*
X179400Y413250D01*
X178650Y414000D02*X179400Y413250D01*
X176400Y414000D02*X178650D01*
X175650Y414750D02*X176400Y414000D01*
X175650Y414750D02*X176400Y415500D01*
X178650D01*
X179400Y414750D01*
X175650Y413250D02*X176400Y412500D01*
X183900Y418500D02*Y413250D01*
X184650Y412500D01*
X188400Y415500D02*X189150Y414750D01*
X186900Y415500D02*X188400D01*
X186150Y414750D02*X186900Y415500D01*
X186150Y414750D02*Y413250D01*
X186900Y412500D01*
X189150Y415500D02*Y413250D01*
X189900Y412500D01*
X186900D02*X188400D01*
X189150Y413250D01*
X191700Y415500D02*Y413250D01*
X192450Y412500D01*
X194700Y415500D02*Y411000D01*
X193950Y410250D02*X194700Y411000D01*
X192450Y410250D02*X193950D01*
X191700Y411000D02*X192450Y410250D01*
Y412500D02*X193950D01*
X194700Y413250D01*
X196500Y414750D02*Y413250D01*
Y414750D02*X197250Y415500D01*
X198750D01*
X199500Y414750D01*
Y413250D01*
X198750Y412500D02*X199500Y413250D01*
X197250Y412500D02*X198750D01*
X196500Y413250D02*X197250Y412500D01*
X201300Y415500D02*Y413250D01*
X202050Y412500D01*
X203550D01*
X204300Y413250D01*
Y415500D02*Y413250D01*
X206850Y418500D02*Y413250D01*
X207600Y412500D01*
X206100Y416250D02*X207600D01*
X209100Y411000D02*X210600Y412500D01*
X215100Y417750D02*X215850Y418500D01*
X218100D01*
X218850Y417750D01*
Y416250D01*
X215100Y412500D02*X218850Y416250D01*
X215100Y412500D02*X218850D01*
X220650Y413250D02*X221400Y412500D01*
X220650Y417750D02*Y413250D01*
Y417750D02*X221400Y418500D01*
X222900D01*
X223650Y417750D01*
Y413250D01*
X222900Y412500D02*X223650Y413250D01*
X221400Y412500D02*X222900D01*
X220650Y414000D02*X223650Y417000D01*
X225450Y418500D02*X228450D01*
X225450D02*Y415500D01*
X226200Y416250D01*
X227700D01*
X228450Y415500D01*
Y413250D01*
X227700Y412500D02*X228450Y413250D01*
X226200Y412500D02*X227700D01*
X225450Y413250D02*X226200Y412500D01*
X232950Y418500D02*Y412500D01*
Y414750D02*X233700Y415500D01*
X235200D01*
X235950Y414750D01*
Y412500D01*
X237750Y414750D02*Y413250D01*
Y414750D02*X238500Y415500D01*
X240000D01*
X240750Y414750D01*
Y413250D01*
X240000Y412500D02*X240750Y413250D01*
X238500Y412500D02*X240000D01*
X237750Y413250D02*X238500Y412500D01*
X242550Y418500D02*Y413250D01*
X243300Y412500D01*
X245550D02*X247800D01*
X244800Y413250D02*X245550Y412500D01*
X244800Y414750D02*Y413250D01*
Y414750D02*X245550Y415500D01*
X247050D01*
X247800Y414750D01*
X244800Y414000D02*X247800D01*
Y414750D02*Y414000D01*
X250350Y412500D02*X252600D01*
X253350Y413250D01*
X252600Y414000D02*X253350Y413250D01*
X250350Y414000D02*X252600D01*
X249600Y414750D02*X250350Y414000D01*
X249600Y414750D02*X250350Y415500D01*
X252600D01*
X253350Y414750D01*
X249600Y413250D02*X250350Y412500D01*
X258600Y418500D02*Y413250D01*
X259350Y412500D01*
X257850Y416250D02*X259350D01*
X260850Y414750D02*Y413250D01*
Y414750D02*X261600Y415500D01*
X263100D01*
X263850Y414750D01*
Y413250D01*
X263100Y412500D02*X263850Y413250D01*
X261600Y412500D02*X263100D01*
X260850Y413250D02*X261600Y412500D01*
X266400Y418500D02*Y413250D01*
X267150Y412500D01*
X265650Y416250D02*X267150D01*
X270900Y415500D02*X271650Y414750D01*
X269400Y415500D02*X270900D01*
X268650Y414750D02*X269400Y415500D01*
X268650Y414750D02*Y413250D01*
X269400Y412500D01*
X271650Y415500D02*Y413250D01*
X272400Y412500D01*
X269400D02*X270900D01*
X271650Y413250D01*
X274200Y418500D02*Y413250D01*
X274950Y412500D01*
G54D192*X15006Y311494D02*Y9994D01*
X416006D01*
Y311494D01*
X15006D01*
G54D190*X128675Y-9500D02*X131675D01*
X132425Y-8750D01*
Y-6950D02*Y-8750D01*
X131675Y-6200D02*X132425Y-6950D01*
X129425Y-6200D02*X131675D01*
X129425Y-3500D02*Y-9500D01*
X128675Y-3500D02*X131675D01*
X132425Y-4250D01*
Y-5450D01*
X131675Y-6200D02*X132425Y-5450D01*
X134225Y-7250D02*Y-8750D01*
Y-7250D02*X134975Y-6500D01*
X136475D01*
X137225Y-7250D01*
Y-8750D01*
X136475Y-9500D02*X137225Y-8750D01*
X134975Y-9500D02*X136475D01*
X134225Y-8750D02*X134975Y-9500D01*
X141275Y-6500D02*X142025Y-7250D01*
X139775Y-6500D02*X141275D01*
X139025Y-7250D02*X139775Y-6500D01*
X139025Y-7250D02*Y-8750D01*
X139775Y-9500D01*
X142025Y-6500D02*Y-8750D01*
X142775Y-9500D01*
X139775D02*X141275D01*
X142025Y-8750D01*
X145325Y-7250D02*Y-9500D01*
Y-7250D02*X146075Y-6500D01*
X147575D01*
X144575D02*X145325Y-7250D01*
X152375Y-3500D02*Y-9500D01*
X151625D02*X152375Y-8750D01*
X150125Y-9500D02*X151625D01*
X149375Y-8750D02*X150125Y-9500D01*
X149375Y-7250D02*Y-8750D01*
Y-7250D02*X150125Y-6500D01*
X151625D01*
X152375Y-7250D01*
X156875D02*Y-8750D01*
Y-7250D02*X157625Y-6500D01*
X159125D01*
X159875Y-7250D01*
Y-8750D01*
X159125Y-9500D02*X159875Y-8750D01*
X157625Y-9500D02*X159125D01*
X156875Y-8750D02*X157625Y-9500D01*
X161675Y-6500D02*Y-8750D01*
X162425Y-9500D01*
X163925D01*
X164675Y-8750D01*
Y-6500D02*Y-8750D01*
X167225Y-3500D02*Y-8750D01*
X167975Y-9500D01*
X166475Y-5750D02*X167975D01*
X169475Y-3500D02*Y-8750D01*
X170225Y-9500D01*
G54D191*X171725Y-5000D02*Y-5150D01*
G54D190*Y-7250D02*Y-9500D01*
X173975Y-7250D02*Y-9500D01*
Y-7250D02*X174725Y-6500D01*
X175475D01*
X176225Y-7250D01*
Y-9500D01*
X173225Y-6500D02*X173975Y-7250D01*
X178775Y-9500D02*X181025D01*
X178025Y-8750D02*X178775Y-9500D01*
X178025Y-7250D02*Y-8750D01*
Y-7250D02*X178775Y-6500D01*
X180275D01*
X181025Y-7250D01*
X178025Y-8000D02*X181025D01*
Y-7250D02*Y-8000D01*
G54D191*X185525Y-5000D02*Y-5150D01*
G54D190*Y-7250D02*Y-9500D01*
X187775D02*X190025D01*
X190775Y-8750D01*
X190025Y-8000D02*X190775Y-8750D01*
X187775Y-8000D02*X190025D01*
X187025Y-7250D02*X187775Y-8000D01*
X187025Y-7250D02*X187775Y-6500D01*
X190025D01*
X190775Y-7250D01*
X187025Y-8750D02*X187775Y-9500D01*
X196025Y-3500D02*Y-8750D01*
X196775Y-9500D01*
X195275Y-5750D02*X196775D01*
X198275Y-3500D02*Y-9500D01*
Y-7250D02*X199025Y-6500D01*
X200525D01*
X201275Y-7250D01*
Y-9500D01*
X203825D02*X206075D01*
X203075Y-8750D02*X203825Y-9500D01*
X203075Y-7250D02*Y-8750D01*
Y-7250D02*X203825Y-6500D01*
X205325D01*
X206075Y-7250D01*
X203075Y-8000D02*X206075D01*
Y-7250D02*Y-8000D01*
X211325Y-6500D02*X213575D01*
X210575Y-7250D02*X211325Y-6500D01*
X210575Y-7250D02*Y-8750D01*
X211325Y-9500D01*
X213575D01*
X216125D02*X218375D01*
X215375Y-8750D02*X216125Y-9500D01*
X215375Y-7250D02*Y-8750D01*
Y-7250D02*X216125Y-6500D01*
X217625D01*
X218375Y-7250D01*
X215375Y-8000D02*X218375D01*
Y-7250D02*Y-8000D01*
X220925Y-7250D02*Y-9500D01*
Y-7250D02*X221675Y-6500D01*
X222425D01*
X223175Y-7250D01*
Y-9500D01*
X220175Y-6500D02*X220925Y-7250D01*
X225725Y-3500D02*Y-8750D01*
X226475Y-9500D01*
X224975Y-5750D02*X226475D01*
X228725Y-9500D02*X230975D01*
X227975Y-8750D02*X228725Y-9500D01*
X227975Y-7250D02*Y-8750D01*
Y-7250D02*X228725Y-6500D01*
X230225D01*
X230975Y-7250D01*
X227975Y-8000D02*X230975D01*
Y-7250D02*Y-8000D01*
X233525Y-7250D02*Y-9500D01*
Y-7250D02*X234275Y-6500D01*
X235775D01*
X232775D02*X233525Y-7250D01*
X237575Y-3500D02*Y-8750D01*
X238325Y-9500D01*
G54D191*X239825Y-5000D02*Y-5150D01*
G54D190*Y-7250D02*Y-9500D01*
X242075Y-7250D02*Y-9500D01*
Y-7250D02*X242825Y-6500D01*
X243575D01*
X244325Y-7250D01*
Y-9500D01*
X241325Y-6500D02*X242075Y-7250D01*
X246875Y-9500D02*X249125D01*
X246125Y-8750D02*X246875Y-9500D01*
X246125Y-7250D02*Y-8750D01*
Y-7250D02*X246875Y-6500D01*
X248375D01*
X249125Y-7250D01*
X246125Y-8000D02*X249125D01*
Y-7250D02*Y-8000D01*
X253625Y-7250D02*Y-8750D01*
Y-7250D02*X254375Y-6500D01*
X255875D01*
X256625Y-7250D01*
Y-8750D01*
X255875Y-9500D02*X256625Y-8750D01*
X254375Y-9500D02*X255875D01*
X253625Y-8750D02*X254375Y-9500D01*
X259175Y-4250D02*Y-9500D01*
Y-4250D02*X259925Y-3500D01*
X260675D01*
X258425Y-6500D02*X259925D01*
X265625Y-3500D02*Y-8750D01*
X266375Y-9500D01*
X264875Y-5750D02*X266375D01*
X267875Y-3500D02*Y-9500D01*
Y-7250D02*X268625Y-6500D01*
X270125D01*
X270875Y-7250D01*
Y-9500D01*
G54D191*X272675Y-5000D02*Y-5150D01*
G54D190*Y-7250D02*Y-9500D01*
X274925D02*X277175D01*
X277925Y-8750D01*
X277175Y-8000D02*X277925Y-8750D01*
X274925Y-8000D02*X277175D01*
X274175Y-7250D02*X274925Y-8000D01*
X274175Y-7250D02*X274925Y-6500D01*
X277175D01*
X277925Y-7250D01*
X274175Y-8750D02*X274925Y-9500D01*
X283175Y-7250D02*Y-11750D01*
X282425Y-6500D02*X283175Y-7250D01*
X283925Y-6500D01*
X285425D01*
X286175Y-7250D01*
Y-8750D01*
X285425Y-9500D02*X286175Y-8750D01*
X283925Y-9500D02*X285425D01*
X283175Y-8750D02*X283925Y-9500D01*
X290225Y-6500D02*X290975Y-7250D01*
X288725Y-6500D02*X290225D01*
X287975Y-7250D02*X288725Y-6500D01*
X287975Y-7250D02*Y-8750D01*
X288725Y-9500D01*
X290975Y-6500D02*Y-8750D01*
X291725Y-9500D01*
X288725D02*X290225D01*
X290975Y-8750D01*
X294275Y-3500D02*Y-8750D01*
X295025Y-9500D01*
X293525Y-5750D02*X295025D01*
X296525Y-3500D02*Y-9500D01*
Y-7250D02*X297275Y-6500D01*
X298775D01*
X299525Y-7250D01*
Y-9500D01*
X200750Y358500D02*Y352500D01*
X202700Y358500D02*X203750Y357450D01*
Y353550D01*
X202700Y352500D02*X203750Y353550D01*
X200000Y352500D02*X202700D01*
X200000Y358500D02*X202700D01*
X207800Y355500D02*X208550Y354750D01*
X206300Y355500D02*X207800D01*
X205550Y354750D02*X206300Y355500D01*
X205550Y354750D02*Y353250D01*
X206300Y352500D01*
X208550Y355500D02*Y353250D01*
X209300Y352500D01*
X206300D02*X207800D01*
X208550Y353250D01*
X211850Y358500D02*Y353250D01*
X212600Y352500D01*
X211100Y356250D02*X212600D01*
X214850Y352500D02*X217100D01*
X214100Y353250D02*X214850Y352500D01*
X214100Y354750D02*Y353250D01*
Y354750D02*X214850Y355500D01*
X216350D01*
X217100Y354750D01*
X214100Y354000D02*X217100D01*
Y354750D02*Y354000D01*
X218900Y356250D02*X219650D01*
X218900Y354750D02*X219650D01*
X224150Y358500D02*X227150D01*
X225650D02*Y352500D01*
X228950Y358500D02*Y352500D01*
Y354750D02*X229700Y355500D01*
X231200D01*
X231950Y354750D01*
Y352500D01*
X233750Y355500D02*Y353250D01*
X234500Y352500D01*
X236000D01*
X236750Y353250D01*
Y355500D02*Y353250D01*
X241250D02*X242000Y352500D01*
X241250Y357750D02*Y353250D01*
Y357750D02*X242000Y358500D01*
X243500D01*
X244250Y357750D01*
Y353250D01*
X243500Y352500D02*X244250Y353250D01*
X242000Y352500D02*X243500D01*
X241250Y354000D02*X244250Y357000D01*
X246050Y357750D02*X246800Y358500D01*
X249050D01*
X249800Y357750D01*
Y356250D01*
X246050Y352500D02*X249800Y356250D01*
X246050Y352500D02*X249800D01*
X254300Y357000D02*Y352500D01*
Y357000D02*X255350Y358500D01*
X257000D01*
X258050Y357000D01*
Y352500D01*
X254300Y355500D02*X258050D01*
X260600Y354750D02*Y350250D01*
X259850Y355500D02*X260600Y354750D01*
X261350Y355500D01*
X262850D01*
X263600Y354750D01*
Y353250D01*
X262850Y352500D02*X263600Y353250D01*
X261350Y352500D02*X262850D01*
X260600Y353250D02*X261350Y352500D01*
X266150Y354750D02*Y352500D01*
Y354750D02*X266900Y355500D01*
X268400D01*
X265400D02*X266150Y354750D01*
X272900Y357750D02*X273650Y358500D01*
X275900D01*
X276650Y357750D01*
Y356250D01*
X272900Y352500D02*X276650Y356250D01*
X272900Y352500D02*X276650D01*
X278450Y353250D02*X279200Y352500D01*
X278450Y357750D02*Y353250D01*
Y357750D02*X279200Y358500D01*
X280700D01*
X281450Y357750D01*
Y353250D01*
X280700Y352500D02*X281450Y353250D01*
X279200Y352500D02*X280700D01*
X278450Y354000D02*X281450Y357000D01*
X283250Y357750D02*X284000Y358500D01*
X286250D01*
X287000Y357750D01*
Y356250D01*
X283250Y352500D02*X287000Y356250D01*
X283250Y352500D02*X287000D01*
X288800Y353250D02*X289550Y352500D01*
X288800Y357750D02*Y353250D01*
Y357750D02*X289550Y358500D01*
X291050D01*
X291800Y357750D01*
Y353250D01*
X291050Y352500D02*X291800Y353250D01*
X289550Y352500D02*X291050D01*
X288800Y354000D02*X291800Y357000D01*
X296300Y353250D02*X297050Y352500D01*
X296300Y357750D02*Y353250D01*
Y357750D02*X297050Y358500D01*
X298550D01*
X299300Y357750D01*
Y353250D01*
X298550Y352500D02*X299300Y353250D01*
X297050Y352500D02*X298550D01*
X296300Y354000D02*X299300Y357000D01*
X301100Y353250D02*X301850Y352500D01*
X301100Y354450D02*Y353250D01*
Y354450D02*X302150Y355500D01*
X303050D01*
X304100Y354450D01*
Y353250D01*
X303350Y352500D02*X304100Y353250D01*
X301850Y352500D02*X303350D01*
X301100Y356550D02*X302150Y355500D01*
X301100Y357750D02*Y356550D01*
Y357750D02*X301850Y358500D01*
X303350D01*
X304100Y357750D01*
Y356550D01*
X303050Y355500D02*X304100Y356550D01*
X305900Y356250D02*X306650D01*
X305900Y354750D02*X306650D01*
X308450Y357750D02*X309200Y358500D01*
X310700D01*
X311450Y357750D01*
X310700Y352500D02*X311450Y353250D01*
X309200Y352500D02*X310700D01*
X308450Y353250D02*X309200Y352500D01*
Y355800D02*X310700D01*
X311450Y357750D02*Y356550D01*
Y355050D02*Y353250D01*
Y355050D02*X310700Y355800D01*
X311450Y356550D02*X310700Y355800D01*
X313250Y357300D02*X314450Y358500D01*
Y352500D01*
X313250D02*X315500D01*
X317300Y356250D02*X318050D01*
X317300Y354750D02*X318050D01*
X319850Y358500D02*X322850D01*
X319850D02*Y355500D01*
X320600Y356250D01*
X322100D01*
X322850Y355500D01*
Y353250D01*
X322100Y352500D02*X322850Y353250D01*
X320600Y352500D02*X322100D01*
X319850Y353250D02*X320600Y352500D01*
X324650Y354750D02*X327650Y358500D01*
X324650Y354750D02*X328400D01*
X327650Y358500D02*Y352500D01*
X333650Y358500D02*Y352500D01*
X332900Y358500D02*X335900D01*
X336650Y357750D01*
Y356250D01*
X335900Y355500D02*X336650Y356250D01*
X333650Y355500D02*X335900D01*
X338450Y358500D02*Y352500D01*
Y358500D02*X340700Y355500D01*
X342950Y358500D01*
Y352500D01*
X350450Y358500D02*X351200Y357750D01*
X348200Y358500D02*X350450D01*
X347450Y357750D02*X348200Y358500D01*
X347450Y357750D02*Y353250D01*
X348200Y352500D01*
X350450D01*
X351200Y353250D01*
Y354750D02*Y353250D01*
X350450Y355500D02*X351200Y354750D01*
X348950Y355500D02*X350450D01*
X353000Y358500D02*Y352500D01*
Y358500D02*X355250Y355500D01*
X357500Y358500D01*
Y352500D01*
X359300Y358500D02*X362300D01*
X360800D02*Y352500D01*
X366800Y358500D02*Y353250D01*
X367550Y352500D01*
X369050D01*
X369800Y353250D01*
Y358500D02*Y353250D01*
X371600Y358500D02*X374600D01*
X373100D02*Y352500D01*
X377450D02*X379400D01*
X376400Y353550D02*X377450Y352500D01*
X376400Y357450D02*Y353550D01*
Y357450D02*X377450Y358500D01*
X379400D01*
X200000Y372000D02*Y367500D01*
Y372000D02*X201050Y373500D01*
X202700D01*
X203750Y372000D01*
Y367500D01*
X200000Y370500D02*X203750D01*
X205550D02*Y368250D01*
X206300Y367500D01*
X207800D01*
X208550Y368250D01*
Y370500D02*Y368250D01*
X211100Y373500D02*Y368250D01*
X211850Y367500D01*
X210350Y371250D02*X211850D01*
X213350Y373500D02*Y367500D01*
Y369750D02*X214100Y370500D01*
X215600D01*
X216350Y369750D01*
Y367500D01*
X218150Y369750D02*Y368250D01*
Y369750D02*X218900Y370500D01*
X220400D01*
X221150Y369750D01*
Y368250D01*
X220400Y367500D02*X221150Y368250D01*
X218900Y367500D02*X220400D01*
X218150Y368250D02*X218900Y367500D01*
X223700Y369750D02*Y367500D01*
Y369750D02*X224450Y370500D01*
X225950D01*
X222950D02*X223700Y369750D01*
X227750Y371250D02*X228500D01*
X227750Y369750D02*X228500D01*
X200000Y388500D02*X203000D01*
X201500D02*Y382500D01*
G54D191*X204800Y387000D02*Y386850D01*
G54D190*Y384750D02*Y382500D01*
X207050Y388500D02*Y383250D01*
X207800Y382500D01*
X206300Y386250D02*X207800D01*
X209300Y388500D02*Y383250D01*
X210050Y382500D01*
X212300D02*X214550D01*
X211550Y383250D02*X212300Y382500D01*
X211550Y384750D02*Y383250D01*
Y384750D02*X212300Y385500D01*
X213800D01*
X214550Y384750D01*
X211550Y384000D02*X214550D01*
Y384750D02*Y384000D01*
X216350Y386250D02*X217100D01*
X216350Y384750D02*X217100D01*
X221600Y383250D02*X222350Y382500D01*
X221600Y387750D02*X222350Y388500D01*
X221600Y387750D02*Y383250D01*
X224150Y385500D02*Y383250D01*
X224900Y382500D01*
X226400D01*
X227150Y383250D01*
Y385500D02*Y383250D01*
X229700Y384750D02*Y382500D01*
Y384750D02*X230450Y385500D01*
X231200D01*
X231950Y384750D01*
Y382500D01*
X228950Y385500D02*X229700Y384750D01*
X233750Y388500D02*Y382500D01*
Y384750D02*X236000Y382500D01*
X233750Y384750D02*X235250Y386250D01*
X238550Y384750D02*Y382500D01*
Y384750D02*X239300Y385500D01*
X240050D01*
X240800Y384750D01*
Y382500D01*
X237800Y385500D02*X238550Y384750D01*
X242600D02*Y383250D01*
Y384750D02*X243350Y385500D01*
X244850D01*
X245600Y384750D01*
Y383250D01*
X244850Y382500D02*X245600Y383250D01*
X243350Y382500D02*X244850D01*
X242600Y383250D02*X243350Y382500D01*
X247400Y385500D02*Y383250D01*
X248150Y382500D01*
X248900D01*
X249650Y383250D01*
Y385500D02*Y383250D01*
X250400Y382500D01*
X251150D01*
X251900Y383250D01*
Y385500D02*Y383250D01*
X254450Y384750D02*Y382500D01*
Y384750D02*X255200Y385500D01*
X255950D01*
X256700Y384750D01*
Y382500D01*
X253700Y385500D02*X254450Y384750D01*
X258500Y388500D02*X259250Y387750D01*
Y383250D01*
X258500Y382500D02*X259250Y383250D01*
X263750Y385500D02*X266750D01*
X271250Y388500D02*Y382500D01*
Y388500D02*X274250D01*
X271250Y385800D02*X273500D01*
X278300Y385500D02*X279050Y384750D01*
X276800Y385500D02*X278300D01*
X276050Y384750D02*X276800Y385500D01*
X276050Y384750D02*Y383250D01*
X276800Y382500D01*
X279050Y385500D02*Y383250D01*
X279800Y382500D01*
X276800D02*X278300D01*
X279050Y383250D01*
X281600Y388500D02*Y382500D01*
Y383250D02*X282350Y382500D01*
X283850D01*
X284600Y383250D01*
Y384750D02*Y383250D01*
X283850Y385500D02*X284600Y384750D01*
X282350Y385500D02*X283850D01*
X281600Y384750D02*X282350Y385500D01*
X287150Y384750D02*Y382500D01*
Y384750D02*X287900Y385500D01*
X289400D01*
X286400D02*X287150Y384750D01*
G54D191*X291200Y387000D02*Y386850D01*
G54D190*Y384750D02*Y382500D01*
X293450Y385500D02*X295700D01*
X292700Y384750D02*X293450Y385500D01*
X292700Y384750D02*Y383250D01*
X293450Y382500D01*
X295700D01*
X299750Y385500D02*X300500Y384750D01*
X298250Y385500D02*X299750D01*
X297500Y384750D02*X298250Y385500D01*
X297500Y384750D02*Y383250D01*
X298250Y382500D01*
X300500Y385500D02*Y383250D01*
X301250Y382500D01*
X298250D02*X299750D01*
X300500Y383250D01*
X303800Y388500D02*Y383250D01*
X304550Y382500D01*
X303050Y386250D02*X304550D01*
G54D191*X306050Y387000D02*Y386850D01*
G54D190*Y384750D02*Y382500D01*
X307550Y384750D02*Y383250D01*
Y384750D02*X308300Y385500D01*
X309800D01*
X310550Y384750D01*
Y383250D01*
X309800Y382500D02*X310550Y383250D01*
X308300Y382500D02*X309800D01*
X307550Y383250D02*X308300Y382500D01*
X313100Y384750D02*Y382500D01*
Y384750D02*X313850Y385500D01*
X314600D01*
X315350Y384750D01*
Y382500D01*
X312350Y385500D02*X313100Y384750D01*
X320600Y388500D02*Y382500D01*
X322550Y388500D02*X323600Y387450D01*
Y383550D01*
X322550Y382500D02*X323600Y383550D01*
X319850Y382500D02*X322550D01*
X319850Y388500D02*X322550D01*
X326150Y384750D02*Y382500D01*
Y384750D02*X326900Y385500D01*
X328400D01*
X325400D02*X326150Y384750D01*
X332450Y385500D02*X333200Y384750D01*
X330950Y385500D02*X332450D01*
X330200Y384750D02*X330950Y385500D01*
X330200Y384750D02*Y383250D01*
X330950Y382500D01*
X333200Y385500D02*Y383250D01*
X333950Y382500D01*
X330950D02*X332450D01*
X333200Y383250D01*
X335750Y385500D02*Y383250D01*
X336500Y382500D01*
X337250D01*
X338000Y383250D01*
Y385500D02*Y383250D01*
X338750Y382500D01*
X339500D01*
X340250Y383250D01*
Y385500D02*Y383250D01*
G54D191*X342050Y387000D02*Y386850D01*
G54D190*Y384750D02*Y382500D01*
X344300Y384750D02*Y382500D01*
Y384750D02*X345050Y385500D01*
X345800D01*
X346550Y384750D01*
Y382500D01*
X343550Y385500D02*X344300Y384750D01*
X350600Y385500D02*X351350Y384750D01*
X349100Y385500D02*X350600D01*
X348350Y384750D02*X349100Y385500D01*
X348350Y384750D02*Y383250D01*
X349100Y382500D01*
X350600D01*
X351350Y383250D01*
X348350Y381000D02*X349100Y380250D01*
X350600D01*
X351350Y381000D01*
Y385500D02*Y381000D01*
M02*
